<svg width="512" height="512" viewBox="0 0 512 512" fill="none" xmlns="http://www.w3.org/2000/svg">
<g clip-path="url(#clip0_12_248)">
<path d="M359 243C359 274.623 330.167 316.5 315 333.5L243.5 349.5C158 306.5 157.5 252.5 156.5 241C155.523 229.762 156.5 146.5 247.5 136.5C338.5 126.5 359 208 359 243Z" fill="#7ACEE7"/>
<path d="M199 512.5C203.8 478.1 227.333 387.833 238.5 347L312.5 334C308.5 374 311.833 469.667 314 512.5H199Z" fill="#7ACEE7"/>
<path d="M238.5 347L234 364C206.4 380 159.332 415.333 139.249 431C156.03 444.603 186.836 467.343 205 480.5L199 512H186C166.333 491.5 125 448.6 117 441C107 431.5 108.5 417.5 117 416C123.8 414.8 193.5 365.5 227.5 341L238.5 347Z" fill="#7ACEE7"/>
<path d="M312.5 334L311 356C350.667 389 431 455.7 435 458.5C440 462 452.5 459.5 452 448C451.6 438.8 460.833 345.167 465.5 299.5C477.9 289.1 477 276.833 475 272C484.5 265 485.5 257 483 250C480.5 243 472.5 234 450 238C427.5 242 433 246 427 247.5C422.2 248.7 421.667 236.667 422 230.5C425.6 208.9 418.167 205.167 414 206C397.6 213.2 408.833 247.667 416.5 264C414.1 265.6 413.167 270 413 272C411.8 280 419.833 289.667 424 293.5C426.8 317.5 427.833 391.261 428 425.142C411.727 418.59 346.65 361.714 315.5 333.5L312.5 334Z" fill="#7ACEE7"/>
<path d="M312.5 334L311.5 350" stroke="#7ACEE7" stroke-linecap="round"/>
<path d="M235.5 359.5C221 410.5 195 513.5 199 517.5" stroke="black" stroke-linecap="round"/>
<path d="M311 356C310.5 406.167 312 510 315 514.5" stroke="black" stroke-linecap="round"/>
<path d="M311 356L435 458.5C439.167 460.833 448.4 462.3 452 449.5C456.167 399.333 464.6 299.1 465 299.5C465.5 300 481.5 284.5 475 272C483.167 265.333 493.6 249.3 470 238.5C464.167 236.833 448.4 235.6 432 244C430.833 245 428.1 247.1 426.5 247.5C424.5 248 419.5 243.5 423 218C423 213.333 421.2 204.4 414 206C405 208 399.5 227.5 416.5 264C412.167 267.5 407.6 278.3 424 293.5C426.167 337.333 429.6 425 428 425C426 425 386.5 397.5 378 388.5C369.5 379.5 318 336.5 315 333.5" stroke="black" stroke-linecap="round"/>
<path d="M234.5 363.5C207.333 381.333 150.3 419.8 139.5 431M139.5 431C161 447.833 204.1 481.3 204.5 480.5M139.5 431L127 419.5" stroke="black" stroke-linecap="round"/>
<path d="M227.5 341C192.167 366.167 120.8 416.4 118 416C114.5 415.5 100 427 120 444C140 461 183.5 511.5 186 512C188 512.4 272.5 512.167 314.5 512" stroke="black" stroke-linecap="round"/>
<path d="M239.5 347.5C234.3 345.1 229.333 342.167 227.5 341C211.5 332.667 176.1 306.9 162.5 270.5C145.5 225 170 178 182.5 166.5C195.032 154.97 212 140.5 240 137.5C272.065 134.064 282.959 134.499 310 147.5C336 160 350 191.5 354.5 210C359 228.5 360.5 239 356 262.5C351.5 286 318.5 330.5 315 333C314.833 333.167 313.8 333.8 311 335" stroke="black" stroke-linecap="round"/>
<path d="M416.5 264C422.167 257.833 437.5 246.5 450.5 256C451.768 257.691 452.821 263.025 442.73 268.5M436 271.5C438.662 270.51 440.883 269.502 442.73 268.5M475 272C466.654 273.5 448.514 274.9 442.73 268.5" stroke="black" stroke-linecap="round"/>
<ellipse cx="223.5" cy="220" rx="8.5" ry="9" fill="black"/>
<ellipse cx="254.5" cy="217" rx="8.5" ry="9" fill="black"/>
<ellipse cx="224" cy="219.5" rx="3" ry="3.5" fill="white"/>
<ellipse cx="254" cy="214.5" rx="3" ry="3.5" fill="white"/>
<path d="M272.382 248.604C265.973 254.049 265.018 257.824 250.529 261.707C245.731 262.475 234.491 262.898 227.915 258.449C221.339 253.999 213.963 253.387 211.097 253.638C195.737 256.2 190.054 271.699 195.963 284.092C201.872 296.485 210.411 299.373 224.874 301.192C239.338 303.011 244.521 301.104 265.547 296.505C282.368 292.826 294.749 287.645 298.837 285.515C325.062 265.547 319.482 258.242 318.636 251.222C317.79 244.202 309.466 232.456 295.331 235.726C281.196 238.996 280.394 241.799 272.382 248.604Z" fill="#A0212E" stroke="black"/>
<path d="M272.226 289.976C277.214 294.023 281.183 291.282 280.5 292.5L291.5 288.5L302.5 282.5C299.685 281.011 291.207 277.022 286.336 275.843C280.247 274.369 261.153 278.45 261.834 282.926C262.516 287.402 265.992 284.918 272.226 289.976Z" fill="#F0ABE9" stroke="black"/>
<mask id="mask0_12_248" style="mask-type:alpha" maskUnits="userSpaceOnUse" x="193" y="234" width="128" height="69">
<path d="M272.382 248.604C265.973 254.049 265.018 257.824 250.529 261.707C245.731 262.475 234.491 262.898 227.915 258.449C221.339 253.999 213.963 253.387 211.097 253.638C195.737 256.2 190.054 271.699 195.963 284.092C201.872 296.485 210.411 299.373 224.874 301.192C239.338 303.011 244.521 301.104 265.547 296.505C282.368 292.826 294.749 287.645 298.837 285.515C325.062 265.547 319.482 258.242 318.636 251.222C317.79 244.202 309.466 232.456 295.331 235.726C281.196 238.996 280.394 241.799 272.382 248.604Z" fill="#AF1D27" stroke="black"/>
</mask>
<g mask="url(#mask0_12_248)">
<path d="M266.728 287.389C268.256 286.98 269.935 287.499 271.433 288.783C272.928 290.066 274.197 292.08 274.853 294.53C275.509 296.979 275.418 299.358 274.764 301.216C274.109 303.077 272.915 304.366 271.387 304.776C269.859 305.185 268.179 304.666 266.682 303.382C265.187 302.099 263.918 300.085 263.262 297.635C262.606 295.186 262.697 292.807 263.351 290.949C264.005 289.088 265.2 287.799 266.728 287.389Z" fill="white" stroke="black"/>
<path d="M283.183 285.05C284.29 284.754 285.558 285.185 286.734 286.282C287.904 287.373 288.92 289.072 289.471 291.13C290.023 293.188 289.993 295.168 289.525 296.698C289.055 298.235 288.173 299.243 287.066 299.539C285.959 299.836 284.691 299.405 283.515 298.308C282.345 297.217 281.329 295.517 280.778 293.46C280.226 291.402 280.256 289.422 280.724 287.892C281.194 286.355 282.076 285.347 283.183 285.05Z" fill="white" stroke="black"/>
<path d="M295.24 279.787C296.571 279.167 298.144 279.305 299.638 280.102C301.131 280.898 302.514 282.341 303.406 284.255C304.298 286.168 304.515 288.155 304.165 289.811C303.815 291.467 302.91 292.761 301.579 293.382C300.249 294.002 298.676 293.863 297.183 293.067C295.689 292.27 294.306 290.828 293.414 288.914C292.521 287.001 292.305 285.014 292.655 283.358C293.005 281.702 293.91 280.408 295.24 279.787Z" fill="white" stroke="black"/>
<path d="M252.448 292.7C253.576 292.501 254.802 293.041 255.878 294.236C256.948 295.425 257.812 297.207 258.182 299.305C258.552 301.403 258.35 303.372 257.75 304.855C257.148 306.346 256.181 307.273 255.052 307.472C253.924 307.671 252.698 307.131 251.622 305.936C250.552 304.747 249.688 302.965 249.318 300.867C248.949 298.769 249.15 296.8 249.75 295.317C250.352 293.826 251.319 292.899 252.448 292.7Z" fill="white" stroke="black"/>
<path d="M238.368 295.275C239.561 295.275 240.676 295.903 241.507 296.984C242.339 298.066 242.868 299.581 242.868 301.275C242.868 302.969 242.339 304.485 241.507 305.566C240.676 306.647 239.561 307.275 238.368 307.275C237.174 307.275 236.059 306.647 235.228 305.566C234.396 304.485 233.868 302.969 233.868 301.275C233.868 299.581 234.396 298.066 235.228 296.984C236.059 295.903 237.174 295.275 238.368 295.275Z" fill="white" stroke="black"/>
<path d="M222.873 293.633C224.262 293.682 225.551 294.571 226.493 296.093C227.432 297.612 227.989 299.714 227.908 302.036C227.827 304.358 227.125 306.415 226.082 307.865C225.036 309.318 223.688 310.115 222.299 310.067C220.911 310.018 219.623 309.129 218.681 307.607C217.741 306.088 217.184 303.986 217.265 301.664C217.346 299.342 218.049 297.285 219.092 295.835C220.138 294.382 221.485 293.585 222.873 293.633Z" fill="white" stroke="black"/>
<path d="M252.063 251.978C253.591 251.569 255.271 252.088 256.768 253.372C258.263 254.655 259.532 256.669 260.188 259.118C260.844 261.568 260.753 263.947 260.099 265.805C259.445 267.666 258.25 268.955 256.722 269.365C255.194 269.774 253.515 269.255 252.017 267.97C250.522 266.688 249.253 264.674 248.597 262.224C247.941 259.775 248.032 257.396 248.686 255.538C249.341 253.677 250.535 252.387 252.063 251.978Z" fill="white" stroke="black"/>
<path d="M237.895 252.173C239.273 251.93 240.791 252.675 242.136 254.292C243.47 255.896 244.556 258.28 245.048 261.066C245.539 263.851 245.333 266.463 244.628 268.427C243.918 270.406 242.746 271.626 241.368 271.869C239.989 272.112 238.471 271.367 237.127 269.75C235.793 268.146 234.706 265.762 234.215 262.976C233.724 260.19 233.929 257.578 234.634 255.615C235.345 253.635 236.516 252.416 237.895 252.173Z" fill="white" stroke="black"/>
<path d="M227.345 247.651C229.004 247.825 230.463 249.021 231.45 250.946C232.434 252.868 232.912 255.459 232.617 258.26C232.323 261.061 231.317 263.496 229.955 265.171C228.589 266.85 226.913 267.715 225.254 267.541C223.595 267.367 222.136 266.171 221.15 264.245C220.165 262.324 219.687 259.733 219.982 256.932C220.276 254.131 221.282 251.696 222.645 250.021C224.01 248.342 225.686 247.476 227.345 247.651Z" fill="white" stroke="black"/>
<path d="M210.5 244.515C212.058 244.241 213.686 244.905 215.065 246.314C216.443 247.722 217.531 249.84 217.972 252.337C218.412 254.834 218.113 257.196 217.3 258.99C216.486 260.787 215.183 261.967 213.626 262.242C212.068 262.517 210.44 261.853 209.06 260.443C207.682 259.035 206.594 256.918 206.154 254.421C205.714 251.923 206.012 249.562 206.825 247.767C207.64 245.971 208.942 244.79 210.5 244.515Z" fill="white" stroke="black"/>
<path d="M265.741 243.137C267.407 242.69 269.223 243.237 270.829 244.585C272.433 245.931 273.787 248.05 274.478 250.631C275.17 253.211 275.057 255.723 274.341 257.691C273.624 259.661 272.325 261.043 270.659 261.489C268.992 261.936 267.176 261.389 265.57 260.041C263.966 258.695 262.613 256.576 261.921 253.995C261.23 251.415 261.343 248.903 262.059 246.935C262.775 244.965 264.075 243.583 265.741 243.137Z" fill="white" stroke="black"/>
<path d="M280.35 231.975C282.016 231.529 283.833 232.076 285.438 233.424C287.042 234.77 288.396 236.889 289.087 239.469C289.779 242.05 289.666 244.561 288.95 246.53C288.233 248.5 286.934 249.881 285.268 250.328C283.601 250.774 281.785 250.227 280.179 248.88C278.575 247.533 277.222 245.414 276.53 242.834C275.839 240.254 275.952 237.742 276.668 235.774C277.384 233.804 278.684 232.422 280.35 231.975Z" fill="white" stroke="black"/>
</g>
<path d="M272.382 248.604C265.973 254.049 265.018 257.824 250.529 261.707C245.731 262.475 234.491 262.898 227.915 258.449C221.339 253.999 213.963 253.387 211.097 253.638C195.737 256.2 190.054 271.699 195.963 284.092C201.872 296.485 210.411 299.373 224.874 301.192C239.338 303.011 244.521 301.104 265.547 296.505C282.368 292.826 294.749 287.645 298.837 285.515C325.062 265.547 319.482 258.242 318.636 251.222C317.79 244.202 309.466 232.456 295.331 235.726C281.196 238.996 280.394 241.799 272.382 248.604Z" stroke="black"/>
<path d="M242 312.5C245.833 321.5 259.5 335.5 283.5 319.5" stroke="black" stroke-linecap="round"/>
<path d="M313 222C319.477 224.923 332.212 232.288 333 244.5C333.984 259.765 332.074 270.777 317.5 284" stroke="black" stroke-linecap="round"/>
<path d="M216.135 244.244C216.135 244.244 214.035 241.444 203.635 244.244C190.635 247.744 188.135 269.237 188.135 272.737C188.135 278.237 183.635 299.737 226.635 308.237" stroke="black" stroke-linecap="round"/>
<path d="M209 182C210 181 214.3 178.6 223.5 177" stroke="black" stroke-linecap="round"/>
<path d="M249 168C250.333 168 254.4 169.2 260 174" stroke="black" stroke-linecap="round"/>
</g>
<defs>
<clipPath id="clip0_12_248">
<rect width="512" height="512" fill="white"/>
</clipPath>
</defs>
</svg>
