<svg width="512" height="512" viewBox="0 0 512 512" fill="none" xmlns="http://www.w3.org/2000/svg">
<g clip-path="url(#clip0_66_887)">
<g opacity="0.17">
<path d="M187.5 443C182.5 467.5 178 512 178 512H282C283.5 506.167 283.4 484.2 271 443C258.6 401.8 265.167 378.833 270 372.5C287.833 366.667 329 353.3 351 346.5C378.5 338 384.5 336.5 396.5 332.5C408.5 328.5 407.5 325 437 291C466.5 257 478 245 483.5 226.5C489 208 477 202 472.5 202C469.5 202 450 207 448 230C447 236.5 449.6 211.3 444 212.5C437 214 441.5 233 441 244C440.5 255 413.5 295 401 306.5C388.5 318 374.7 322.9 345.5 332.5C309 344.5 327 341.5 284.5 349C250.5 355 221.333 349.167 211 345.5C211.333 347.333 211.2 353 208 361C178.667 354.5 116.4 339.1 102 329.5C84 317.5 65 244.5 67 220C69 195.5 76.8 182.6 70 185C61.5 188 63.5 202 63.5 203.5C63.5 205 62 170.5 43 171.5C24 172.5 27 194.5 27.5 200C28 205.5 42.5 263.5 60.5 300C78.5 336.5 80.5 335.5 89 340.5C92.7137 342.685 104.939 350.501 131 358.5C152.658 365.148 187.275 371.81 203.278 376.5C201.565 382.374 199.208 390.667 197.5 397.5C194.5 409.5 192.5 418.5 187.5 443Z" fill="#7ACEE7"/>
<path d="M205.5 369C205.5 369 204.573 372.059 203.278 376.5M270 372.5C265.167 378.833 258.6 401.8 271 443C283.4 484.2 283.5 506.167 282 512H178C178 512 182.5 467.5 187.5 443C192.5 418.5 194.5 409.5 197.5 397.5C199.208 390.667 201.565 382.374 203.278 376.5M270 372.5C287.833 366.667 329 353.3 351 346.5C378.5 338 384.5 336.5 396.5 332.5C408.5 328.5 407.5 325 437 291C466.5 257 478 245 483.5 226.5C489 208 477 202 472.5 202C469.5 202 450 207 448 230C447 236.5 449.6 211.3 444 212.5C437 214 441.5 233 441 244C440.5 255 413.5 295 401 306.5C388.5 318 374.7 322.9 345.5 332.5C309 344.5 327 341.5 284.5 349C250.5 355 221.333 349.167 211 345.5C211.333 347.333 211.2 353 208 361C178.667 354.5 116.4 339.1 102 329.5C84 317.5 65 244.5 67 220C69 195.5 76.8 182.6 70 185C61.5 188 63.5 202 63.5 203.5C63.5 205 62 170.5 43 171.5C24 172.5 27 194.5 27.5 200C28 205.5 42.5 263.5 60.5 300C78.5 336.5 80.5 335.5 89 340.5C92.7137 342.685 104.939 350.501 131 358.5C152.658 365.148 187.275 371.81 203.278 376.5M270 372.5C269.833 372.5 268 372.8 262 374" stroke="black" stroke-linecap="round"/>
<path d="M210.5 348C220.9 357.2 239.833 354.833 248 352.5C262.333 353.333 292.8 353.6 300 348C309 341 336.098 316.879 341.5 294.5C348.5 265.5 346.5 229 325.5 209.5C297.001 183.036 265.5 184 250 184C234.5 184 216 189.5 198.5 215C181 240.5 184.5 266 185 267C185.4 267.8 194.167 308.333 198.5 328.5C198.5 329.5 200.1 338.8 210.5 348Z" fill="#7ACEE7"/>
<path d="M320.5 305C320.1 317.8 299.333 330.333 289 335C263.5 333.833 212.1 332.5 210.5 332.5C208.5 332.5 165 328 169.5 291.5C173.1 262.3 195 264 205.5 268.5L246.5 278C264.667 275.833 302.3 272.4 307.5 276C314 280.5 321 289 320.5 305Z" fill="#7ACEE7"/>
<ellipse cx="238.5" cy="254.5" rx="7.5" ry="8.5" fill="black"/>
<ellipse cx="257.5" cy="254.5" rx="7.5" ry="8.5" fill="black"/>
<ellipse cx="239" cy="253.5" rx="3" ry="3.5" fill="white"/>
<ellipse cx="258" cy="253.5" rx="3" ry="3.5" fill="white"/>
<path d="M264 285.5C256.4 289.1 254.5 292.5 239.5 292.5C234.667 292 223.7 289.5 218.5 283.5C213.3 277.5 206.333 275 203.5 274.5C188 273 178.5 286.5 181 300C183.5 313.5 191 318.5 204.5 324C218 329.5 223.5 329 245 330C262.2 330.8 275.5 329 280 328C310.5 315.5 307 307 308 300C309 293 304 279.5 289.5 279C275 278.5 273.5 281 264 285.5Z" fill="#A0212E" stroke="black"/>
<path d="M266.713 320C270.484 325.2 270.475 328 269.5 329L283.5 326.5L296.5 319.5C294.167 317.333 288.4 312.4 284 310C278.5 307 259 306 258.5 310.5C258 315 262 313.5 266.713 320Z" fill="#F0ABE9" stroke="black"/>
<mask id="mask0_66_887" style="mask-type:alpha" maskUnits="userSpaceOnUse" x="180" y="273" width="129" height="58">
<path d="M264 285.5C256.4 289.1 254.5 292.5 239.5 292.5C234.667 292 223.7 289.5 218.5 283.5C213.3 277.5 206.333 275 203.5 274.5C188 273 178.5 286.5 181 300C183.5 313.5 191 318.5 204.5 324C218 329.5 223.5 329 245 330C262.2 330.8 275.5 329 280 328C310.5 315.5 307 307 308 300C309 293 304 279.5 289.5 279C275 278.5 273.5 281 264 285.5Z" fill="#AF1D27" stroke="black"/>
</mask>
<g mask="url(#mask0_66_887)">
<path d="M248.5 321.5C250.082 321.5 251.57 322.436 252.684 324.064C253.796 325.69 254.5 327.964 254.5 330.5C254.5 333.036 253.796 335.31 252.684 336.936C251.57 338.564 250.082 339.5 248.5 339.5C246.918 339.5 245.43 338.564 244.316 336.936C243.204 335.31 242.5 333.036 242.5 330.5C242.5 327.964 243.204 325.69 244.316 324.064C245.43 322.436 246.918 321.5 248.5 321.5Z" fill="white" stroke="black"/>
<path d="M265 323.5C266.146 323.5 267.259 324.245 268.111 325.608C268.959 326.965 269.5 328.87 269.5 331C269.5 333.13 268.959 335.035 268.111 336.392C267.259 337.755 266.146 338.5 265 338.5C263.854 338.5 262.741 337.755 261.889 336.392C261.041 335.035 260.5 333.13 260.5 331C260.5 328.87 261.041 326.965 261.889 325.608C262.741 324.245 263.854 323.5 265 323.5Z" fill="white" stroke="black"/>
<path d="M278.008 321.537C279.454 321.282 280.938 321.823 282.174 322.979C283.411 324.135 284.373 325.886 284.739 327.965C285.106 330.044 284.801 332.02 284.035 333.529C283.268 335.038 282.059 336.054 280.613 336.309C279.167 336.564 277.684 336.022 276.448 334.867C275.211 333.711 274.248 331.959 273.882 329.88C273.515 327.801 273.821 325.826 274.587 324.316C275.354 322.808 276.562 321.792 278.008 321.537Z" fill="white" stroke="black"/>
<path d="M233.332 322.934C234.474 323.034 235.518 323.873 236.248 325.305C236.974 326.731 237.347 328.675 237.161 330.798C236.975 332.92 236.271 334.77 235.308 336.048C234.34 337.332 233.166 337.977 232.025 337.877C230.883 337.777 229.839 336.938 229.109 335.505C228.383 334.08 228.01 332.135 228.195 330.013C228.381 327.891 229.086 326.04 230.049 324.763C231.016 323.479 232.19 322.834 233.332 322.934Z" fill="white" stroke="black"/>
<path d="M219.065 321.777C220.218 322.086 221.132 322.981 221.655 324.24C222.179 325.5 222.297 327.101 221.859 328.737C221.42 330.374 220.517 331.701 219.434 332.53C218.351 333.359 217.112 333.677 215.959 333.368C214.806 333.059 213.892 332.164 213.369 330.905C212.845 329.645 212.727 328.044 213.165 326.408C213.604 324.772 214.506 323.445 215.59 322.615C216.673 321.786 217.912 321.468 219.065 321.777Z" fill="white" stroke="black"/>
<path d="M204.524 316.181C205.852 316.587 206.867 317.779 207.383 319.494C207.897 321.204 207.891 323.379 207.212 325.6C206.533 327.822 205.322 329.628 203.939 330.758C202.553 331.891 201.045 332.312 199.716 331.906C198.387 331.499 197.373 330.308 196.857 328.593C196.343 326.883 196.349 324.709 197.028 322.487C197.707 320.265 198.918 318.459 200.301 317.329C201.687 316.196 203.195 315.775 204.524 316.181Z" fill="white" stroke="black"/>
<path d="M243.5 283.5C245.082 283.5 246.57 284.436 247.684 286.064C248.796 287.69 249.5 289.964 249.5 292.5C249.5 295.036 248.796 297.31 247.684 298.936C246.57 300.564 245.082 301.5 243.5 301.5C241.918 301.5 240.43 300.564 239.316 298.936C238.204 297.31 237.5 295.036 237.5 292.5C237.5 289.964 238.204 287.69 239.316 286.064C240.43 284.436 241.918 283.5 243.5 283.5Z" fill="white" stroke="black"/>
<path d="M229.764 280.021C231.159 280.143 232.432 281.256 233.312 283.165C234.185 285.061 234.618 287.644 234.371 290.462C234.125 293.28 233.25 295.75 232.061 297.464C230.862 299.192 229.415 300.067 228.021 299.945C226.626 299.823 225.353 298.71 224.473 296.8C223.599 294.905 223.167 292.321 223.413 289.504C223.66 286.686 224.535 284.216 225.724 282.502C226.922 280.774 228.369 279.899 229.764 280.021Z" fill="white" stroke="black"/>
<path d="M220.744 272.923C222.301 273.52 223.401 275.053 223.856 277.168C224.309 279.279 224.1 281.905 223.091 284.535C222.081 287.164 220.479 289.256 218.73 290.521C216.977 291.789 215.134 292.192 213.577 291.594C212.019 290.996 210.919 289.464 210.465 287.348C210.011 285.238 210.22 282.611 211.23 279.982C212.239 277.352 213.841 275.26 215.59 273.996C217.344 272.728 219.187 272.325 220.744 272.923Z" fill="white" stroke="black"/>
<path d="M205.284 265.534C206.86 265.672 208.261 266.735 209.229 268.454C210.195 270.17 210.698 272.497 210.477 275.023C210.256 277.549 209.357 279.753 208.107 281.276C206.855 282.8 205.291 283.604 203.716 283.466C202.14 283.328 200.739 282.265 199.771 280.546C198.805 278.83 198.302 276.503 198.523 273.977C198.744 271.451 199.643 269.247 200.893 267.724C202.145 266.2 203.709 265.396 205.284 265.534Z" fill="white" stroke="black"/>
<path d="M259 278.5C260.725 278.5 262.338 279.498 263.54 281.216C264.741 282.932 265.5 285.329 265.5 288C265.5 290.671 264.741 293.068 263.54 294.784C262.338 296.502 260.725 297.5 259 297.5C257.275 297.5 255.662 296.502 254.46 294.784C253.259 293.068 252.5 290.671 252.5 288C252.5 285.329 253.259 282.932 254.46 281.216C255.662 279.498 257.275 278.5 259 278.5Z" fill="white" stroke="black"/>
<path d="M276 271.5C277.725 271.5 279.338 272.498 280.54 274.216C281.741 275.932 282.5 278.329 282.5 281C282.5 283.671 281.741 286.068 280.54 287.784C279.338 289.502 277.725 290.5 276 290.5C274.275 290.5 272.662 289.502 271.46 287.784C270.259 286.068 269.5 283.671 269.5 281C269.5 278.329 270.259 275.932 271.46 274.216C272.662 272.498 274.275 271.5 276 271.5Z" fill="white" stroke="black"/>
</g>
<path d="M264 285.5C256.4 289.1 254.5 292.5 239.5 292.5C234.667 292 223.7 289.5 218.5 283.5C213.3 277.5 206.333 275 203.5 274.5C188 273 178.5 286.5 181 300C183.5 313.5 191 318.5 204.5 324C218 329.5 223.5 329 245 330C262.2 330.8 275.5 329 280 328C310.5 315.5 307 307 308 300C309 293 304 279.5 289.5 279C275 278.5 273.5 281 264 285.5Z" stroke="black"/>
<path d="M229 234.5C230 233.5 234.3 231.1 243.5 229.5" stroke="black" stroke-linecap="round"/>
<path d="M254.5 228C255.833 228 259.9 229.2 265.5 234" stroke="black" stroke-linecap="round"/>
<path d="M40 197C43.3333 200.333 49.6 209.9 48 221.5" stroke="black" stroke-linecap="round"/>
<path d="M456.5 247C454.5 242.333 454.9 231.3 472.5 224.5" stroke="black" stroke-linecap="round"/>
<path d="M206.014 270.12C203.514 268.453 195.4 264.7 185 267.5C172 271 169.014 292.537 169.014 298.62C169.014 300.12 167.014 324.62 210.014 333.12" stroke="black" stroke-linecap="round"/>
<path d="M307 275.5C312.5 280 322.9 292 320.5 304C317.5 319 306.5 325.5 289 334.5" stroke="black" stroke-linecap="round"/>
<path d="M248.5 352.5C248.5 352.5 231 360 217 352.5C203 345 199.5 330.5 199.5 330.5M185.5 267.5C183.5 256.5 186.5 233.5 195 220.5C202 207.833 222.774 184 250 184C284.5 184 294.5 187 320 205C348.212 224.914 345 267.938 345 270C345 272 341.862 295 338.5 302.5C332 317 319.5 332.5 302.5 346C298.093 349.5 282.167 355 276.5 354" stroke="black" stroke-linecap="round"/>
</g>
<ellipse cx="46.4518" cy="189.972" rx="7.92984" ry="9.8689" fill="#8AE1EB"/>
<ellipse cx="60.5491" cy="184.489" rx="7.92984" ry="9.8689" fill="#8AE1EB"/>
<ellipse cx="70.2411" cy="195.454" rx="7.92984" ry="9.8689" fill="#8AE1EB"/>
<ellipse cx="72.0034" cy="174.62" rx="14.0975" ry="17.5447" fill="#8AE1EB"/>
<ellipse cx="59.668" cy="162.558" rx="14.0975" ry="17.5447" fill="#8AE1EB"/>
<ellipse cx="75.5277" cy="158.172" rx="7.04874" ry="8.77236" fill="#8AE1EB"/>
<ellipse cx="74.206" cy="142.272" rx="11.8948" ry="14.8034" fill="#8AE1EB"/>
<ellipse cx="83.017" cy="122.534" rx="14.538" ry="18.093" fill="#8AE1EB"/>
<ellipse cx="98.8767" cy="97.3137" rx="14.538" ry="18.093" fill="#8AE1EB"/>
<ellipse cx="120.463" cy="83.6069" rx="16.7408" ry="20.8344" fill="#8AE1EB"/>
<ellipse cx="132.799" cy="61.676" rx="16.7408" ry="20.8344" fill="#8AE1EB"/>
<ellipse cx="153.945" cy="39.7451" rx="16.7408" ry="20.8344" fill="#8AE1EB"/>
<ellipse cx="173.329" cy="36.4555" rx="8.81093" ry="10.9654" fill="#8AE1EB"/>
<ellipse cx="189.189" cy="36.4555" rx="8.81093" ry="10.9654" fill="#8AE1EB"/>
<ellipse cx="185.664" cy="24.3935" rx="8.81093" ry="10.9654" fill="#8AE1EB"/>
<ellipse cx="45.1611" cy="174.242" rx="12.8066" ry="16.0701" fill="#C9E7EB"/>
<ellipse cx="51.3287" cy="146.828" rx="12.8066" ry="16.0701" fill="#C9E7EB"/>
<ellipse cx="61.9018" cy="168.759" rx="12.8066" ry="16.0701" fill="#C9E7EB"/>
<ellipse cx="64.5451" cy="138.056" rx="12.8066" ry="16.0701" fill="#C9E7EB"/>
<ellipse cx="50.8575" cy="124.179" rx="7.04874" ry="8.77236" fill="#C9E7EB"/>
<ellipse cx="57.0251" cy="101.152" rx="14.9786" ry="18.6413" fill="#C9E7EB"/>
<ellipse cx="66.7171" cy="114.31" rx="14.9786" ry="18.6413" fill="#C9E7EB"/>
<ellipse cx="76.4091" cy="89.0896" rx="16.7408" ry="20.8344" fill="#C9E7EB"/>
<ellipse cx="101.961" cy="74.8345" rx="16.7408" ry="20.8344" fill="#C9E7EB"/>
<ellipse cx="123.107" cy="49.614" rx="16.7408" ry="20.8344" fill="#C9E7EB"/>
<ellipse cx="125.75" cy="30.9727" rx="9.69202" ry="12.062" fill="#C9E7EB"/>
<ellipse cx="143.372" cy="25.49" rx="9.69202" ry="12.062" fill="#C9E7EB"/>
<ellipse cx="160.994" cy="23.2969" rx="9.69202" ry="12.062" fill="#C9E7EB"/>
<ellipse cx="142.491" cy="39.7451" rx="9.69202" ry="12.062" fill="#C9E7EB"/>
<ellipse cx="157.47" cy="35.3589" rx="9.69202" ry="12.062" fill="#C9E7EB"/>
<ellipse cx="177.735" cy="21.1038" rx="9.69202" ry="12.062" fill="#C9E7EB"/>
<ellipse cx="170.686" cy="30.9727" rx="6.16765" ry="7.67581" fill="#C9E7EB"/>
<ellipse cx="98.8771" cy="39.1968" rx="21.5868" ry="26.8653" fill="#C9E7EB"/>
<ellipse cx="84.339" cy="66.0622" rx="7.92984" ry="9.8689" fill="#C9E7EB"/>
<path d="M42.4874 158.72C31.9144 157.624 27.2445 180.432 38.5225 188.327C35.8793 200.937 52.6201 207.188 54.3823 190.52M42.4874 158.72C34.7337 146 42.4874 132.951 46.893 131.855C40.5491 124.398 44.8371 118.148 47.7741 115.955C33.3241 99.7261 49.0957 75.9311 60.5499 83.0586M42.4874 158.72C49.1836 142.93 62.3121 155.431 55.7039 163.106C58.1243 168.528 58.7125 172.651 58.2263 175.717M54.3823 190.52C57.4661 193.81 60.9905 195.454 62.3121 194.358C62.7526 210.806 80.1102 209.929 77.2907 191.068C84.78 189.972 90.2427 172.098 82.1367 162.01C83.0178 159.634 84.3394 156.527 81.6961 153.786C84.0457 151.044 88.2162 144.465 86.1016 140.079M54.3823 190.52C54.3823 188.692 53.5012 184.708 49.9768 183.392C53.327 183.161 57.385 181.021 58.2263 175.717M86.1016 140.079C91.8287 138.982 102.314 128.565 96.6747 115.407C101.08 118.148 112.975 111.898 112.975 102.248C120.464 109.376 138.967 100.823 137.205 81.9621C142.492 81.9621 151.655 71.4353 149.54 60.0312C154.827 62.7725 166.634 61.347 169.805 46.8726C172.596 48.7002 178.793 50.1623 181.26 41.3899C187.868 55.645 205.049 43.3637 194.476 27.1348C195.21 22.5659 194.388 13.428 185.225 13.428C182.141 7.9453 173.77 3.55912 168.924 16.1694C164.959 9.04185 154.21 7.50669 151.743 18.9108C148.219 13.7935 139.672 7.61634 133.681 23.8452C131.184 19.459 124.429 13.5377 117.38 24.9417C101.08 -5.76151 64.2505 20.3363 82.5772 56.7415M86.1016 140.079C85.2205 138.434 85.2205 137.338 83.4583 135.145M82.5772 56.7415C79.934 57.4726 74.9998 60.7988 76.4096 68.2553C72.0041 67.707 62.6645 69.9001 60.5499 83.0586M82.5772 56.7415C82.8709 56.5588 84.2513 56.1933 87.4232 56.1933M60.5499 83.0586C60.9905 83.2414 62.1359 84.1552 63.1932 86.3483M58.2263 175.717C58.5603 177.179 60.1094 179.664 63.6337 177.91" stroke="#5BC3CF" stroke-width="2" stroke-linecap="round"/>
<path d="M101.08 95.6689C107.541 96.2172 120.111 91.9406 118.702 70.4484C122.079 71.1794 129.803 71.3256 133.68 66.0622" stroke="#5BC3CF" stroke-width="2" stroke-linecap="round"/>
<ellipse cx="62.0475" cy="233.341" rx="14.1534" ry="17.5" fill="#8AE1EB"/>
<ellipse cx="70.9439" cy="256.341" rx="12.5358" ry="15.5" fill="#8AE1EB"/>
<ellipse cx="62.8563" cy="279.341" rx="12.5358" ry="15.5" fill="#8AE1EB"/>
<ellipse cx="67.7088" cy="302.341" rx="12.5358" ry="15.5" fill="#8AE1EB"/>
<ellipse cx="65.2825" cy="325.341" rx="14.1534" ry="17.5" fill="#8AE1EB"/>
<ellipse cx="46.709" cy="236.496" rx="11.7553" ry="14.6552" fill="#C9E7EB"/>
<ellipse cx="56.4142" cy="257.496" rx="11.7553" ry="14.6552" fill="#C9E7EB"/>
<ellipse cx="52.3704" cy="286.496" rx="11.7553" ry="14.6552" fill="#C9E7EB"/>
<ellipse cx="34.9537" cy="272.841" rx="20.2191" ry="25" fill="#C9E7EB"/>
<ellipse cx="47.4896" cy="310.341" rx="14.9621" ry="18.5" fill="#C9E7EB"/>
<ellipse cx="37.7845" cy="295.341" rx="6.06573" ry="7.5" fill="#C9E7EB"/>
<ellipse cx="48.2984" cy="252.341" rx="6.06573" ry="7.5" fill="#C9E7EB"/>
<path d="M59.621 298.841C61.2385 301.007 63.9883 307.441 62.0473 315.841M67.7086 262.841C67.0346 265.841 63.6648 271.941 55.5771 272.341C57.8686 273.841 62.6134 277.541 63.2604 280.341" stroke="#5BC3CF" stroke-width="2" stroke-linecap="round"/>
<path d="M50.7242 222.341C32.9314 218.341 30.9094 241.841 39.8059 248.341C7.45536 248.341 6.2421 290.341 32.1225 297.841M50.7242 222.341C58.4074 207.341 82.1042 216.141 74.9871 241.341C83.0747 243.341 90.9197 263.441 73.7739 271.841C75.661 274.507 78.2221 281.541 73.3695 288.341M50.7242 222.341L53.5548 223.841M73.3695 288.341C78.0873 291.174 85.2583 300.241 76.2002 313.841C87.9273 335.841 63.0982 357.641 51.1285 328.841C44.254 331.841 26.8657 320.841 34.1445 301.841M73.3695 288.341L71.752 290.341M34.1445 301.841C33.6053 301.507 32.446 300.241 32.1225 297.841M34.1445 301.841L35.762 302.341M32.1225 297.841V295.841" stroke="#5BC3CF" stroke-width="2" stroke-linecap="round"/>
<ellipse cx="128.935" cy="439.384" rx="13.6094" ry="9.32791" transform="rotate(-10 128.935 439.384)" fill="#8AE1EB"/>
<ellipse cx="142.741" cy="442.715" rx="13.6094" ry="9.32791" transform="rotate(-10 142.741 442.715)" fill="#8AE1EB"/>
<ellipse cx="151.104" cy="456.066" rx="13.6094" ry="9.32791" transform="rotate(-10 151.104 456.066)" fill="#8AE1EB"/>
<ellipse cx="162.822" cy="468.001" rx="13.6094" ry="9.32791" transform="rotate(-10 162.822 468.001)" fill="#8AE1EB"/>
<ellipse cx="184.607" cy="475.691" rx="19.5266" ry="13.3835" transform="rotate(-10 184.607 475.691)" fill="#8AE1EB"/>
<ellipse cx="208.299" cy="480.573" rx="10.0592" ry="6.89454" transform="rotate(-10 208.299 480.573)" fill="#8AE1EB"/>
<ellipse cx="119.073" cy="458.419" rx="21.8934" ry="15.0058" transform="rotate(-10 119.073 458.419)" fill="#C9E7EB"/>
<ellipse cx="105.292" cy="475.674" rx="15.9763" ry="10.9502" transform="rotate(-10 105.292 475.674)" fill="#C9E7EB"/>
<ellipse cx="124.887" cy="484.574" rx="21.8934" ry="15.0058" transform="rotate(-10 124.887 484.574)" fill="#C9E7EB"/>
<ellipse cx="144.481" cy="493.473" rx="21.8934" ry="15.0058" transform="rotate(-10 144.481 493.473)" fill="#C9E7EB"/>
<ellipse cx="183.505" cy="489.887" rx="21.8934" ry="15.0058" transform="rotate(-10 183.505 489.887)" fill="#C9E7EB"/>
<ellipse cx="205.136" cy="486.485" rx="9.46744" ry="6.48898" transform="rotate(-10 205.136 486.485)" fill="#C9E7EB"/>
<ellipse cx="164.794" cy="479.185" rx="10.0592" ry="6.89454" transform="rotate(-10 164.794 479.185)" fill="#C9E7EB"/>
<ellipse cx="147.543" cy="480.167" rx="9.46744" ry="6.48898" transform="rotate(-10 147.543 480.167)" fill="#C9E7EB"/>
<ellipse cx="140.98" cy="470.205" rx="13.0177" ry="8.51679" transform="rotate(-10 140.98 470.205)" fill="#C9E7EB"/>
<path d="M116.467 443.641C108.418 438.883 127.584 421.502 140.538 433.631C147.973 431.497 162.725 434.743 154.216 446.457C158.653 446.635 166.729 449.275 163.533 458.404C166.664 457.989 173.544 458.616 176.013 464.44M116.467 443.641C98.9361 445.085 92.5684 461.445 98.7989 466.112C77.7744 477.726 94.8152 487.817 103.697 487.075M116.467 443.641L120.617 443.321M176.013 464.44C185.868 458.996 205.381 461.98 204.258 474.697M176.013 464.44C174.335 465.148 170.072 467.547 166.439 471.482C164.232 471.459 159.041 472.457 155.931 476.629C155.619 475.998 154.371 474.598 151.871 474.05C152.825 472.647 159.876 461.52 140.083 461.715M204.258 474.697C211.924 470.462 225.48 479.191 214.6 485.64C214.269 488.306 214.049 492.738 204.514 493.183M204.258 474.697L201.556 476.409M204.514 493.183C202.285 500.989 180.356 512.927 163.441 498.778C156.728 506.139 139.324 516.703 123.413 500.071C117.562 500.965 105.428 499.618 103.697 487.075M204.514 493.183L201.46 492.898M103.697 487.075L103.716 483.777" stroke="#5BC3CF" stroke-width="2" stroke-linecap="round"/>
<ellipse cx="305" cy="471.111" rx="16" ry="9.5" fill="#8AE1EB"/>
<ellipse cx="363.5" cy="460.111" rx="17.5" ry="10.5" fill="#8AE1EB"/>
<ellipse cx="346.5" cy="468.111" rx="17.5" ry="10.5" fill="#8AE1EB"/>
<circle cx="382.5" cy="452.111" r="10.5" fill="#8AE1EB"/>
<circle cx="396.5" cy="437.111" r="13.5" fill="#8AE1EB"/>
<circle cx="399" cy="402.611" r="15" fill="#8AE1EB"/>
<circle cx="406" cy="382.611" r="15" fill="#8AE1EB"/>
<circle cx="404.5" cy="362.111" r="10.5" fill="#8AE1EB"/>
<circle cx="407.5" cy="421.111" r="10.5" fill="#8AE1EB"/>
<ellipse cx="331.872" cy="460.428" rx="17.2243" ry="10.9931" transform="rotate(-10 331.872 460.428)" fill="#8AE1EB"/>
<ellipse cx="325" cy="484.111" rx="24" ry="18.5" fill="#C9E7EB"/>
<ellipse cx="360" cy="485.111" rx="24" ry="18.5" fill="#C9E7EB"/>
<circle cx="384.5" cy="479.111" r="20.5" fill="#C9E7EB"/>
<circle cx="407" cy="458.611" r="18" fill="#C9E7EB"/>
<circle cx="435.5" cy="423.111" r="15.5" fill="#C9E7EB"/>
<circle cx="417.5" cy="440.111" r="15.5" fill="#C9E7EB"/>
<circle cx="424.5" cy="412.111" r="15.5" fill="#C9E7EB"/>
<circle cx="440.5" cy="398.111" r="15.5" fill="#C9E7EB"/>
<circle cx="423.5" cy="365.111" r="11.5" fill="#C9E7EB"/>
<circle cx="431.5" cy="382.111" r="11.5" fill="#C9E7EB"/>
<circle cx="416" cy="385.611" r="16" fill="#C9E7EB"/>
<circle cx="418.5" cy="365.111" r="8.5" fill="#C9E7EB"/>
<path d="M397.5 417.611C396.7 419.611 397.167 422.444 397.5 423.611C384.3 422.411 380.5 435.611 384 442.111C375.6 440.511 372.5 447.111 372 450.611C359.6 447.011 350.833 452.111 348 455.111C339.6 441.911 312.5 450.611 315 463.611C300.6 455.211 273 472.111 301.5 480.611C299.5 505.611 334.5 506.611 342 497.111C356 509.111 371.167 502.778 377 498.111C399.4 505.311 407 486.611 405 476.611C423.5 476.611 425.5 461.611 424.5 454.111C431.7 450.511 433.167 442.278 433 438.611C451.5 439.111 455.5 421.111 447 412.111C463 404.111 453 383.111 443 382.611C444.2 373.411 437.167 370.778 433.5 370.611C440.7 352.611 420.5 348.611 414 358.111C409.5 343.111 385 354.111 397.5 370.111C389.1 375.711 390.667 385.111 392.5 389.111C374.9 400.711 387 417.111 397.5 417.611ZM397.5 417.611L398.5 415.611" stroke="#5BC3CF" stroke-width="2" stroke-linecap="round"/>
<path d="M403 395.111C403.833 396.944 407 400.811 413 401.611C409.167 405.611 404.2 415.811 415 424.611" stroke="#5BC3CF" stroke-width="2" stroke-linecap="round"/>
<path d="M321 465.111C324.333 464.611 336 465.111 340 469.111M375 460.611C377.833 459.278 384.6 457.111 389 459.111C388.833 456.278 389.5 449.811 393.5 446.611" stroke="#5BC3CF" stroke-width="2" stroke-linecap="round"/>
<ellipse cx="421.789" cy="293.088" rx="9.28859" ry="11.5" fill="#8AE1EB"/>
<ellipse cx="430.673" cy="288.088" rx="9.28859" ry="11.5" fill="#8AE1EB"/>
<ellipse cx="429.866" cy="300.088" rx="9.28859" ry="11.5" fill="#8AE1EB"/>
<ellipse cx="430.27" cy="267.588" rx="13.731" ry="17" fill="#8AE1EB"/>
<ellipse cx="440.77" cy="248.588" rx="9.69244" ry="12" fill="#8AE1EB"/>
<ellipse cx="439.962" cy="228.588" rx="9.69244" ry="12" fill="#8AE1EB"/>
<ellipse cx="426.231" cy="220.588" rx="9.69244" ry="12" fill="#8AE1EB"/>
<ellipse cx="432.693" cy="210.588" rx="9.69244" ry="12" fill="#8AE1EB"/>
<ellipse cx="421.385" cy="202.588" rx="9.69244" ry="12" fill="#8AE1EB"/>
<ellipse cx="423.404" cy="187.088" rx="12.5194" ry="15.5" fill="#8AE1EB"/>
<ellipse cx="16.0841" cy="10.3576" rx="16.0841" ry="10.3576" transform="matrix(0.755597 -0.655036 0.492283 0.870435 402 319.66)" fill="#8AE1EB"/>
<ellipse cx="15.7993" cy="11.5111" rx="15.7993" ry="11.5111" transform="matrix(0.755597 -0.655036 0.492283 0.870435 415.73 317.287)" fill="#C9E7EB"/>
<ellipse cx="454.904" cy="308.088" rx="14.1348" ry="17.5" fill="#C9E7EB"/>
<ellipse cx="441.577" cy="299.588" rx="7.26933" ry="9" fill="#C9E7EB"/>
<ellipse cx="448.039" cy="281.588" rx="13.731" ry="17" fill="#C9E7EB"/>
<ellipse cx="454.5" cy="233.588" rx="13.731" ry="17" fill="#C9E7EB"/>
<ellipse cx="464.193" cy="213.588" rx="11.3078" ry="14" fill="#C9E7EB"/>
<ellipse cx="444" cy="217.588" rx="11.3078" ry="14" fill="#C9E7EB"/>
<ellipse cx="445.616" cy="191.588" rx="17.7695" ry="22" fill="#C9E7EB"/>
<ellipse cx="455.308" cy="261.588" rx="13.731" ry="17" fill="#C9E7EB"/>
<ellipse cx="467.423" cy="281.588" rx="13.731" ry="17" fill="#C9E7EB"/>
<ellipse cx="475.097" cy="246.088" rx="18.981" ry="23.5" fill="#C9E7EB"/>
<path d="M444.405 320.588C466.374 335.788 471.867 311.588 467.021 299.088C486.082 292.288 481.963 276.588 477.521 269.588C507.567 257.588 492.059 217.088 473.078 222.588C481.802 206.588 468.232 196.588 461.771 200.088C468.232 165.688 439.155 163.088 432.693 176.588C418.558 161.588 404.827 181.088 412.904 196.088C408.381 207.688 414.52 212.922 418.155 214.088C412.339 230.888 425.02 235.588 430.27 231.588M444.405 320.588C441.174 326.088 432.289 335.488 422.597 329.088C402.808 341.088 398.124 317.088 421.385 305.088C412.501 303.088 404.989 287.588 421.789 281.588C415.328 274.088 410.077 255.788 431.078 250.588C430.539 248.422 430.512 243.088 434.712 239.088C433.636 238.588 431.239 236.388 430.27 231.588M444.405 320.588L446.02 316.588M430.27 231.588L429.866 229.588C429.059 225.422 428.897 215.488 434.712 209.088" stroke="#5BC3CF" stroke-width="2" stroke-linecap="round"/>
<path d="M440.77 231.088C440.501 235.755 441.416 245.688 447.232 248.088C445.886 249.255 443.032 252.288 442.386 255.088" stroke="#5BC3CF" stroke-width="2" stroke-linecap="round"/>
<path d="M434.712 303.088C433.77 300.922 432.935 295.788 437.135 292.588C435.52 290.922 432.855 285.188 435.116 275.588" stroke="#5BC3CF" stroke-width="2" stroke-linecap="round"/>
<circle cx="415.104" cy="113.302" r="11.5" fill="#8AE1EB"/>
<circle cx="411.104" cy="91.3017" r="11.5" fill="#8AE1EB"/>
<circle cx="397.104" cy="75.3017" r="11.5" fill="#8AE1EB"/>
<circle cx="410.104" cy="77.3017" r="11.5" fill="#8AE1EB"/>
<ellipse cx="383.604" cy="60.8017" rx="16" ry="15" fill="#8AE1EB"/>
<circle cx="420.104" cy="113.302" r="8.5" fill="#C9E7EB"/>
<circle cx="426.604" cy="106.802" r="5" fill="#C9E7EB"/>
<circle cx="427.104" cy="91.3017" r="15.5" fill="#C9E7EB"/>
<circle cx="426.104" cy="70.3017" r="15.5" fill="#C9E7EB"/>
<circle cx="411.104" cy="62.3017" r="12.5" fill="#C9E7EB"/>
<circle cx="399.604" cy="50.8017" r="13" fill="#C9E7EB"/>
<path d="M399.104 59.3017C398.189 65.2486 399.534 75.7155 411.104 74.0842M414.604 73.3017C413.345 73.6761 412.18 73.9325 411.104 74.0842M411.104 74.0842C411.104 76.1567 412.604 80.9017 418.604 83.3017" stroke="#5BC3CF" stroke-width="2" stroke-linecap="round"/>
<path d="M415.104 81.3017C413.271 82.635 410.004 86.8017 411.604 92.8017" stroke="#5BC3CF" stroke-width="2" stroke-linecap="round"/>
<path d="M387.604 46.3017C364.104 40.3017 357.204 75.0017 385.604 75.8017C385.771 80.635 389.004 89.5017 400.604 86.3017C398.437 90.635 397.304 100.002 410.104 102.802C394.104 111.302 407.604 134.102 423.604 121.302C425.937 119.135 430.204 114.202 428.604 111.802C429.771 111.468 432.004 109.902 431.604 106.302M387.604 46.3017C397.204 27.9017 414.604 40.8017 412.604 50.8017M387.604 46.3017L386.104 49.8017M431.604 106.302C438.604 103.135 450.104 93.3017 438.104 80.8017C443.104 72.135 446.904 54.9017 422.104 55.3017M431.604 106.302C431.437 106.468 430.504 106.802 428.104 106.802M422.104 55.3017C421.437 53.4683 418.604 50.0017 412.604 50.8017M422.104 55.3017V57.8017M412.604 50.8017L412.104 53.3017" stroke="#5BC3CF" stroke-width="2" stroke-linecap="round"/>
<circle cx="135.24" cy="184.219" r="7.5" fill="#8AE1EB"/>
<circle cx="132.24" cy="197.219" r="8.5" fill="#8AE1EB"/>
<circle cx="128.74" cy="213.719" r="12" fill="#8AE1EB"/>
<circle cx="131.74" cy="244.719" r="9" fill="#8AE1EB"/>
<circle cx="122.74" cy="231.719" r="9" fill="#8AE1EB"/>
<circle cx="133.74" cy="260.719" r="8" fill="#8AE1EB"/>
<circle cx="124.74" cy="183.719" r="9" fill="#C9E7EB"/>
<circle cx="114.74" cy="199.719" r="16" fill="#C9E7EB"/>
<circle cx="109.74" cy="221.719" r="12" fill="#C9E7EB"/>
<circle cx="131.24" cy="261.219" r="7.5" fill="#C9E7EB"/>
<circle cx="126.24" cy="256.219" r="7.5" fill="#C9E7EB"/>
<circle cx="122.24" cy="245.219" r="7.5" fill="#C9E7EB"/>
<ellipse cx="111.24" cy="238.219" rx="7.5" ry="13.5" fill="#C9E7EB"/>
<ellipse cx="117.24" cy="243.219" rx="7.5" ry="13.5" fill="#C9E7EB"/>
<path d="M118.74 256.719C119.54 263.119 122.74 264.053 124.24 263.719C125.44 267.319 130.407 268.553 132.74 268.719C143.74 269.719 142.24 255.219 135.74 252.719C145.74 246.719 137.74 234.719 130.74 235.719C133.14 231.719 130.74 227.386 129.24 225.719C145.24 223.719 143.24 208.219 136.74 204.719C144.74 199.119 141.073 193.386 138.24 191.219C149.84 180.819 137.24 172.219 131.24 177.719C123.24 168.919 114.24 177.719 115.74 183.719C97.7403 182.119 93.7402 202.719 103.74 211.219C91.74 219.219 98.2402 230.719 104.24 232.719C101.04 245.519 107.573 250.719 111.24 251.719C113.24 257.319 117.073 257.386 118.74 256.719ZM118.74 256.719C118.407 256.886 117.94 257.319 120.74 255.719" stroke="#5BC3CF" stroke-width="2" stroke-linecap="round"/>
<path d="M128.74 192.219C130.24 195.219 131.94 203.019 126.74 210.219" stroke="#5BC3CF" stroke-width="2" stroke-linecap="round"/>
<path d="M121.74 223.219C121.907 224.386 121.54 227.319 118.74 229.719C119.24 229.886 120.74 230.819 122.74 233.219" stroke="#5BC3CF" stroke-width="2" stroke-linecap="round"/>
<circle cx="200.863" cy="96.6751" r="6" fill="#8AE1EB"/>
<circle cx="214.363" cy="88.1751" r="10.5" fill="#8AE1EB"/>
<circle cx="227.863" cy="76.6751" r="8" fill="#8AE1EB"/>
<ellipse cx="245.863" cy="81.6751" rx="15" ry="9" fill="#8AE1EB"/>
<circle cx="266.863" cy="77.6751" r="10" fill="#8AE1EB"/>
<circle cx="205.363" cy="82.1751" r="10.5" fill="#C9E7EB"/>
<circle cx="209.863" cy="75.6751" r="7" fill="#C9E7EB"/>
<circle cx="214.863" cy="77.6751" r="7" fill="#C9E7EB"/>
<circle cx="221.863" cy="66.6751" r="10" fill="#C9E7EB"/>
<circle cx="235.863" cy="68.6751" r="10" fill="#C9E7EB"/>
<circle cx="250.863" cy="71.6751" r="7" fill="#C9E7EB"/>
<circle cx="261.863" cy="72.6751" r="7" fill="#C9E7EB"/>
<circle cx="267.863" cy="66.6751" r="3" fill="#C9E7EB"/>
<ellipse cx="255.363" cy="59.6751" rx="14.5" ry="10" fill="#C9E7EB"/>
<path d="M240.863 59.6751C234.863 56.4751 231.029 59.0084 229.863 60.6751C221.863 49.6751 207.863 63.6751 212.363 69.1751C208.763 67.9751 204.363 70.1751 203.863 71.6751C189.063 76.4751 193.863 88.1751 199.363 90.6751C186.963 100.275 204.863 110.175 206.863 95.6751C219.663 105.675 225.363 92.1751 223.863 83.6751C226.663 86.8751 230.03 85.3418 231.363 84.1751M240.863 59.6751C242.363 46.6751 272.463 42.8751 268.863 63.6751C269.696 64.1751 271.163 65.7751 270.363 68.1751M240.863 59.6751C241.53 60.0084 242.963 60.8751 243.363 61.6751M270.363 68.1751C282.363 71.6751 279.063 93.9751 259.863 85.1751C255.196 89.8418 242.963 96.1751 231.363 84.1751M270.363 68.1751C270.363 68.5084 269.763 69.5751 267.363 71.1751M231.363 84.1751C231.363 84.1751 232.063 83.3751 234.863 80.1751" stroke="#5BC3CF" stroke-width="2" stroke-linecap="round"/>
<circle cx="237.093" cy="422.069" r="8" fill="#8AE1EB"/>
<circle cx="272.093" cy="420.069" r="8" fill="#8AE1EB"/>
<circle cx="286.093" cy="416.069" r="8" fill="#8AE1EB"/>
<ellipse cx="256.593" cy="419.569" rx="14.5" ry="12.5" fill="#8AE1EB"/>
<circle cx="241.093" cy="427.069" r="7" fill="#C9E7EB"/>
<ellipse cx="260.093" cy="430.569" rx="14" ry="9.5" fill="#C9E7EB"/>
<circle cx="280.593" cy="426.569" r="8.5" fill="#C9E7EB"/>
<path d="M274.093 432.069C285.693 438.869 291.093 430.069 288.593 423.569C303.393 411.969 282.593 400.569 278.093 415.069C275.293 410.669 270.593 411.902 268.593 413.069C257.793 400.669 243.093 410.069 242.593 416.569C232.093 407.569 222.593 425.069 234.593 429.569C237.793 435.969 243.593 433.902 246.093 432.069C252.093 444.069 271.093 440.069 274.093 432.069ZM274.093 432.069C273.926 432.069 273.193 431.669 271.593 430.069" stroke="#5BC3CF" stroke-width="2" stroke-linecap="round"/>
<circle cx="322.429" cy="360.583" r="10" fill="#8AE1EB"/>
<circle cx="330.429" cy="344.583" r="10" fill="#8AE1EB"/>
<circle cx="343.429" cy="346.583" r="10" fill="#8AE1EB"/>
<circle cx="353.429" cy="335.583" r="10" fill="#8AE1EB"/>
<circle cx="352.429" cy="320.583" r="12" fill="#8AE1EB"/>
<circle cx="363.929" cy="304.083" r="10.5" fill="#8AE1EB"/>
<circle cx="325.929" cy="365.083" r="9.5" fill="#C9E7EB"/>
<ellipse cx="341.929" cy="359.083" rx="16.5" ry="12.5" fill="#C9E7EB"/>
<ellipse cx="358.929" cy="345.583" rx="13.5" ry="10" fill="#C9E7EB"/>
<ellipse cx="365.929" cy="336.583" rx="13.5" ry="6" fill="#C9E7EB"/>
<circle cx="373.929" cy="318.083" r="13.5" fill="#C9E7EB"/>
<circle cx="365.429" cy="329.583" r="5" fill="#C9E7EB"/>
<circle cx="357.929" cy="327.083" r="8.5" fill="#C9E7EB"/>
<path d="M337.929 338.083C339.929 336.483 342.429 336.417 343.429 336.583C342.629 332.583 344.095 330.583 344.929 330.083C331.429 320.083 346.429 304.583 354.429 308.583C349.629 287.383 375.929 289.583 374.429 304.583C397.629 308.983 386.929 329.083 373.429 331.583C384.629 335.983 377.095 340.417 371.929 342.083C376.729 352.083 363.929 357.083 357.929 356.083C359.929 372.883 339.929 375.083 333.929 370.083C325.529 379.283 317.929 373.583 316.929 369.083C305.929 362.083 315.929 349.583 321.929 350.583C315.529 334.583 332.929 329.583 337.929 338.083ZM337.929 338.083L335.429 340.083" stroke="#5BC3CF" stroke-width="2" stroke-linecap="round"/>
<circle cx="471" cy="432.239" r="6" fill="#8AE1EB"/>
<circle cx="477" cy="439.239" r="6" fill="#8AE1EB"/>
<circle cx="471.5" cy="446.739" r="9.5" fill="#8AE1EB"/>
<circle cx="471.5" cy="461.739" r="9.5" fill="#8AE1EB"/>
<circle cx="462.5" cy="474.739" r="9.5" fill="#8AE1EB"/>
<circle cx="451.5" cy="484.739" r="9.5" fill="#8AE1EB"/>
<ellipse cx="436" cy="488.239" rx="12" ry="7" fill="#8AE1EB"/>
<circle cx="476.5" cy="431.739" r="6.5" fill="#C9E7EB"/>
<circle cx="482" cy="446.239" r="11" fill="#C9E7EB"/>
<circle cx="483" cy="467.239" r="11" fill="#C9E7EB"/>
<circle cx="485.5" cy="455.739" r="5.5" fill="#C9E7EB"/>
<circle cx="471" cy="476.239" r="9" fill="#C9E7EB"/>
<ellipse cx="456" cy="488.239" rx="14" ry="9" fill="#C9E7EB"/>
<ellipse cx="437" cy="490.239" rx="10" ry="4" fill="#C9E7EB"/>
<path d="M490 458.739C492 456.739 491.166 454.239 490.5 453.239C496.5 442.239 487.666 436.239 482 435.239C486.8 428.439 478.5 421.739 472.5 426.739C462.5 427.239 465.5 435.239 467.5 437.739C461.5 439.239 462 451.239 465.5 454.239C461.1 457.839 461.666 463.072 462.5 465.239C454.899 466.439 453 472.739 453 475.739C447 474.539 443.5 479.905 442.5 482.739C421.5 474.739 414.5 500.239 444.5 493.239C462.1 502.439 472 492.239 469 484.739C477.4 486.339 479.833 480.739 480 477.739M490 458.739C498 466.239 492 481.239 480 477.739M490 458.739L487 460.739M480 477.739V474.739" stroke="#5BC3CF" stroke-width="2" stroke-linecap="round"/>
<circle cx="73.6898" cy="387.944" r="7" transform="rotate(-20 73.6898 387.944)" fill="#8AE1EB"/>
<circle cx="75.7021" cy="403.706" r="10.5" transform="rotate(-20 75.7021 403.706)" fill="#8AE1EB"/>
<circle cx="83.9504" cy="416.135" r="7" transform="rotate(-20 83.9504 416.135)" fill="#8AE1EB"/>
<circle cx="89.3363" cy="428.009" r="8" transform="rotate(-20 89.3363 428.009)" fill="#8AE1EB"/>
<circle cx="65.4052" cy="397.344" r="9" transform="rotate(-20 65.4052 397.344)" fill="#C9E7EB"/>
<circle cx="69.5457" cy="386.792" r="4.5" transform="rotate(-20 69.5457 386.792)" fill="#C9E7EB"/>
<circle cx="63.9576" cy="413.834" r="12" transform="rotate(-20 63.9576 413.834)" fill="#C9E7EB"/>
<circle cx="71.7775" cy="422.161" r="8.5" transform="rotate(-20 71.7775 422.161)" fill="#C9E7EB"/>
<circle cx="73.2251" cy="405.672" r="6.5" transform="rotate(-20 73.2251 405.672)" fill="#C9E7EB"/>
<circle cx="76.0476" cy="416.351" r="6.5" transform="rotate(-20 76.0476 416.351)" fill="#C9E7EB"/>
<circle cx="83.0572" cy="429.762" r="6.5" transform="rotate(-20 83.0572 429.762)" fill="#C9E7EB"/>
<circle cx="81.9017" cy="422.201" r="3" transform="rotate(-20 81.9017 422.201)" fill="#C9E7EB"/>
<path d="M58.4437 403.071C55.4951 399.355 52.7416 391.205 65.3169 388.331M58.4437 403.071C45.3225 409.123 55.9737 428.446 64.1321 426.008C67.3464 432.5 73.7593 431.018 76.564 429.465C78.5829 438.52 83.8426 437.28 86.22 435.528C97.8404 439.386 100.398 421.854 89.5901 419.935C92.9371 412.757 87.7361 409.968 84.7172 409.47M58.4437 403.071L61.7327 401.873M65.3169 388.331C64.6899 386.608 64.6662 383.034 69.5871 382.52C73.2595 377.991 84.4778 379.867 78.262 393.197C82.52 394.662 89.7722 399.968 84.7172 409.47M65.3169 388.331L66.1721 390.68M84.7172 409.47L82.7532 412.846" stroke="#5BC3CF" stroke-width="2" stroke-linecap="round"/>
<circle cx="34.0342" cy="417.802" r="10.5" transform="rotate(-20 34.0342 417.802)" fill="#8AE1EB"/>
<ellipse cx="43.5209" cy="429.248" rx="9.5" ry="8.5" transform="rotate(-20 43.5209 429.248)" fill="#8AE1EB"/>
<ellipse cx="41.7313" cy="444.798" rx="9.5" ry="8.5" transform="rotate(-20 41.7313 444.798)" fill="#8AE1EB"/>
<ellipse cx="49.5545" cy="464.83" rx="17" ry="15" transform="rotate(-20 49.5545 464.83)" fill="#8AE1EB"/>
<ellipse cx="63.9556" cy="482.468" rx="14.5" ry="10.5" transform="rotate(-20 63.9556 482.468)" fill="#8AE1EB"/>
<circle cx="29.5913" cy="417.291" r="6.5" transform="rotate(-20 29.5913 417.291)" fill="#C9E7EB"/>
<ellipse cx="33.7819" cy="431.728" rx="6.5" ry="10.5" transform="rotate(-20 33.7819 431.728)" fill="#C9E7EB"/>
<circle cx="22.6317" cy="428.87" r="11" transform="rotate(-20 22.6317 428.87)" fill="#C9E7EB"/>
<circle cx="27.5063" cy="445.186" r="11" transform="rotate(-20 27.5063 445.186)" fill="#C9E7EB"/>
<ellipse cx="55.4553" cy="483.966" rx="12" ry="11" transform="rotate(-20 55.4553 483.966)" fill="#C9E7EB"/>
<ellipse cx="34.3053" cy="468.252" rx="14.5" ry="18" transform="rotate(-20 34.3053 468.252)" fill="#C9E7EB"/>
<path d="M37.8429 441.424C38.7405 443.403 39.7672 448.173 36.6924 451.421C40.3378 451.69 47.9712 455.51 49.342 468.632" stroke="#5BC3CF" stroke-width="2" stroke-linecap="round"/>
<path d="M23.4402 417.934C7.13931 418.759 10.3312 436.007 18.3202 438.952C11.5904 447.361 18.7659 453.334 23.1949 455.269C11.3409 470.651 29.9125 492.731 43.5797 483.5C44.3356 497.272 55.331 496.781 61.097 493.619C79.1405 491.734 87.1907 470.287 63.3547 472.045C70.912 459.185 60.5287 449.662 48.824 449.665C53.1286 445.119 49.3336 439.37 46.898 437.064C54.8937 433.303 55.8216 422.11 44.0737 420.533C45.9479 402.292 23.7356 405.588 23.4402 417.934ZM23.4402 417.934C23.967 417.919 25.277 418.01 26.3023 418.488" stroke="#5BC3CF" stroke-width="2" stroke-linecap="round"/>
<circle cx="32" cy="357.888" r="8" fill="#8AE1EB"/>
<circle cx="18.5" cy="333.388" r="5.5" fill="#8AE1EB"/>
<circle cx="22.5" cy="346.388" r="10.5" fill="#8AE1EB"/>
<circle cx="16" cy="333.888" r="5" fill="#C9E7EB"/>
<circle cx="12.5" cy="331.388" r="3.5" fill="#C9E7EB"/>
<circle cx="16" cy="350.888" r="13" fill="#C9E7EB"/>
<path d="M24.4994 360.388C7.69936 371.588 -7.00009 345.888 13.4994 338.388C6.5 333.888 9.5 323.888 15 328.388C21.5 323.888 26.5 331.388 23 335.888C33 336.688 33.4999 345.554 32.4999 349.888C47.2999 355.488 34 373.888 24.4994 360.388ZM24.4994 360.388C24.9996 360.554 26.4 360.788 28 360.388" stroke="#5BC3CF" stroke-width="2" stroke-linecap="round"/>
<circle cx="284.839" cy="34.6375" r="10" fill="#8AE1EB"/>
<circle cx="298.339" cy="32.1375" r="8.5" fill="#8AE1EB"/>
<circle cx="281.839" cy="20.6375" r="10" fill="#C9E7EB"/>
<circle cx="290.839" cy="25.6375" r="10" fill="#C9E7EB"/>
<circle cx="300.339" cy="20.1375" r="10.5" fill="#C9E7EB"/>
<path d="M306.339 28.6375C320.739 12.6375 297.339 1.13746 290.839 15.6375C274.039 1.23747 264.339 23.6375 276.339 29.1375C271.139 48.3375 290.839 48.1375 293.839 39.1375M306.339 28.6375C310.339 33.6375 305.839 43.1375 293.839 39.1375M306.339 28.6375C306.172 28.4708 305.439 27.8375 303.839 26.6375M293.839 39.1375L292.839 38.6375" stroke="#5BC3CF" stroke-width="2" stroke-linecap="round"/>
<circle cx="408.989" cy="14.1109" r="8.5" fill="#8AE1EB"/>
<circle cx="418.989" cy="24.1109" r="8.5" fill="#8AE1EB"/>
<circle cx="410.489" cy="12.6109" r="7" fill="#C9E7EB"/>
<circle cx="418.489" cy="12.6109" r="7" fill="#C9E7EB"/>
<circle cx="420.489" cy="21.6109" r="7" fill="#C9E7EB"/>
<path d="M424.489 16.1109C428.989 5.61087 417.489 3.11087 414.489 7.11088C413.655 5.44421 409.489 3.11087 402.489 7.61087C395.989 13.6109 403.489 25.6109 410.489 22.6109C411.689 40.2109 428.989 32.6109 427.489 23.1109C429.489 19.6109 425.655 16.6109 424.489 16.1109Z" stroke="#5BC3CF" stroke-width="2" stroke-linecap="round"/>
<circle cx="481.848" cy="348.798" r="8.5" transform="rotate(45 481.848 348.798)" fill="#8AE1EB"/>
<circle cx="481.848" cy="362.94" r="8.5" transform="rotate(45 481.848 362.94)" fill="#8AE1EB"/>
<circle cx="483.97" cy="348.798" r="7" transform="rotate(45 483.97 348.798)" fill="#C9E7EB"/>
<circle cx="489.626" cy="354.455" r="7" transform="rotate(45 489.626 354.455)" fill="#C9E7EB"/>
<circle cx="484.677" cy="362.233" r="7" transform="rotate(45 484.677 362.233)" fill="#C9E7EB"/>
<path d="M491.394 361.173C502.001 356.93 495.637 347.031 490.687 347.738C491.276 345.97 489.98 341.374 481.848 339.606C473.009 339.252 469.827 353.041 476.898 355.869C465.302 369.163 482.909 376.022 488.566 368.244C492.455 367.183 491.866 362.351 491.394 361.173Z" stroke="#5BC3CF" stroke-width="2" stroke-linecap="round"/>
<circle cx="438.5" cy="32.3167" r="5.5" fill="#8AE1EB"/>
<circle cx="440.5" cy="42.3167" r="5.5" fill="#8AE1EB"/>
<circle cx="442.5" cy="37.3167" r="5.5" fill="#8AE1EB"/>
<circle cx="447.5" cy="48.3167" r="5.5" fill="#8AE1EB"/>
<ellipse cx="456" cy="55.8167" rx="8" ry="10" fill="#8AE1EB"/>
<circle cx="440.5" cy="30.3167" r="4.5" fill="#C9E7EB"/>
<circle cx="444.5" cy="37.3167" r="4.5" fill="#C9E7EB"/>
<circle cx="447.5" cy="42.3167" r="4.5" fill="#C9E7EB"/>
<circle cx="454" cy="36.8167" r="11" fill="#C9E7EB"/>
<circle cx="453.5" cy="48.3167" r="4.5" fill="#C9E7EB"/>
<ellipse cx="460.5" cy="53.8167" rx="6.5" ry="9" fill="#C9E7EB"/>
<path d="M445 30.8167C452 17.8167 473.9 28.4167 461.5 44.8167M461.5 44.8167C465.833 46.9833 472 53.6167 462 62.8167C450.4 71.6167 447.5 60.3167 448 53.8167C441.6 55.0167 441.333 50.3167 442 47.8167C433.2 48.2167 435 41.3167 437 37.8167C430.2 30.6167 434.834 27.3167 438 26.8167C442.4 22.8167 445 27.3167 445 30.3167M461.5 44.8167L459 47.8167" stroke="#5BC3CF" stroke-width="2" stroke-linecap="round"/>
<circle cx="406.5" cy="141.5" r="5.5" fill="#C9E7EB"/>
<ellipse cx="399" cy="145.5" rx="8" ry="5.5" fill="#C9E7EB"/>
<circle cx="405" cy="154" r="10" fill="#C9E7EB"/>
<path d="M395 151C393.502 174.5 429 160 410.498 145.5C415.498 141.5 407 130 401 140.5C390.5 138 389.5 149 395 151ZM395 151L398 152" stroke="#5BC3CF" stroke-width="2" stroke-linecap="round"/>
<path d="M147.015 116.817C146.92 116.223 147.76 115.998 147.975 116.56L155.461 136.151C155.672 136.704 156.189 137.081 156.78 137.114L171.462 137.921C171.944 137.947 172.112 138.574 171.708 138.838L159.396 146.878C158.901 147.202 158.642 147.787 158.735 148.371L162.048 169.081C162.143 169.675 161.302 169.9 161.088 169.338L153.601 149.747C153.39 149.194 152.873 148.817 152.282 148.784L137.6 147.978C137.118 147.951 136.95 147.324 137.355 147.06L149.666 139.02C150.161 138.697 150.42 138.111 150.326 137.527L147.015 116.817Z" fill="#BDE3EF" stroke="#5BC3CF"/>
<path d="M190.904 194.512C190.952 194.006 191.637 193.885 191.854 194.345L198.144 207.632C198.363 208.094 198.802 208.413 199.309 208.479L213.337 210.281C213.823 210.344 213.938 210.997 213.503 211.222L200.937 217.714C200.483 217.949 200.18 218.398 200.132 218.907L198.766 233.544C198.719 234.051 198.034 234.172 197.816 233.712L191.526 220.425C191.307 219.963 190.869 219.644 190.362 219.579L176.333 217.776C175.847 217.713 175.732 217.06 176.167 216.835L188.734 210.343C189.188 210.109 189.49 209.658 189.538 209.149L190.904 194.512Z" fill="#BDE3EF" stroke="#5BC3CF"/>
<path d="M344.549 166.115C344.73 165.735 345.27 165.735 345.451 166.115L350.211 176.13C350.418 176.567 350.824 176.877 351.3 176.963L365.442 179.508C365.991 179.607 365.991 180.393 365.442 180.492L351.3 183.037C350.824 183.123 350.418 183.433 350.211 183.87L345.451 193.885C345.27 194.265 344.73 194.265 344.549 193.885L339.789 183.87C339.582 183.433 339.176 183.123 338.7 183.037L324.558 180.492C324.009 180.393 324.009 179.607 324.558 179.508L338.7 176.963C339.176 176.877 339.582 176.567 339.789 176.13L344.549 166.115Z" fill="#BDE3EF" stroke="#5BC3CF"/>
<path d="M341.018 397.121C341.325 396.928 341.729 397.116 341.779 397.476L342.704 404.156C342.764 404.592 343.013 404.978 343.383 405.215L350.439 409.716C350.931 410.03 350.577 410.79 350.02 410.615L342.036 408.104C341.617 407.972 341.161 408.029 340.789 408.263L335.077 411.849C334.769 412.042 334.365 411.853 334.316 411.494L333.391 404.814C333.331 404.378 333.082 403.992 332.711 403.755L325.656 399.254C325.164 398.94 325.518 398.18 326.075 398.355L334.058 400.866C334.478 400.998 334.934 400.94 335.306 400.707L341.018 397.121Z" fill="#BDE3EF" stroke="#5BC3CF"/>
<path d="M345.316 89.2278C345.27 88.625 346.135 88.4726 346.297 89.0548L351.857 109.039C351.998 109.546 352.396 109.943 352.904 110.083L365.509 113.555C365.916 113.667 366.01 114.2 365.666 114.444L355.008 122.019C354.579 122.324 354.341 122.832 354.382 123.358L355.992 144.037C356.039 144.64 355.173 144.793 355.011 144.21L349.452 124.227C349.31 123.719 348.913 123.323 348.405 123.183L335.799 119.711C335.393 119.599 335.299 119.065 335.642 118.821L346.3 111.247C346.73 110.942 346.968 110.433 346.927 109.908L345.316 89.2278Z" fill="#BDE3EF" stroke="#5BC3CF"/>
<path d="M119.539 292.528C119.38 291.938 120.217 291.633 120.475 292.187L129.744 312.134C129.948 312.574 130.353 312.888 130.83 312.977L143.487 315.324C143.861 315.394 144.024 315.84 143.782 316.134L135.594 326.067C135.286 326.442 135.178 326.943 135.304 327.412L141.025 348.649C141.184 349.239 140.347 349.544 140.089 348.989L130.821 329.043C130.616 328.603 130.211 328.289 129.734 328.2L117.077 325.853C116.703 325.784 116.541 325.338 116.783 325.044L124.97 315.11C125.278 314.735 125.386 314.235 125.26 313.766L119.539 292.528Z" fill="#BDE3EF" stroke="#5BC3CF"/>
<path d="M177.59 378.372C177.563 376.944 179.359 376.29 180.257 377.402L189.218 388.506C189.798 389.224 190.726 389.564 191.631 389.391L207.487 386.377C209.158 386.059 209.985 388.329 208.5 389.16L194.416 397.042C193.611 397.492 193.119 398.349 193.137 399.271L193.41 413.538C193.436 414.967 191.64 415.621 190.743 414.509L181.781 403.404C181.202 402.687 180.275 402.347 179.369 402.519L163.512 405.534C161.841 405.852 161.015 403.582 162.499 402.751L176.584 394.868C177.389 394.418 177.881 393.561 177.863 392.639L177.59 378.372Z" fill="#BDE3EF" stroke="#5BC3CF"/>
</g>
<defs>
<clipPath id="clip0_66_887">
<rect width="512" height="512" fill="white"/>
</clipPath>
</defs>
</svg>
