<svg width="512" height="512" viewBox="0 0 512 512" fill="none" xmlns="http://www.w3.org/2000/svg">
<g clip-path="url(#clip0_66_65)">
<path opacity="0.11" d="M177.514 512.319C181.014 478.986 192.514 405.819 202.514 377.319C183.014 372.319 148.441 365.592 120.514 355.819C102.793 349.618 88.4338 342.186 80.5143 335.819C75.0143 330.319 57.5143 296.319 51.5143 280.819C39.5143 247.819 10.5143 176.819 39.5143 171.819C45.8476 170.319 59.4143 173.019 63.0143 195.819C63.8476 191.153 67.5143 182.319 73.0143 185.319C75.0143 187.819 67.2431 205.584 67.5143 230.319C68.5143 254.819 79.0143 287.319 88.5143 310.319C89.0143 311.53 95.5143 326.319 106.014 331.319C124.514 340.819 176.915 355.066 207.514 360.819C208.514 359.153 210.514 354.319 210.514 348.319C207.014 345.153 199.814 337.219 199.014 330.819C165.514 322.319 159.014 282.819 185.014 267.319C179.014 235.819 205.014 186.319 250.014 184.319C283.514 183.319 348.214 194.319 345.014 270.319C343.583 304.319 329.514 324.319 303.514 345.319C332.014 338.819 391.514 318.819 401.514 306.319C411.848 294.153 434.114 265.019 440.514 245.819C440.014 234.319 438.014 211.919 444.014 212.319C445.681 212.153 448.814 214.519 448.014 225.319C449.014 217.319 461.514 201.319 472.514 201.819C481.56 202.231 493.514 215.819 475.514 245.319C459.014 268.319 417.914 314.419 405.514 328.819C398.014 333.319 390.909 334.819 380.014 338.319C347.848 348.653 280.914 370.119 270.514 373.319C251.014 412.819 281.014 440.819 283.014 512.319" stroke="#7ACEE7" stroke-width="2"/>
<ellipse cx="227" cy="405.5" rx="17" ry="16.5" fill="#8AE1EB"/>
<ellipse cx="254" cy="410.5" rx="15" ry="15.5" fill="#8AE1EB"/>
<circle cx="263" cy="424" r="10" fill="#8AE1EB"/>
<circle cx="243" cy="421" r="10" fill="#8AE1EB"/>
<ellipse cx="309" cy="412.5" rx="14" ry="13.5" fill="#8AE1EB"/>
<ellipse cx="287.5" cy="407.5" rx="21.5" ry="20.5" fill="#8AE1EB"/>
<circle cx="204.5" cy="405.5" r="11.5" fill="#8AE1EB"/>
<circle cx="186.5" cy="396.5" r="11.5" fill="#8AE1EB"/>
<circle cx="172.5" cy="405.5" r="11.5" fill="#8AE1EB"/>
<circle cx="172.5" cy="414.5" r="8.5" fill="#C9E7EB"/>
<circle cx="178" cy="431" r="12" fill="#C9E7EB"/>
<circle cx="192.5" cy="450.5" r="19.5" fill="#C9E7EB"/>
<circle cx="192.5" cy="423.5" r="19.5" fill="#C9E7EB"/>
<circle cx="222.5" cy="430.5" r="19.5" fill="#C9E7EB"/>
<circle cx="246.5" cy="443.5" r="19.5" fill="#C9E7EB"/>
<circle cx="275.5" cy="440.5" r="19.5" fill="#C9E7EB"/>
<circle cx="246" cy="474" r="23" fill="#C9E7EB"/>
<circle cx="218.5" cy="461.5" r="18.5" fill="#C9E7EB"/>
<circle cx="274" cy="459" r="18" fill="#C9E7EB"/>
<circle cx="294.5" cy="450.5" r="15.5" fill="#C9E7EB"/>
<circle cx="310" cy="437" r="18" fill="#C9E7EB"/>
<circle cx="298.5" cy="436.5" r="13.5" fill="#C9E7EB"/>
<circle cx="309.5" cy="420.5" r="10.5" fill="#C9E7EB"/>
<path d="M249.001 465C252.334 470.167 261.801 476.8 273.001 462" stroke="#5BC3CF" stroke-width="2" stroke-linecap="round"/>
<path d="M180.899 428.905C177.625 434.109 175.614 445.493 193.761 449.388" stroke="#5BC3CF" stroke-width="2" stroke-linecap="round"/>
<path d="M218 417.5C228.5 412 241 421.5 239 431.5" stroke="#5BC3CF" stroke-width="2" stroke-linecap="round"/>
<path d="M239.147 430.99C242.5 429 249.5 431.5 249.5 437" stroke="#5BC3CF" stroke-width="2" stroke-linecap="round"/>
<path d="M192 405.029C197 402.029 210 405.529 210.001 416.342" stroke="#5BC3CF" stroke-width="2" stroke-linecap="round"/>
<path d="M261 430C266 421 285.5 423.5 287.5 427.5" stroke="#5BC3CF" stroke-width="2" stroke-linecap="round"/>
<path d="M287 437.5C286 431.5 286.5 424.5 300.5 425.5" stroke="#5BC3CF" stroke-width="2" stroke-linecap="round"/>
<path d="M269 476.5C258 512.5 227 494 223.5 479.5C211.9 482.7 203.667 473.167 201 468C173 474.4 171.667 453.667 174.5 442.5C162.5 436.9 166.167 426.833 169.5 422.5C163.9 420.9 163.167 415.167 163.5 412.5C158.501 409.5 158.199 394.1 174.999 394.5C174 387.5 194 376 198 396C199.5 394.167 204.5 391.8 212.5 397C215.5 389.5 232.2 380.8 243 400C246.5 395.333 256.1 389.2 266.5 402C268.5 389 293 375.4 307 399C313.5 395 331.6 407.5 320 421.5C339.5 440 319 457 309.5 455C307.5 466.2 296.333 466.667 291 465.5M269 476.5C274.167 478 285.8 477.9 291 465.5M269 476.5C268.333 476.333 266.8 475.6 266 474M291 465.5C291.333 464.5 292 462.4 292 462" stroke="#5BC3CF" stroke-width="2" stroke-linecap="round"/>
<ellipse cx="355" cy="399.5" rx="14" ry="13.5" fill="#8AE1EB"/>
<ellipse cx="342.5" cy="412" rx="10.5" ry="10" fill="#8AE1EB"/>
<ellipse cx="369.5" cy="395" rx="10.5" ry="10" fill="#8AE1EB"/>
<circle cx="342.5" cy="415.5" r="10.5" fill="#C9E7EB"/>
<ellipse cx="359.5" cy="419" rx="16.5" ry="16" fill="#C9E7EB"/>
<circle cx="371" cy="398" r="9" fill="#C9E7EB"/>
<circle cx="362" cy="401" r="9" fill="#C9E7EB"/>
<circle cx="373" cy="406" r="9" fill="#C9E7EB"/>
<path d="M344.5 426C332.5 426.4 331.167 417.833 332 413.5C331.2 405.5 338 402.5 341.5 402C341 394.167 344.4 380.4 362 388C371 378.5 383 388.5 380 396.5V400M344.5 426C347 438 380 440 375.5 415C379.333 413.667 385.6 408.8 380 400M344.5 426C344.833 426 345.7 425.5 346.5 423.5M380 400C379.667 399.333 377.8 397.9 373 397.5" stroke="#5BC3CF" stroke-width="2" stroke-linecap="round"/>
<ellipse cx="375.5" cy="338" rx="10.5" ry="10" fill="#8AE1EB"/>
<ellipse cx="388.5" cy="336" rx="10.5" ry="10" fill="#8AE1EB"/>
<ellipse cx="398.5" cy="317" rx="10.5" ry="10" fill="#8AE1EB"/>
<ellipse cx="386.5" cy="323" rx="10.5" ry="10" fill="#8AE1EB"/>
<circle cx="393" cy="302" r="13" fill="#8AE1EB"/>
<circle cx="402" cy="273" r="13" fill="#8AE1EB"/>
<circle cx="397" cy="289" r="8" fill="#8AE1EB"/>
<circle cx="375.5" cy="353.5" r="7.5" fill="#8AE1EB"/>
<circle cx="384" cy="349" r="9" fill="#C9E7EB"/>
<circle cx="377.5" cy="357.5" r="4.5" fill="#C9E7EB"/>
<circle cx="395" cy="337" r="9" fill="#C9E7EB"/>
<circle cx="408" cy="336" r="20" fill="#C9E7EB"/>
<circle cx="423" cy="315" r="17" fill="#C9E7EB"/>
<circle cx="412" cy="308" r="17" fill="#C9E7EB"/>
<circle cx="423.5" cy="292.5" r="12.5" fill="#C9E7EB"/>
<circle cx="409.5" cy="284.5" r="12.5" fill="#C9E7EB"/>
<circle cx="409.5" cy="269.5" r="6.5" fill="#C9E7EB"/>
<path d="M427.5 331.5C433.5 355.1 404.5 362 393 349.5C392 357.5 386 358.5 382 358C381.5 360 379 362.5 377 362C365 360.4 367.5 350 371.5 347C357.5 337.4 369.5 324.5 377.5 328C372.7 317.6 381.167 313.667 386 313C373.2 301.8 382.667 292.667 389 289.5C387.5 286.5 390.5 282.5 393 282C381.8 260.8 404 254.5 410.5 263C418.1 264.6 416.667 270.667 415 273.5C420.2 274.3 421.5 278.167 421.5 280C439.1 278.8 436.5 293.5 433 301C448.2 317.8 435.667 328.333 427.5 331.5ZM427.5 331.5C427.333 330.333 426.8 327.8 426 327" stroke="#5BC3CF" stroke-width="2" stroke-linecap="round"/>
<path d="M399.5 291.5C400.334 293.167 404.5 297 407.5 297M405 310.5C398.6 311.3 398.334 316.167 399 318.5C396.667 318.167 392.5 318.8 394.5 324" stroke="#5BC3CF" stroke-width="2" stroke-linecap="round"/>
<circle cx="207" cy="333" r="13" fill="#8AE1EB"/>
<circle cx="244" cy="335" r="27" fill="#8AE1EB"/>
<circle cx="283" cy="331" r="24" fill="#8AE1EB"/>
<circle cx="320" cy="312" r="24" fill="#8AE1EB"/>
<circle cx="192" cy="299" r="29" fill="#C9E7EB"/>
<circle cx="225" cy="303" r="29" fill="#C9E7EB"/>
<circle cx="256" cy="311" r="29" fill="#C9E7EB"/>
<circle cx="281" cy="306" r="29" fill="#C9E7EB"/>
<circle cx="317" cy="299" r="29" fill="#C9E7EB"/>
<circle cx="346.5" cy="290.5" r="14.5" fill="#C9E7EB"/>
<circle cx="337.5" cy="265.5" r="14.5" fill="#C9E7EB"/>
<circle cx="345.5" cy="240.5" r="17.5" fill="#C9E7EB"/>
<circle cx="316.5" cy="191.5" r="24.5" fill="#C9E7EB"/>
<circle cx="336.5" cy="218.5" r="10.5" fill="#C9E7EB"/>
<circle cx="287.5" cy="172.5" r="12.5" fill="#C9E7EB"/>
<circle cx="266.5" cy="176.5" r="12.5" fill="#C9E7EB"/>
<ellipse cx="234" cy="178.5" rx="27" ry="26.5" fill="#C9E7EB"/>
<circle cx="201" cy="195" r="13" fill="#C9E7EB"/>
<circle cx="179" cy="219" r="24" fill="#C9E7EB"/>
<circle cx="183" cy="269" r="13" fill="#C9E7EB"/>
<circle cx="170" cy="253" r="13" fill="#C9E7EB"/>
<circle cx="188" cy="249" r="13" fill="#C9E7EB"/>
<ellipse cx="212.5" cy="269.5" rx="24.5" ry="22.5" fill="#C9E7EB"/>
<ellipse cx="220.5" cy="208.5" rx="24.5" ry="22.5" fill="#C9E7EB"/>
<ellipse cx="276.5" cy="195.5" rx="24.5" ry="22.5" fill="#C9E7EB"/>
<ellipse cx="254.5" cy="216.5" rx="24.5" ry="22.5" fill="#C9E7EB"/>
<ellipse cx="251.5" cy="250.5" rx="24.5" ry="22.5" fill="#C9E7EB"/>
<ellipse cx="254.5" cy="272.5" rx="24.5" ry="22.5" fill="#C9E7EB"/>
<ellipse cx="285.5" cy="266.5" rx="24.5" ry="22.5" fill="#C9E7EB"/>
<ellipse cx="319.5" cy="256.5" rx="24.5" ry="22.5" fill="#C9E7EB"/>
<ellipse cx="316.5" cy="230.5" rx="24.5" ry="22.5" fill="#C9E7EB"/>
<ellipse cx="288" cy="209" rx="18" ry="17" fill="#C9E7EB"/>
<ellipse cx="213.5" cy="233.5" rx="21.5" ry="20.5" fill="#8AE1EB"/>
<ellipse cx="279.5" cy="298.5" rx="21.5" ry="20.5" fill="#8AE1EB"/>
<circle cx="294" cy="237" r="21" fill="#8AE1EB"/>
<circle cx="280" cy="223" r="14" fill="#8AE1EB"/>
<ellipse cx="221" cy="238.5" rx="22" ry="20.5" fill="#C9E7EB"/>
<ellipse cx="273" cy="291" rx="24" ry="22" fill="#C9E7EB"/>
<ellipse cx="269" cy="228.5" rx="17" ry="16.5" fill="#C9E7EB"/>
<circle cx="286" cy="242" r="20" fill="#C9E7EB"/>
<path d="M207.5 183.5C201.5 162.5 233.7 132.6 258.5 167C261.167 164 268.4 160 276 168C279 157.5 299.6 153.9 300 173.5C314 158 358 173.5 334.5 208C340.5 207.833 351.2 210.6 346 223C358 221 376.5 243.5 350 257.5M207.5 183.5C190.7 179.1 187.499 190.667 187.998 197M207.5 183.5C207.5 183.5 208 183.5 211.5 186M350 257.5C352 261 354.3 269.7 347.5 276.5C360 275.5 371 301 345.5 305C345.333 306.167 344.8 308.8 344 310C344.167 321.833 337 342.9 307 332.5C304.167 345 292.3 365.8 267.5 349C261.5 360 230.7 375.7 217.5 340.5C212.999 347.5 191.4 350 195 328C178.999 333.5 147.399 307.8 172.999 277M350 257.5C349.5 256.5 350.375 258.212 348 253.5M172.999 277C171.832 276.333 169.599 273.2 169.999 266M172.999 277C173.5 279 175 280 177.5 280M169.999 266C157.498 268.5 147.499 246.1 167.499 240.5C145.5 229 151.598 187.8 187.998 197M169.999 266C169.832 266.667 169.7 266.7 170.5 261.5M187.998 197C187.999 197.833 187.998 200 189 201.5" stroke="#5BC3CF" stroke-width="2" stroke-linecap="round"/>
<path d="M204.499 252C193 242 197.399 213.4 228.999 219" stroke="#5BC3CF" stroke-width="2" stroke-linecap="round"/>
<path d="M243.5 187.5C250.167 179.333 275.1 169.8 285.5 193" stroke="#5BC3CF" stroke-width="2" stroke-linecap="round"/>
<path d="M320 210C326 207 337.5 218 327 229M189 312C190.167 317.667 196.6 327.3 213 320.5" stroke="#5BC3CF" stroke-width="2" stroke-linecap="round"/>
<path d="M329 257.5C340.5 257.5 338.5 283.5 323 282.5M278 278.5C274.667 284.5 264.2 293.9 249 283.5" stroke="#5BC3CF" stroke-width="2" stroke-linecap="round"/>
<path d="M206 283C206 293.833 213 312.8 241 302" stroke="#5BC3CF" stroke-width="2" stroke-linecap="round"/>
<path d="M260.5 216C268 208 278.9 210.4 284.5 222C297.5 216 324 245.5 290 262" stroke="#5BC3CF" stroke-width="2" stroke-linecap="round"/>
<path d="M261.5 310.5C264.5 312.333 273.5 315 284.5 310.5C298.422 304.805 297.5 293 297 286" stroke="#5BC3CF" stroke-width="2" stroke-linecap="round"/>
<circle cx="402" cy="192" r="12" fill="#8AE1EB"/>
<circle cx="396" cy="178" r="12" fill="#8AE1EB"/>
<circle cx="383" cy="169" r="12" fill="#8AE1EB"/>
<circle cx="384" cy="150" r="12" fill="#8AE1EB"/>
<circle cx="406" cy="193" r="10" fill="#C9E7EB"/>
<circle cx="414" cy="180" r="10" fill="#C9E7EB"/>
<circle cx="406" cy="179" r="10" fill="#C9E7EB"/>
<circle cx="397" cy="165" r="10" fill="#C9E7EB"/>
<circle cx="409" cy="167" r="10" fill="#C9E7EB"/>
<circle cx="401.5" cy="150.5" r="12.5" fill="#C9E7EB"/>
<circle cx="388" cy="154" r="9" fill="#C9E7EB"/>
<circle cx="385" cy="139" r="9" fill="#C9E7EB"/>
<circle cx="375" cy="139" r="6" fill="#C9E7EB"/>
<path d="M415.5 190C416.7 199.2 413.5 203 407 203C390.2 206.2 389 194.667 390.5 188.5C385.3 186.5 384.333 182.667 384.5 181C366.5 179 368.5 161.5 376 159C369.2 154.6 371.167 147.833 373 145C362.6 136.2 373.5 129.5 378 133.5C381 126 394.5 129 394 141C399 133.5 420.4 137.5 412 157.5C421.2 159.5 419.834 167.333 418 171C431.2 179.4 422.5 189 415.5 190ZM415.5 190C415 190 413.7 189.8 412.5 189" stroke="#5BC3CF" stroke-width="2" stroke-linecap="round"/>
<path d="M387 164C386.5 167.833 387.8 174.6 397 175C396 178 395 181.2 399 186" stroke="#5BC3CF" stroke-width="2" stroke-linecap="round"/>
<circle cx="143.5" cy="322.5" r="13.5" fill="#8AE1EB"/>
<circle cx="133.5" cy="299.5" r="13.5" fill="#8AE1EB"/>
<circle cx="120.5" cy="282.5" r="13.5" fill="#8AE1EB"/>
<circle cx="124.5" cy="261.5" r="12.5" fill="#8AE1EB"/>
<circle cx="124.5" cy="239.5" r="12.5" fill="#8AE1EB"/>
<circle cx="120" cy="222" r="11" fill="#8AE1EB"/>
<circle cx="102" cy="241" r="19" fill="#C9E7EB"/>
<circle cx="93.5" cy="262.5" r="10.5" fill="#C9E7EB"/>
<circle cx="94.5" cy="289.5" r="19.5" fill="#C9E7EB"/>
<circle cx="120.5" cy="321.5" r="19.5" fill="#C9E7EB"/>
<circle cx="102.5" cy="310.5" r="12.5" fill="#C9E7EB"/>
<circle cx="112.5" cy="292.5" r="12.5" fill="#C9E7EB"/>
<circle cx="108.5" cy="265.5" r="13.5" fill="#C9E7EB"/>
<circle cx="136.5" cy="333.5" r="6.5" fill="#C9E7EB"/>
<circle cx="147.5" cy="335.5" r="6.5" fill="#C9E7EB"/>
<path d="M131.5 337.5C134.7 341.9 139.167 339.667 141 338C148 349.5 158.5 337 153.5 332.5C164.5 316 150.833 310.333 143 309C153.4 291.8 141 286.5 133.5 286C135.1 279.6 131.833 274.667 130 273C143.2 262.6 135.833 253.667 130.5 250.5C142.9 238.9 134.667 230.667 129 228C137.5 205 106 205 109 223.5C80.5 216 77.5 248.5 88 253.5C78 260.3 83.4999 268 87.4999 271C63.0999 288.6 80 308.5 89.9999 308.5C88.3999 319.7 96.6665 322.833 101 323C107.8 345.8 124.167 342.167 131.5 337.5ZM131.5 337.5L133.5 336" stroke="#5BC3CF" stroke-width="2" stroke-linecap="round"/>
<path d="M119.5 257.5C126.7 271.5 116.833 277.667 111 279C119.5 279 133.8 289.2 121 302C124.833 303.5 131.3 308 126.5 314" stroke="#5BC3CF" stroke-width="2" stroke-linecap="round"/>
<circle cx="195" cy="123" r="10" fill="#8AE1EB"/>
<circle cx="216.5" cy="122.5" r="12.5" fill="#8AE1EB"/>
<circle cx="239.5" cy="120.5" r="12.5" fill="#8AE1EB"/>
<circle cx="268" cy="117" r="17" fill="#8AE1EB"/>
<circle cx="301" cy="113" r="17" fill="#8AE1EB"/>
<circle cx="327" cy="114" r="17" fill="#8AE1EB"/>
<circle cx="310" cy="99" r="17" fill="#8AE1EB"/>
<circle cx="285" cy="96" r="17" fill="#8AE1EB"/>
<circle cx="261" cy="93" r="17" fill="#8AE1EB"/>
<circle cx="246" cy="102" r="17" fill="#8AE1EB"/>
<circle cx="235" cy="93" r="17" fill="#8AE1EB"/>
<circle cx="224" cy="106" r="17" fill="#8AE1EB"/>
<circle cx="211" cy="105" r="17" fill="#8AE1EB"/>
<circle cx="181" cy="119" r="11" fill="#C9E7EB"/>
<circle cx="187.5" cy="97.5" r="18.5" fill="#C9E7EB"/>
<circle cx="211.5" cy="71.5" r="26.5" fill="#C9E7EB"/>
<circle cx="236.5" cy="45.5" r="26.5" fill="#C9E7EB"/>
<circle cx="255.5" cy="69.5" r="26.5" fill="#C9E7EB"/>
<circle cx="264.5" cy="58.5" r="26.5" fill="#C9E7EB"/>
<circle cx="293.5" cy="58.5" r="26.5" fill="#C9E7EB"/>
<circle cx="315.5" cy="78.5" r="26.5" fill="#C9E7EB"/>
<circle cx="338.5" cy="84.5" r="17.5" fill="#C9E7EB"/>
<circle cx="344" cy="107" r="15" fill="#C9E7EB"/>
<path d="M210 45C200 45.8333 181.2 53.8 186 79C177 79 161.2 89.7 174 110.5C166 117.5 168.5 134.9 186.5 128.5C190.167 133 198.9 138.8 204.5 126C206.5 134.5 220.1 141.2 228.5 126C231.5 133 248.8 138.6 252 123C256 135 278.2 143.3 285 118.5C288.5 126 299.1 137.7 313.5 124.5C319.167 130.333 332.8 138 342 122C352 125.5 369.7 109 352.5 95C356.833 87.1667 360.3 70.6 339.5 67M210 45C215.6 7.79999 254.5 15.5 259.5 32.5C267.5 29.7 275.833 33.6667 279 36C305.8 23.6 317.167 41.8333 319.5 52.5C331.5 52.5 337.833 62.1667 339.5 67M210 45C210 45.8333 210 47.9 210 49.5M339.5 67C339.833 67.5 340.5 69.3 340.5 72.5" stroke="#5BC3CF" stroke-width="2" stroke-linecap="round"/>
<path d="M245 47C249.333 42.8333 260 37.4 268 49M206 98.5C215.5 102.833 235.7 105.4 240.5 81M210.5 113.5C214.167 114.167 221.4 112.8 221 102" stroke="#5BC3CF" stroke-width="2" stroke-linecap="round"/>
<path d="M243.5 93.5C249.667 95.6667 261.7 97.6 260.5 88M255.5 84C260.667 88 272.7 93.2 279.5 82C283.667 90.6667 296.2 106 313 98" stroke="#5BC3CF" stroke-width="2" stroke-linecap="round"/>
</g>
<defs>
<clipPath id="clip0_66_65">
<rect width="512" height="512" fill="white"/>
</clipPath>
</defs>
</svg>
