<svg width="512" height="512" viewBox="0 0 512 512" fill="none" xmlns="http://www.w3.org/2000/svg">
<g clip-path="url(#clip0_83_3546)">
<path d="M264.578 516C261.778 489.2 232.745 412 219.078 380L140.078 386C144.878 403.6 140.078 482.167 138.078 516H264.578Z" fill="#7ACEE7" stroke="black" stroke-linecap="round"/>
<path d="M65.5781 291.5C73.9781 338.7 118.745 374.5 140.078 386.5C159.911 389.5 203.378 392.4 218.578 380C237.578 364.5 278.578 335.5 276.578 260.5C274.578 185.5 230.078 153.5 155.578 157.5C81.0781 161.5 55.0781 232.5 65.5781 291.5Z" fill="#7ACEE7"/>
<path d="M134.078 383C96.5779 399 17.578 436.9 1.578 460.5C0.244675 463.667 2.67801 473.4 23.078 487C43.478 500.6 66.5779 513 70.5779 515L204.578 513.5C207.078 501.667 204.578 471.5 185.578 470C166.578 468.5 163.405 486.26 152.078 495.183C122.047 488.619 67.051 475.141 37.078 463.44C49.2447 452.294 87.2779 425 142.078 405L144.078 389L134.078 383Z" fill="#7ACEE7"/>
<path d="M225.578 396.5L216.578 376C220.578 373.5 351.578 360 386.078 374C413.678 385.2 443.578 428.333 455.078 448.5C469.878 450.1 481.245 462.5 485.078 468.5C493.878 493.3 467.078 510 454.078 513.5L404.578 512.5C392.178 488.5 407.745 464.667 416.578 457C406.978 431.8 386.578 407.5 377.578 398.5C347.178 389.7 263.578 393.5 225.578 396.5Z" fill="#7ACEE7"/>
<path d="M202.578 513C214.078 503.5 208.578 473.371 184.578 469.5C169.078 467 162.648 485.676 152.467 494M152.467 494C148.545 497.207 145.358 500.164 143.578 502.5L152.467 494ZM152.467 494C120.578 490.5 55.0782 471.4 37.0782 463C44.1675 457.767 53.5958 450.208 65.5782 442.5C89.0903 427.375 120.086 411.359 142.078 405" stroke="black" stroke-linecap="round"/>
<path d="M134.078 383C111.078 392.5 10.0781 439.5 1.57812 461C-3.24718 473.205 48.2448 504 68.0781 513.5H204.078" stroke="black" stroke-linecap="round"/>
<path d="M222.078 387.5L226.078 396.5C266.578 393.833 353.678 390.5 378.078 398.5C386.745 406.5 406.578 429.3 416.578 456.5C416.413 456.643 416.247 456.791 416.078 456.943M417.578 513H454.578C462.078 510 482.778 500.9 485.578 486.5C486.412 483.333 487.878 474.9 485.078 468.5C481.578 460.5 469.578 451.5 455.078 448.5M417.578 513C411.578 513 406.578 500.5 405.578 493C403.416 476.78 409.94 462.498 416.078 456.943M417.578 513L404.578 512C391.378 490.4 407.078 465.629 416.078 456.943M455.078 448.5C440.578 445.5 427.578 449.887 416.078 456.943M455.078 448.5C444.745 429.667 416.878 388.6 388.078 375C359.278 361.4 267.078 369.333 224.578 375" stroke="black" stroke-linecap="round"/>
<path d="M140.578 387C117.578 372.5 83.5781 349.5 67.5781 299.5C60.4115 270.667 58.5781 206.5 107.078 173C116.578 167.5 129.8 161.74 142.078 159C170.578 156 199.836 155.362 225.578 168C254.153 182.029 276.404 211.422 276.578 270.5C276.578 284.5 275.078 307.5 259.078 336C239.578 367 231.768 367.986 217.578 381.5" stroke="black" stroke-linecap="round"/>
<path d="M143.078 398C142.078 398.5 141.578 405 142.078 405" stroke="black" stroke-linecap="round"/>
<path d="M37.0781 463C33.7448 462 25.8781 459.2 21.0781 456" stroke="black" stroke-linecap="round"/>
<path d="M378.578 399C377.578 396.833 375.978 391.8 377.578 389" stroke="black" stroke-linecap="round"/>
<path d="M457.078 512L404.578 512" stroke="black" stroke-linecap="round"/>
<path d="M264.078 511.866L64.3963 511.866" stroke="black" stroke-linecap="round"/>
<ellipse cx="176.161" cy="259.5" rx="8.5" ry="9" fill="black"/>
<ellipse cx="208.161" cy="261.5" rx="8.5" ry="9" fill="black"/>
<ellipse cx="177.661" cy="259" rx="3" ry="3.5" fill="white"/>
<ellipse cx="208.661" cy="261" rx="3" ry="3.5" fill="white"/>
<path d="M165.784 301.614C173.384 305.214 175.284 308.614 190.284 308.614C195.118 308.114 206.084 305.614 211.284 299.614C216.484 293.614 223.451 291.114 226.284 290.614C241.784 289.114 251.284 302.614 248.784 316.114C246.284 329.614 238.784 334.614 225.284 340.114C211.784 345.614 206.284 345.114 184.784 346.114C167.584 346.914 154.284 345.114 149.784 344.114C119.284 331.614 122.784 323.114 121.784 316.114C120.784 309.114 125.784 295.614 140.284 295.114C154.784 294.614 156.284 297.114 165.784 301.614Z" fill="#A0212E" stroke="black"/>
<path d="M167.448 338.066C163.678 343.266 161.686 344.5 162.661 345.5L149.161 344L137.161 338.066C139.495 335.899 145.761 330.466 150.161 328.066C155.661 325.066 175.161 324.066 175.661 328.566C176.161 333.066 172.161 331.566 167.448 338.066Z" fill="#F0ABE9" stroke="black"/>
<mask id="mask0_83_3546" style="mask-type:alpha" maskUnits="userSpaceOnUse" x="121" y="289" width="129" height="58">
<path d="M165.784 301.614C173.384 305.214 175.284 308.614 190.284 308.614C195.118 308.114 206.084 305.614 211.284 299.614C216.484 293.614 223.451 291.114 226.284 290.614C241.784 289.114 251.284 302.614 248.784 316.114C246.284 329.614 238.784 334.614 225.284 340.114C211.784 345.614 206.284 345.114 184.784 346.114C167.584 346.914 154.284 345.114 149.784 344.114C119.284 331.614 122.784 323.114 121.784 316.114C120.784 309.114 125.784 295.614 140.284 295.114C154.784 294.614 156.284 297.114 165.784 301.614Z" fill="#AF1D27" stroke="black"/>
</mask>
<g mask="url(#mask0_83_3546)">
<path d="M181.284 337.614C179.703 337.614 178.215 338.551 177.101 340.179C175.988 341.805 175.284 344.079 175.284 346.614C175.284 349.15 175.988 351.424 177.101 353.05C178.215 354.678 179.703 355.614 181.284 355.614C182.866 355.614 184.354 354.678 185.468 353.05C186.58 351.424 187.284 349.15 187.284 346.614C187.284 344.079 186.58 341.805 185.468 340.179C184.354 338.551 182.866 337.614 181.284 337.614Z" fill="white" stroke="black"/>
<path d="M164.784 339.614C163.638 339.614 162.525 340.359 161.673 341.723C160.825 343.079 160.284 344.984 160.284 347.114C160.284 349.245 160.825 351.15 161.673 352.506C162.525 353.87 163.638 354.614 164.784 354.614C165.931 354.614 167.044 353.87 167.896 352.506C168.743 351.15 169.284 349.245 169.284 347.114C169.284 344.984 168.743 343.079 167.896 341.723C167.044 340.359 165.931 339.614 164.784 339.614Z" fill="white" stroke="black"/>
<path d="M151.776 337.651C150.33 337.396 148.846 337.937 147.61 339.093C146.374 340.249 145.412 342.001 145.045 344.08C144.678 346.159 144.983 348.134 145.75 349.643C146.516 351.152 147.726 352.168 149.172 352.423C150.617 352.678 152.101 352.137 153.337 350.981C154.573 349.825 155.536 348.073 155.903 345.994C156.269 343.915 155.964 341.94 155.197 340.431C154.431 338.922 153.222 337.906 151.776 337.651Z" fill="white" stroke="black"/>
<path d="M196.452 339.048C195.311 339.148 194.267 339.987 193.537 341.42C192.81 342.845 192.438 344.79 192.623 346.912C192.809 349.034 193.514 350.885 194.477 352.162C195.444 353.446 196.618 354.091 197.76 353.991C198.902 353.891 199.945 353.052 200.676 351.62C201.402 350.195 201.775 348.25 201.589 346.128C201.403 344.005 200.698 342.155 199.736 340.878C198.768 339.594 197.594 338.948 196.452 339.048Z" fill="white" stroke="black"/>
<path d="M210.72 337.891C209.567 338.2 208.653 339.095 208.129 340.355C207.606 341.615 207.487 343.215 207.926 344.852C208.364 346.488 209.267 347.815 210.35 348.644C211.433 349.473 212.673 349.791 213.825 349.483C214.978 349.174 215.892 348.279 216.416 347.019C216.939 345.759 217.058 344.159 216.619 342.522C216.181 340.886 215.278 339.559 214.195 338.73C213.112 337.901 211.872 337.583 210.72 337.891Z" fill="white" stroke="black"/>
<path d="M225.261 332.295C223.932 332.702 222.917 333.894 222.401 335.608C221.887 337.319 221.893 339.493 222.572 341.715C223.251 343.937 224.462 345.742 225.845 346.873C227.231 348.006 228.74 348.427 230.068 348.02C231.397 347.614 232.412 346.422 232.927 344.708C233.441 342.997 233.436 340.823 232.756 338.601C232.077 336.379 230.866 334.574 229.483 333.443C228.097 332.31 226.59 331.889 225.261 332.295Z" fill="white" stroke="black"/>
<path d="M186.284 299.614C184.703 299.614 183.215 300.551 182.101 302.179C180.988 303.805 180.284 306.079 180.284 308.614C180.284 311.15 180.988 313.424 182.101 315.05C183.215 316.678 184.703 317.614 186.284 317.614C187.866 317.614 189.354 316.678 190.468 315.05C191.58 313.424 192.284 311.15 192.284 308.614C192.284 306.079 191.58 303.805 190.468 302.179C189.354 300.551 187.866 299.614 186.284 299.614Z" fill="white" stroke="black"/>
<path d="M200.021 296.135C198.626 296.257 197.353 297.37 196.472 299.28C195.599 301.175 195.166 303.759 195.413 306.577C195.66 309.395 196.534 311.864 197.723 313.579C198.922 315.307 200.369 316.181 201.764 316.059C203.158 315.937 204.431 314.825 205.312 312.915C206.185 311.02 206.618 308.436 206.371 305.618C206.125 302.8 205.25 300.331 204.061 298.616C202.862 296.888 201.415 296.013 200.021 296.135Z" fill="white" stroke="black"/>
<path d="M209.04 289.037C207.483 289.635 206.383 291.167 205.929 293.283C205.475 295.393 205.684 298.02 206.694 300.649C207.703 303.279 209.305 305.371 211.054 306.636C212.808 307.904 214.651 308.306 216.208 307.709C217.765 307.111 218.865 305.578 219.32 303.463C219.773 301.352 219.564 298.726 218.555 296.096C217.545 293.467 215.943 291.375 214.194 290.11C212.44 288.842 210.598 288.439 209.04 289.037Z" fill="white" stroke="black"/>
<path d="M224.5 281.649C222.924 281.787 221.524 282.849 220.556 284.568C219.589 286.285 219.086 288.611 219.307 291.137C219.528 293.663 220.428 295.867 221.678 297.39C222.929 298.915 224.493 299.718 226.069 299.58C227.645 299.442 229.045 298.38 230.013 296.661C230.979 294.944 231.483 292.618 231.262 290.092C231.041 287.565 230.141 285.361 228.891 283.839C227.64 282.314 226.076 281.511 224.5 281.649Z" fill="white" stroke="black"/>
<path d="M170.784 294.614C169.059 294.614 167.447 295.613 166.244 297.33C165.043 299.046 164.284 301.443 164.284 304.114C164.284 306.786 165.043 309.183 166.244 310.899C167.447 312.616 169.059 313.614 170.784 313.614C172.509 313.614 174.122 312.616 175.324 310.899C176.526 309.183 177.284 306.786 177.284 304.114C177.284 301.443 176.526 299.046 175.324 297.33C174.122 295.613 172.509 294.614 170.784 294.614Z" fill="white" stroke="black"/>
<path d="M153.784 287.614C152.059 287.614 150.447 288.613 149.244 290.33C148.043 292.046 147.284 294.443 147.284 297.114C147.284 299.786 148.043 302.183 149.244 303.899C150.447 305.616 152.059 306.614 153.784 306.614C155.509 306.614 157.122 305.616 158.324 303.899C159.526 302.183 160.284 299.786 160.284 297.114C160.284 294.443 159.526 292.046 158.324 290.33C157.122 288.613 155.509 287.614 153.784 287.614Z" fill="white" stroke="black"/>
</g>
<path d="M165.784 301.614C173.384 305.214 175.284 308.614 190.284 308.614C195.118 308.114 206.084 305.614 211.284 299.614C216.484 293.614 223.451 291.114 226.284 290.614C241.784 289.114 251.284 302.614 248.784 316.114C246.284 329.614 238.784 334.614 225.284 340.114C211.784 345.614 206.284 345.114 184.784 346.114C167.584 346.914 154.284 345.114 149.784 344.114C119.284 331.614 122.784 323.114 121.784 316.114C120.784 309.114 125.784 295.614 140.284 295.114C154.784 294.614 156.284 297.114 165.784 301.614Z" stroke="black"/>
<path d="M133.161 282.5C117.495 289.667 94.0613 313.1 125.661 349.5" stroke="black" stroke-linecap="round"/>
<path d="M190.161 360C207.495 360.333 246.573 349 254.661 327C267.161 293 237.661 283 233.161 283" stroke="black" stroke-linecap="round"/>
<path d="M155.161 378C164.995 384.167 187.761 390.3 200.161 365.5" stroke="black" stroke-linecap="round"/>
<path d="M158 205.5C161.333 202.333 169.8 196 177 196" stroke="black" stroke-linecap="round"/>
<path d="M204.5 201C208 202 216 206.5 220 216.5" stroke="black" stroke-linecap="round"/>
</g>
<defs>
<clipPath id="clip0_83_3546">
<rect width="512" height="512" fill="white"/>
</clipPath>
</defs>
</svg>
