<svg width="512" height="512" viewBox="0 0 512 512" fill="none" xmlns="http://www.w3.org/2000/svg">
<g clip-path="url(#clip0_6_67)">
<path d="M187.5 443C182.5 467.5 178 512 178 512H282C283.5 506.167 283.4 484.2 271 443C258.6 401.8 265.167 378.833 270 372.5C287.833 366.667 329 353.3 351 346.5C378.5 338 384.5 336.5 396.5 332.5C408.5 328.5 407.5 325 437 291C466.5 257 478 245 483.5 226.5C489 208 477 202 472.5 202C469.5 202 450 207 448 230C447 236.5 449.6 211.3 444 212.5C437 214 441.5 233 441 244C440.5 255 413.5 295 401 306.5C388.5 318 374.7 322.9 345.5 332.5C309 344.5 327 341.5 284.5 349C250.5 355 221.333 349.167 211 345.5C211.333 347.333 211.2 353 208 361C178.667 354.5 116.4 339.1 102 329.5C84 317.5 65 244.5 67 220C69 195.5 76.8 182.6 70 185C61.5 188 63.5 202 63.5 203.5C63.5 205 62 170.5 43 171.5C24 172.5 27 194.5 27.5 200C28 205.5 42.5 263.5 60.5 300C78.5 336.5 80.5 335.5 89 340.5C92.7137 342.685 104.939 350.501 131 358.5C152.658 365.148 187.275 371.81 203.278 376.5C201.565 382.374 199.208 390.667 197.5 397.5C194.5 409.5 192.5 418.5 187.5 443Z" fill="#7ACEE7"/>
<path d="M205.5 369C205.5 369 204.573 372.059 203.278 376.5M270 372.5C265.167 378.833 258.6 401.8 271 443C283.4 484.2 283.5 506.167 282 512H178C178 512 182.5 467.5 187.5 443C192.5 418.5 194.5 409.5 197.5 397.5C199.208 390.667 201.565 382.374 203.278 376.5M270 372.5C287.833 366.667 329 353.3 351 346.5C378.5 338 384.5 336.5 396.5 332.5C408.5 328.5 407.5 325 437 291C466.5 257 478 245 483.5 226.5C489 208 477 202 472.5 202C469.5 202 450 207 448 230C447 236.5 449.6 211.3 444 212.5C437 214 441.5 233 441 244C440.5 255 413.5 295 401 306.5C388.5 318 374.7 322.9 345.5 332.5C309 344.5 327 341.5 284.5 349C250.5 355 221.333 349.167 211 345.5C211.333 347.333 211.2 353 208 361C178.667 354.5 116.4 339.1 102 329.5C84 317.5 65 244.5 67 220C69 195.5 76.8 182.6 70 185C61.5 188 63.5 202 63.5 203.5C63.5 205 62 170.5 43 171.5C24 172.5 27 194.5 27.5 200C28 205.5 42.5 263.5 60.5 300C78.5 336.5 80.5 335.5 89 340.5C92.7137 342.685 104.939 350.501 131 358.5C152.658 365.148 187.275 371.81 203.278 376.5M270 372.5C269.833 372.5 268 372.8 262 374" stroke="black" stroke-linecap="round"/>
<path d="M210.5 348C220.9 357.2 239.833 354.833 248 352.5C262.333 353.333 292.8 353.6 300 348C309 341 336.098 316.879 341.5 294.5C348.5 265.5 346.5 229 325.5 209.5C297.001 183.036 265.5 184 250 184C234.5 184 216 189.5 198.5 215C181 240.5 184.5 266 185 267C185.4 267.8 194.167 308.333 198.5 328.5C198.5 329.5 200.1 338.8 210.5 348Z" fill="#7ACEE7"/>
<path d="M320.5 305C320.1 317.8 299.333 330.333 289 335C263.5 333.833 212.1 332.5 210.5 332.5C208.5 332.5 165 328 169.5 291.5C173.1 262.3 195 264 205.5 268.5L246.5 278C264.667 275.833 302.3 272.4 307.5 276C314 280.5 321 289 320.5 305Z" fill="#7ACEE7"/>
<ellipse cx="238.5" cy="254.5" rx="7.5" ry="8.5" fill="black"/>
<ellipse cx="257.5" cy="254.5" rx="7.5" ry="8.5" fill="black"/>
<ellipse cx="239" cy="253.5" rx="3" ry="3.5" fill="white"/>
<ellipse cx="258" cy="253.5" rx="3" ry="3.5" fill="white"/>
<path d="M264 285.5C256.4 289.1 254.5 292.5 239.5 292.5C234.667 292 223.7 289.5 218.5 283.5C213.3 277.5 206.333 275 203.5 274.5C188 273 178.5 286.5 181 300C183.5 313.5 191 318.5 204.5 324C218 329.5 223.5 329 245 330C262.2 330.8 275.5 329 280 328C310.5 315.5 307 307 308 300C309 293 304 279.5 289.5 279C275 278.5 273.5 281 264 285.5Z" fill="#A0212E" stroke="black"/>
<path d="M266.713 320C270.484 325.2 270.475 328 269.5 329L283.5 326.5L296.5 319.5C294.167 317.333 288.4 312.4 284 310C278.5 307 259 306 258.5 310.5C258 315 262 313.5 266.713 320Z" fill="#F0ABE9" stroke="black"/>
<mask id="mask0_6_67" style="mask-type:alpha" maskUnits="userSpaceOnUse" x="180" y="273" width="129" height="58">
<path d="M264 285.5C256.4 289.1 254.5 292.5 239.5 292.5C234.667 292 223.7 289.5 218.5 283.5C213.3 277.5 206.333 275 203.5 274.5C188 273 178.5 286.5 181 300C183.5 313.5 191 318.5 204.5 324C218 329.5 223.5 329 245 330C262.2 330.8 275.5 329 280 328C310.5 315.5 307 307 308 300C309 293 304 279.5 289.5 279C275 278.5 273.5 281 264 285.5Z" fill="#AF1D27" stroke="black"/>
</mask>
<g mask="url(#mask0_6_67)">
<path d="M248.5 321.5C250.082 321.5 251.57 322.436 252.684 324.064C253.796 325.69 254.5 327.964 254.5 330.5C254.5 333.036 253.796 335.31 252.684 336.936C251.57 338.564 250.082 339.5 248.5 339.5C246.918 339.5 245.43 338.564 244.316 336.936C243.204 335.31 242.5 333.036 242.5 330.5C242.5 327.964 243.204 325.69 244.316 324.064C245.43 322.436 246.918 321.5 248.5 321.5Z" fill="white" stroke="black"/>
<path d="M265 323.5C266.146 323.5 267.259 324.245 268.111 325.608C268.959 326.965 269.5 328.87 269.5 331C269.5 333.13 268.959 335.035 268.111 336.392C267.259 337.755 266.146 338.5 265 338.5C263.854 338.5 262.741 337.755 261.889 336.392C261.041 335.035 260.5 333.13 260.5 331C260.5 328.87 261.041 326.965 261.889 325.608C262.741 324.245 263.854 323.5 265 323.5Z" fill="white" stroke="black"/>
<path d="M278.008 321.537C279.454 321.282 280.938 321.823 282.174 322.979C283.411 324.135 284.373 325.886 284.739 327.965C285.106 330.044 284.801 332.02 284.035 333.529C283.268 335.038 282.059 336.054 280.613 336.309C279.167 336.564 277.684 336.022 276.448 334.867C275.211 333.711 274.248 331.959 273.882 329.88C273.515 327.801 273.821 325.826 274.587 324.316C275.354 322.808 276.562 321.792 278.008 321.537Z" fill="white" stroke="black"/>
<path d="M233.332 322.934C234.474 323.034 235.518 323.873 236.248 325.305C236.974 326.731 237.347 328.675 237.161 330.798C236.975 332.92 236.271 334.77 235.308 336.048C234.34 337.332 233.166 337.977 232.025 337.877C230.883 337.777 229.839 336.938 229.109 335.505C228.383 334.08 228.01 332.135 228.195 330.013C228.381 327.891 229.086 326.04 230.049 324.763C231.016 323.479 232.19 322.834 233.332 322.934Z" fill="white" stroke="black"/>
<path d="M219.065 321.777C220.218 322.086 221.132 322.981 221.655 324.24C222.179 325.5 222.297 327.101 221.859 328.737C221.42 330.374 220.517 331.701 219.434 332.53C218.351 333.359 217.112 333.677 215.959 333.368C214.806 333.059 213.892 332.164 213.369 330.905C212.845 329.645 212.727 328.044 213.165 326.408C213.604 324.772 214.506 323.445 215.59 322.615C216.673 321.786 217.912 321.468 219.065 321.777Z" fill="white" stroke="black"/>
<path d="M204.524 316.181C205.852 316.587 206.867 317.779 207.383 319.494C207.897 321.204 207.892 323.379 207.212 325.6C206.533 327.822 205.322 329.628 203.939 330.758C202.553 331.891 201.045 332.312 199.716 331.906C198.387 331.499 197.373 330.308 196.857 328.593C196.343 326.883 196.349 324.709 197.028 322.487C197.707 320.265 198.918 318.459 200.301 317.329C201.687 316.196 203.195 315.775 204.524 316.181Z" fill="white" stroke="black"/>
<path d="M243.5 283.5C245.082 283.5 246.57 284.436 247.684 286.064C248.796 287.69 249.5 289.964 249.5 292.5C249.5 295.036 248.796 297.31 247.684 298.936C246.57 300.564 245.082 301.5 243.5 301.5C241.918 301.5 240.43 300.564 239.316 298.936C238.204 297.31 237.5 295.036 237.5 292.5C237.5 289.964 238.204 287.69 239.316 286.064C240.43 284.436 241.918 283.5 243.5 283.5Z" fill="white" stroke="black"/>
<path d="M229.764 280.021C231.158 280.143 232.432 281.256 233.312 283.165C234.185 285.061 234.618 287.644 234.371 290.462C234.125 293.28 233.25 295.75 232.061 297.464C230.862 299.192 229.415 300.067 228.021 299.945C226.626 299.823 225.353 298.71 224.473 296.8C223.599 294.905 223.167 292.321 223.413 289.504C223.66 286.686 224.534 284.216 225.724 282.502C226.922 280.774 228.369 279.899 229.764 280.021Z" fill="white" stroke="black"/>
<path d="M220.744 272.923C222.301 273.52 223.401 275.053 223.856 277.168C224.309 279.279 224.1 281.905 223.091 284.535C222.081 287.164 220.479 289.256 218.73 290.521C216.977 291.789 215.134 292.192 213.577 291.594C212.019 290.996 210.919 289.464 210.465 287.348C210.011 285.238 210.22 282.611 211.23 279.982C212.239 277.352 213.841 275.26 215.59 273.996C217.344 272.728 219.187 272.325 220.744 272.923Z" fill="white" stroke="black"/>
<path d="M205.284 265.534C206.86 265.672 208.261 266.735 209.229 268.454C210.195 270.17 210.698 272.497 210.477 275.023C210.256 277.549 209.357 279.753 208.107 281.276C206.855 282.8 205.291 283.604 203.716 283.466C202.14 283.328 200.739 282.265 199.771 280.546C198.805 278.83 198.302 276.503 198.523 273.977C198.744 271.451 199.643 269.247 200.893 267.724C202.145 266.2 203.709 265.396 205.284 265.534Z" fill="white" stroke="black"/>
<path d="M259 278.5C260.725 278.5 262.338 279.498 263.54 281.216C264.741 282.932 265.5 285.329 265.5 288C265.5 290.671 264.741 293.068 263.54 294.784C262.338 296.502 260.725 297.5 259 297.5C257.275 297.5 255.662 296.502 254.46 294.784C253.259 293.068 252.5 290.671 252.5 288C252.5 285.329 253.259 282.932 254.46 281.216C255.662 279.498 257.275 278.5 259 278.5Z" fill="white" stroke="black"/>
<path d="M276 271.5C277.725 271.5 279.338 272.498 280.54 274.216C281.741 275.932 282.5 278.329 282.5 281C282.5 283.671 281.741 286.068 280.54 287.784C279.338 289.502 277.725 290.5 276 290.5C274.275 290.5 272.662 289.502 271.46 287.784C270.259 286.068 269.5 283.671 269.5 281C269.5 278.329 270.259 275.932 271.46 274.216C272.662 272.498 274.275 271.5 276 271.5Z" fill="white" stroke="black"/>
</g>
<path d="M264 285.5C256.4 289.1 254.5 292.5 239.5 292.5C234.667 292 223.7 289.5 218.5 283.5C213.3 277.5 206.333 275 203.5 274.5C188 273 178.5 286.5 181 300C183.5 313.5 191 318.5 204.5 324C218 329.5 223.5 329 245 330C262.2 330.8 275.5 329 280 328C310.5 315.5 307 307 308 300C309 293 304 279.5 289.5 279C275 278.5 273.5 281 264 285.5Z" stroke="black"/>
<path d="M229 234.5C230 233.5 234.3 231.1 243.5 229.5" stroke="black" stroke-linecap="round"/>
<path d="M254.5 228C255.833 228 259.9 229.2 265.5 234" stroke="black" stroke-linecap="round"/>
<path d="M40 197C43.3333 200.333 49.6 209.9 48 221.5" stroke="black" stroke-linecap="round"/>
<path d="M456.5 247C454.5 242.333 454.9 231.3 472.5 224.5" stroke="black" stroke-linecap="round"/>
<path d="M206.014 270.12C203.514 268.453 195.4 264.7 185 267.5C172 271 169.014 292.537 169.014 298.62C169.014 300.12 167.014 324.62 210.014 333.12" stroke="black" stroke-linecap="round"/>
<path d="M307 275.5C312.5 280 322.9 292 320.5 304C317.5 319 306.5 325.5 289 334.5" stroke="black" stroke-linecap="round"/>
<path d="M248.5 352.5C248.5 352.5 231 360 217 352.5C203 345 199.5 330.5 199.5 330.5M185.5 267.5C183.5 256.5 186.5 233.5 195 220.5C202 207.833 222.774 184 250 184C284.5 184 294.5 187 320 205C348.212 224.914 345 267.938 345 270C345 272 341.862 295 338.5 302.5C332 317 319.5 332.5 302.5 346C298.093 349.5 282.167 355 276.5 354" stroke="black" stroke-linecap="round"/>
</g>
<defs>
<clipPath id="clip0_6_67">
<rect width="512" height="512" fill="white"/>
</clipPath>
</defs>
</svg>
