<svg width="512" height="512" viewBox="0 0 512 512" fill="none" xmlns="http://www.w3.org/2000/svg">
<g clip-path="url(#clip0_32_680)">
<path d="M359 243C359 274.623 330.167 316.5 315 333.5L243.5 349.5C158 306.5 157.5 252.5 156.5 241C155.523 229.762 156.5 146.5 247.5 136.5C338.5 126.5 359 208 359 243Z" fill="#7ACEE7"/>
<path d="M199 512.5C203.8 478.1 227.333 387.833 238.5 347L312.5 334C308.5 374 311.833 469.667 314 512.5H199Z" fill="#7ACEE7"/>
<path d="M238.5 347L234 364C206.4 380 159.333 415.333 139.249 431C156.031 444.603 186.836 467.343 205 480.5L199 512H186C166.333 491.5 125 448.6 117 441C107 431.5 108.5 417.5 117 416C123.8 414.8 193.5 365.5 227.5 341L238.5 347Z" fill="#7ACEE7"/>
<path d="M312.5 334L311 356C350.667 389 431 455.7 435 458.5C440 462 452.5 459.5 452 448C451.6 438.8 460.833 345.167 465.5 299.5C477.9 289.1 477 276.833 475 272C484.5 265 485.5 257 483 250C480.5 243 472.5 234 450 238C427.5 242 433 246 427 247.5C422.2 248.7 421.667 236.667 422 230.5C425.6 208.9 418.167 205.167 414 206C397.6 213.2 408.833 247.667 416.5 264C414.1 265.6 413.167 270 413 272C411.8 280 419.833 289.667 424 293.5C426.8 317.5 427.833 391.261 428 425.142C411.727 418.59 346.65 361.714 315.5 333.5L312.5 334Z" fill="#7ACEE7"/>
<path d="M312.5 334L311.5 350" stroke="#7ACEE7" stroke-linecap="round"/>
<circle cx="182.5" cy="472.5" r="27.5" fill="#8AE1EB"/>
<circle cx="218" cy="487" r="20" fill="#8AE1EB"/>
<circle cx="257" cy="481" r="29" fill="#8AE1EB"/>
<circle cx="299" cy="474" r="29" fill="#8AE1EB"/>
<circle cx="335" cy="472" r="20" fill="#8AE1EB"/>
<circle cx="330" cy="440" r="20" fill="#8AE1EB"/>
<circle cx="359" cy="432" r="13" fill="#8AE1EB"/>
<circle cx="370" cy="406" r="20" fill="#8AE1EB"/>
<circle cx="161" cy="454" r="19" fill="#8AE1EB"/>
<circle cx="139" cy="425" r="29" fill="#8AE1EB"/>
<circle cx="141" cy="420" r="27" fill="#C9E7EB"/>
<circle cx="177" cy="445" r="27" fill="#C9E7EB"/>
<circle cx="212" cy="453" r="27" fill="#C9E7EB"/>
<circle cx="247" cy="466" r="23" fill="#C9E7EB"/>
<circle cx="375" cy="337" r="23" fill="#C9E7EB"/>
<circle cx="359" cy="317" r="23" fill="#C9E7EB"/>
<circle cx="351" cy="289" r="23" fill="#C9E7EB"/>
<circle cx="329" cy="261" r="23" fill="#C9E7EB"/>
<circle cx="328" cy="233" r="23" fill="#C9E7EB"/>
<circle cx="323" cy="208" r="23" fill="#C9E7EB"/>
<circle cx="339" cy="184" r="20" fill="#C9E7EB"/>
<circle cx="314" cy="158" r="20" fill="#C9E7EB"/>
<circle cx="308" cy="120" r="20" fill="#C9E7EB"/>
<circle cx="297" cy="102" r="20" fill="#C9E7EB"/>
<circle cx="289" cy="83" r="20" fill="#C9E7EB"/>
<circle cx="259" cy="67" r="20" fill="#C9E7EB"/>
<circle cx="236" cy="74" r="20" fill="#C9E7EB"/>
<circle cx="211" cy="90" r="20" fill="#C9E7EB"/>
<circle cx="191" cy="127" r="23" fill="#C9E7EB"/>
<circle cx="201" cy="195" r="23" fill="#C9E7EB"/>
<circle cx="181" cy="216" r="23" fill="#C9E7EB"/>
<circle cx="154.5" cy="234.5" r="18.5" fill="#C9E7EB"/>
<circle cx="138.5" cy="250.5" r="18.5" fill="#C9E7EB"/>
<circle cx="154.5" cy="262.5" r="18.5" fill="#C9E7EB"/>
<ellipse cx="214" cy="377" rx="71" ry="69" fill="#C9E7EB"/>
<ellipse cx="263" cy="398" rx="71" ry="69" fill="#C9E7EB"/>
<ellipse cx="298" cy="360" rx="71" ry="69" fill="#C9E7EB"/>
<ellipse cx="274" cy="275" rx="71" ry="69" fill="#C9E7EB"/>
<ellipse cx="224" cy="267" rx="71" ry="69" fill="#C9E7EB"/>
<ellipse cx="274" cy="184.5" rx="50" ry="46.5" fill="#C9E7EB"/>
<ellipse cx="255.5" cy="141" rx="59.5" ry="69" fill="#C9E7EB"/>
<circle cx="164.5" cy="285.5" r="18.5" fill="#C9E7EB"/>
<circle cx="176.5" cy="311.5" r="18.5" fill="#C9E7EB"/>
<circle cx="160.5" cy="329.5" r="18.5" fill="#C9E7EB"/>
<circle cx="151.5" cy="367.5" r="23.5" fill="#C9E7EB"/>
<circle cx="136" cy="391" r="15" fill="#C9E7EB"/>
<circle cx="286" cy="459" r="23" fill="#C9E7EB"/>
<circle cx="322.5" cy="465.5" r="17.5" fill="#C9E7EB"/>
<circle cx="315.5" cy="441.5" r="17.5" fill="#C9E7EB"/>
<circle cx="330.5" cy="434.5" r="17.5" fill="#C9E7EB"/>
<circle cx="350.5" cy="419.5" r="17.5" fill="#C9E7EB"/>
<circle cx="369.5" cy="400.5" r="17.5" fill="#C9E7EB"/>
<circle cx="368.5" cy="373.5" r="17.5" fill="#C9E7EB"/>
<circle cx="391" cy="372" r="9" fill="#C9E7EB"/>
<circle cx="199" cy="406" r="29" fill="#8AE1EB"/>
<circle cx="181.5" cy="370.5" r="20.5" fill="#8AE1EB"/>
<circle cx="147.5" cy="295.5" r="20.5" fill="#8AE1EB"/>
<circle cx="190.5" cy="165.5" r="20.5" fill="#8AE1EB"/>
<circle cx="205.5" cy="196.5" r="20.5" fill="#8AE1EB"/>
<circle cx="211.5" cy="330.5" r="20.5" fill="#8AE1EB"/>
<circle cx="235.5" cy="351.5" r="20.5" fill="#8AE1EB"/>
<circle cx="318.5" cy="390.5" r="24.5" fill="#8AE1EB"/>
<circle cx="282" cy="212" r="15" fill="#8AE1EB"/>
<circle cx="291.5" cy="196.5" r="12.5" fill="#8AE1EB"/>
<circle cx="292.5" cy="162.5" r="12.5" fill="#8AE1EB"/>
<circle cx="229" cy="436" r="8" fill="#8AE1EB"/>
<ellipse cx="296" cy="321" rx="10" ry="9" fill="#8AE1EB"/>
<ellipse cx="216.5" cy="399" rx="31.5" ry="30" fill="#C9E7EB"/>
<ellipse cx="186.5" cy="365" rx="21.5" ry="20" fill="#C9E7EB"/>
<circle cx="233.5" cy="429.5" r="9.5" fill="#C9E7EB"/>
<ellipse cx="317.5" cy="377.5" rx="25.5" ry="26.5" fill="#C9E7EB"/>
<circle cx="288.5" cy="314.5" r="10.5" fill="#C9E7EB"/>
<circle cx="295.5" cy="314.5" r="10.5" fill="#C9E7EB"/>
<circle cx="158" cy="283" r="18" fill="#C9E7EB"/>
<circle cx="160" cy="297" r="18" fill="#C9E7EB"/>
<circle cx="217" cy="187" r="24" fill="#C9E7EB"/>
<circle cx="201" cy="160" r="24" fill="#C9E7EB"/>
<circle cx="276" cy="204" r="16" fill="#C9E7EB"/>
<circle cx="292.5" cy="188.5" r="11.5" fill="#C9E7EB"/>
<circle cx="286.5" cy="162.5" r="11.5" fill="#C9E7EB"/>
<circle cx="286.5" cy="171.5" r="11.5" fill="#C9E7EB"/>
<circle cx="212.5" cy="308.5" r="11.5" fill="#C9E7EB"/>
<circle cx="218.5" cy="302.5" r="8.5" fill="#C9E7EB"/>
<circle cx="216.5" cy="330.5" r="15.5" fill="#C9E7EB"/>
<circle cx="240" cy="331" r="9" fill="#C9E7EB"/>
<circle cx="238" cy="321" r="9" fill="#C9E7EB"/>
<circle cx="221" cy="321" r="9" fill="#C9E7EB"/>
<circle cx="227" cy="318" r="9" fill="#C9E7EB"/>
<path d="M224 309C231.5 302 225.6 287.8 212 297M224 309C231.2 308.2 234 311 234.5 312.5M224 309C223.5 309.833 221.6 311.3 218 310.5M212 297C204 296 194 311 206.5 318.5C188 338.5 219.5 360.1 231.5 334.5C237 346 256.1 338.1 246.5 324.5C247.833 319.167 247.3 309.3 234.5 312.5M212 297L216 298M234.5 312.5C236 314.167 238.6 319.1 237 323.5" stroke="#5BC3CF" stroke-width="2" stroke-linecap="round"/>
<path d="M231 106.5C230 102.167 230.7 94.1 241.5 96.5C236 84 251.2 67 274 93M245 118C237.5 117 224.4 120.1 232 140.5M300.5 103.5C306.667 106.333 316.4 115.6 306 130M183 223.5C174.5 227.667 162.1 241 180.5 261M202.5 267C202.333 262.667 204.5 254.7 214.5 257.5M327 233.5C332.667 237 340.6 247 327 259" stroke="#5BC3CF" stroke-width="2" stroke-linecap="round"/>
<path d="M186 138C184.667 139.333 182.3 143.1 181.5 147.5C180.5 153 181.5 162.5 192.5 166" stroke="#5BC3CF" stroke-width="2" stroke-linecap="round"/>
<path d="M189.5 278C175.5 274.5 156.3 292.5 175.5 314.5" stroke="#5BC3CF" stroke-width="2" stroke-linecap="round"/>
<path d="M177.5 320C174.5 322 170.3 327.6 177.5 334" stroke="#5BC3CF" stroke-width="2" stroke-linecap="round"/>
<path d="M161 441C157.5 447 161.3 461.9 176.5 459.5M222 467.5C226 486 256.5 503 268.5 474C276 483 296.7 491.6 307.5 466" stroke="#5BC3CF" stroke-width="2" stroke-linecap="round"/>
<path d="M167.5 356C164.166 365.833 163.7 385.4 188.5 385C184 392.5 180.1 411 200.5 425M228 437.5C230.833 439.333 237.5 441.4 241.5 435" stroke="#5BC3CF" stroke-width="2" stroke-linecap="round"/>
<path d="M311 404C331 411 364.4 377.9 324 351.5C325.167 345.333 324.4 333 312 333M287 325C293.5 325.5 306.3 324.8 305.5 318C314.5 320 322.5 312 314.5 302" stroke="#5BC3CF" stroke-width="2" stroke-linecap="round"/>
<path d="M202 206C198 204.167 190.7 196 193.5 178M264.5 214.5C271 223 295.1 222.8 291.5 200C296.333 199.833 305.5 196.4 303.5 184M297.5 174C298.167 173 299 170.2 297 167C299.167 161 298.9 149.4 280.5 151" stroke="#5BC3CF" stroke-width="2" stroke-linecap="round"/>
<path d="M199 494.5C170.6 511.7 153 486.5 155 472C144.6 468.4 142 458.5 142 454C100.8 452.8 105.5 408 124 399.5C116 387.5 124.667 379.5 130 377M199 494.5C203.333 503.167 216.4 516.2 234 499C240.667 507.667 259.4 519.5 281 497.5M199 494.5L203 491.5M281 497.5C290.5 503 312.4 509 324 489M281 497.5C280.833 498 281.3 497.5 284.5 491.5M324 489C341.5 500 372.4 475.3 344 454.5M324 489C324 489 322.6 488.2 317 485M344 454.5C346.167 453.167 350.4 448.7 350 441.5M344 454.5C342.667 455.667 337.8 457.5 329 455.5M350 441.5C358 446 374.1 449.7 370.5 426.5C381 426.5 398.3 411.7 385.5 394.5C385.667 392.333 384.9 387.8 380.5 387C382.5 385.333 386.1 381.4 384.5 379C399 392 409 352 384.5 366.5C384.333 364.333 383.1 360 379.5 360C393.5 358 413.2 331.9 382 315.5C382 311.833 380.1 303.3 372.5 298.5C375.5 288.333 375.5 267.6 351.5 266M350 441.5C349.833 439 349.5 434 349.5 434M351.5 266C352.5 261.5 353 251.3 347 246.5C350.833 240.333 355.7 225.8 344.5 217C345.833 215.833 347.9 211.5 345.5 203.5C364 200.5 368 159 333 165.5C335.5 157.833 335.9 141.6 317.5 138C325.5 132.833 336.7 118.5 317.5 102.5C317.667 98.3333 316.2 89.2 309 86M351.5 266C350.833 268.5 348.5 274.5 344.5 278.5M309 86C309.667 75.5 304.7 56.8 279.5 66M309 86C308.833 85.8333 307.4 85.4 303 85M279.5 66C276.833 54.1667 265.8 35.5 243 55.5M279.5 66C279.833 67.3333 280.2 71 279 75M243 55.5C236.5 52.6667 222.1 51.7 216.5 70.5M243 55.5C244.667 56 249 58.2 253 63M216.5 70.5C204.5 66 178.8 79.8 198 105C182.5 99 149.7 121.9 180.5 147.5C172.333 152.833 160.9 167.6 180.5 184C179.833 185 178.4 188.2 178 193C171.167 193.5 157.6 198.9 158 216.5M216.5 70.5C216.5 70.5 216.2 71.6 215 76M158 216.5C152 215 139.2 216 136 232C122 231 107 259.4 137 269M158 216.5C158.667 216.833 160.3 218.2 161.5 221M137 269C137.167 270.833 138.3 274.7 141.5 275.5C127 281 114.5 310.5 147.5 316C142.5 320.667 135.8 332.8 149 344C139.167 345.167 121.6 353.4 130 377M137 269C136.667 267.667 136.5 264 138.5 260M130 377C130.5 379 132.3 383.4 135.5 385" stroke="#5BC3CF" stroke-width="2" stroke-linecap="round"/>
<circle cx="83" cy="446" r="9" fill="#8AE1EB"/>
<circle cx="74" cy="464" r="10" fill="#C9E7EB"/>
<circle cx="80" cy="450" r="10" fill="#C9E7EB"/>
<circle cx="66.5" cy="452.5" r="13.5" fill="#C9E7EB"/>
<path d="M64.0001 465.5C40.4001 453.9 59.5 430.5 74.5001 441.5C78 431 100.5 438.5 90 452C90 454.333 88.6 459.2 83 460C86.2 480.8 63.5 475 64.0001 465.5Z" stroke="#5BC3CF" stroke-width="2" stroke-linecap="round"/>
<path d="M81.5 443C81.5 443 84 442 86 444.5C88 447 86.5 449 86.5 449" stroke="#5BC3CF" stroke-width="2" stroke-linecap="round"/>
<circle cx="95" cy="349" r="9" fill="#8AE1EB"/>
<circle cx="91" cy="338" r="9" fill="#8AE1EB"/>
<circle cx="86" cy="326" r="9" fill="#8AE1EB"/>
<circle cx="89" cy="311" r="9" fill="#8AE1EB"/>
<circle cx="79" cy="299" r="9" fill="#8AE1EB"/>
<circle cx="81.5" cy="350.5" r="13.5" fill="#C9E7EB"/>
<circle cx="75.5" cy="336.5" r="13.5" fill="#C9E7EB"/>
<circle cx="74.5" cy="317.5" r="13.5" fill="#C9E7EB"/>
<circle cx="61.5" cy="304.5" r="13.5" fill="#C9E7EB"/>
<circle cx="55.5" cy="322.5" r="7.5" fill="#C9E7EB"/>
<circle cx="62.5" cy="328.5" r="7.5" fill="#C9E7EB"/>
<circle cx="60" cy="341" r="14" fill="#C9E7EB"/>
<path d="M53.5002 315.5C53.4726 315.471 53.445 315.442 53.4177 315.413M53.4177 315.413C38.3809 299.436 60.5193 282.024 71.0002 295C84.2002 282.6 90.0002 295 87.5002 302C103.5 302.4 100 316.5 92.0002 319.5C96.0002 320.3 95.3335 326.5 94.5002 329.5C100.9 330.3 100.5 337.833 99.5002 341.5C111.5 349.5 98.5002 360.5 93.0002 358C80.5002 372.5 69.5002 360 68.0002 352.5C45.6002 362.5 39.0004 336 52.0002 329.5C42.8002 324.3 48.5002 316 53.4177 315.413ZM76 305.5C82.1667 307 92.1 312.8 82.5 324C85.0001 325.667 89.5004 329.8 87.5002 333" stroke="#5BC3CF" stroke-width="2" stroke-linecap="round"/>
<circle cx="115.5" cy="200.5" r="12.5" fill="#8AE1EB"/>
<circle cx="130" cy="173" r="8" fill="#8AE1EB"/>
<circle cx="132" cy="187" r="8" fill="#8AE1EB"/>
<circle cx="126" cy="195" r="8" fill="#8AE1EB"/>
<circle cx="109.5" cy="204.5" r="6.5" fill="#C9E7EB"/>
<circle cx="118.5" cy="192.5" r="9.5" fill="#C9E7EB"/>
<circle cx="121.5" cy="180.5" r="9.5" fill="#C9E7EB"/>
<circle cx="113.5" cy="169.5" r="9.5" fill="#C9E7EB"/>
<circle cx="115.5" cy="180.5" r="9.5" fill="#C9E7EB"/>
<circle cx="104.5" cy="190.5" r="9.5" fill="#C9E7EB"/>
<circle cx="108.5" cy="197.5" r="9.5" fill="#C9E7EB"/>
<path d="M128 203C127.2 213 112.5 216.5 108.5 211C103.3 211 102.667 207.333 103 205.5C100.2 204.3 99.1667 200.333 99.0001 198.5C89.0001 188.9 99.5 179 106 181C104.8 178.6 106.167 177 107 176.5C97.0001 159.7 120.5 152 123 169M128 203C130.333 203 134.8 201.4 134 195C140 194.5 145 183.5 135 179.5C142.5 172.5 136.6 157.8 123 169M128 203V199M123 169L120.5 172M126 183C128 185.333 130.2 190.3 123 191.5C124 196.5 124.1 205.7 116.5 202.5" stroke="#5BC3CF" stroke-width="2" stroke-linecap="round"/>
<circle cx="146.5" cy="68.5" r="11.5" fill="#8AE1EB"/>
<circle cx="158.5" cy="65.5" r="6.5" fill="#8AE1EB"/>
<circle cx="168.5" cy="54.5" r="11.5" fill="#8AE1EB"/>
<circle cx="173.5" cy="35.5" r="11.5" fill="#8AE1EB"/>
<circle cx="135" cy="60" r="13" fill="#C9E7EB"/>
<circle cx="153" cy="53" r="13" fill="#C9E7EB"/>
<circle cx="165" cy="33" r="13" fill="#C9E7EB"/>
<circle cx="145" cy="33" r="19" fill="#C9E7EB"/>
<path d="M165 65.5C165.8 71.9 160.333 72.5 157.5 72C149.1 86.8 139.667 79.1667 136 73.5C114.4 71.9 119.5 48.5 132 47.5C115.601 26.3 142 0.5 160 21C168.4 17 173.167 21.3333 174.5 24C190.9 26 187 45.5 177 46.5C186.2 58.5 173.5 70 165 65.5ZM165 65.5C163.833 65.1667 161.3 64 160.5 62" stroke="#5BC3CF" stroke-width="2" stroke-linecap="round"/>
<path d="M151.5 45C154.5 47.5 174.2 46.8 177 38M164 46C165.833 48.6667 166 58.5 158.5 58.5" stroke="#5BC3CF" stroke-width="2" stroke-linecap="round"/>
<ellipse cx="414.894" cy="431.556" rx="13.873" ry="12.8939" transform="rotate(90 414.894 431.556)" fill="#8AE1EB"/>
<ellipse cx="418.257" cy="446.032" rx="7.84127" ry="7.28788" transform="rotate(90 418.257 446.032)" fill="#8AE1EB"/>
<ellipse cx="430.59" cy="458.095" rx="13.873" ry="12.8939" transform="rotate(90 430.59 458.095)" fill="#8AE1EB"/>
<ellipse cx="451.894" cy="464.127" rx="13.873" ry="12.8939" transform="rotate(90 451.894 464.127)" fill="#8AE1EB"/>
<ellipse cx="424.424" cy="417.683" rx="15.6825" ry="14.5758" transform="rotate(90 424.424 417.683)" fill="#C9E7EB"/>
<ellipse cx="432.273" cy="439.397" rx="15.6825" ry="14.5758" transform="rotate(90 432.273 439.397)" fill="#C9E7EB"/>
<ellipse cx="454.697" cy="453.873" rx="15.6825" ry="14.5758" transform="rotate(90 454.697 453.873)" fill="#C9E7EB"/>
<ellipse cx="454.697" cy="429.746" rx="22.9206" ry="21.303" transform="rotate(90 454.697 429.746)" fill="#C9E7EB"/>
<path d="M419.5 433C416.167 438.667 414.1 451.1 432.5 455.5C430.5 457.333 427.7 461.3 432.5 462.5" stroke="#5BC3CF" stroke-width="2" stroke-linecap="round"/>
<path d="M438.5 414.5C429.3 389.7 408.5 404 409.5 419C401 420.5 395.8 439.8 411 445C408.5 448.5 412.8 455.2 418 454C413.5 464.5 425.5 478.1 439.5 468.5C442 479.5 461 484.5 465 465.5C469 462.5 472.5 453 468 448C488 433 470.9 389.7 438.5 414.5Z" stroke="#5BC3CF" stroke-width="2" stroke-linecap="round"/>
<circle cx="209.5" cy="31.5" r="6.5" fill="#8AE1EB"/>
<circle cx="218.5" cy="29.5" r="6.5" fill="#8AE1EB"/>
<circle cx="220.5" cy="21.5" r="6.5" fill="#8AE1EB"/>
<circle cx="207" cy="29" r="6" fill="#C9E7EB"/>
<circle cx="216" cy="26" r="6" fill="#C9E7EB"/>
<circle cx="220" cy="19" r="6" fill="#C9E7EB"/>
<circle cx="209.5" cy="18.5" r="7.5" fill="#C9E7EB"/>
<path d="M215 35C211.5 42.5 203.5 37.5 203.5 34C197.9 30 201 24.5 204 24C196.5 15 208.4 4.1 216 14.5M215 35C218 38 226.5 36.6 224.5 27C226.167 25.1667 228.8 20.8 226 18C226.5 15 222 8.9 216 14.5M215 35C215.167 35 215.5 34.3 215.5 31.5M216 14.5C216.167 14.5 216.6 15.3 217 18.5" stroke="#5BC3CF" stroke-width="2" stroke-linecap="round"/>
<circle cx="253.5" cy="24.5" r="6.5" fill="#8AE1EB"/>
<circle cx="268.5" cy="26.5" r="10.5" fill="#8AE1EB"/>
<circle cx="286" cy="25" r="8" fill="#8AE1EB"/>
<circle cx="254.5" cy="21.5" r="7.5" fill="#C9E7EB"/>
<circle cx="269" cy="23" r="9" fill="#C9E7EB"/>
<circle cx="284" cy="20" r="9" fill="#C9E7EB"/>
<circle cx="275" cy="20" r="9" fill="#C9E7EB"/>
<circle cx="262" cy="12" r="9" fill="#C9E7EB"/>
<path d="M271 12C267.8 -4.8 250 3 253.5 14C255.5 16 247.5 9.5 247.5 23.5M271 12C272.5 11.3333 276.3 10.4 279.5 12C283.5 8.5 294.6 10.2 293 21C299 26.5 288.2 40.6 279 29C278.5 35.5 263.6 44.3 258 29.5C254.5 32.1667 246 32.5 247.5 23.5M271 12C271.167 11.6667 270.7 11.8 267.5 15M247.5 23.5C248 24.3333 250.5 26.5 253.5 26.5" stroke="#5BC3CF" stroke-width="2" stroke-linecap="round"/>
<circle cx="324.5" cy="60.5" r="9.5" fill="#8AE1EB"/>
<circle cx="333.5" cy="69.5" r="9.5" fill="#8AE1EB"/>
<circle cx="342.5" cy="77.5" r="9.5" fill="#8AE1EB"/>
<circle cx="349.5" cy="90.5" r="9.5" fill="#8AE1EB"/>
<circle cx="329" cy="56" r="9" fill="#C9E7EB"/>
<circle cx="344" cy="57" r="9" fill="#C9E7EB"/>
<circle cx="338" cy="64" r="9" fill="#C9E7EB"/>
<circle cx="348" cy="75" r="9" fill="#C9E7EB"/>
<circle cx="354" cy="83" r="9" fill="#C9E7EB"/>
<circle cx="358.5" cy="71.5" r="13.5" fill="#C9E7EB"/>
<path d="M337 51.5C341 46 352.1 43.1 352.5 59.5C365.5 50.5 383.8 72.1 363 84.5C364 87 361.4 90.9 359 90.5M337 51.5C331 42.3 321.5 47.5 321 51.5C308 56.5 319.5 71.5 324 70C324.8 78.4 330.333 79.5 333 79M337 51.5C337.167 51.3333 337.6 51.7 338 54.5M359 90.5C361.5 102.5 338.2 107 341 87M359 90.5C358.333 90.6667 356.7 90.5 355.5 88.5M341 87C338.333 86.8333 333 85 333 79M341 87C340.5 87.1667 340.6 87.3 345 86.5M333 79C333 80.5 333 81.7 333 74.5" stroke="#5BC3CF" stroke-width="2" stroke-linecap="round"/>
<ellipse cx="408.176" cy="228.041" rx="11.1765" ry="10.9315" fill="#8AE1EB"/>
<ellipse cx="410.53" cy="247.603" rx="11.1765" ry="10.9315" fill="#8AE1EB"/>
<ellipse cx="427" cy="255.658" rx="11.1765" ry="10.9315" fill="#8AE1EB"/>
<ellipse cx="424.647" cy="274.069" rx="11.1765" ry="10.9315" fill="#8AE1EB"/>
<ellipse cx="426.412" cy="218.26" rx="17.6471" ry="17.2603" fill="#C9E7EB"/>
<ellipse cx="427.588" cy="238.973" rx="17.6471" ry="17.2603" fill="#C9E7EB"/>
<ellipse cx="439.353" cy="237.822" rx="17.6471" ry="17.2603" fill="#C9E7EB"/>
<ellipse cx="432.294" cy="257.384" rx="9.41177" ry="9.20548" fill="#C9E7EB"/>
<ellipse cx="437" cy="268.89" rx="9.41177" ry="9.20548" fill="#C9E7EB"/>
<ellipse cx="446.412" cy="258.534" rx="9.41177" ry="9.20548" fill="#C9E7EB"/>
<ellipse cx="441.706" cy="221.712" rx="9.41177" ry="9.20548" fill="#C9E7EB"/>
<path d="M405 238C388.2 229.6 401.5 214 408.5 217.5C412.9 191.9 440 198.5 443 212.5C451.8 212.5 452 220.5 451 224.5C461.4 231.3 458.5 245 451.5 250.5C462 256.5 453.5 268.5 446.5 268C446.5 278.8 438.833 279.167 435 278C424.2 295.6 401 274.5 420 264.5C418 263.3 416.167 259.333 415.5 257.5C397.5 263.1 395 243 405 238Z" stroke="#5BC3CF" stroke-width="2" stroke-linecap="round"/>
<path d="M410 224.5C409.667 226 410.5 229 413 229.5C412 231 409 235 410 238.5" stroke="#5BC3CF" stroke-width="2" stroke-linecap="round"/>
<path d="M423 256C422 258.5 422.9 263.6 428.5 266" stroke="#5BC3CF" stroke-width="2" stroke-linecap="round"/>
<ellipse cx="450.349" cy="299.138" rx="11.0465" ry="11.1379" fill="#8AE1EB"/>
<ellipse cx="449.186" cy="317.897" rx="11.0465" ry="11.1379" fill="#8AE1EB"/>
<ellipse cx="443.372" cy="331.965" rx="11.0465" ry="11.1379" fill="#8AE1EB"/>
<ellipse cx="438.14" cy="347.793" rx="8.13953" ry="8.2069" fill="#8AE1EB"/>
<ellipse cx="456.744" cy="298.552" rx="9.30233" ry="9.37931" fill="#C9E7EB"/>
<ellipse cx="462.558" cy="310.276" rx="9.30233" ry="9.37931" fill="#C9E7EB"/>
<ellipse cx="453.256" cy="314.965" rx="9.30233" ry="9.37931" fill="#C9E7EB"/>
<ellipse cx="446.279" cy="330.207" rx="9.30233" ry="9.37931" fill="#C9E7EB"/>
<ellipse cx="447.442" cy="341.931" rx="9.30233" ry="9.37931" fill="#C9E7EB"/>
<ellipse cx="456.744" cy="339.586" rx="9.30233" ry="9.37931" fill="#C9E7EB"/>
<ellipse cx="465.465" cy="328.448" rx="14.5349" ry="14.6552" fill="#C9E7EB"/>
<path d="M445.5 351.5C434.3 364.3 421.5 346.5 435.5 340C427.9 330.8 434.667 324.167 439 322C435.4 314.4 440.5 309.5 443.5 308C431.9 292.8 450.5 283.5 455.5 289.5C466.3 287.9 466.667 296.833 465.5 301.5C473.9 303.5 472.667 311.333 471 315C489.5 324 477.5 344.5 465.5 343.5M445.5 351.5C447.5 352.333 452 352.9 454 348.5C456.5 350 462.3 351.1 465.5 343.5M445.5 351.5C444.667 351.333 442.6 350.7 441 349.5M465.5 343.5C465 343.5 463.7 343.2 462.5 342" stroke="#5BC3CF" stroke-width="2" stroke-linecap="round"/>
</g>
<defs>
<clipPath id="clip0_32_680">
<rect width="512" height="512" fill="white"/>
</clipPath>
</defs>
</svg>
