<svg width="512" height="512" viewBox="0 0 512 512" fill="none" xmlns="http://www.w3.org/2000/svg">
<g clip-path="url(#clip0_34_377)">
<g opacity="0.16">
<path d="M234.857 359.825C220.357 410.825 194.357 513.825 198.357 517.825" stroke="#7ACEE7" stroke-width="4" stroke-linecap="round"/>
<path d="M310.356 356.325C309.856 406.491 311.356 510.325 314.356 514.825" stroke="#7ACEE7" stroke-width="4" stroke-linecap="round"/>
<path d="M310.356 356.325L434.356 458.825C438.523 461.158 447.756 462.625 451.356 449.825C455.523 399.658 463.956 299.425 464.356 299.825C464.856 300.325 480.856 284.825 474.356 272.325C482.523 265.658 492.956 249.625 469.356 238.825C463.523 237.158 447.756 235.925 431.356 244.325C430.19 245.325 427.456 247.425 425.856 247.825C423.856 248.325 418.856 243.825 422.356 218.325C422.356 213.658 420.556 204.725 413.356 206.325C404.356 208.325 398.856 227.825 415.856 264.325C411.523 267.825 406.956 278.625 423.356 293.825C425.523 337.658 428.956 425.325 427.356 425.325C425.356 425.325 385.856 397.825 377.356 388.825C368.856 379.825 317.356 336.825 314.356 333.825" stroke="#7ACEE7" stroke-width="4" stroke-linecap="round"/>
<path d="M233.856 363.825C206.69 381.658 149.656 420.125 138.856 431.325M138.856 431.325C160.356 448.158 203.456 481.625 203.856 480.825M138.856 431.325L126.356 419.825" stroke="#7ACEE7" stroke-width="4" stroke-linecap="round"/>
<path d="M226.857 341.325C191.523 366.491 120.157 416.725 117.357 416.325C113.857 415.825 99.3567 427.325 119.357 444.325C139.357 461.325 182.857 511.825 185.357 512.325C187.357 512.725 271.857 512.491 313.857 512.325" stroke="#7ACEE7" stroke-width="4" stroke-linecap="round"/>
<path d="M238.856 347.825C233.656 345.425 228.689 342.491 226.856 341.325C210.856 332.991 175.456 307.225 161.856 270.825C144.856 225.325 169.356 178.325 181.856 166.825C194.388 155.295 211.356 140.825 239.356 137.825C271.421 134.389 282.315 134.824 309.356 147.825C335.356 160.325 349.356 191.825 353.856 210.325C358.356 228.825 359.856 239.325 355.356 262.825C350.856 286.325 317.856 330.825 314.356 333.325C314.189 333.491 313.156 334.125 310.356 335.325" stroke="#7ACEE7" stroke-width="4" stroke-linecap="round"/>
</g>
<ellipse cx="53.9464" cy="245.18" rx="9.70517" ry="13.5302" fill="#8AE1EB"/>
<ellipse cx="60.0472" cy="262.963" rx="8.59601" ry="11.9839" fill="#8AE1EB"/>
<ellipse cx="54.5013" cy="280.745" rx="8.59601" ry="11.9839" fill="#8AE1EB"/>
<ellipse cx="57.8284" cy="298.528" rx="8.59601" ry="11.9839" fill="#8AE1EB"/>
<ellipse cx="56.1651" cy="316.311" rx="9.70517" ry="13.5302" fill="#8AE1EB"/>
<ellipse cx="43.4289" cy="247.62" rx="8.06077" ry="11.3307" fill="#C9E7EB"/>
<ellipse cx="50.0842" cy="263.856" rx="8.06077" ry="11.3307" fill="#C9E7EB"/>
<ellipse cx="47.3108" cy="286.277" rx="8.06077" ry="11.3307" fill="#C9E7EB"/>
<ellipse cx="35.3684" cy="275.72" rx="13.8645" ry="19.3289" fill="#C9E7EB"/>
<ellipse cx="43.9639" cy="304.713" rx="10.2598" ry="14.3034" fill="#C9E7EB"/>
<ellipse cx="37.3097" cy="293.116" rx="4.15936" ry="5.79867" fill="#C9E7EB"/>
<ellipse cx="44.5187" cy="259.87" rx="4.15936" ry="5.79867" fill="#C9E7EB"/>
<path d="M52.2827 295.822C53.3918 297.497 55.2774 302.471 53.9464 308.966M57.8285 267.988C57.3663 270.308 55.0556 275.024 49.5098 275.333C51.0811 276.493 54.3346 279.354 54.7783 281.519" stroke="#5BC3CF" stroke-width="2" stroke-linecap="round"/>
<path d="M46.1823 236.676C33.9815 233.583 32.595 251.752 38.6954 256.778C16.5122 256.778 15.6803 289.25 33.4269 295.049M46.1823 236.676C51.4508 225.078 67.7 231.882 62.8197 251.366C68.3655 252.912 73.7449 268.452 61.9878 274.947C63.2818 277.009 65.038 282.446 61.7105 287.704M46.1823 236.676L48.1233 237.835M61.7105 287.704C64.9456 289.894 69.8629 296.904 63.6516 307.419C71.693 324.429 54.6673 341.284 46.4595 319.017C41.7456 321.336 29.8222 312.831 34.8133 298.141M61.7105 287.704L60.6014 289.25M34.8133 298.141C34.4436 297.884 33.6487 296.904 33.4269 295.049M34.8133 298.141L35.9225 298.528M33.4269 295.049V293.503" stroke="#5BC3CF" stroke-width="2" stroke-linecap="round"/>
<ellipse cx="171.055" cy="23.1733" rx="12.4527" ry="17.5" transform="rotate(50 171.055 23.1733)" fill="#8AE1EB"/>
<ellipse cx="158.468" cy="43.9536" rx="11.0296" ry="15.5" transform="rotate(50 158.468 43.9536)" fill="#8AE1EB"/>
<ellipse cx="136.275" cy="53.2867" rx="11.0296" ry="15.5" transform="rotate(50 136.275 53.2867)" fill="#8AE1EB"/>
<ellipse cx="121.4" cy="71.3413" rx="11.0296" ry="15.5" transform="rotate(50 121.4 71.3413)" fill="#8AE1EB"/>
<ellipse cx="102.408" cy="84.4902" rx="12.4527" ry="17.5" transform="rotate(50 102.408 84.4902)" fill="#8AE1EB"/>
<ellipse cx="159.964" cy="14.8632" rx="10.3428" ry="14.6552" transform="rotate(50 159.964 14.8632)" fill="#C9E7EB"/>
<ellipse cx="149.364" cy="34.9029" rx="10.3428" ry="14.6552" transform="rotate(50 149.364 34.9029)" fill="#C9E7EB"/>
<ellipse cx="124.862" cy="50.8182" rx="10.3428" ry="14.6552" transform="rotate(50 124.862 50.8182)" fill="#C9E7EB"/>
<ellipse cx="125.473" cy="30.3021" rx="17.7896" ry="25" transform="rotate(50 125.473 30.3021)" fill="#C9E7EB"/>
<ellipse cx="103.836" cy="62.8558" rx="13.1643" ry="18.5" transform="rotate(50 103.836 62.8558)" fill="#C9E7EB"/>
<ellipse cx="109.838" cy="46.6728" rx="5.33688" ry="7.5" transform="rotate(50 109.838 46.6728)" fill="#C9E7EB"/>
<ellipse cx="148.724" cy="26.1193" rx="5.33688" ry="7.5" transform="rotate(50 148.724 26.1193)" fill="#C9E7EB"/>
<path d="M119.507 63.6404C118.762 66.1233 115.389 72.1119 107.857 76.2031M151.659 45.9511C148.98 47.4252 142.401 49.0749 137.52 43.881C137.667 46.3896 137.516 51.9659 135.737 54.2018" stroke="#5BC3CF" stroke-width="2" stroke-linecap="round"/>
<path d="M173.078 8.47059C166.079 -6.09287 146.934 7.64985 146.986 17.8242C128.69 -3.98001 95.8297 22.1993 104.721 44.4636M173.078 8.47059C188.914 4.00725 195.574 25.6354 172.245 37.0367C175.287 43.7733 164.326 61.9809 148.194 55.8241C147.219 58.8101 143.279 65.0572 135.326 66.1575M173.078 8.47059L173.529 11.3426M135.326 66.1575C135.824 71.1585 132.934 81.8197 117.393 84.4564C107.172 106.502 76.43 103.78 91.7226 77.2C85.5366 74.4949 84.1291 55.7046 102.8 48.3975M135.326 66.1575L132.879 66.3529M102.8 48.3975C102.751 47.8198 103.066 46.2243 104.721 44.4636M102.8 48.3975L103.332 49.8091M104.721 44.4636L106.253 43.178" stroke="#5BC3CF" stroke-width="2" stroke-linecap="round"/>
<ellipse cx="137.366" cy="451.013" rx="7.54677" ry="5.94505" transform="rotate(-10 137.366 451.013)" fill="#8AE1EB"/>
<ellipse cx="145.103" cy="453.324" rx="7.54677" ry="5.94505" transform="rotate(-10 145.103 453.324)" fill="#8AE1EB"/>
<ellipse cx="149.95" cy="461.918" rx="7.54677" ry="5.94505" transform="rotate(-10 149.95 461.918)" fill="#8AE1EB"/>
<ellipse cx="156.647" cy="469.661" rx="7.54677" ry="5.94505" transform="rotate(-10 156.647 469.661)" fill="#8AE1EB"/>
<ellipse cx="168.89" cy="474.851" rx="10.828" ry="8.52986" transform="rotate(-10 168.89 474.851)" fill="#8AE1EB"/>
<ellipse cx="182.156" cy="478.286" rx="5.57805" ry="4.39417" transform="rotate(-10 182.156 478.286)" fill="#8AE1EB"/>
<ellipse cx="132.142" cy="462.958" rx="12.1405" ry="9.56378" transform="rotate(-10 132.142 462.958)" fill="#C9E7EB"/>
<ellipse cx="124.71" cy="473.718" rx="8.85925" ry="6.97897" transform="rotate(-10 124.71 473.718)" fill="#C9E7EB"/>
<ellipse cx="135.751" cy="479.645" rx="12.1405" ry="9.56378" transform="rotate(-10 135.751 479.645)" fill="#C9E7EB"/>
<ellipse cx="146.792" cy="485.572" rx="12.1405" ry="9.56378" transform="rotate(-10 146.792 485.572)" fill="#C9E7EB"/>
<ellipse cx="168.477" cy="483.848" rx="12.1405" ry="9.56378" transform="rotate(-10 168.477 483.848)" fill="#C9E7EB"/>
<ellipse cx="180.478" cy="481.994" rx="5.24993" ry="4.13569" transform="rotate(-10 180.478 481.994)" fill="#C9E7EB"/>
<ellipse cx="157.903" cy="476.789" rx="5.57805" ry="4.39417" transform="rotate(-10 157.903 476.789)" fill="#C9E7EB"/>
<ellipse cx="148.308" cy="477.168" rx="5.24993" ry="4.13569" transform="rotate(-10 148.308 477.168)" fill="#C9E7EB"/>
<ellipse cx="144.512" cy="470.751" rx="7.21865" ry="5.42809" transform="rotate(-10 144.512 470.751)" fill="#C9E7EB"/>
<path d="M130.48 453.54C125.93 450.405 136.359 439.642 143.747 447.526C147.858 446.276 156.121 448.546 151.547 455.862C154.022 456.038 158.558 457.828 156.906 463.578C158.644 463.359 162.486 463.854 163.943 467.587M130.48 453.54C120.736 454.208 117.421 464.504 120.957 467.555C109.411 474.63 119.046 481.278 123.982 480.932M130.48 453.54L132.787 453.396M163.943 467.587C169.356 464.27 180.267 466.441 179.822 474.498M163.943 467.587C163.019 468.012 160.678 469.475 158.71 471.922C157.481 471.876 154.603 472.436 152.93 475.041C152.747 474.635 152.032 473.729 150.632 473.346C151.144 472.469 154.913 465.505 143.891 465.348M179.822 474.498C184.032 471.919 191.706 477.652 185.737 481.592C185.591 483.28 185.531 486.09 180.226 486.238M179.822 474.498L178.341 475.547M180.226 486.238C179.095 491.162 167.05 498.43 157.427 489.208C153.792 493.786 144.247 500.246 135.149 489.462C131.902 489.947 125.124 488.92 123.982 480.932M180.226 486.238L178.521 486.014M123.982 480.932L123.946 478.839" stroke="#5BC3CF" stroke-width="2" stroke-linecap="round"/>
<ellipse cx="328.661" cy="481.561" rx="8.33535" ry="3.78803" transform="rotate(10 328.661 481.561)" fill="#8AE1EB"/>
<ellipse cx="359.436" cy="482.533" rx="9.11679" ry="4.18677" transform="rotate(10 359.436 482.533)" fill="#8AE1EB"/>
<ellipse cx="350.16" cy="484.137" rx="9.11679" ry="4.18677" transform="rotate(10 350.16 484.137)" fill="#8AE1EB"/>
<ellipse cx="369.737" cy="481.111" rx="5.47008" ry="4.18677" transform="rotate(10 369.737 481.111)" fill="#8AE1EB"/>
<ellipse cx="377.959" cy="476.487" rx="7.03296" ry="5.383" transform="rotate(10 377.959 476.487)" fill="#8AE1EB"/>
<ellipse cx="381.63" cy="463.165" rx="7.81439" ry="5.98111" transform="rotate(10 381.63 463.165)" fill="#8AE1EB"/>
<ellipse cx="386.606" cy="455.945" rx="7.81439" ry="5.98111" transform="rotate(10 386.606 455.945)" fill="#8AE1EB"/>
<ellipse cx="387.257" cy="447.759" rx="5.47008" ry="4.18677" transform="rotate(10 387.257 447.759)" fill="#8AE1EB"/>
<ellipse cx="384.71" cy="471.199" rx="5.47008" ry="4.18677" transform="rotate(10 384.71 471.199)" fill="#8AE1EB"/>
<ellipse cx="8.91697" cy="4.42985" rx="8.91697" ry="4.42985" transform="matrix(0.999185 0.0403725 0.0518669 0.998654 334.048 475.013)" fill="#8AE1EB"/>
<ellipse cx="338.021" cy="488.475" rx="12.503" ry="7.3767" transform="rotate(10 338.021 488.475)" fill="#C9E7EB"/>
<ellipse cx="355.908" cy="492.034" rx="12.503" ry="7.3767" transform="rotate(10 355.908 492.034)" fill="#C9E7EB"/>
<ellipse cx="368.893" cy="491.894" rx="10.6797" ry="8.17418" transform="rotate(10 368.893 491.894)" fill="#C9E7EB"/>
<ellipse cx="381.857" cy="485.879" rx="9.37727" ry="7.17733" transform="rotate(10 381.857 485.879)" fill="#C9E7EB"/>
<ellipse cx="398.937" cy="474.517" rx="8.07487" ry="6.18048" transform="rotate(10 398.937 474.517)" fill="#C9E7EB"/>
<ellipse cx="388.524" cy="479.565" rx="8.07487" ry="6.18048" transform="rotate(10 388.524 479.565)" fill="#C9E7EB"/>
<ellipse cx="394.054" cy="469.203" rx="8.07487" ry="6.18048" transform="rotate(10 394.054 469.203)" fill="#C9E7EB"/>
<ellipse cx="403.232" cy="465.153" rx="8.07487" ry="6.18048" transform="rotate(10 403.232 465.153)" fill="#C9E7EB"/>
<ellipse cx="396.795" cy="450.656" rx="5.99104" ry="4.58552" transform="rotate(10 396.795 450.656)" fill="#C9E7EB"/>
<ellipse cx="399.723" cy="458.056" rx="5.99104" ry="4.58552" transform="rotate(10 399.723 458.056)" fill="#C9E7EB"/>
<ellipse cx="391.529" cy="458.028" rx="8.33535" ry="6.37985" transform="rotate(10 391.529 458.028)" fill="#C9E7EB"/>
<ellipse cx="394.23" cy="450.204" rx="4.42816" ry="3.38929" transform="rotate(10 394.23 450.204)" fill="#C9E7EB"/>
<path d="M379.823 468.92C379.274 469.633 379.317 470.788 379.407 471.276C372.718 469.611 369.855 474.451 371.2 477.32C367.001 475.931 364.954 478.243 364.455 479.572C358.343 477.036 353.492 478.246 351.83 479.168C348.435 473.224 333.929 474.189 334.311 479.52C327.505 474.919 312.175 479.059 326.208 484.975C323.451 494.611 341.339 498.17 345.844 495.118C352.196 501.096 360.415 499.981 363.731 498.677C374.725 503.53 379.919 496.875 379.585 492.767C389.077 494.44 391.141 488.731 391.148 485.696C395.091 484.933 396.413 481.833 396.582 480.378C406.038 482.248 409.337 475.541 405.599 471.238C414.362 469.544 410.685 460.393 405.59 459.292C406.842 455.788 403.416 454.118 401.547 453.721C406.487 447.304 396.4 443.906 392.408 447.048C391.138 440.751 377.806 442.854 383.112 450.268C378.414 451.707 378.567 455.54 379.231 457.276C369.398 460.239 374.47 467.774 379.823 468.92ZM379.823 468.92L380.474 468.225" stroke="#5BC3CF" stroke-width="2" stroke-linecap="round"/>
<path d="M384.201 460.582C384.502 461.378 385.859 463.182 388.882 464.039C386.638 465.263 383.384 468.819 388.315 473.252" stroke="#5BC3CF" stroke-width="2" stroke-linecap="round"/>
<path d="M337.285 480.652C339.03 480.757 344.981 482.009 346.756 483.942M365.301 483.77C366.847 483.503 370.469 483.264 372.588 484.447C372.699 483.32 373.488 480.841 375.762 479.946" stroke="#5BC3CF" stroke-width="2" stroke-linecap="round"/>
<ellipse cx="455.16" cy="278.862" rx="7.23741" ry="12.1617" transform="rotate(-5 455.16 278.862)" fill="#8AE1EB"/>
<ellipse cx="461.596" cy="272.991" rx="7.23741" ry="12.1617" transform="rotate(-5 461.596 272.991)" fill="#8AE1EB"/>
<ellipse cx="462.076" cy="285.688" rx="7.23741" ry="12.1617" transform="rotate(-5 462.076 285.688)" fill="#8AE1EB"/>
<ellipse cx="459.394" cy="251.422" rx="10.6988" ry="17.9782" transform="rotate(-5 459.394 251.422)" fill="#8AE1EB"/>
<ellipse cx="465.792" cy="230.692" rx="7.55208" ry="12.6905" transform="rotate(-5 465.792 230.692)" fill="#8AE1EB"/>
<ellipse cx="463.321" cy="209.676" rx="7.55208" ry="12.6905" transform="rotate(-5 463.321 209.676)" fill="#8AE1EB"/>
<ellipse cx="451.926" cy="202.181" rx="7.55208" ry="12.6905" transform="rotate(-5 451.926 202.181)" fill="#8AE1EB"/>
<ellipse cx="456.02" cy="191.207" rx="7.55208" ry="12.6905" transform="rotate(-5 456.02 191.207)" fill="#8AE1EB"/>
<ellipse cx="446.505" cy="183.547" rx="7.55208" ry="12.6905" transform="rotate(-5 446.505 183.547)" fill="#8AE1EB"/>
<ellipse cx="446.644" cy="167.08" rx="9.75477" ry="16.3919" transform="rotate(-5 446.644 167.08)" fill="#8AE1EB"/>
<ellipse cx="14.6223" cy="10.329" rx="14.6223" ry="10.329" transform="matrix(0.578724 -0.815524 0.463623 0.886033 442.249 308.199)" fill="#8AE1EB"/>
<ellipse cx="14.3633" cy="11.4793" rx="14.3633" ry="11.4793" transform="matrix(0.578724 -0.815524 0.463623 0.886033 452.688 304.767)" fill="#C9E7EB"/>
<ellipse cx="482.247" cy="292.416" rx="11.0135" ry="18.5069" transform="rotate(-5 482.247 292.416)" fill="#C9E7EB"/>
<ellipse cx="471.12" cy="284.366" rx="5.66406" ry="9.51786" transform="rotate(-5 471.12 284.366)" fill="#C9E7EB"/>
<ellipse cx="474.476" cy="264.964" rx="10.6988" ry="17.9782" transform="rotate(-5 474.476 264.964)" fill="#C9E7EB"/>
<ellipse cx="475.067" cy="213.957" rx="10.6988" ry="17.9782" transform="rotate(-5 475.067 213.957)" fill="#C9E7EB"/>
<ellipse cx="480.746" cy="192.228" rx="8.81076" ry="14.8056" transform="rotate(-5 480.746 192.228)" fill="#C9E7EB"/>
<ellipse cx="465.443" cy="197.813" rx="8.81076" ry="14.8056" transform="rotate(-5 465.443 197.813)" fill="#C9E7EB"/>
<ellipse cx="464.299" cy="170.312" rx="13.8455" ry="23.2659" transform="rotate(-5 464.299 170.312)" fill="#C9E7EB"/>
<ellipse cx="478.274" cy="243.4" rx="10.6988" ry="17.9782" transform="rotate(-5 478.274 243.4)" fill="#C9E7EB"/>
<ellipse cx="489.523" cy="263.648" rx="10.6988" ry="17.9782" transform="rotate(-5 489.523 263.648)" fill="#C9E7EB"/>
<ellipse cx="492.207" cy="225.727" rx="14.7895" ry="24.8522" transform="rotate(-5 492.207 225.727)" fill="#C9E7EB"/>
<path d="M475.249 306.298C493.703 320.82 495.736 294.952 490.822 282.112C504.991 273.653 500.347 257.393 496.253 250.32C518.47 235.637 502.699 194.023 488.473 201.106C493.769 183.658 482.315 174.044 477.622 178.17C479.467 141.49 456.657 140.726 452.886 155.387C440.532 140.544 431.671 162.02 439.323 177.275C436.881 189.803 442.129 194.899 445.057 195.881C442.092 213.975 452.368 218.066 456.074 213.495M475.249 306.298C473.248 312.312 467.218 322.818 459.105 316.734C444.851 330.72 439.003 305.754 455.953 291.532C448.872 290.028 441.613 274.209 454.1 266.747C448.393 259.284 442.631 240.361 458.453 233.457C457.835 231.211 457.323 225.594 460.214 221.095C459.332 220.641 457.269 218.486 456.074 213.495M475.249 306.298L476.134 301.974M456.074 213.495L455.577 211.415C454.566 207.081 453.525 196.627 457.449 189.489" stroke="#5BC3CF" stroke-width="2" stroke-linecap="round"/>
<path d="M464.179 212.255C464.4 217.19 466.026 227.593 470.761 229.726C469.824 231.047 467.888 234.436 467.645 237.43" stroke="#5BC3CF" stroke-width="2" stroke-linecap="round"/>
<path d="M466.112 288.52C465.181 286.301 464.06 280.95 467.025 277.293C465.618 275.647 463.02 269.788 463.891 259.521" stroke="#5BC3CF" stroke-width="2" stroke-linecap="round"/>
<ellipse cx="428.034" cy="94.6885" rx="8.13638" ry="9.44825" fill="#8AE1EB"/>
<ellipse cx="425.204" cy="76.6136" rx="8.13638" ry="9.44825" fill="#8AE1EB"/>
<ellipse cx="415.298" cy="63.4682" rx="8.13638" ry="9.44825" fill="#8AE1EB"/>
<ellipse cx="424.497" cy="65.1113" rx="8.13638" ry="9.44825" fill="#8AE1EB"/>
<ellipse cx="405.747" cy="51.5551" rx="11.3202" ry="12.3238" fill="#8AE1EB"/>
<ellipse cx="431.571" cy="94.6885" rx="6.01385" ry="6.98349" fill="#C9E7EB"/>
<ellipse cx="436.17" cy="89.3482" rx="3.53756" ry="4.10793" fill="#C9E7EB"/>
<ellipse cx="436.524" cy="76.6135" rx="10.9664" ry="12.7346" fill="#C9E7EB"/>
<ellipse cx="435.816" cy="59.3602" rx="10.9664" ry="12.7346" fill="#C9E7EB"/>
<ellipse cx="425.204" cy="52.7875" rx="8.84389" ry="10.2698" fill="#C9E7EB"/>
<ellipse cx="417.068" cy="43.3393" rx="9.19765" ry="10.6806" fill="#C9E7EB"/>
<path d="M416.715 50.3228C416.067 55.2086 417.019 63.8081 425.205 62.4679M427.681 61.825C426.79 62.1326 425.966 62.3432 425.205 62.4679M425.205 62.4679C425.205 64.1706 426.266 68.069 430.511 70.0409" stroke="#5BC3CF" stroke-width="2" stroke-linecap="round"/>
<path d="M428.034 68.3977C426.737 69.4931 424.426 72.9164 425.558 77.8459" stroke="#5BC3CF" stroke-width="2" stroke-linecap="round"/>
<path d="M408.578 39.6421C391.951 34.7126 387.069 63.2217 407.163 63.879C407.281 67.85 409.568 75.1347 417.775 72.5056C416.242 76.0658 415.44 83.7614 424.497 86.0618C413.176 93.0453 422.728 111.777 434.048 101.261C435.699 99.4811 438.718 95.4279 437.586 93.4561C438.411 93.1822 439.991 91.8951 439.708 88.9374M408.578 39.6421C415.37 24.5249 427.68 35.1234 426.265 43.3393M408.578 39.6421L407.516 42.5177M439.708 88.9374C444.661 86.3357 452.797 78.2567 444.307 67.9869C447.844 60.8665 450.533 46.7078 432.987 47.0364M439.708 88.9374C439.59 89.0743 438.93 89.3481 437.232 89.3481M432.987 47.0364C432.515 45.5302 430.51 42.682 426.265 43.3393M432.987 47.0364V49.0904M426.265 43.3393L425.912 45.3932" stroke="#5BC3CF" stroke-width="2" stroke-linecap="round"/>
<circle cx="135.24" cy="184.219" r="7.5" fill="#8AE1EB"/>
<circle cx="132.24" cy="197.219" r="8.5" fill="#8AE1EB"/>
<circle cx="128.74" cy="213.719" r="12" fill="#8AE1EB"/>
<circle cx="131.74" cy="244.719" r="9" fill="#8AE1EB"/>
<circle cx="122.74" cy="231.719" r="9" fill="#8AE1EB"/>
<circle cx="133.74" cy="260.719" r="8" fill="#8AE1EB"/>
<circle cx="124.74" cy="183.719" r="9" fill="#C9E7EB"/>
<circle cx="114.74" cy="199.719" r="16" fill="#C9E7EB"/>
<circle cx="109.74" cy="221.719" r="12" fill="#C9E7EB"/>
<circle cx="131.24" cy="261.219" r="7.5" fill="#C9E7EB"/>
<circle cx="126.24" cy="256.219" r="7.5" fill="#C9E7EB"/>
<circle cx="122.24" cy="245.219" r="7.5" fill="#C9E7EB"/>
<ellipse cx="111.24" cy="238.219" rx="7.5" ry="13.5" fill="#C9E7EB"/>
<ellipse cx="117.24" cy="243.219" rx="7.5" ry="13.5" fill="#C9E7EB"/>
<path d="M118.74 256.719C119.54 263.119 122.74 264.053 124.24 263.719C125.44 267.319 130.407 268.553 132.74 268.719C143.74 269.719 142.24 255.219 135.74 252.719C145.74 246.719 137.74 234.719 130.74 235.719C133.14 231.719 130.74 227.386 129.24 225.719C145.24 223.719 143.24 208.219 136.74 204.719C144.74 199.119 141.073 193.386 138.24 191.219C149.84 180.819 137.24 172.219 131.24 177.719C123.24 168.919 114.24 177.719 115.74 183.719C97.7403 182.119 93.7402 202.719 103.74 211.219C91.74 219.219 98.2402 230.719 104.24 232.719C101.04 245.519 107.573 250.719 111.24 251.719C113.24 257.319 117.073 257.386 118.74 256.719ZM118.74 256.719C118.407 256.886 117.94 257.319 120.74 255.719" stroke="#5BC3CF" stroke-width="2" stroke-linecap="round"/>
<path d="M128.74 192.219C130.24 195.219 131.94 203.019 126.74 210.219" stroke="#5BC3CF" stroke-width="2" stroke-linecap="round"/>
<path d="M121.74 223.219C121.907 224.386 121.54 227.319 118.74 229.719C119.24 229.886 120.74 230.819 122.74 233.219" stroke="#5BC3CF" stroke-width="2" stroke-linecap="round"/>
<ellipse cx="241.963" cy="456.848" rx="6.88248" ry="6.28986" fill="#8AE1EB"/>
<ellipse cx="272.073" cy="455.275" rx="6.88248" ry="6.28986" fill="#8AE1EB"/>
<ellipse cx="284.118" cy="452.13" rx="6.88248" ry="6.28986" fill="#8AE1EB"/>
<ellipse cx="258.738" cy="454.882" rx="12.4745" ry="9.82791" fill="#8AE1EB"/>
<ellipse cx="245.404" cy="460.779" rx="6.02217" ry="5.50363" fill="#C9E7EB"/>
<ellipse cx="261.749" cy="463.531" rx="12.0443" ry="7.46921" fill="#C9E7EB"/>
<ellipse cx="279.386" cy="460.386" rx="7.31264" ry="6.68298" fill="#C9E7EB"/>
<path d="M273.794 464.71C283.773 470.057 288.419 463.138 286.268 458.027C299.001 448.907 281.106 439.944 277.235 451.344C274.826 447.885 270.783 448.854 269.062 449.772C259.771 440.022 247.124 447.413 246.694 452.524C237.661 445.447 229.488 459.207 239.812 462.745C242.565 467.776 247.554 466.152 249.705 464.71C254.867 474.145 271.213 471 273.794 464.71ZM273.794 464.71C273.65 464.71 273.02 464.396 271.643 463.138" stroke="#5BC3CF" stroke-width="2" stroke-linecap="round"/>
<ellipse cx="380.812" cy="402.517" rx="8.28658" ry="7.0733" transform="rotate(-10 380.812 402.517)" fill="#8AE1EB"/>
<ellipse cx="385.375" cy="390.22" rx="8.28658" ry="7.0733" transform="rotate(-10 385.375 390.22)" fill="#8AE1EB"/>
<ellipse cx="396.23" cy="389.743" rx="8.28658" ry="7.0733" transform="rotate(-10 396.23 389.743)" fill="#8AE1EB"/>
<ellipse cx="403.039" cy="380.641" rx="8.28658" ry="7.0733" transform="rotate(-10 403.039 380.641)" fill="#8AE1EB"/>
<ellipse cx="400.381" cy="370.337" rx="9.94389" ry="8.48796" transform="rotate(-10 400.381 370.337)" fill="#8AE1EB"/>
<ellipse cx="407.739" cy="357.188" rx="8.70091" ry="7.42696" transform="rotate(-10 407.739 357.188)" fill="#8AE1EB"/>
<ellipse cx="384.22" cy="405.148" rx="7.87225" ry="6.71963" transform="rotate(-10 384.22 405.148)" fill="#C9E7EB"/>
<ellipse cx="396.54" cy="398.666" rx="13.6729" ry="8.84162" transform="rotate(-10 396.54 398.666)" fill="#C9E7EB"/>
<ellipse cx="408.756" cy="386.816" rx="11.1869" ry="7.0733" transform="rotate(-10 408.756 386.816)" fill="#C9E7EB"/>
<ellipse cx="413.362" cy="379.539" rx="11.1869" ry="4.24398" transform="rotate(-10 413.362 379.539)" fill="#C9E7EB"/>
<ellipse cx="417.619" cy="365.501" rx="11.1869" ry="9.54895" transform="rotate(-10 417.619 365.501)" fill="#C9E7EB"/>
<ellipse cx="412.095" cy="374.735" rx="4.14329" ry="3.53665" transform="rotate(-10 412.095 374.735)" fill="#C9E7EB"/>
<ellipse cx="405.667" cy="374.073" rx="7.04359" ry="6.0123" transform="rotate(-10 405.667 374.073)" fill="#C9E7EB"/>
<path d="M390.697 384.613C392.133 383.211 394.165 382.805 395.001 382.777C393.857 380.106 394.808 378.502 395.427 378.033C383.182 373.01 393.519 360.055 400.539 361.69C394.018 347.613 415.751 345.361 416.369 356.026C435.842 355.752 429.579 371.293 418.869 374.977C428.55 376.431 422.946 380.603 418.935 382.507C424.08 388.782 414.249 394.107 409.229 394.274C412.925 405.689 396.874 410.099 391.363 407.479C385.638 415.097 378.736 412.22 377.367 409.229C367.531 405.936 374.156 395.79 379.175 395.623C371.987 385.398 385.573 379.412 390.697 384.613ZM390.697 384.613L388.903 386.366" stroke="#5BC3CF" stroke-width="2" stroke-linecap="round"/>
<circle cx="474.272" cy="406.945" r="6" transform="rotate(-15 474.272 406.945)" fill="#8AE1EB"/>
<circle cx="481.88" cy="412.153" r="6" transform="rotate(-15 481.88 412.153)" fill="#8AE1EB"/>
<circle cx="478.508" cy="420.821" r="9.5" transform="rotate(-15 478.508 420.821)" fill="#8AE1EB"/>
<circle cx="482.391" cy="435.31" r="9.5" transform="rotate(-15 482.391 435.31)" fill="#8AE1EB"/>
<circle cx="477.062" cy="450.197" r="9.5" transform="rotate(-15 477.062 450.197)" fill="#8AE1EB"/>
<circle cx="469.025" cy="462.703" r="9.5" transform="rotate(-15 469.025 462.703)" fill="#8AE1EB"/>
<ellipse cx="454.959" cy="470.095" rx="12" ry="7" transform="rotate(-15 454.959 470.095)" fill="#8AE1EB"/>
<circle cx="479.456" cy="405.038" r="6.5" transform="rotate(-15 479.456 405.038)" fill="#C9E7EB"/>
<circle cx="488.521" cy="417.621" r="11" transform="rotate(-15 488.521 417.621)" fill="#C9E7EB"/>
<circle cx="494.922" cy="437.646" r="11" transform="rotate(-15 494.922 437.646)" fill="#C9E7EB"/>
<circle cx="494.36" cy="425.891" r="5.5" transform="rotate(-15 494.36 425.891)" fill="#C9E7EB"/>
<circle cx="485.66" cy="449.446" r="9" transform="rotate(-15 485.66 449.446)" fill="#C9E7EB"/>
<ellipse cx="474.277" cy="464.919" rx="14" ry="9" transform="rotate(-15 474.277 464.919)" fill="#C9E7EB"/>
<ellipse cx="456.443" cy="471.768" rx="10" ry="4" transform="rotate(-15 456.443 471.768)" fill="#C9E7EB"/>
<path d="M499.484 427.624C500.898 425.175 499.446 422.976 498.543 422.182C501.492 410.004 491.406 406.495 485.674 406.996C488.55 399.185 478.799 394.862 474.298 401.244C464.768 404.315 469.736 411.266 472.315 413.164C466.908 416.165 470.496 427.627 474.654 429.619C471.335 434.235 473.237 439.143 474.603 441.021C467.572 444.147 467.368 450.724 468.144 453.621C462.038 454.015 460.046 460.105 459.814 463.101C437.459 460.808 437.297 487.251 464.463 472.725C483.845 477.056 490.767 464.642 485.928 458.174C494.456 457.545 495.357 451.506 494.742 448.565M499.484 427.624C509.152 432.798 507.239 448.84 494.742 448.565M499.484 427.624L497.104 430.333M494.742 448.565L493.965 445.667" stroke="#5BC3CF" stroke-width="2" stroke-linecap="round"/>
<ellipse cx="71.667" cy="414.619" rx="5.4026" ry="5.3461" transform="rotate(-20 71.667 414.619)" fill="#8AE1EB"/>
<ellipse cx="73.1772" cy="426.667" rx="8.1039" ry="8.01915" transform="rotate(-20 73.1772 426.667)" fill="#8AE1EB"/>
<ellipse cx="79.5029" cy="436.15" rx="5.4026" ry="5.3461" transform="rotate(-20 79.5029 436.15)" fill="#8AE1EB"/>
<ellipse cx="83.6241" cy="445.215" rx="6.1744" ry="6.10983" transform="rotate(-20 83.6241 445.215)" fill="#8AE1EB"/>
<ellipse cx="65.2561" cy="421.829" rx="6.9462" ry="6.87356" transform="rotate(-20 65.2561 421.829)" fill="#C9E7EB"/>
<ellipse cx="68.4752" cy="413.749" rx="3.4731" ry="3.43678" transform="rotate(-20 68.4752 413.749)" fill="#C9E7EB"/>
<ellipse cx="64.0974" cy="434.442" rx="9.2616" ry="9.16475" transform="rotate(-20 64.0974 434.442)" fill="#C9E7EB"/>
<ellipse cx="70.1037" cy="440.79" rx="6.5603" ry="6.4917" transform="rotate(-20 70.1037 440.79)" fill="#C9E7EB"/>
<ellipse cx="71.2616" cy="428.177" rx="5.0167" ry="4.96424" transform="rotate(-20 71.2616 428.177)" fill="#C9E7EB"/>
<ellipse cx="73.411" cy="436.335" rx="5.0167" ry="4.96424" transform="rotate(-20 73.411 436.335)" fill="#C9E7EB"/>
<ellipse cx="78.7792" cy="446.572" rx="5.0167" ry="4.96424" transform="rotate(-20 78.7792 446.572)" fill="#C9E7EB"/>
<ellipse cx="77.9076" cy="440.794" rx="2.3154" ry="2.29119" transform="rotate(-20 77.9076 440.794)" fill="#C9E7EB"/>
<path d="M59.8749 426.226C57.6116 423.392 55.5102 417.168 65.2114 414.937M59.8749 426.226C49.7446 430.888 57.905 445.636 64.2003 443.751C66.6612 448.707 71.6085 447.557 73.7746 446.362C75.3074 453.281 79.365 452.319 81.2023 450.973C90.1499 453.893 92.1672 440.48 83.8406 439.041C86.4392 433.544 82.4372 431.424 80.1114 431.052M59.8749 426.226L62.4134 425.302M65.2114 414.937C64.7326 413.621 64.7235 410.888 68.5182 410.482C71.3608 407.01 80.0037 408.415 75.1776 418.624C78.4561 419.734 84.0327 423.773 80.1114 431.052M65.2114 414.937L65.8645 416.731M80.1114 431.052L78.5887 433.638" stroke="#5BC3CF" stroke-width="2" stroke-linecap="round"/>
<circle cx="65.5046" cy="107.327" r="7" transform="rotate(30 65.5046 107.327)" fill="#8AE1EB"/>
<circle cx="54.7231" cy="119.001" r="10.5" transform="rotate(30 54.7231 119.001)" fill="#8AE1EB"/>
<circle cx="50.5046" cy="133.308" r="7" transform="rotate(30 50.5046 133.308)" fill="#8AE1EB"/>
<circle cx="44.8706" cy="145.067" r="8" transform="rotate(30 44.8706 145.067)" fill="#8AE1EB"/>
<circle cx="52.9778" cy="107.024" r="9" transform="rotate(30 52.9778 107.024)" fill="#C9E7EB"/>
<circle cx="63.7233" cy="103.412" r="4.5" transform="rotate(30 63.7233 103.412)" fill="#C9E7EB"/>
<circle cx="39.4157" cy="116.514" r="12" transform="rotate(30 39.4157 116.514)" fill="#C9E7EB"/>
<circle cx="38.0634" cy="127.857" r="8.5" transform="rotate(30 38.0634 127.857)" fill="#C9E7EB"/>
<circle cx="51.6253" cy="118.367" r="6.5" transform="rotate(30 51.6253 118.367)" fill="#C9E7EB"/>
<circle cx="45.259" cy="127.393" r="6.5" transform="rotate(30 45.259 127.393)" fill="#C9E7EB"/>
<circle cx="39.4915" cy="141.384" r="6.5" transform="rotate(30 39.4915 141.384)" fill="#C9E7EB"/>
<circle cx="44.5405" cy="135.638" r="3" transform="rotate(30 44.5405 135.638)" fill="#C9E7EB"/>
<path d="M44.1172 105.372C45.0681 100.725 49.5413 93.3767 59.8265 101.162M44.1172 105.372C31.0463 99.2108 23.091 119.79 30.2022 124.473C27.2951 131.109 32.5531 135.068 35.5455 136.218C29.9063 143.586 34.2373 146.818 37.1077 147.513C41.6215 158.894 56.6961 149.584 51.2189 140.071C58.8686 138.022 57.6623 132.244 56.1029 129.612M44.1172 105.372L47.1484 107.122M59.8265 101.162C60.7432 99.5746 63.4658 97.2591 67.0227 100.698C72.8529 100.6 78.6265 110.4 64.4199 114.207C66.0343 118.41 66.6311 127.377 56.1029 129.612M59.8265 101.162L58.5766 103.327M56.1029 129.612L52.2548 130.277" stroke="#5BC3CF" stroke-width="2" stroke-linecap="round"/>
<ellipse cx="20.0396" cy="431.966" rx="8.14442" ry="9.00453" transform="rotate(-20 20.0396 431.966)" fill="#8AE1EB"/>
<ellipse cx="27.7896" cy="441.922" rx="7.36876" ry="7.28938" transform="rotate(-20 27.7896 441.922)" fill="#8AE1EB"/>
<ellipse cx="26.7944" cy="455.061" rx="7.36876" ry="7.28938" transform="rotate(-20 26.7944 455.061)" fill="#8AE1EB"/>
<ellipse cx="33.4654" cy="472.254" rx="13.1862" ry="12.8636" transform="rotate(-20 33.4654 472.254)" fill="#8AE1EB"/>
<ellipse cx="45.2374" cy="487.59" rx="11.2471" ry="9.00453" transform="rotate(-20 45.2374 487.59)" fill="#8AE1EB"/>
<ellipse cx="16.5378" cy="431.416" rx="5.04178" ry="5.57423" transform="rotate(-20 16.5378 431.416)" fill="#C9E7EB"/>
<ellipse cx="20.2081" cy="443.769" rx="5.04178" ry="9.00453" transform="rotate(-20 20.2081 443.769)" fill="#C9E7EB"/>
<ellipse cx="11.3779" cy="441.051" rx="8.53224" ry="9.43332" transform="rotate(-20 11.3779 441.051)" fill="#C9E7EB"/>
<ellipse cx="15.6357" cy="455.016" rx="8.53224" ry="9.43332" transform="rotate(-20 15.6357 455.016)" fill="#C9E7EB"/>
<ellipse cx="38.6028" cy="488.637" rx="9.3079" ry="9.43332" transform="rotate(-20 38.6028 488.637)" fill="#C9E7EB"/>
<ellipse cx="21.5807" cy="474.754" rx="11.2471" ry="15.4363" transform="rotate(-20 21.5807 474.754)" fill="#C9E7EB"/>
<path d="M23.652 452.098C24.409 453.8 25.3407 457.871 23.0118 460.544C25.8814 460.869 31.976 464.309 33.3979 475.473" stroke="#5BC3CF" stroke-width="2" stroke-linecap="round"/>
<path d="M11.7237 431.799C-1.05467 432.069 1.90581 446.78 8.2567 449.488C3.19352 456.441 8.98528 461.695 12.5141 463.452C3.61079 476.184 18.7753 495.396 29.2643 487.928C30.2204 499.627 38.8416 499.501 43.286 496.97C57.4048 495.847 63.1616 477.872 44.4908 478.736C50.0865 468.029 41.6825 459.681 32.4915 459.375C35.752 455.633 32.6206 450.659 30.6474 448.639C36.8269 445.66 37.2609 436.193 27.9945 434.546C28.9859 419.127 11.6307 421.338 11.7237 431.799ZM11.7237 431.799C12.137 431.8 13.1681 431.912 13.9858 432.344" stroke="#5BC3CF" stroke-width="2" stroke-linecap="round"/>
<circle cx="32" cy="357.888" r="8" fill="#8AE1EB"/>
<circle cx="18.5" cy="333.388" r="5.5" fill="#8AE1EB"/>
<circle cx="22.5" cy="346.388" r="10.5" fill="#8AE1EB"/>
<circle cx="16" cy="333.888" r="5" fill="#C9E7EB"/>
<circle cx="12.5" cy="331.388" r="3.5" fill="#C9E7EB"/>
<circle cx="16" cy="350.888" r="13" fill="#C9E7EB"/>
<path d="M24.4994 360.388C7.69936 371.588 -7.00009 345.888 13.4994 338.388C6.5 333.888 9.5 323.888 15 328.388C21.5 323.888 26.5 331.388 23 335.888C33 336.688 33.4999 345.554 32.4999 349.888C47.2999 355.488 34 373.888 24.4994 360.388ZM24.4994 360.388C24.9996 360.554 26.4 360.788 28 360.388" stroke="#5BC3CF" stroke-width="2" stroke-linecap="round"/>
<circle cx="297.61" cy="29.4569" r="10" transform="rotate(10 297.61 29.4569)" fill="#8AE1EB"/>
<circle cx="311.339" cy="29.3391" r="8.5" transform="rotate(10 311.339 29.3391)" fill="#8AE1EB"/>
<circle cx="297.086" cy="15.1486" r="10" transform="rotate(10 297.086 15.1486)" fill="#C9E7EB"/>
<circle cx="305.081" cy="21.6355" r="10" transform="rotate(10 305.081 21.6355)" fill="#C9E7EB"/>
<circle cx="315.392" cy="17.8687" r="10.5" transform="rotate(10 315.392 17.8687)" fill="#C9E7EB"/>
<path d="M319.825 27.2815C336.784 14.0251 315.737 -1.36353 306.818 11.7875C292.773 -5.31108 279.331 15.0642 290.194 22.5645C281.739 40.5698 301.174 43.7938 305.691 35.4514M319.825 27.2815C322.896 32.9001 316.815 41.4744 305.691 35.4514M319.825 27.2815C319.69 27.0884 319.077 26.3373 317.71 24.8777M305.691 35.4514L304.793 34.7853" stroke="#5BC3CF" stroke-width="2" stroke-linecap="round"/>
<circle cx="228.839" cy="29.6375" r="10" fill="#8AE1EB"/>
<circle cx="242.339" cy="27.1375" r="8.5" fill="#8AE1EB"/>
<circle cx="225.839" cy="15.6375" r="10" fill="#C9E7EB"/>
<circle cx="234.839" cy="20.6375" r="10" fill="#C9E7EB"/>
<circle cx="244.339" cy="15.1375" r="10.5" fill="#C9E7EB"/>
<path d="M250.339 23.6375C264.739 7.63746 241.339 -3.86254 234.839 10.6375C218.039 -3.76253 208.339 18.6375 220.339 24.1375C215.139 43.3375 234.839 43.1375 237.839 34.1375M250.339 23.6375C254.339 28.6375 249.839 38.1375 237.839 34.1375M250.339 23.6375C250.172 23.4708 249.439 22.8375 247.839 21.6375M237.839 34.1375L236.839 33.6375" stroke="#5BC3CF" stroke-width="2" stroke-linecap="round"/>
<ellipse cx="412.048" cy="12.8172" rx="6.66508" ry="5.42713" fill="#8AE1EB"/>
<ellipse cx="419.89" cy="19.202" rx="6.66508" ry="5.42713" fill="#8AE1EB"/>
<ellipse cx="413.224" cy="11.8594" rx="5.48889" ry="4.4694" fill="#C9E7EB"/>
<ellipse cx="419.497" cy="11.8594" rx="5.48889" ry="4.4694" fill="#C9E7EB"/>
<ellipse cx="421.065" cy="17.6058" rx="5.48889" ry="4.4694" fill="#C9E7EB"/>
<path d="M424.202 14.0941C427.731 7.39003 418.713 5.79382 416.361 8.34776C415.708 7.28362 412.441 5.79382 406.952 8.66701C401.855 12.4979 407.736 20.1597 413.224 18.2443C414.165 29.4816 427.731 24.6291 426.555 18.5635C428.123 16.3288 425.117 14.4134 424.202 14.0941Z" stroke="#5BC3CF" stroke-width="2" stroke-linecap="round"/>
<circle cx="494.849" cy="366.798" r="8.5" transform="rotate(45 494.849 366.798)" fill="#8AE1EB"/>
<circle cx="494.849" cy="380.94" r="8.5" transform="rotate(45 494.849 380.94)" fill="#8AE1EB"/>
<circle cx="496.97" cy="366.798" r="7" transform="rotate(45 496.97 366.798)" fill="#C9E7EB"/>
<circle cx="502.626" cy="372.455" r="7" transform="rotate(45 502.626 372.455)" fill="#C9E7EB"/>
<circle cx="497.677" cy="380.233" r="7" transform="rotate(45 497.677 380.233)" fill="#C9E7EB"/>
<path d="M504.394 379.173C515.001 374.93 508.637 365.031 503.687 365.738C504.276 363.97 502.98 359.374 494.848 357.606C486.009 357.252 482.827 371.041 489.898 373.869C478.302 387.163 495.909 394.022 501.566 386.244C505.455 385.183 504.866 380.351 504.394 379.173Z" stroke="#5BC3CF" stroke-width="2" stroke-linecap="round"/>
<ellipse cx="448.798" cy="27.5264" rx="4.79759" ry="4.15427" fill="#8AE1EB"/>
<ellipse cx="450.542" cy="35.0797" rx="4.79759" ry="4.15427" fill="#8AE1EB"/>
<ellipse cx="452.287" cy="31.3031" rx="4.79759" ry="4.15427" fill="#8AE1EB"/>
<ellipse cx="456.648" cy="39.6116" rx="4.79759" ry="4.15427" fill="#8AE1EB"/>
<ellipse cx="464.062" cy="45.2765" rx="6.97831" ry="7.55323" fill="#8AE1EB"/>
<ellipse cx="450.542" cy="26.0158" rx="3.9253" ry="3.39895" fill="#C9E7EB"/>
<ellipse cx="454.032" cy="31.3031" rx="3.9253" ry="3.39895" fill="#C9E7EB"/>
<ellipse cx="456.648" cy="35.0797" rx="3.9253" ry="3.39895" fill="#C9E7EB"/>
<ellipse cx="462.318" cy="30.9254" rx="9.59518" ry="8.30855" fill="#C9E7EB"/>
<ellipse cx="461.882" cy="39.6116" rx="3.9253" ry="3.39895" fill="#C9E7EB"/>
<ellipse cx="467.988" cy="43.7659" rx="5.66988" ry="6.7979" fill="#C9E7EB"/>
<path d="M454.468 26.3935C460.574 16.5743 479.677 24.5807 468.861 36.968M468.861 36.968C472.641 38.6045 478.02 43.6148 469.297 50.5638C459.178 57.2106 456.649 48.6755 457.085 43.7659C451.502 44.6723 451.27 41.1222 451.851 39.2339C444.175 39.5361 445.745 34.3243 447.49 31.6807C441.558 26.2424 445.6 23.7498 448.362 23.3722C452.2 20.3509 454.468 23.7498 454.468 26.0158M468.861 36.968L466.68 39.2339" stroke="#5BC3CF" stroke-width="2" stroke-linecap="round"/>
<circle cx="427.5" cy="131.5" r="5.5" fill="#C9E7EB"/>
<ellipse cx="420" cy="135.5" rx="8" ry="5.5" fill="#C9E7EB"/>
<circle cx="426" cy="144" r="10" fill="#C9E7EB"/>
<path d="M416 141C414.502 164.5 450 150 431.498 135.5C436.498 131.5 428 120 422 130.5C411.5 128 410.5 139 416 141ZM416 141L419 142" stroke="#5BC3CF" stroke-width="2" stroke-linecap="round"/>
<path d="M139.418 113.715C139.319 113.118 140.167 112.89 140.38 113.457L146.627 130.135C146.832 130.682 147.336 131.061 147.919 131.105L160.348 132.04C160.82 132.076 160.983 132.685 160.592 132.951L150.296 139.977C149.814 140.306 149.566 140.886 149.662 141.462L152.591 159.03C152.69 159.627 151.842 159.854 151.63 159.288L145.382 142.609C145.177 142.062 144.673 141.683 144.09 141.64L131.661 140.704C131.19 140.668 131.027 140.059 131.417 139.792L141.713 132.768C142.196 132.439 142.443 131.858 142.347 131.282L139.418 113.715Z" fill="#BDE3EF" stroke="#5BC3CF"/>
<path d="M140.436 301.833C140.48 301.323 141.172 301.201 141.388 301.666L146.07 311.759C146.285 312.222 146.721 312.544 147.226 312.614L157.716 314.056C158.197 314.123 158.311 314.767 157.882 314.994L148.518 319.938C148.066 320.177 147.767 320.629 147.724 321.137L146.776 332.223C146.732 332.734 146.04 332.856 145.824 332.391L141.142 322.298C140.927 321.835 140.491 321.513 139.985 321.443L129.495 319.999C129.014 319.933 128.9 319.289 129.33 319.062L138.694 314.118C139.145 313.88 139.444 313.428 139.488 312.919L140.436 301.833Z" fill="#BDE3EF" stroke="#5BC3CF"/>
<path d="M398.009 155.307C398.111 154.764 398.889 154.764 398.991 155.307L401.193 166.991C401.284 167.471 401.603 167.877 402.048 168.079L410.787 172.045C411.178 172.223 411.178 172.777 410.787 172.955L402.048 176.921C401.603 177.123 401.284 177.529 401.193 178.009L398.991 189.693C398.889 190.236 398.111 190.236 398.009 189.693L395.807 178.009C395.716 177.529 395.397 177.123 394.952 176.921L386.213 172.955C385.822 172.777 385.822 172.223 386.213 172.045L394.952 168.079C395.397 167.877 395.716 167.471 395.807 166.991L398.009 155.307Z" fill="#BDE3EF" stroke="#5BC3CF"/>
<path d="M360.223 418.002C360.515 417.848 360.874 418.015 360.944 418.338L362.066 423.503C362.153 423.903 362.4 424.251 362.749 424.465L367.29 427.238C367.798 427.549 367.435 428.328 366.87 428.139L361.827 426.443C361.439 426.313 361.013 426.347 360.65 426.538L355.973 428.999C355.68 429.152 355.322 428.985 355.252 428.662L354.129 423.497C354.042 423.096 353.795 422.748 353.445 422.535L348.905 419.761C348.397 419.451 348.76 418.672 349.325 418.861L354.368 420.557C354.756 420.687 355.182 420.653 355.544 420.462L360.223 418.002Z" fill="#BDE3EF" stroke="#5BC3CF"/>
<path d="M361.811 57.2603C361.769 56.6606 362.627 56.5093 362.791 57.0875L366.991 71.8729C367.137 72.3877 367.547 72.7857 368.066 72.917L378.329 75.5141C378.747 75.6199 378.844 76.17 378.487 76.4124L369.731 82.3631C369.289 82.664 369.04 83.1779 369.079 83.7118L370.189 99.0409C370.232 99.6411 369.373 99.7925 369.209 99.2137L365.01 84.4292C364.863 83.9143 364.453 83.5166 363.934 83.3853L353.671 80.7882C353.253 80.6824 353.156 80.1324 353.512 79.8899L362.268 73.9392C362.711 73.6384 362.961 73.1242 362.922 72.5904L361.811 57.2603Z" fill="#BDE3EF" stroke="#5BC3CF"/>
<path d="M93.3819 338.585C93.2177 337.992 94.0631 337.684 94.3189 338.244L101.76 354.549C101.955 354.976 102.339 355.286 102.798 355.389L113.403 357.763C113.759 357.843 113.912 358.265 113.69 358.554L107.093 367.19C106.808 367.563 106.713 368.048 106.838 368.501L111.618 385.774C111.783 386.368 110.937 386.675 110.681 386.115L103.239 369.811C103.044 369.384 102.661 369.073 102.203 368.97L91.5976 366.596C91.2416 366.516 91.0882 366.095 91.3097 365.805L97.9073 357.169C98.1923 356.796 98.286 356.311 98.161 355.859L93.3819 338.585Z" fill="#BDE3EF" stroke="#5BC3CF"/>
<path d="M176.59 414.196C176.563 412.768 178.359 412.114 179.257 413.226L188.218 424.33C188.798 425.048 189.726 425.388 190.631 425.216L206.487 422.201C208.158 421.883 208.985 424.153 207.5 424.984L193.416 432.866C192.611 433.317 192.119 434.173 192.137 435.095L192.41 449.362C192.436 450.791 190.64 451.445 189.743 450.333L180.781 439.228C180.202 438.511 179.275 438.171 178.369 438.343L162.512 441.358C160.841 441.676 160.015 439.406 161.499 438.575L175.584 430.692C176.389 430.242 176.881 429.385 176.863 428.463L176.59 414.196Z" fill="#BDE3EF" stroke="#5BC3CF"/>
</g>
<defs>
<clipPath id="clip0_34_377">
<rect width="512" height="512" fill="white"/>
</clipPath>
</defs>
</svg>
