<svg width="512" height="512" viewBox="0 0 512 512" fill="none" xmlns="http://www.w3.org/2000/svg">
<g clip-path="url(#clip0_42_30)">
<g opacity="0.04">
<path d="M234.857 359.825C220.357 410.825 194.357 513.825 198.357 517.825" stroke="#7ACEE7" stroke-width="4" stroke-linecap="round"/>
<path d="M310.356 356.325C309.856 406.491 311.356 510.325 314.356 514.825" stroke="#7ACEE7" stroke-width="4" stroke-linecap="round"/>
<path d="M310.356 356.325L434.356 458.825C438.523 461.158 447.756 462.625 451.356 449.825C455.523 399.658 463.956 299.425 464.356 299.825C464.856 300.325 480.856 284.825 474.356 272.325C482.523 265.658 492.956 249.625 469.356 238.825C463.523 237.158 447.756 235.925 431.356 244.325C430.19 245.325 427.456 247.425 425.856 247.825C423.856 248.325 418.856 243.825 422.356 218.325C422.356 213.658 420.556 204.725 413.356 206.325C404.356 208.325 398.856 227.825 415.856 264.325C411.523 267.825 406.956 278.625 423.356 293.825C425.523 337.658 428.956 425.325 427.356 425.325C425.356 425.325 385.856 397.825 377.356 388.825C368.856 379.825 317.356 336.825 314.356 333.825" stroke="#7ACEE7" stroke-width="4" stroke-linecap="round"/>
<path d="M233.856 363.825C206.69 381.658 149.656 420.125 138.856 431.325M138.856 431.325C160.356 448.158 203.456 481.625 203.856 480.825M138.856 431.325L126.356 419.825" stroke="#7ACEE7" stroke-width="4" stroke-linecap="round"/>
<path d="M226.857 341.325C191.523 366.491 120.157 416.725 117.357 416.325C113.857 415.825 99.3567 427.325 119.357 444.325C139.357 461.325 182.857 511.825 185.357 512.325C187.357 512.725 271.857 512.491 313.857 512.325" stroke="#7ACEE7" stroke-width="4" stroke-linecap="round"/>
<path d="M238.856 347.825C233.656 345.425 228.689 342.491 226.856 341.325C210.856 332.991 175.456 307.225 161.856 270.825C144.856 225.325 169.356 178.325 181.856 166.825C194.388 155.295 211.356 140.825 239.356 137.825C271.421 134.389 282.315 134.824 309.356 147.825C335.356 160.325 349.356 191.825 353.856 210.325C358.356 228.825 359.856 239.325 355.356 262.825C350.856 286.325 317.856 330.825 314.356 333.325C314.189 333.491 313.156 334.125 310.356 335.325" stroke="#7ACEE7" stroke-width="4" stroke-linecap="round"/>
</g>
<ellipse cx="415.429" cy="67.8942" rx="5.12291" ry="5.40989" fill="#8AE1EB"/>
<ellipse cx="413.646" cy="57.5449" rx="5.12291" ry="5.40989" fill="#8AE1EB"/>
<ellipse cx="407.41" cy="50.0181" rx="5.12291" ry="5.40989" fill="#8AE1EB"/>
<ellipse cx="413.202" cy="50.9589" rx="5.12291" ry="5.40989" fill="#8AE1EB"/>
<ellipse cx="401.396" cy="43.1969" rx="7.12752" ry="7.05638" fill="#8AE1EB"/>
<ellipse cx="417.656" cy="67.8942" rx="3.7865" ry="3.99861" fill="#C9E7EB"/>
<ellipse cx="420.552" cy="64.8365" rx="2.22735" ry="2.35213" fill="#C9E7EB"/>
<ellipse cx="420.774" cy="57.5449" rx="6.90479" ry="7.29159" fill="#C9E7EB"/>
<ellipse cx="420.329" cy="47.6659" rx="6.90479" ry="7.29159" fill="#C9E7EB"/>
<ellipse cx="413.647" cy="43.9025" rx="5.56838" ry="5.88031" fill="#C9E7EB"/>
<ellipse cx="408.525" cy="38.4927" rx="5.79111" ry="6.11553" fill="#C9E7EB"/>
<path d="M408.302 42.4913C407.894 45.2888 408.494 50.2127 413.648 49.4453M415.207 49.0772C414.646 49.2534 414.127 49.374 413.648 49.4453M413.648 49.4453C413.648 50.4203 414.316 52.6525 416.989 53.7815" stroke="#5BC3CF" stroke-width="2" stroke-linecap="round"/>
<path d="M415.429 52.8406C414.612 53.4679 413.157 55.428 413.869 58.2505" stroke="#5BC3CF" stroke-width="2" stroke-linecap="round"/>
<path d="M403.179 36.3757C392.71 33.5532 389.636 49.8769 402.288 50.2533C402.362 52.527 403.802 56.6981 408.97 55.1927C408.004 57.2313 407.5 61.6376 413.202 62.9548C406.074 66.9534 412.088 77.6791 419.215 71.6576C420.255 70.6384 422.156 68.3176 421.443 67.1886C421.962 67.0318 422.957 66.2948 422.779 64.6012M403.179 36.3757C407.455 27.7199 415.206 33.7884 414.315 38.4927M403.179 36.3757L402.51 38.0222M422.779 64.6012C425.897 63.1116 431.02 58.4857 425.675 52.6054C427.902 48.5284 429.595 40.4214 418.547 40.6096M422.779 64.6012C422.705 64.6797 422.289 64.8365 421.22 64.8365M418.547 40.6096C418.25 39.7471 416.988 38.1163 414.315 38.4927M418.547 40.6096V41.7856M414.315 38.4927L414.092 39.6687" stroke="#5BC3CF" stroke-width="2" stroke-linecap="round"/>
<ellipse cx="246.216" cy="482.658" rx="6.14505" ry="4.59644" fill="#8AE1EB"/>
<ellipse cx="273.101" cy="481.509" rx="6.14505" ry="4.59644" fill="#8AE1EB"/>
<ellipse cx="283.855" cy="479.211" rx="6.14505" ry="4.59644" fill="#8AE1EB"/>
<ellipse cx="261.195" cy="481.222" rx="11.1379" ry="7.18193" fill="#8AE1EB"/>
<ellipse cx="249.289" cy="485.531" rx="5.37692" ry="4.02188" fill="#C9E7EB"/>
<ellipse cx="263.884" cy="487.542" rx="10.7538" ry="5.45827" fill="#C9E7EB"/>
<ellipse cx="279.63" cy="485.244" rx="6.52911" ry="4.88371" fill="#C9E7EB"/>
<path d="M274.637 488.404C283.547 492.311 287.695 487.254 285.775 483.52C297.143 476.855 281.166 470.305 277.71 478.636C275.559 476.108 271.949 476.817 270.412 477.487C262.117 470.363 250.825 475.763 250.441 479.498C242.376 474.327 235.078 484.382 244.296 486.967C246.754 490.644 251.209 489.457 253.13 488.404C257.738 495.298 272.333 493 274.637 488.404ZM274.637 488.404C274.509 488.404 273.946 488.174 272.717 487.254" stroke="#5BC3CF" stroke-width="2" stroke-linecap="round"/>
<ellipse cx="479.49" cy="386.835" rx="3.31833" ry="3.1449" transform="rotate(-70 479.49 386.835)" fill="#8AE1EB"/>
<ellipse cx="483.716" cy="372.924" rx="3.31833" ry="3.1449" transform="rotate(-70 483.716 372.924)" fill="#8AE1EB"/>
<ellipse cx="484.224" cy="366.929" rx="3.31833" ry="3.1449" transform="rotate(-70 484.224 366.929)" fill="#8AE1EB"/>
<ellipse cx="481.332" cy="378.898" rx="6.01447" ry="4.91391" transform="rotate(-70 481.332 378.898)" fill="#8AE1EB"/>
<ellipse cx="481.903" cy="385.948" rx="2.90354" ry="2.75179" transform="rotate(-70 481.903 385.948)" fill="#C9E7EB"/>
<ellipse cx="485.892" cy="379.013" rx="5.80707" ry="3.73457" transform="rotate(-70 485.892 379.013)" fill="#C9E7EB"/>
<ellipse cx="487.322" cy="370.485" rx="3.52572" ry="3.34146" transform="rotate(-70 487.322 370.485)" fill="#C9E7EB"/>
<path d="M488.432 373.757C492.59 370.15 490.105 366.862 487.349 366.963C485.164 359.634 478.002 366.209 482.72 369.912C480.697 370.412 480.486 372.41 480.633 373.346C474.52 375.889 475.907 382.882 478.238 383.951C473.423 386.834 478.54 392.89 481.905 388.817C484.723 388.431 484.783 385.892 484.46 384.671C489.744 383.946 490.962 376.002 488.432 373.757ZM488.432 373.757C488.409 373.822 488.157 374.054 487.339 374.463" stroke="#5BC3CF" stroke-width="2" stroke-linecap="round"/>
<ellipse cx="406.498" cy="441.832" rx="6.88248" ry="6.28986" transform="rotate(-35 406.498 441.832)" fill="#8AE1EB"/>
<ellipse cx="430.262" cy="423.273" rx="6.88248" ry="6.28986" transform="rotate(-35 430.262 423.273)" fill="#8AE1EB"/>
<ellipse cx="438.325" cy="413.789" rx="6.88248" ry="6.28986" transform="rotate(-35 438.325 413.789)" fill="#8AE1EB"/>
<ellipse cx="419.113" cy="430.6" rx="12.4745" ry="9.82791" transform="rotate(-35 419.113 430.6)" fill="#8AE1EB"/>
<ellipse cx="411.572" cy="443.079" rx="6.02217" ry="5.50363" transform="rotate(-35 411.572 443.079)" fill="#C9E7EB"/>
<ellipse cx="426.541" cy="435.957" rx="12.0443" ry="7.46921" transform="rotate(-35 426.541 435.957)" fill="#C9E7EB"/>
<ellipse cx="439.184" cy="423.265" rx="7.31264" ry="6.68298" transform="rotate(-35 439.184 423.265)" fill="#C9E7EB"/>
<path d="M437.083 430.015C448.325 428.67 448.162 420.338 443.469 417.385C448.667 402.611 428.868 405.533 432.236 417.092C428.278 415.64 425.522 418.754 424.639 420.492C411.436 417.835 405.316 431.143 407.895 435.576C396.436 434.961 397.633 450.919 408.119 447.896C413.261 450.439 416.416 446.246 417.351 443.832C426.991 448.599 438.577 436.648 437.083 430.015ZM437.083 430.015C436.966 430.097 436.269 430.201 434.42 429.96" stroke="#5BC3CF" stroke-width="2" stroke-linecap="round"/>
<ellipse cx="54.1495" cy="452.269" rx="3.16271" ry="3.95394" transform="rotate(-20 54.1495 452.269)" fill="#8AE1EB"/>
<ellipse cx="55.6574" cy="461.037" rx="4.74407" ry="5.9309" transform="rotate(-20 55.6574 461.037)" fill="#8AE1EB"/>
<ellipse cx="59.9444" cy="468.193" rx="3.16271" ry="3.95394" transform="rotate(-20 59.9444 468.193)" fill="#8AE1EB"/>
<ellipse cx="62.8815" cy="474.938" rx="3.61453" ry="4.51878" transform="rotate(-20 62.8815 474.938)" fill="#8AE1EB"/>
<ellipse cx="50.6379" cy="457.154" rx="4.06635" ry="5.08363" transform="rotate(-20 50.6379 457.154)" fill="#C9E7EB"/>
<ellipse cx="52.1803" cy="451.483" rx="2.03317" ry="2.54182" transform="rotate(-20 52.1803 451.483)" fill="#C9E7EB"/>
<ellipse cx="50.5635" cy="466.197" rx="5.42179" ry="6.77818" transform="rotate(-20 50.5635 466.197)" fill="#C9E7EB"/>
<ellipse cx="54.5019" cy="471.075" rx="3.84044" ry="4.80121" transform="rotate(-20 54.5019 471.075)" fill="#C9E7EB"/>
<ellipse cx="54.576" cy="462.032" rx="2.93681" ry="3.67151" transform="rotate(-20 54.576 462.032)" fill="#C9E7EB"/>
<ellipse cx="56.2771" cy="468.025" rx="2.93681" ry="3.67151" transform="rotate(-20 56.2771 468.025)" fill="#C9E7EB"/>
<ellipse cx="60.0242" cy="475.677" rx="2.93681" ry="3.67151" transform="rotate(-20 60.0242 475.677)" fill="#C9E7EB"/>
<ellipse cx="59.2117" cy="471.465" rx="1.35545" ry="1.69454" transform="rotate(-20 59.2117 471.465)" fill="#C9E7EB"/>
<path d="M47.6076 460.06C46.1013 457.903 44.5248 453.307 50.2684 452.179M47.6076 460.06C41.7256 462.922 47.3807 473.967 51.0861 472.919C52.8168 476.617 55.7452 476.032 56.993 475.278C58.2609 480.346 60.6618 479.853 61.7037 478.973C67.2478 481.523 67.8004 471.945 62.7045 470.494C64.0002 466.656 61.4802 464.929 60.0582 464.544M47.6076 460.06L49.0936 459.519M50.2684 452.179C49.9142 451.205 49.7734 449.233 52.0431 449.128C53.5864 446.763 58.8715 448.206 56.4651 455.333C58.4985 456.296 62.0638 459.487 60.0582 464.544M50.2684 452.179L50.7514 453.505M60.0582 464.544L59.2675 466.335" stroke="#5BC3CF" stroke-width="2" stroke-linecap="round"/>
<ellipse cx="62.1546" cy="186.58" rx="5.4026" ry="5.3461" fill="#8AE1EB"/>
<ellipse cx="59.4525" cy="198.418" rx="8.1039" ry="8.01915" fill="#8AE1EB"/>
<ellipse cx="62.1546" cy="209.492" rx="5.4026" ry="5.3461" fill="#8AE1EB"/>
<ellipse cx="62.9254" cy="219.42" rx="6.1744" ry="6.10983" fill="#8AE1EB"/>
<ellipse cx="53.664" cy="191.163" rx="6.9462" ry="6.87356" fill="#C9E7EB"/>
<ellipse cx="59.4526" cy="184.671" rx="3.4731" ry="3.43678" fill="#C9E7EB"/>
<ellipse cx="48.2616" cy="202.618" rx="9.2616" ry="9.16475" fill="#C9E7EB"/>
<ellipse cx="51.7341" cy="210.638" rx="6.5603" ry="6.4917" fill="#C9E7EB"/>
<ellipse cx="57.1368" cy="199.182" rx="5.0167" ry="4.96424" fill="#C9E7EB"/>
<ellipse cx="56.3653" cy="207.583" rx="5.0167" ry="4.96424" fill="#C9E7EB"/>
<ellipse cx="57.9093" cy="219.039" rx="5.0167" ry="4.96424" fill="#C9E7EB"/>
<ellipse cx="59.0664" cy="213.311" rx="2.3154" ry="2.29119" fill="#C9E7EB"/>
<path d="M47.1029 193.454C45.9452 190.017 46.0995 183.449 55.9786 184.671M47.1029 193.454C35.9889 194.37 38.6132 211.019 45.1735 211.401C45.7909 216.9 50.8333 217.511 53.2774 217.129C52.3512 224.156 56.4932 224.639 58.68 224.003C66.0893 229.807 72.5724 217.893 65.2403 213.692C69.5624 209.416 66.5266 206.055 64.4685 204.91M47.1029 193.454L49.8043 193.454M55.9786 184.671C55.9786 183.271 56.9048 180.699 60.6095 181.616C64.4685 179.325 72.1093 183.602 64.0826 191.544C66.7839 193.708 70.6429 199.411 64.4685 204.91M55.9786 184.671L55.9787 186.58M64.4685 204.91L62.1531 206.819" stroke="#5BC3CF" stroke-width="2" stroke-linecap="round"/>
<ellipse cx="473.969" cy="242.14" rx="5.4026" ry="5.3461" transform="rotate(170 473.969 242.14)" fill="#8AE1EB"/>
<ellipse cx="474.574" cy="230.013" rx="8.1039" ry="8.01915" transform="rotate(170 474.574 230.013)" fill="#8AE1EB"/>
<ellipse cx="469.99" cy="219.576" rx="5.4026" ry="5.3461" transform="rotate(170 469.99 219.576)" fill="#8AE1EB"/>
<ellipse cx="467.507" cy="209.933" rx="6.1744" ry="6.10983" transform="rotate(170 467.507 209.933)" fill="#8AE1EB"/>
<ellipse cx="481.534" cy="236.153" rx="6.9462" ry="6.87356" transform="rotate(170 481.534 236.153)" fill="#C9E7EB"/>
<ellipse cx="476.961" cy="243.551" rx="3.4731" ry="3.43678" transform="rotate(170 476.961 243.551)" fill="#C9E7EB"/>
<ellipse cx="484.866" cy="223.933" rx="9.2616" ry="9.16475" transform="rotate(170 484.866 223.933)" fill="#C9E7EB"/>
<ellipse cx="480.053" cy="216.639" rx="6.5603" ry="6.4917" transform="rotate(170 480.053 216.639)" fill="#C9E7EB"/>
<ellipse cx="476.722" cy="228.859" rx="5.0167" ry="4.96424" transform="rotate(170 476.722 228.859)" fill="#C9E7EB"/>
<ellipse cx="476.023" cy="220.451" rx="5.0167" ry="4.96424" transform="rotate(170 476.023 220.451)" fill="#C9E7EB"/>
<ellipse cx="472.513" cy="209.437" rx="5.0167" ry="4.96424" transform="rotate(170 472.513 209.437)" fill="#C9E7EB"/>
<ellipse cx="472.368" cy="215.279" rx="2.3154" ry="2.29119" transform="rotate(170 472.368 215.279)" fill="#C9E7EB"/>
<path d="M487.598 232.757C489.335 235.941 490.323 242.436 480.382 242.948M487.598 232.757C498.384 229.925 492.908 213.984 486.382 214.747C484.819 209.439 479.747 209.713 477.406 210.514C477.098 203.433 472.935 203.676 470.892 204.683C462.587 200.253 458.272 213.112 466.222 215.976C462.708 220.938 466.281 223.72 468.507 224.491M487.598 232.757L484.938 233.227M480.382 242.948C480.625 244.327 480.16 247.02 476.352 246.761C472.95 249.687 464.682 246.802 471.208 237.586C468.172 235.924 463.381 230.979 468.507 224.491M480.382 242.948L480.051 241.068M468.507 224.491L470.456 222.209" stroke="#5BC3CF" stroke-width="2" stroke-linecap="round"/>
<circle cx="90.5046" cy="30.3274" r="7" transform="rotate(30 90.5046 30.3274)" fill="#8AE1EB"/>
<circle cx="79.7232" cy="42.0008" r="10.5" transform="rotate(30 79.7232 42.0008)" fill="#8AE1EB"/>
<circle cx="75.5046" cy="56.3082" r="7" transform="rotate(30 75.5046 56.3082)" fill="#8AE1EB"/>
<circle cx="69.8706" cy="68.0665" r="8" transform="rotate(30 69.8706 68.0665)" fill="#8AE1EB"/>
<circle cx="77.9778" cy="30.0236" r="9" transform="rotate(30 77.9778 30.0236)" fill="#C9E7EB"/>
<circle cx="88.7233" cy="26.4124" r="4.5" transform="rotate(30 88.7233 26.4124)" fill="#C9E7EB"/>
<circle cx="64.4157" cy="39.514" r="12" transform="rotate(30 64.4157 39.514)" fill="#C9E7EB"/>
<circle cx="63.0634" cy="50.8572" r="8.5" transform="rotate(30 63.0634 50.8572)" fill="#C9E7EB"/>
<circle cx="76.6253" cy="41.3669" r="6.5" transform="rotate(30 76.6253 41.3669)" fill="#C9E7EB"/>
<circle cx="70.259" cy="50.3931" r="6.5" transform="rotate(30 70.259 50.3931)" fill="#C9E7EB"/>
<circle cx="64.4915" cy="64.3835" r="6.5" transform="rotate(30 64.4915 64.3835)" fill="#C9E7EB"/>
<circle cx="69.5405" cy="58.6383" r="3" transform="rotate(30 69.5405 58.6383)" fill="#C9E7EB"/>
<path d="M69.1172 28.3716C70.0681 23.7245 74.5413 16.3767 84.8265 24.1623M69.1172 28.3716C56.0463 22.2108 48.091 42.7903 55.2022 47.4733C52.2951 54.1086 57.5531 58.0681 60.5455 59.2185C54.9063 66.5859 59.2373 69.8177 62.1077 70.5127C66.6215 81.8945 81.6961 72.5845 76.2189 63.0713C83.8686 61.0216 82.6623 55.2444 81.1029 52.6121M69.1172 28.3716L72.1484 30.1217M84.8265 24.1623C85.7432 22.5746 88.4658 20.2591 92.0227 23.6983C97.8529 23.6002 103.627 33.4 89.4199 37.2066C91.0343 41.4104 91.6311 50.3767 81.1029 52.6121M84.8265 24.1623L83.5766 26.3274M81.1029 52.6121L77.2548 53.2771" stroke="#5BC3CF" stroke-width="2" stroke-linecap="round"/>
<ellipse cx="26.7738" cy="250.696" rx="6.69856" ry="8.08882" transform="rotate(-15 26.7738 250.696)" fill="#8AE1EB"/>
<ellipse cx="32.6465" cy="260.288" rx="6.0606" ry="6.54809" transform="rotate(-15 32.6465 260.288)" fill="#8AE1EB"/>
<ellipse cx="31.125" cy="271.862" rx="6.0606" ry="6.54809" transform="rotate(-15 31.125 271.862)" fill="#8AE1EB"/>
<ellipse cx="35.7194" cy="287.778" rx="10.8453" ry="11.5555" transform="rotate(-15 35.7194 287.778)" fill="#8AE1EB"/>
<ellipse cx="44.6283" cy="302.538" rx="9.25039" ry="8.08882" transform="rotate(-15 44.6283 302.538)" fill="#8AE1EB"/>
<ellipse cx="23.9118" cy="249.869" rx="4.14673" ry="5.00736" transform="rotate(-15 23.9118 249.869)" fill="#C9E7EB"/>
<ellipse cx="26.2855" cy="261.196" rx="4.14673" ry="8.08882" transform="rotate(-15 26.2855 261.196)" fill="#C9E7EB"/>
<ellipse cx="19.1367" cy="257.928" rx="7.01754" ry="8.474" transform="rotate(-15 19.1367 257.928)" fill="#C9E7EB"/>
<ellipse cx="21.9101" cy="270.743" rx="7.01754" ry="8.474" transform="rotate(-15 21.9101 270.743)" fill="#C9E7EB"/>
<ellipse cx="39.0918" cy="302.825" rx="7.6555" ry="8.474" transform="rotate(-15 39.0918 302.825)" fill="#C9E7EB"/>
<ellipse cx="25.7702" cy="288.849" rx="9.25039" ry="13.8665" transform="rotate(-15 25.7702 288.849)" fill="#C9E7EB"/>
<path d="M28.688 268.926C29.2227 270.511 29.7756 274.218 27.7095 276.366C30.0626 276.932 34.914 280.577 35.4942 290.63" stroke="#5BC3CF" stroke-width="2" stroke-linecap="round"/>
<path d="M19.9156 249.743C9.34548 248.747 11.0078 262.099 16.1098 265.119C11.5572 270.805 16.0618 276.031 18.8832 277.934C10.8507 288.38 22.3546 306.911 31.4167 301.293C31.5837 311.776 38.7119 312.498 42.518 310.68C54.2408 311.048 59.9531 295.641 44.4841 294.601C49.6764 285.634 43.1787 277.405 35.6027 276.245C38.4953 273.237 36.1735 268.516 34.651 266.531C39.9142 264.483 40.7767 256.117 33.2098 253.758C34.8497 240.159 20.3956 240.443 19.9156 249.743ZM19.9156 249.743C20.2569 249.785 21.1026 249.984 21.7551 250.447" stroke="#5BC3CF" stroke-width="2" stroke-linecap="round"/>
<ellipse cx="222.969" cy="17.5162" rx="5.75834" ry="5.27206" fill="#8AE1EB"/>
<ellipse cx="230.742" cy="16.1982" rx="4.89459" ry="4.48125" fill="#8AE1EB"/>
<ellipse cx="221.242" cy="10.1353" rx="5.75834" ry="5.27206" fill="#C9E7EB"/>
<ellipse cx="226.424" cy="12.7714" rx="5.75834" ry="5.27206" fill="#C9E7EB"/>
<ellipse cx="231.894" cy="9.87173" rx="6.04626" ry="5.53566" fill="#C9E7EB"/>
<path d="M235.349 14.353C243.641 5.91769 230.167 -0.145177 226.424 7.49931C216.75 -0.0924535 211.164 11.717 218.074 14.6166C215.08 24.7389 226.424 24.6335 228.152 19.8886M235.349 14.353C237.653 16.989 235.062 21.9975 228.152 19.8886M235.349 14.353C235.253 14.2651 234.831 13.9312 233.91 13.2986M228.152 19.8886L227.576 19.625" stroke="#5BC3CF" stroke-width="2" stroke-linecap="round"/>
<ellipse cx="451.446" cy="11.8781" rx="5.15029" ry="3.61808" fill="#8AE1EB"/>
<ellipse cx="457.506" cy="16.1347" rx="5.15029" ry="3.61808" fill="#8AE1EB"/>
<ellipse cx="452.355" cy="11.2396" rx="4.24141" ry="2.9796" fill="#C9E7EB"/>
<ellipse cx="457.202" cy="11.2396" rx="4.24141" ry="2.9796" fill="#C9E7EB"/>
<ellipse cx="458.414" cy="15.0705" rx="4.24141" ry="2.9796" fill="#C9E7EB"/>
<path d="M460.838 12.7294C463.565 8.26002 456.597 7.19588 454.779 8.89851C454.274 8.18908 451.75 7.19588 447.508 9.11134C443.57 11.6653 448.114 16.7732 452.355 15.4962C453.082 22.9878 463.565 19.7528 462.656 15.709C463.868 14.2192 461.545 12.9422 460.838 12.7294Z" stroke="#5BC3CF" stroke-width="2" stroke-linecap="round"/>
<ellipse cx="479.158" cy="27.2785" rx="4.15784" ry="3.21621" fill="#8AE1EB"/>
<ellipse cx="480.67" cy="33.1262" rx="4.15784" ry="3.21621" fill="#8AE1EB"/>
<ellipse cx="482.182" cy="30.2024" rx="4.15784" ry="3.21621" fill="#8AE1EB"/>
<ellipse cx="485.962" cy="36.6348" rx="4.15784" ry="3.21621" fill="#8AE1EB"/>
<ellipse cx="492.387" cy="41.0205" rx="6.04777" ry="5.84766" fill="#8AE1EB"/>
<ellipse cx="480.67" cy="26.109" rx="3.40187" ry="2.63145" fill="#C9E7EB"/>
<ellipse cx="483.694" cy="30.2024" rx="3.40187" ry="2.63145" fill="#C9E7EB"/>
<ellipse cx="485.961" cy="33.1262" rx="3.40187" ry="2.63145" fill="#C9E7EB"/>
<ellipse cx="490.875" cy="29.91" rx="8.31569" ry="6.43242" fill="#C9E7EB"/>
<ellipse cx="490.498" cy="36.6348" rx="3.40187" ry="2.63145" fill="#C9E7EB"/>
<ellipse cx="495.79" cy="39.851" rx="4.91381" ry="5.26289" fill="#C9E7EB"/>
<path d="M484.072 26.4014C489.364 18.7994 505.92 24.9979 496.546 34.5881M496.546 34.5881C499.821 35.8551 504.483 39.734 496.923 45.1139C488.154 50.2598 485.962 43.652 486.34 39.851C481.502 40.5527 481.3 37.8043 481.804 36.3424C475.151 36.5763 476.512 32.5414 478.024 30.4947C472.884 26.2844 476.386 24.3547 478.78 24.0623C482.106 21.7233 484.072 24.3547 484.072 26.109M496.546 34.5881L494.655 36.3424" stroke="#5BC3CF" stroke-width="2" stroke-linecap="round"/>
<path d="M145.369 40.6936C145.721 40.2011 146.482 40.6403 146.231 41.1911L138.855 57.4017C138.613 57.9336 138.702 58.5582 139.083 59.0013L147.211 68.4513C147.519 68.8098 147.203 69.356 146.739 69.2683L134.491 66.9554C133.917 66.8471 133.332 67.0817 132.992 67.5572L122.641 82.0508C122.289 82.5431 121.528 82.104 121.779 81.5532L129.155 65.3418C129.397 64.8099 129.308 64.1861 128.927 63.743L120.8 54.2922C120.492 53.9338 120.807 53.3878 121.271 53.4752L133.519 55.7889C134.093 55.8974 134.678 55.662 135.018 55.1863L145.369 40.6936Z" fill="#BDE3EF" stroke="#5BC3CF"/>
<path d="M79.3782 262.941C79.43 262.441 80.1047 262.322 80.3246 262.774L84.1356 270.621C84.359 271.081 84.8021 271.396 85.3101 271.456L93.875 272.463C94.3669 272.521 94.4835 273.183 94.0412 273.406L86.3374 277.282C85.8805 277.512 85.5719 277.959 85.5193 278.468L84.6217 287.145C84.5699 287.645 83.8952 287.764 83.6754 287.311L79.8644 279.465C79.6409 279.005 79.1978 278.69 78.6898 278.63L70.125 277.623C69.6331 277.564 69.5165 276.903 69.9588 276.68L77.6625 272.804C78.1195 272.574 78.428 272.127 78.4806 271.618L79.3782 262.941Z" fill="#BDE3EF" stroke="#5BC3CF"/>
<path d="M432.409 135.357C432.376 134.814 433.113 134.617 433.356 135.103L436.233 140.857C436.455 141.301 436.882 141.607 437.374 141.673L443.203 142.459C443.643 142.518 443.793 143.078 443.442 143.349L438.786 146.944C438.393 147.248 438.177 147.726 438.206 148.222L438.591 154.643C438.624 155.186 437.888 155.383 437.644 154.897L434.767 149.143C434.545 148.699 434.118 148.393 433.626 148.327L427.797 147.541C427.357 147.482 427.207 146.922 427.558 146.651L432.214 143.056C432.607 142.752 432.823 142.274 432.794 141.778L432.409 135.357Z" fill="#BDE3EF" stroke="#5BC3CF"/>
<path d="M390.223 465.002C390.515 464.848 390.874 465.015 390.944 465.338L392.066 470.503C392.153 470.903 392.4 471.251 392.749 471.465L397.29 474.238C397.798 474.549 397.435 475.328 396.87 475.139L391.827 473.443C391.439 473.313 391.013 473.347 390.65 473.538L385.973 475.999C385.68 476.152 385.322 475.985 385.252 475.662L384.129 470.497C384.042 470.096 383.795 469.748 383.445 469.535L378.905 466.761C378.397 466.451 378.76 465.672 379.325 465.861L384.368 467.557C384.756 467.687 385.182 467.653 385.544 467.462L390.223 465.002Z" fill="#BDE3EF" stroke="#5BC3CF"/>
<path d="M364.744 37.8926C364.704 37.2955 365.558 37.1451 365.724 37.7198L367.463 43.7161C367.614 44.237 368.035 44.6356 368.563 44.7587L374.231 46.0777C374.66 46.1775 374.759 46.7431 374.39 46.9837L369.516 50.1607C369.061 50.457 368.802 50.9761 368.839 51.5176L369.256 57.7468C369.296 58.344 368.442 58.4944 368.276 57.9196L366.537 51.9234C366.386 51.4022 365.965 51.0029 365.437 50.8799L359.769 49.5618C359.34 49.462 359.241 48.8963 359.61 48.6558L364.484 45.4778C364.939 45.1815 365.198 44.6631 365.162 44.1219L364.744 37.8926Z" fill="#BDE3EF" stroke="#5BC3CF"/>
<path d="M49.676 343.651C49.3196 343.15 50.008 342.572 50.4398 343.01L59.1737 351.877C59.5044 352.213 59.9741 352.373 60.4411 352.31L68.9562 351.175C69.3195 351.126 69.61 351.472 69.4992 351.822L66.9022 360.01C66.7598 360.459 66.8356 360.95 67.1088 361.334L74.324 371.475C74.6804 371.976 73.9921 372.553 73.5602 372.115L64.8256 363.249C64.4949 362.914 64.026 362.753 63.559 362.816L55.0439 363.951C54.6806 364 54.3901 363.653 54.5009 363.304L57.0979 355.116C57.2403 354.666 57.1636 354.177 56.8906 353.793L49.676 343.651Z" fill="#BDE3EF" stroke="#5BC3CF"/>
<path d="M111.118 448.082C111.112 446.675 112.872 446.034 113.772 447.116L118.137 452.367C118.722 453.071 119.646 453.399 120.544 453.222L126.045 452.134C127.726 451.802 128.56 454.094 127.059 454.92L122.146 457.623C121.344 458.064 120.847 458.909 120.851 459.824L120.882 466.652C120.889 468.059 119.128 468.7 118.228 467.618L113.863 462.368C113.277 461.664 112.354 461.336 111.456 461.514L105.956 462.601C104.275 462.933 103.44 460.641 104.942 459.815L109.854 457.112C110.656 456.671 111.153 455.826 111.149 454.911L111.118 448.082Z" fill="#BDE3EF" stroke="#5BC3CF"/>
</g>
<defs>
<clipPath id="clip0_42_30">
<rect width="512" height="512" fill="white"/>
</clipPath>
</defs>
</svg>
