<svg width="512" height="512" viewBox="0 0 512 512" fill="none" xmlns="http://www.w3.org/2000/svg">
<g clip-path="url(#clip0_26_77)">
<path d="M359 243C359 274.623 330.167 316.5 315 333.5L243.5 349.5C158 306.5 157.5 252.5 156.5 241C155.523 229.762 156.5 146.5 247.5 136.5C338.5 126.5 359 208 359 243Z" fill="#7ACEE7"/>
<path d="M199 512.5C203.8 478.1 227.333 387.833 238.5 347L312.5 334C308.5 374 311.833 469.667 314 512.5H199Z" fill="#7ACEE7"/>
<path d="M238.5 347L234 364C206.4 380 159.333 415.333 139.249 431C156.031 444.603 186.836 467.343 205 480.5L199 512H186C166.333 491.5 125 448.6 117 441C107 431.5 108.5 417.5 117 416C123.8 414.8 193.5 365.5 227.5 341L238.5 347Z" fill="#7ACEE7"/>
<path d="M312.5 334L311 356C350.667 389 431 455.7 435 458.5C440 462 452.5 459.5 452 448C451.6 438.8 460.833 345.167 465.5 299.5C477.9 289.1 477 276.833 475 272C484.5 265 485.5 257 483 250C480.5 243 472.5 234 450 238C427.5 242 433 246 427 247.5C422.2 248.7 421.667 236.667 422 230.5C425.6 208.9 418.167 205.167 414 206C397.6 213.2 408.833 247.667 416.5 264C414.1 265.6 413.167 270 413 272C411.8 280 419.833 289.667 424 293.5C426.8 317.5 427.833 391.261 428 425.142C411.727 418.59 346.65 361.714 315.5 333.5L312.5 334Z" fill="#7ACEE7"/>
<path d="M312.5 334L311.5 350" stroke="#7ACEE7" stroke-linecap="round"/>
<path d="M235.5 359.5C221 410.5 195 513.5 199 517.5" stroke="black" stroke-linecap="round"/>
<path d="M311 356C310.5 406.167 312 510 315 514.5" stroke="black" stroke-linecap="round"/>
<path d="M311 356L435 458.5C439.167 460.833 448.4 462.3 452 449.5C456.167 399.333 464.6 299.1 465 299.5C465.5 300 481.5 284.5 475 272C483.167 265.333 493.6 249.3 470 238.5C464.167 236.833 448.4 235.6 432 244C430.833 245 428.1 247.1 426.5 247.5C424.5 248 419.5 243.5 423 218C423 213.333 421.2 204.4 414 206C405 208 399.5 227.5 416.5 264C412.167 267.5 407.6 278.3 424 293.5C426.167 337.333 429.6 425 428 425C426 425 386.5 397.5 378 388.5C369.5 379.5 318 336.5 315 333.5" stroke="black" stroke-linecap="round"/>
<path d="M234.5 363.5C207.333 381.333 150.3 419.8 139.5 431M139.5 431C161 447.833 204.1 481.3 204.5 480.5M139.5 431L127 419.5" stroke="black" stroke-linecap="round"/>
<path d="M227.5 341C192.167 366.167 120.8 416.4 118 416C114.5 415.5 100 427 120 444C140 461 183.5 511.5 186 512C188 512.4 272.5 512.167 314.5 512" stroke="black" stroke-linecap="round"/>
<path d="M239.5 347.5C234.3 345.1 229.333 342.167 227.5 341C211.5 332.667 176.1 306.9 162.5 270.5C145.5 225 170 178 182.5 166.5C195.032 154.97 212 140.5 240 137.5C272.065 134.064 282.959 134.499 310 147.5C336 160 350 191.5 354.5 210C359 228.5 360.5 239 356 262.5C351.5 286 318.5 330.5 315 333C314.833 333.167 313.8 333.8 311 335" stroke="black" stroke-linecap="round"/>
<path d="M416.5 264C422.167 257.833 437.5 246.5 450.5 256C451.768 257.691 452.821 263.025 442.73 268.5M436 271.5C438.662 270.51 440.883 269.502 442.73 268.5M475 272C466.654 273.5 448.514 274.9 442.73 268.5" stroke="black" stroke-linecap="round"/>
<ellipse cx="223.5" cy="220" rx="8.5" ry="9" fill="black"/>
<ellipse cx="254.5" cy="217" rx="8.5" ry="9" fill="black"/>
<ellipse cx="224" cy="219.5" rx="3" ry="3.5" fill="white"/>
<ellipse cx="254" cy="214.5" rx="3" ry="3.5" fill="white"/>
<path d="M272.382 248.604C265.973 254.049 265.018 257.824 250.529 261.707C245.731 262.475 234.491 262.898 227.915 258.449C221.339 253.999 213.963 253.387 211.097 253.638C195.737 256.2 190.054 271.699 195.963 284.092C201.872 296.485 210.411 299.373 224.874 301.192C239.338 303.011 244.521 301.104 265.547 296.505C282.368 292.826 294.749 287.645 298.837 285.515C325.062 265.547 319.482 258.242 318.636 251.222C317.79 244.202 309.466 232.456 295.331 235.726C281.196 238.996 280.394 241.799 272.382 248.604Z" fill="#A0212E" stroke="black"/>
<path d="M272.226 289.976C277.214 294.023 281.183 291.282 280.5 292.5L291.5 288.5L302.5 282.5C299.685 281.011 291.207 277.022 286.336 275.843C280.247 274.369 261.153 278.45 261.834 282.926C262.516 287.402 265.992 284.918 272.226 289.976Z" fill="#F0ABE9" stroke="black"/>
<mask id="mask0_26_77" style="mask-type:alpha" maskUnits="userSpaceOnUse" x="193" y="234" width="128" height="69">
<path d="M272.382 248.604C265.973 254.049 265.018 257.824 250.529 261.707C245.731 262.475 234.491 262.898 227.915 258.449C221.339 253.999 213.963 253.387 211.097 253.638C195.737 256.2 190.054 271.699 195.963 284.092C201.872 296.485 210.411 299.373 224.874 301.192C239.338 303.011 244.521 301.104 265.547 296.505C282.368 292.826 294.749 287.645 298.837 285.515C325.062 265.547 319.482 258.242 318.636 251.222C317.79 244.202 309.466 232.456 295.331 235.726C281.196 238.996 280.394 241.799 272.382 248.604Z" fill="#AF1D27" stroke="black"/>
</mask>
<g mask="url(#mask0_26_77)">
<path d="M266.728 287.389C268.256 286.98 269.935 287.499 271.433 288.783C272.928 290.066 274.196 292.08 274.853 294.53C275.509 296.979 275.417 299.358 274.764 301.216C274.109 303.077 272.914 304.366 271.386 304.776C269.859 305.185 268.179 304.666 266.682 303.382C265.186 302.099 263.918 300.085 263.262 297.635C262.605 295.186 262.697 292.807 263.35 290.949C264.005 289.088 265.2 287.799 266.728 287.389Z" fill="white" stroke="black"/>
<path d="M283.183 285.05C284.29 284.754 285.558 285.185 286.734 286.282C287.904 287.373 288.92 289.072 289.471 291.13C290.022 293.188 289.993 295.168 289.525 296.698C289.055 298.235 288.173 299.243 287.065 299.539C285.958 299.836 284.69 299.405 283.514 298.308C282.345 297.217 281.329 295.517 280.778 293.46C280.226 291.402 280.256 289.422 280.724 287.892C281.194 286.355 282.076 285.347 283.183 285.05Z" fill="white" stroke="black"/>
<path d="M295.24 279.787C296.571 279.167 298.144 279.305 299.638 280.102C301.131 280.898 302.514 282.341 303.406 284.255C304.298 286.168 304.515 288.155 304.165 289.811C303.815 291.467 302.91 292.761 301.58 293.382C300.249 294.002 298.676 293.863 297.183 293.067C295.689 292.27 294.306 290.828 293.414 288.914C292.521 287.001 292.306 285.014 292.655 283.358C293.005 281.702 293.91 280.408 295.24 279.787Z" fill="white" stroke="black"/>
<path d="M252.448 292.7C253.577 292.501 254.802 293.041 255.878 294.236C256.948 295.425 257.812 297.207 258.182 299.305C258.552 301.403 258.35 303.372 257.751 304.855C257.148 306.346 256.181 307.273 255.053 307.472C253.924 307.671 252.698 307.131 251.622 305.936C250.552 304.747 249.689 302.965 249.319 300.867C248.949 298.769 249.151 296.8 249.75 295.317C250.352 293.826 251.319 292.899 252.448 292.7Z" fill="white" stroke="black"/>
<path d="M238.368 295.275C239.561 295.275 240.676 295.903 241.507 296.984C242.339 298.066 242.868 299.581 242.868 301.275C242.868 302.969 242.339 304.485 241.507 305.566C240.676 306.647 239.561 307.275 238.368 307.275C237.174 307.275 236.06 306.647 235.228 305.566C234.396 304.485 233.868 302.969 233.868 301.275C233.868 299.581 234.396 298.066 235.228 296.984C236.06 295.903 237.174 295.275 238.368 295.275Z" fill="white" stroke="black"/>
<path d="M222.873 293.633C224.262 293.682 225.551 294.571 226.493 296.093C227.432 297.612 227.989 299.714 227.908 302.036C227.827 304.358 227.125 306.415 226.081 307.865C225.036 309.318 223.688 310.115 222.299 310.067C220.911 310.018 219.622 309.129 218.681 307.607C217.741 306.088 217.184 303.986 217.265 301.664C217.346 299.342 218.049 297.285 219.092 295.835C220.137 294.382 221.484 293.585 222.873 293.633Z" fill="white" stroke="black"/>
<path d="M252.063 251.978C253.591 251.569 255.271 252.088 256.768 253.372C258.263 254.655 259.532 256.669 260.188 259.118C260.844 261.568 260.753 263.947 260.099 265.805C259.445 267.666 258.25 268.955 256.722 269.365C255.194 269.774 253.515 269.255 252.017 267.97C250.522 266.688 249.253 264.674 248.597 262.224C247.941 259.775 248.032 257.396 248.686 255.538C249.341 253.677 250.535 252.387 252.063 251.978Z" fill="white" stroke="black"/>
<path d="M237.895 252.173C239.273 251.93 240.791 252.675 242.136 254.292C243.47 255.896 244.556 258.28 245.048 261.066C245.539 263.851 245.333 266.463 244.628 268.427C243.918 270.406 242.746 271.626 241.368 271.869C239.989 272.112 238.471 271.367 237.127 269.75C235.792 268.146 234.706 265.762 234.215 262.976C233.723 260.19 233.929 257.578 234.634 255.615C235.345 253.635 236.516 252.416 237.895 252.173Z" fill="white" stroke="black"/>
<path d="M227.345 247.651C229.004 247.825 230.463 249.021 231.45 250.946C232.434 252.868 232.912 255.459 232.617 258.26C232.323 261.061 231.317 263.496 229.954 265.171C228.589 266.85 226.913 267.715 225.254 267.541C223.595 267.367 222.136 266.171 221.149 264.245C220.165 262.324 219.687 259.733 219.982 256.932C220.276 254.131 221.282 251.696 222.644 250.021C224.01 248.342 225.686 247.476 227.345 247.651Z" fill="white" stroke="black"/>
<path d="M210.5 244.515C212.057 244.241 213.685 244.905 215.065 246.314C216.443 247.722 217.531 249.84 217.971 252.337C218.412 254.834 218.113 257.196 217.3 258.99C216.486 260.787 215.183 261.967 213.625 262.242C212.068 262.517 210.44 261.853 209.06 260.443C207.682 259.035 206.594 256.918 206.154 254.421C205.713 251.923 206.012 249.562 206.825 247.767C207.639 245.971 208.942 244.79 210.5 244.515Z" fill="white" stroke="black"/>
<path d="M265.741 243.137C267.407 242.69 269.223 243.237 270.829 244.585C272.433 245.931 273.787 248.05 274.478 250.631C275.17 253.211 275.057 255.723 274.341 257.691C273.624 259.661 272.325 261.043 270.659 261.489C268.992 261.936 267.176 261.389 265.57 260.041C263.966 258.695 262.613 256.576 261.921 253.995C261.23 251.415 261.343 248.903 262.059 246.935C262.775 244.965 264.075 243.583 265.741 243.137Z" fill="white" stroke="black"/>
<path d="M280.35 231.975C282.016 231.529 283.832 232.076 285.438 233.424C287.042 234.77 288.396 236.889 289.087 239.469C289.779 242.05 289.666 244.561 288.95 246.53C288.233 248.5 286.934 249.881 285.267 250.328C283.601 250.774 281.785 250.227 280.179 248.88C278.575 247.533 277.222 245.414 276.53 242.834C275.839 240.254 275.951 237.742 276.667 235.774C277.384 233.804 278.684 232.422 280.35 231.975Z" fill="white" stroke="black"/>
</g>
<path d="M272.382 248.604C265.973 254.049 265.018 257.824 250.529 261.707C245.731 262.475 234.491 262.898 227.915 258.449C221.339 253.999 213.963 253.387 211.097 253.638C195.737 256.2 190.054 271.699 195.963 284.092C201.872 296.485 210.411 299.373 224.874 301.192C239.338 303.011 244.521 301.104 265.547 296.505C282.368 292.826 294.749 287.645 298.837 285.515C325.062 265.547 319.482 258.242 318.636 251.222C317.79 244.202 309.466 232.456 295.331 235.726C281.196 238.996 280.394 241.799 272.382 248.604Z" stroke="black"/>
<path d="M242 312.5C245.833 321.5 259.5 335.5 283.5 319.5" stroke="black" stroke-linecap="round"/>
<path d="M313 222C319.477 224.923 332.213 232.288 333 244.5C333.985 259.765 332.075 270.777 317.5 284" stroke="black" stroke-linecap="round"/>
<path d="M216.135 244.244C216.135 244.244 214.035 241.444 203.635 244.244C190.635 247.744 188.135 269.237 188.135 272.737C188.135 278.237 183.635 299.737 226.635 308.237" stroke="black" stroke-linecap="round"/>
<path d="M209 182C210 181 214.3 178.6 223.5 177" stroke="black" stroke-linecap="round"/>
<path d="M249 168C250.333 168 254.4 169.2 260 174" stroke="black" stroke-linecap="round"/>
<ellipse cx="227" cy="405.5" rx="17" ry="16.5" fill="#8AE1EB"/>
<ellipse cx="254" cy="410.5" rx="15" ry="15.5" fill="#8AE1EB"/>
<circle cx="263" cy="424" r="10" fill="#8AE1EB"/>
<circle cx="243" cy="421" r="10" fill="#8AE1EB"/>
<ellipse cx="309" cy="412.5" rx="14" ry="13.5" fill="#8AE1EB"/>
<ellipse cx="287.5" cy="407.5" rx="21.5" ry="20.5" fill="#8AE1EB"/>
<circle cx="204.5" cy="405.5" r="11.5" fill="#8AE1EB"/>
<circle cx="186.5" cy="396.5" r="11.5" fill="#8AE1EB"/>
<circle cx="172.5" cy="405.5" r="11.5" fill="#8AE1EB"/>
<circle cx="172.5" cy="414.5" r="8.5" fill="#C9E7EB"/>
<circle cx="178" cy="431" r="12" fill="#C9E7EB"/>
<circle cx="192.5" cy="450.5" r="19.5" fill="#C9E7EB"/>
<circle cx="192.5" cy="423.5" r="19.5" fill="#C9E7EB"/>
<circle cx="222.5" cy="430.5" r="19.5" fill="#C9E7EB"/>
<circle cx="246.5" cy="443.5" r="19.5" fill="#C9E7EB"/>
<circle cx="275.5" cy="440.5" r="19.5" fill="#C9E7EB"/>
<circle cx="246" cy="474" r="23" fill="#C9E7EB"/>
<circle cx="218.5" cy="461.5" r="18.5" fill="#C9E7EB"/>
<circle cx="274" cy="459" r="18" fill="#C9E7EB"/>
<circle cx="294.5" cy="450.5" r="15.5" fill="#C9E7EB"/>
<circle cx="310" cy="437" r="18" fill="#C9E7EB"/>
<circle cx="298.5" cy="436.5" r="13.5" fill="#C9E7EB"/>
<circle cx="309.5" cy="420.5" r="10.5" fill="#C9E7EB"/>
<path d="M249.001 465C252.334 470.167 261.801 476.8 273.001 462" stroke="#5BC3CF" stroke-width="2" stroke-linecap="round"/>
<path d="M180.899 428.905C177.625 434.109 175.614 445.493 193.761 449.388" stroke="#5BC3CF" stroke-width="2" stroke-linecap="round"/>
<path d="M218 417.5C228.5 412 241 421.5 239 431.5" stroke="#5BC3CF" stroke-width="2" stroke-linecap="round"/>
<path d="M239.146 430.99C242.5 429 249.5 431.5 249.5 437" stroke="#5BC3CF" stroke-width="2" stroke-linecap="round"/>
<path d="M192 405.029C197 402.029 210 405.529 210 416.342" stroke="#5BC3CF" stroke-width="2" stroke-linecap="round"/>
<path d="M261 430C266 421 285.5 423.5 287.5 427.5" stroke="#5BC3CF" stroke-width="2" stroke-linecap="round"/>
<path d="M287 437.5C286 431.5 286.5 424.5 300.5 425.5" stroke="#5BC3CF" stroke-width="2" stroke-linecap="round"/>
<path d="M269 476.5C258 512.5 227 494 223.5 479.5C211.9 482.7 203.667 473.167 201 468C173 474.4 171.667 453.667 174.5 442.5C162.5 436.9 166.167 426.833 169.5 422.5C163.9 420.9 163.167 415.167 163.5 412.5C158.501 409.5 158.199 394.1 174.999 394.5C174 387.5 194 376 198 396C199.5 394.167 204.5 391.8 212.5 397C215.5 389.5 232.2 380.8 243 400C246.5 395.333 256.1 389.2 266.5 402C268.5 389 293 375.4 307 399C313.5 395 331.6 407.5 320 421.5C339.5 440 319 457 309.5 455C307.5 466.2 296.333 466.667 291 465.5M269 476.5C274.167 478 285.8 477.9 291 465.5M269 476.5C268.333 476.333 266.8 475.6 266 474M291 465.5C291.333 464.5 292 462.4 292 462" stroke="#5BC3CF" stroke-width="2" stroke-linecap="round"/>
<ellipse cx="355" cy="399.5" rx="14" ry="13.5" fill="#8AE1EB"/>
<ellipse cx="342.5" cy="412" rx="10.5" ry="10" fill="#8AE1EB"/>
<ellipse cx="369.5" cy="395" rx="10.5" ry="10" fill="#8AE1EB"/>
<circle cx="342.5" cy="415.5" r="10.5" fill="#C9E7EB"/>
<ellipse cx="359.5" cy="419" rx="16.5" ry="16" fill="#C9E7EB"/>
<circle cx="371" cy="398" r="9" fill="#C9E7EB"/>
<circle cx="362" cy="401" r="9" fill="#C9E7EB"/>
<circle cx="373" cy="406" r="9" fill="#C9E7EB"/>
<path d="M344.5 426C332.5 426.4 331.167 417.833 332 413.5C331.2 405.5 338 402.5 341.5 402C341 394.167 344.4 380.4 362 388C371 378.5 383 388.5 380 396.5V400M344.5 426C347 438 380 440 375.5 415C379.333 413.667 385.6 408.8 380 400M344.5 426C344.833 426 345.7 425.5 346.5 423.5M380 400C379.667 399.333 377.8 397.9 373 397.5" stroke="#5BC3CF" stroke-width="2" stroke-linecap="round"/>
<ellipse cx="375.5" cy="338" rx="10.5" ry="10" fill="#8AE1EB"/>
<ellipse cx="388.5" cy="336" rx="10.5" ry="10" fill="#8AE1EB"/>
<ellipse cx="398.5" cy="317" rx="10.5" ry="10" fill="#8AE1EB"/>
<ellipse cx="386.5" cy="323" rx="10.5" ry="10" fill="#8AE1EB"/>
<circle cx="393" cy="302" r="13" fill="#8AE1EB"/>
<circle cx="402" cy="273" r="13" fill="#8AE1EB"/>
<circle cx="397" cy="289" r="8" fill="#8AE1EB"/>
<circle cx="375.5" cy="353.5" r="7.5" fill="#8AE1EB"/>
<circle cx="384" cy="349" r="9" fill="#C9E7EB"/>
<circle cx="377.5" cy="357.5" r="4.5" fill="#C9E7EB"/>
<circle cx="395" cy="337" r="9" fill="#C9E7EB"/>
<circle cx="408" cy="336" r="20" fill="#C9E7EB"/>
<circle cx="423" cy="315" r="17" fill="#C9E7EB"/>
<circle cx="412" cy="308" r="17" fill="#C9E7EB"/>
<circle cx="423.5" cy="292.5" r="12.5" fill="#C9E7EB"/>
<circle cx="409.5" cy="284.5" r="12.5" fill="#C9E7EB"/>
<circle cx="409.5" cy="269.5" r="6.5" fill="#C9E7EB"/>
<path d="M427.5 331.5C433.5 355.1 404.5 362 393 349.5C392 357.5 386 358.5 382 358C381.5 360 379 362.5 377 362C365 360.4 367.5 350 371.5 347C357.5 337.4 369.5 324.5 377.5 328C372.7 317.6 381.167 313.667 386 313C373.2 301.8 382.667 292.667 389 289.5C387.5 286.5 390.5 282.5 393 282C381.8 260.8 404 254.5 410.5 263C418.1 264.6 416.667 270.667 415 273.5C420.2 274.3 421.5 278.167 421.5 280C439.1 278.8 436.5 293.5 433 301C448.2 317.8 435.667 328.333 427.5 331.5ZM427.5 331.5C427.333 330.333 426.8 327.8 426 327" stroke="#5BC3CF" stroke-width="2" stroke-linecap="round"/>
<path d="M399.5 291.5C400.334 293.167 404.5 297 407.5 297M405 310.5C398.6 311.3 398.334 316.167 399 318.5C396.667 318.167 392.5 318.8 394.5 324" stroke="#5BC3CF" stroke-width="2" stroke-linecap="round"/>
<circle cx="207" cy="333" r="13" fill="#8AE1EB"/>
<circle cx="244" cy="335" r="27" fill="#8AE1EB"/>
<circle cx="283" cy="331" r="24" fill="#8AE1EB"/>
<circle cx="320" cy="312" r="24" fill="#8AE1EB"/>
<circle cx="192" cy="299" r="29" fill="#C9E7EB"/>
<circle cx="225" cy="303" r="29" fill="#C9E7EB"/>
<circle cx="256" cy="311" r="29" fill="#C9E7EB"/>
<circle cx="281" cy="306" r="29" fill="#C9E7EB"/>
<circle cx="317" cy="299" r="29" fill="#C9E7EB"/>
<circle cx="346.5" cy="290.5" r="14.5" fill="#C9E7EB"/>
<circle cx="337.5" cy="265.5" r="14.5" fill="#C9E7EB"/>
<circle cx="345.5" cy="240.5" r="17.5" fill="#C9E7EB"/>
<circle cx="316.5" cy="191.5" r="24.5" fill="#C9E7EB"/>
<circle cx="336.5" cy="218.5" r="10.5" fill="#C9E7EB"/>
<circle cx="287.5" cy="172.5" r="12.5" fill="#C9E7EB"/>
<circle cx="266.5" cy="176.5" r="12.5" fill="#C9E7EB"/>
<ellipse cx="234" cy="178.5" rx="27" ry="26.5" fill="#C9E7EB"/>
<circle cx="201" cy="195" r="13" fill="#C9E7EB"/>
<circle cx="179" cy="219" r="24" fill="#C9E7EB"/>
<circle cx="183" cy="269" r="13" fill="#C9E7EB"/>
<circle cx="170" cy="253" r="13" fill="#C9E7EB"/>
<circle cx="188" cy="249" r="13" fill="#C9E7EB"/>
<ellipse cx="212.5" cy="269.5" rx="24.5" ry="22.5" fill="#C9E7EB"/>
<ellipse cx="220.5" cy="208.5" rx="24.5" ry="22.5" fill="#C9E7EB"/>
<ellipse cx="276.5" cy="195.5" rx="24.5" ry="22.5" fill="#C9E7EB"/>
<ellipse cx="254.5" cy="216.5" rx="24.5" ry="22.5" fill="#C9E7EB"/>
<ellipse cx="251.5" cy="250.5" rx="24.5" ry="22.5" fill="#C9E7EB"/>
<ellipse cx="254.5" cy="272.5" rx="24.5" ry="22.5" fill="#C9E7EB"/>
<ellipse cx="285.5" cy="266.5" rx="24.5" ry="22.5" fill="#C9E7EB"/>
<ellipse cx="319.5" cy="256.5" rx="24.5" ry="22.5" fill="#C9E7EB"/>
<ellipse cx="316.5" cy="230.5" rx="24.5" ry="22.5" fill="#C9E7EB"/>
<ellipse cx="288" cy="209" rx="18" ry="17" fill="#C9E7EB"/>
<ellipse cx="213.5" cy="233.5" rx="21.5" ry="20.5" fill="#8AE1EB"/>
<ellipse cx="279.5" cy="298.5" rx="21.5" ry="20.5" fill="#8AE1EB"/>
<circle cx="294" cy="237" r="21" fill="#8AE1EB"/>
<circle cx="280" cy="223" r="14" fill="#8AE1EB"/>
<ellipse cx="221" cy="238.5" rx="22" ry="20.5" fill="#C9E7EB"/>
<ellipse cx="273" cy="291" rx="24" ry="22" fill="#C9E7EB"/>
<ellipse cx="269" cy="228.5" rx="17" ry="16.5" fill="#C9E7EB"/>
<circle cx="286" cy="242" r="20" fill="#C9E7EB"/>
<path d="M207.5 183.5C201.5 162.5 233.7 132.6 258.5 167C261.167 164 268.4 160 276 168C279 157.5 299.6 153.9 300 173.5C314 158 358 173.5 334.5 208C340.5 207.833 351.2 210.6 346 223C358 221 376.5 243.5 350 257.5M207.5 183.5C190.7 179.1 187.499 190.667 187.998 197M207.5 183.5C207.5 183.5 208 183.5 211.5 186M350 257.5C352 261 354.3 269.7 347.5 276.5C360 275.5 371 301 345.5 305C345.333 306.167 344.8 308.8 344 310C344.167 321.833 337 342.9 307 332.5C304.167 345 292.3 365.8 267.5 349C261.5 360 230.7 375.7 217.5 340.5C212.999 347.5 191.4 350 195 328C178.999 333.5 147.399 307.8 172.999 277M350 257.5C349.5 256.5 350.375 258.212 348 253.5M172.999 277C171.832 276.333 169.599 273.2 169.999 266M172.999 277C173.5 279 175 280 177.5 280M169.999 266C157.498 268.5 147.499 246.1 167.499 240.5C145.5 229 151.598 187.8 187.998 197M169.999 266C169.832 266.667 169.7 266.7 170.5 261.5M187.998 197C187.999 197.833 187.998 200 189 201.5" stroke="#5BC3CF" stroke-width="2" stroke-linecap="round"/>
<path d="M204.499 252C193 242 197.399 213.4 228.999 219" stroke="#5BC3CF" stroke-width="2" stroke-linecap="round"/>
<path d="M243.5 187.5C250.167 179.333 275.1 169.8 285.5 193" stroke="#5BC3CF" stroke-width="2" stroke-linecap="round"/>
<path d="M320 210C326 207 337.5 218 327 229M189 312C190.167 317.667 196.6 327.3 213 320.5" stroke="#5BC3CF" stroke-width="2" stroke-linecap="round"/>
<path d="M329 257.5C340.5 257.5 338.5 283.5 323 282.5M278 278.5C274.667 284.5 264.2 293.9 249 283.5" stroke="#5BC3CF" stroke-width="2" stroke-linecap="round"/>
<path d="M206 283C206 293.833 213 312.8 241 302" stroke="#5BC3CF" stroke-width="2" stroke-linecap="round"/>
<path d="M260.5 216C268 208 278.9 210.4 284.5 222C297.5 216 324 245.5 290 262" stroke="#5BC3CF" stroke-width="2" stroke-linecap="round"/>
<path d="M261.5 310.5C264.5 312.333 273.5 315 284.5 310.5C298.422 304.805 297.5 293 297 286" stroke="#5BC3CF" stroke-width="2" stroke-linecap="round"/>
<circle cx="402" cy="192" r="12" fill="#8AE1EB"/>
<circle cx="396" cy="178" r="12" fill="#8AE1EB"/>
<circle cx="383" cy="169" r="12" fill="#8AE1EB"/>
<circle cx="384" cy="150" r="12" fill="#8AE1EB"/>
<circle cx="406" cy="193" r="10" fill="#C9E7EB"/>
<circle cx="414" cy="180" r="10" fill="#C9E7EB"/>
<circle cx="406" cy="179" r="10" fill="#C9E7EB"/>
<circle cx="397" cy="165" r="10" fill="#C9E7EB"/>
<circle cx="409" cy="167" r="10" fill="#C9E7EB"/>
<circle cx="401.5" cy="150.5" r="12.5" fill="#C9E7EB"/>
<circle cx="388" cy="154" r="9" fill="#C9E7EB"/>
<circle cx="385" cy="139" r="9" fill="#C9E7EB"/>
<circle cx="375" cy="139" r="6" fill="#C9E7EB"/>
<path d="M415.5 190C416.7 199.2 413.5 203 407 203C390.2 206.2 389 194.667 390.5 188.5C385.3 186.5 384.333 182.667 384.5 181C366.5 179 368.5 161.5 376 159C369.2 154.6 371.167 147.833 373 145C362.6 136.2 373.5 129.5 378 133.5C381 126 394.5 129 394 141C399 133.5 420.4 137.5 412 157.5C421.2 159.5 419.834 167.333 418 171C431.2 179.4 422.5 189 415.5 190ZM415.5 190C415 190 413.7 189.8 412.5 189" stroke="#5BC3CF" stroke-width="2" stroke-linecap="round"/>
<path d="M387 164C386.5 167.833 387.8 174.6 397 175C396 178 395 181.2 399 186" stroke="#5BC3CF" stroke-width="2" stroke-linecap="round"/>
<circle cx="143.5" cy="322.5" r="13.5" fill="#8AE1EB"/>
<circle cx="133.5" cy="299.5" r="13.5" fill="#8AE1EB"/>
<circle cx="120.5" cy="282.5" r="13.5" fill="#8AE1EB"/>
<circle cx="124.5" cy="261.5" r="12.5" fill="#8AE1EB"/>
<circle cx="124.5" cy="239.5" r="12.5" fill="#8AE1EB"/>
<circle cx="120" cy="222" r="11" fill="#8AE1EB"/>
<circle cx="102" cy="241" r="19" fill="#C9E7EB"/>
<circle cx="93.5" cy="262.5" r="10.5" fill="#C9E7EB"/>
<circle cx="94.5" cy="289.5" r="19.5" fill="#C9E7EB"/>
<circle cx="120.5" cy="321.5" r="19.5" fill="#C9E7EB"/>
<circle cx="102.5" cy="310.5" r="12.5" fill="#C9E7EB"/>
<circle cx="112.5" cy="292.5" r="12.5" fill="#C9E7EB"/>
<circle cx="108.5" cy="265.5" r="13.5" fill="#C9E7EB"/>
<circle cx="136.5" cy="333.5" r="6.5" fill="#C9E7EB"/>
<circle cx="147.5" cy="335.5" r="6.5" fill="#C9E7EB"/>
<path d="M131.5 337.5C134.7 341.9 139.167 339.667 141 338C148 349.5 158.5 337 153.5 332.5C164.5 316 150.833 310.333 143 309C153.4 291.8 141 286.5 133.5 286C135.1 279.6 131.833 274.667 130 273C143.2 262.6 135.833 253.667 130.5 250.5C142.9 238.9 134.667 230.667 129 228C137.5 205 106 205 109 223.5C80.5 216 77.5 248.5 88 253.5C78 260.3 83.4999 268 87.4999 271C63.0999 288.6 80 308.5 89.9999 308.5C88.3999 319.7 96.6665 322.833 101 323C107.8 345.8 124.167 342.167 131.5 337.5ZM131.5 337.5L133.5 336" stroke="#5BC3CF" stroke-width="2" stroke-linecap="round"/>
<path d="M119.5 257.5C126.7 271.5 116.833 277.667 111 279C119.5 279 133.8 289.2 121 302C124.833 303.5 131.3 308 126.5 314" stroke="#5BC3CF" stroke-width="2" stroke-linecap="round"/>
<circle cx="195" cy="123" r="10" fill="#8AE1EB"/>
<circle cx="216.5" cy="122.5" r="12.5" fill="#8AE1EB"/>
<circle cx="239.5" cy="120.5" r="12.5" fill="#8AE1EB"/>
<circle cx="268" cy="117" r="17" fill="#8AE1EB"/>
<circle cx="301" cy="113" r="17" fill="#8AE1EB"/>
<circle cx="327" cy="114" r="17" fill="#8AE1EB"/>
<circle cx="310" cy="99" r="17" fill="#8AE1EB"/>
<circle cx="285" cy="96" r="17" fill="#8AE1EB"/>
<circle cx="261" cy="93" r="17" fill="#8AE1EB"/>
<circle cx="246" cy="102" r="17" fill="#8AE1EB"/>
<circle cx="235" cy="93" r="17" fill="#8AE1EB"/>
<circle cx="224" cy="106" r="17" fill="#8AE1EB"/>
<circle cx="211" cy="105" r="17" fill="#8AE1EB"/>
<circle cx="181" cy="119" r="11" fill="#C9E7EB"/>
<circle cx="187.5" cy="97.5" r="18.5" fill="#C9E7EB"/>
<circle cx="211.5" cy="71.5" r="26.5" fill="#C9E7EB"/>
<circle cx="236.5" cy="45.5" r="26.5" fill="#C9E7EB"/>
<circle cx="255.5" cy="69.5" r="26.5" fill="#C9E7EB"/>
<circle cx="264.5" cy="58.5" r="26.5" fill="#C9E7EB"/>
<circle cx="293.5" cy="58.5" r="26.5" fill="#C9E7EB"/>
<circle cx="315.5" cy="78.5" r="26.5" fill="#C9E7EB"/>
<circle cx="338.5" cy="84.5" r="17.5" fill="#C9E7EB"/>
<circle cx="344" cy="107" r="15" fill="#C9E7EB"/>
<path d="M210 45C200 45.8333 181.2 53.8 186 79C177 79 161.2 89.7 174 110.5C166 117.5 168.5 134.9 186.5 128.5C190.167 133 198.9 138.8 204.5 126C206.5 134.5 220.1 141.2 228.5 126C231.5 133 248.8 138.6 252 123C256 135 278.2 143.3 285 118.5C288.5 126 299.1 137.7 313.5 124.5C319.167 130.333 332.8 138 342 122C352 125.5 369.7 109 352.5 95C356.833 87.1667 360.3 70.6 339.5 67M210 45C215.6 7.79999 254.5 15.5 259.5 32.5C267.5 29.7 275.833 33.6667 279 36C305.8 23.6 317.167 41.8333 319.5 52.5C331.5 52.5 337.833 62.1667 339.5 67M210 45C210 45.8333 210 47.9 210 49.5M339.5 67C339.833 67.5 340.5 69.3 340.5 72.5" stroke="#5BC3CF" stroke-width="2" stroke-linecap="round"/>
<path d="M245 47C249.333 42.8333 260 37.4 268 49M206 98.5C215.5 102.833 235.7 105.4 240.5 81M210.5 113.5C214.167 114.167 221.4 112.8 221 102" stroke="#5BC3CF" stroke-width="2" stroke-linecap="round"/>
<path d="M243.5 93.5C249.667 95.6667 261.7 97.6 260.5 88M255.5 84C260.667 88 272.7 93.2 279.5 82C283.667 90.6667 296.2 106 313 98" stroke="#5BC3CF" stroke-width="2" stroke-linecap="round"/>
</g>
<defs>
<clipPath id="clip0_26_77">
<rect width="512" height="512" fill="white"/>
</clipPath>
</defs>
</svg>
