<svg width="512" height="512" viewBox="0 0 512 512" fill="none" xmlns="http://www.w3.org/2000/svg">
<g clip-path="url(#clip0_66_1560)">
<g opacity="0.65">
<path d="M187.5 443C182.5 467.5 178 512 178 512H282C283.5 506.167 283.4 484.2 271 443C258.6 401.8 265.167 378.833 270 372.5C287.833 366.667 329 353.3 351 346.5C378.5 338 384.5 336.5 396.5 332.5C408.5 328.5 407.5 325 437 291C466.5 257 478 245 483.5 226.5C489 208 477 202 472.5 202C469.5 202 450 207 448 230C447 236.5 449.6 211.3 444 212.5C437 214 441.5 233 441 244C440.5 255 413.5 295 401 306.5C388.5 318 374.7 322.9 345.5 332.5C309 344.5 327 341.5 284.5 349C250.5 355 221.333 349.167 211 345.5C211.333 347.333 211.2 353 208 361C178.667 354.5 116.4 339.1 102 329.5C84 317.5 65 244.5 67 220C69 195.5 76.8 182.6 70 185C61.5 188 63.5 202 63.5 203.5C63.5 205 62 170.5 43 171.5C24 172.5 27 194.5 27.5 200C28 205.5 42.5 263.5 60.5 300C78.5 336.5 80.5 335.5 89 340.5C92.7137 342.685 104.939 350.501 131 358.5C152.658 365.148 187.275 371.81 203.278 376.5C201.565 382.374 199.208 390.667 197.5 397.5C194.5 409.5 192.5 418.5 187.5 443Z" fill="#7ACEE7"/>
<path d="M205.5 369C205.5 369 204.573 372.059 203.278 376.5M270 372.5C265.167 378.833 258.6 401.8 271 443C283.4 484.2 283.5 506.167 282 512H178C178 512 182.5 467.5 187.5 443C192.5 418.5 194.5 409.5 197.5 397.5C199.208 390.667 201.565 382.374 203.278 376.5M270 372.5C287.833 366.667 329 353.3 351 346.5C378.5 338 384.5 336.5 396.5 332.5C408.5 328.5 407.5 325 437 291C466.5 257 478 245 483.5 226.5C489 208 477 202 472.5 202C469.5 202 450 207 448 230C447 236.5 449.6 211.3 444 212.5C437 214 441.5 233 441 244C440.5 255 413.5 295 401 306.5C388.5 318 374.7 322.9 345.5 332.5C309 344.5 327 341.5 284.5 349C250.5 355 221.333 349.167 211 345.5C211.333 347.333 211.2 353 208 361C178.667 354.5 116.4 339.1 102 329.5C84 317.5 65 244.5 67 220C69 195.5 76.8 182.6 70 185C61.5 188 63.5 202 63.5 203.5C63.5 205 62 170.5 43 171.5C24 172.5 27 194.5 27.5 200C28 205.5 42.5 263.5 60.5 300C78.5 336.5 80.5 335.5 89 340.5C92.7137 342.685 104.939 350.501 131 358.5C152.658 365.148 187.275 371.81 203.278 376.5M270 372.5C269.833 372.5 268 372.8 262 374" stroke="black" stroke-linecap="round"/>
<path d="M210.5 348C220.9 357.2 239.833 354.833 248 352.5C262.333 353.333 292.8 353.6 300 348C309 341 336.098 316.879 341.5 294.5C348.5 265.5 346.5 229 325.5 209.5C297.001 183.036 265.5 184 250 184C234.5 184 216 189.5 198.5 215C181 240.5 184.5 266 185 267C185.4 267.8 194.167 308.333 198.5 328.5C198.5 329.5 200.1 338.8 210.5 348Z" fill="#7ACEE7"/>
<path d="M320.5 305C320.1 317.8 299.333 330.333 289 335C263.5 333.833 212.1 332.5 210.5 332.5C208.5 332.5 165 328 169.5 291.5C173.1 262.3 195 264 205.5 268.5L246.5 278C264.667 275.833 302.3 272.4 307.5 276C314 280.5 321 289 320.5 305Z" fill="#7ACEE7"/>
<ellipse cx="238.5" cy="254.5" rx="7.5" ry="8.5" fill="black"/>
<ellipse cx="257.5" cy="254.5" rx="7.5" ry="8.5" fill="black"/>
<ellipse cx="239" cy="253.5" rx="3" ry="3.5" fill="white"/>
<ellipse cx="258" cy="253.5" rx="3" ry="3.5" fill="white"/>
<path d="M264 285.5C256.4 289.1 254.5 292.5 239.5 292.5C234.667 292 223.7 289.5 218.5 283.5C213.3 277.5 206.333 275 203.5 274.5C188 273 178.5 286.5 181 300C183.5 313.5 191 318.5 204.5 324C218 329.5 223.5 329 245 330C262.2 330.8 275.5 329 280 328C310.5 315.5 307 307 308 300C309 293 304 279.5 289.5 279C275 278.5 273.5 281 264 285.5Z" fill="#A0212E" stroke="black"/>
<path d="M266.713 320C270.484 325.2 270.475 328 269.5 329L283.5 326.5L296.5 319.5C294.167 317.333 288.4 312.4 284 310C278.5 307 259 306 258.5 310.5C258 315 262 313.5 266.713 320Z" fill="#F0ABE9" stroke="black"/>
<mask id="mask0_66_1560" style="mask-type:alpha" maskUnits="userSpaceOnUse" x="180" y="273" width="129" height="58">
<path d="M264 285.5C256.4 289.1 254.5 292.5 239.5 292.5C234.667 292 223.7 289.5 218.5 283.5C213.3 277.5 206.333 275 203.5 274.5C188 273 178.5 286.5 181 300C183.5 313.5 191 318.5 204.5 324C218 329.5 223.5 329 245 330C262.2 330.8 275.5 329 280 328C310.5 315.5 307 307 308 300C309 293 304 279.5 289.5 279C275 278.5 273.5 281 264 285.5Z" fill="#AF1D27" stroke="black"/>
</mask>
<g mask="url(#mask0_66_1560)">
<path d="M248.5 321.5C250.082 321.5 251.57 322.436 252.684 324.064C253.796 325.69 254.5 327.964 254.5 330.5C254.5 333.036 253.796 335.31 252.684 336.936C251.57 338.564 250.082 339.5 248.5 339.5C246.918 339.5 245.43 338.564 244.316 336.936C243.204 335.31 242.5 333.036 242.5 330.5C242.5 327.964 243.204 325.69 244.316 324.064C245.43 322.436 246.918 321.5 248.5 321.5Z" fill="white" stroke="black"/>
<path d="M265 323.5C266.146 323.5 267.259 324.245 268.111 325.608C268.959 326.965 269.5 328.87 269.5 331C269.5 333.13 268.959 335.035 268.111 336.392C267.259 337.755 266.146 338.5 265 338.5C263.854 338.5 262.741 337.755 261.889 336.392C261.041 335.035 260.5 333.13 260.5 331C260.5 328.87 261.041 326.965 261.889 325.608C262.741 324.245 263.854 323.5 265 323.5Z" fill="white" stroke="black"/>
<path d="M278.008 321.537C279.454 321.282 280.938 321.823 282.174 322.979C283.411 324.135 284.373 325.886 284.739 327.965C285.106 330.044 284.801 332.02 284.035 333.529C283.268 335.038 282.059 336.054 280.613 336.309C279.167 336.564 277.684 336.022 276.448 334.867C275.211 333.711 274.248 331.959 273.882 329.88C273.515 327.801 273.821 325.826 274.587 324.316C275.354 322.808 276.562 321.792 278.008 321.537Z" fill="white" stroke="black"/>
<path d="M233.332 322.934C234.474 323.034 235.518 323.873 236.248 325.305C236.974 326.731 237.347 328.675 237.161 330.798C236.975 332.92 236.271 334.77 235.308 336.048C234.34 337.332 233.166 337.977 232.025 337.877C230.883 337.777 229.839 336.938 229.109 335.505C228.383 334.08 228.01 332.135 228.195 330.013C228.381 327.891 229.086 326.04 230.049 324.763C231.016 323.479 232.19 322.834 233.332 322.934Z" fill="white" stroke="black"/>
<path d="M219.065 321.777C220.218 322.086 221.132 322.981 221.655 324.24C222.179 325.5 222.297 327.101 221.859 328.737C221.42 330.374 220.518 331.701 219.434 332.53C218.351 333.359 217.112 333.677 215.959 333.368C214.806 333.059 213.892 332.164 213.369 330.905C212.845 329.645 212.727 328.044 213.165 326.408C213.604 324.772 214.507 323.445 215.59 322.615C216.673 321.786 217.912 321.468 219.065 321.777Z" fill="white" stroke="black"/>
<path d="M204.524 316.181C205.853 316.587 206.868 317.779 207.383 319.494C207.897 321.204 207.892 323.379 207.212 325.6C206.533 327.822 205.322 329.628 203.939 330.758C202.553 331.891 201.045 332.312 199.716 331.906C198.387 331.499 197.373 330.308 196.858 328.593C196.343 326.883 196.349 324.709 197.028 322.487C197.708 320.265 198.919 318.459 200.301 317.329C201.687 316.196 203.195 315.775 204.524 316.181Z" fill="white" stroke="black"/>
<path d="M243.5 283.5C245.082 283.5 246.57 284.436 247.684 286.064C248.796 287.69 249.5 289.964 249.5 292.5C249.5 295.036 248.796 297.31 247.684 298.936C246.57 300.564 245.082 301.5 243.5 301.5C241.918 301.5 240.43 300.564 239.316 298.936C238.204 297.31 237.5 295.036 237.5 292.5C237.5 289.964 238.204 287.69 239.316 286.064C240.43 284.436 241.918 283.5 243.5 283.5Z" fill="white" stroke="black"/>
<path d="M229.764 280.021C231.159 280.143 232.432 281.256 233.312 283.165C234.185 285.061 234.618 287.644 234.371 290.462C234.125 293.28 233.25 295.75 232.061 297.464C230.862 299.192 229.415 300.067 228.021 299.945C226.626 299.823 225.353 298.71 224.473 296.8C223.599 294.905 223.167 292.321 223.413 289.504C223.66 286.686 224.535 284.216 225.724 282.502C226.922 280.774 228.369 279.899 229.764 280.021Z" fill="white" stroke="black"/>
<path d="M220.744 272.923C222.301 273.52 223.401 275.053 223.856 277.168C224.309 279.279 224.1 281.905 223.091 284.535C222.081 287.164 220.479 289.256 218.73 290.521C216.976 291.789 215.134 292.192 213.576 291.594C212.019 290.996 210.919 289.464 210.465 287.348C210.011 285.238 210.22 282.611 211.23 279.982C212.239 277.352 213.841 275.26 215.59 273.996C217.344 272.728 219.187 272.325 220.744 272.923Z" fill="white" stroke="black"/>
<path d="M205.284 265.534C206.86 265.672 208.261 266.735 209.229 268.454C210.195 270.17 210.698 272.497 210.477 275.023C210.256 277.549 209.357 279.753 208.107 281.276C206.855 282.8 205.291 283.604 203.716 283.466C202.14 283.328 200.739 282.265 199.772 280.546C198.805 278.83 198.302 276.503 198.523 273.977C198.744 271.451 199.643 269.247 200.893 267.724C202.145 266.2 203.709 265.396 205.284 265.534Z" fill="white" stroke="black"/>
<path d="M259 278.5C260.725 278.5 262.338 279.498 263.54 281.216C264.741 282.932 265.5 285.329 265.5 288C265.5 290.671 264.741 293.068 263.54 294.784C262.338 296.502 260.725 297.5 259 297.5C257.275 297.5 255.662 296.502 254.46 294.784C253.259 293.068 252.5 290.671 252.5 288C252.5 285.329 253.259 282.932 254.46 281.216C255.662 279.498 257.275 278.5 259 278.5Z" fill="white" stroke="black"/>
<path d="M276 271.5C277.725 271.5 279.338 272.498 280.54 274.216C281.741 275.932 282.5 278.329 282.5 281C282.5 283.671 281.741 286.068 280.54 287.784C279.338 289.502 277.725 290.5 276 290.5C274.275 290.5 272.662 289.502 271.46 287.784C270.259 286.068 269.5 283.671 269.5 281C269.5 278.329 270.259 275.932 271.46 274.216C272.662 272.498 274.275 271.5 276 271.5Z" fill="white" stroke="black"/>
</g>
<path d="M264 285.5C256.4 289.1 254.5 292.5 239.5 292.5C234.667 292 223.7 289.5 218.5 283.5C213.3 277.5 206.333 275 203.5 274.5C188 273 178.5 286.5 181 300C183.5 313.5 191 318.5 204.5 324C218 329.5 223.5 329 245 330C262.2 330.8 275.5 329 280 328C310.5 315.5 307 307 308 300C309 293 304 279.5 289.5 279C275 278.5 273.5 281 264 285.5Z" stroke="black"/>
<path d="M229 234.5C230 233.5 234.3 231.1 243.5 229.5" stroke="black" stroke-linecap="round"/>
<path d="M254.5 228C255.833 228 259.9 229.2 265.5 234" stroke="black" stroke-linecap="round"/>
<path d="M40 197C43.3333 200.333 49.6 209.9 48 221.5" stroke="black" stroke-linecap="round"/>
<path d="M456.5 247C454.5 242.333 454.9 231.3 472.5 224.5" stroke="black" stroke-linecap="round"/>
<path d="M206.014 270.12C203.514 268.453 195.4 264.7 185 267.5C172 271 169.014 292.537 169.014 298.62C169.014 300.12 167.014 324.62 210.014 333.12" stroke="black" stroke-linecap="round"/>
<path d="M307 275.5C312.5 280 322.9 292 320.5 304C317.5 319 306.5 325.5 289 334.5" stroke="black" stroke-linecap="round"/>
<path d="M248.5 352.5C248.5 352.5 231 360 217 352.5C203 345 199.5 330.5 199.5 330.5M185.5 267.5C183.5 256.5 186.5 233.5 195 220.5C202 207.833 222.774 184 250 184C284.5 184 294.5 187 320 205C348.212 224.914 345 267.938 345 270C345 272 341.862 295 338.5 302.5C332 317 319.5 332.5 302.5 346C298.093 349.5 282.167 355 276.5 354" stroke="black" stroke-linecap="round"/>
</g>
<ellipse cx="415.429" cy="67.8942" rx="5.12291" ry="5.40989" fill="#8AE1EB"/>
<ellipse cx="413.647" cy="57.5449" rx="5.12291" ry="5.40989" fill="#8AE1EB"/>
<ellipse cx="407.41" cy="50.0181" rx="5.12291" ry="5.40989" fill="#8AE1EB"/>
<ellipse cx="413.202" cy="50.9589" rx="5.12291" ry="5.40989" fill="#8AE1EB"/>
<ellipse cx="401.396" cy="43.1969" rx="7.12752" ry="7.05638" fill="#8AE1EB"/>
<ellipse cx="417.656" cy="67.8942" rx="3.7865" ry="3.99861" fill="#C9E7EB"/>
<ellipse cx="420.551" cy="64.8365" rx="2.22735" ry="2.35213" fill="#C9E7EB"/>
<ellipse cx="420.774" cy="57.5449" rx="6.90479" ry="7.29159" fill="#C9E7EB"/>
<ellipse cx="420.328" cy="47.6659" rx="6.90479" ry="7.29159" fill="#C9E7EB"/>
<ellipse cx="413.647" cy="43.9025" rx="5.56838" ry="5.88031" fill="#C9E7EB"/>
<ellipse cx="408.524" cy="38.4927" rx="5.79111" ry="6.11553" fill="#C9E7EB"/>
<path d="M408.302 42.4913C407.894 45.2888 408.493 50.2127 413.647 49.4453M415.207 49.0772C414.646 49.2534 414.127 49.374 413.647 49.4453M413.647 49.4453C413.647 50.4203 414.316 52.6525 416.988 53.7815" stroke="#5BC3CF" stroke-width="2" stroke-linecap="round"/>
<path d="M415.429 52.8406C414.612 53.4679 413.157 55.428 413.87 58.2505" stroke="#5BC3CF" stroke-width="2" stroke-linecap="round"/>
<path d="M403.179 36.3757C392.71 33.5532 389.636 49.8769 402.288 50.2533C402.362 52.527 403.802 56.6981 408.97 55.1927C408.004 57.2313 407.5 61.6376 413.202 62.9548C406.074 66.9534 412.088 77.6791 419.215 71.6576C420.255 70.6384 422.156 68.3176 421.443 67.1886C421.962 67.0318 422.957 66.2948 422.779 64.6012M403.179 36.3757C407.455 27.7199 415.206 33.7884 414.315 38.4927M403.179 36.3757L402.51 38.0222M422.779 64.6012C425.897 63.1116 431.02 58.4857 425.675 52.6054C427.902 48.5284 429.595 40.4214 418.547 40.6096M422.779 64.6012C422.705 64.6797 422.289 64.8365 421.22 64.8365M418.547 40.6096C418.25 39.7471 416.988 38.1163 414.315 38.4927M418.547 40.6096V41.7856M414.315 38.4927L414.092 39.6687" stroke="#5BC3CF" stroke-width="2" stroke-linecap="round"/>
<ellipse cx="246.217" cy="482.658" rx="6.14505" ry="4.59644" fill="#8AE1EB"/>
<ellipse cx="273.101" cy="481.509" rx="6.14505" ry="4.59644" fill="#8AE1EB"/>
<ellipse cx="283.855" cy="479.211" rx="6.14505" ry="4.59644" fill="#8AE1EB"/>
<ellipse cx="261.195" cy="481.222" rx="11.1379" ry="7.18193" fill="#8AE1EB"/>
<ellipse cx="249.29" cy="485.531" rx="5.37692" ry="4.02188" fill="#C9E7EB"/>
<ellipse cx="263.883" cy="487.542" rx="10.7538" ry="5.45827" fill="#C9E7EB"/>
<ellipse cx="279.63" cy="485.244" rx="6.52911" ry="4.88371" fill="#C9E7EB"/>
<path d="M274.637 488.404C283.547 492.311 287.695 487.254 285.775 483.52C297.143 476.855 281.166 470.305 277.71 478.636C275.559 476.108 271.949 476.817 270.412 477.487C262.117 470.363 250.825 475.763 250.441 479.498C242.376 474.327 235.078 484.382 244.296 486.967C246.754 490.644 251.209 489.457 253.13 488.404C257.738 495.298 272.333 493 274.637 488.404ZM274.637 488.404C274.509 488.404 273.946 488.174 272.717 487.254" stroke="#5BC3CF" stroke-width="2" stroke-linecap="round"/>
<ellipse cx="479.49" cy="386.835" rx="3.31833" ry="3.1449" transform="rotate(-70 479.49 386.835)" fill="#8AE1EB"/>
<ellipse cx="483.716" cy="372.924" rx="3.31833" ry="3.1449" transform="rotate(-70 483.716 372.924)" fill="#8AE1EB"/>
<ellipse cx="484.224" cy="366.929" rx="3.31833" ry="3.1449" transform="rotate(-70 484.224 366.929)" fill="#8AE1EB"/>
<ellipse cx="481.332" cy="378.898" rx="6.01447" ry="4.91391" transform="rotate(-70 481.332 378.898)" fill="#8AE1EB"/>
<ellipse cx="481.904" cy="385.948" rx="2.90354" ry="2.75179" transform="rotate(-70 481.904 385.948)" fill="#C9E7EB"/>
<ellipse cx="485.892" cy="379.013" rx="5.80707" ry="3.73457" transform="rotate(-70 485.892 379.013)" fill="#C9E7EB"/>
<ellipse cx="487.323" cy="370.485" rx="3.52572" ry="3.34146" transform="rotate(-70 487.323 370.485)" fill="#C9E7EB"/>
<path d="M488.432 373.757C492.59 370.15 490.105 366.862 487.35 366.963C485.164 359.634 478.002 366.209 482.72 369.912C480.697 370.412 480.486 372.41 480.634 373.346C474.521 375.889 475.908 382.882 478.238 383.951C473.424 386.834 478.54 392.89 481.905 388.817C484.723 388.431 484.783 385.892 484.46 384.671C489.744 383.946 490.962 376.002 488.432 373.757ZM488.432 373.757C488.409 373.822 488.157 374.054 487.339 374.463" stroke="#5BC3CF" stroke-width="2" stroke-linecap="round"/>
<ellipse cx="406.498" cy="441.832" rx="6.88248" ry="6.28986" transform="rotate(-35 406.498 441.832)" fill="#8AE1EB"/>
<ellipse cx="430.262" cy="423.273" rx="6.88248" ry="6.28986" transform="rotate(-35 430.262 423.273)" fill="#8AE1EB"/>
<ellipse cx="438.324" cy="413.789" rx="6.88248" ry="6.28986" transform="rotate(-35 438.324 413.789)" fill="#8AE1EB"/>
<ellipse cx="419.113" cy="430.6" rx="12.4745" ry="9.82791" transform="rotate(-35 419.113 430.6)" fill="#8AE1EB"/>
<ellipse cx="411.572" cy="443.079" rx="6.02217" ry="5.50363" transform="rotate(-35 411.572 443.079)" fill="#C9E7EB"/>
<ellipse cx="426.54" cy="435.957" rx="12.0443" ry="7.46921" transform="rotate(-35 426.54 435.957)" fill="#C9E7EB"/>
<ellipse cx="439.183" cy="423.265" rx="7.31264" ry="6.68298" transform="rotate(-35 439.183 423.265)" fill="#C9E7EB"/>
<path d="M437.083 430.015C448.325 428.67 448.162 420.338 443.469 417.385C448.667 402.611 428.868 405.533 432.236 417.092C428.278 415.64 425.522 418.754 424.639 420.492C411.436 417.835 405.316 431.143 407.895 435.576C396.436 434.961 397.633 450.919 408.119 447.896C413.261 450.439 416.416 446.246 417.351 443.832C426.991 448.599 438.577 436.648 437.083 430.015ZM437.083 430.015C436.966 430.097 436.269 430.201 434.42 429.96" stroke="#5BC3CF" stroke-width="2" stroke-linecap="round"/>
<ellipse cx="54.1488" cy="452.269" rx="3.16271" ry="3.95394" transform="rotate(-20 54.1488 452.269)" fill="#8AE1EB"/>
<ellipse cx="55.6571" cy="461.037" rx="4.74407" ry="5.9309" transform="rotate(-20 55.6571 461.037)" fill="#8AE1EB"/>
<ellipse cx="59.9442" cy="468.192" rx="3.16271" ry="3.95394" transform="rotate(-20 59.9442 468.192)" fill="#8AE1EB"/>
<ellipse cx="62.8805" cy="474.938" rx="3.61453" ry="4.51878" transform="rotate(-20 62.8805 474.938)" fill="#8AE1EB"/>
<ellipse cx="50.6377" cy="457.154" rx="4.06635" ry="5.08363" transform="rotate(-20 50.6377 457.154)" fill="#C9E7EB"/>
<ellipse cx="52.1801" cy="451.483" rx="2.03317" ry="2.54182" transform="rotate(-20 52.1801 451.483)" fill="#C9E7EB"/>
<ellipse cx="50.5635" cy="466.197" rx="5.42179" ry="6.77818" transform="rotate(-20 50.5635 466.197)" fill="#C9E7EB"/>
<ellipse cx="54.5022" cy="471.075" rx="3.84044" ry="4.80121" transform="rotate(-20 54.5022 471.075)" fill="#C9E7EB"/>
<ellipse cx="54.5765" cy="462.031" rx="2.93681" ry="3.67151" transform="rotate(-20 54.5765 462.031)" fill="#C9E7EB"/>
<ellipse cx="56.2771" cy="468.025" rx="2.93681" ry="3.67151" transform="rotate(-20 56.2771 468.025)" fill="#C9E7EB"/>
<ellipse cx="60.0245" cy="475.677" rx="2.93681" ry="3.67151" transform="rotate(-20 60.0245 475.677)" fill="#C9E7EB"/>
<ellipse cx="59.2122" cy="471.465" rx="1.35545" ry="1.69454" transform="rotate(-20 59.2122 471.465)" fill="#C9E7EB"/>
<path d="M47.6078 460.059C46.1016 457.903 44.5251 453.307 50.2687 452.178M47.6078 460.059C41.7258 462.922 47.381 473.967 51.0864 472.919C52.817 476.617 55.7454 476.032 56.9933 475.277C58.2611 480.346 60.662 479.853 61.7039 478.973C67.248 481.523 67.8007 471.945 62.7047 470.494C64.0004 466.656 61.4804 464.928 60.0585 464.544M47.6078 460.059L49.0938 459.519M50.2687 452.178C49.9145 451.205 49.7736 449.233 52.0434 449.128C53.5866 446.763 58.8717 448.205 56.4654 455.333C58.4987 456.296 62.0641 459.486 60.0585 464.544M50.2687 452.178L50.7517 453.505M60.0585 464.544L59.2677 466.335" stroke="#5BC3CF" stroke-width="2" stroke-linecap="round"/>
<ellipse cx="62.1538" cy="186.58" rx="5.4026" ry="5.3461" fill="#8AE1EB"/>
<ellipse cx="59.4525" cy="198.418" rx="8.1039" ry="8.01915" fill="#8AE1EB"/>
<ellipse cx="62.1541" cy="209.492" rx="5.4026" ry="5.3461" fill="#8AE1EB"/>
<ellipse cx="62.9254" cy="219.42" rx="6.1744" ry="6.10983" fill="#8AE1EB"/>
<ellipse cx="53.664" cy="191.163" rx="6.9462" ry="6.87356" fill="#C9E7EB"/>
<ellipse cx="59.4524" cy="184.671" rx="3.4731" ry="3.43678" fill="#C9E7EB"/>
<ellipse cx="48.2611" cy="202.618" rx="9.2616" ry="9.16475" fill="#C9E7EB"/>
<ellipse cx="51.7341" cy="210.638" rx="6.5603" ry="6.4917" fill="#C9E7EB"/>
<ellipse cx="57.1366" cy="199.182" rx="5.0167" ry="4.96424" fill="#C9E7EB"/>
<ellipse cx="56.3653" cy="207.583" rx="5.0167" ry="4.96424" fill="#C9E7EB"/>
<ellipse cx="57.909" cy="219.039" rx="5.0167" ry="4.96424" fill="#C9E7EB"/>
<ellipse cx="59.0664" cy="213.311" rx="2.3154" ry="2.29119" fill="#C9E7EB"/>
<path d="M47.1031 193.454C45.9454 190.017 46.0998 183.449 55.9788 184.671M47.1031 193.454C35.9891 194.37 38.6134 211.019 45.1737 211.401C45.7911 216.9 50.8336 217.511 53.2776 217.129C52.3515 224.156 56.4934 224.639 58.6802 224.003C66.0895 229.807 72.5726 217.893 65.2405 213.692C69.5626 209.416 66.5269 206.055 64.4687 204.91M47.1031 193.454L49.8045 193.454M55.9788 184.671C55.9788 183.271 56.9051 180.699 60.6097 181.616C64.4687 179.325 72.1095 183.602 64.0828 191.544C66.7841 193.708 70.6431 199.411 64.4687 204.91M55.9788 184.671L55.9789 186.58M64.4687 204.91L62.1533 206.819" stroke="#5BC3CF" stroke-width="2" stroke-linecap="round"/>
<ellipse cx="473.969" cy="242.14" rx="5.4026" ry="5.3461" transform="rotate(170 473.969 242.14)" fill="#8AE1EB"/>
<ellipse cx="474.574" cy="230.013" rx="8.1039" ry="8.01915" transform="rotate(170 474.574 230.013)" fill="#8AE1EB"/>
<ellipse cx="469.991" cy="219.576" rx="5.4026" ry="5.3461" transform="rotate(170 469.991 219.576)" fill="#8AE1EB"/>
<ellipse cx="467.507" cy="209.933" rx="6.1744" ry="6.10983" transform="rotate(170 467.507 209.933)" fill="#8AE1EB"/>
<ellipse cx="481.535" cy="236.153" rx="6.9462" ry="6.87356" transform="rotate(170 481.535 236.153)" fill="#C9E7EB"/>
<ellipse cx="476.961" cy="243.551" rx="3.4731" ry="3.43678" transform="rotate(170 476.961 243.551)" fill="#C9E7EB"/>
<ellipse cx="484.866" cy="223.933" rx="9.2616" ry="9.16475" transform="rotate(170 484.866 223.933)" fill="#C9E7EB"/>
<ellipse cx="480.053" cy="216.639" rx="6.5603" ry="6.4917" transform="rotate(170 480.053 216.639)" fill="#C9E7EB"/>
<ellipse cx="476.722" cy="228.859" rx="5.0167" ry="4.96424" transform="rotate(170 476.722 228.859)" fill="#C9E7EB"/>
<ellipse cx="476.023" cy="220.451" rx="5.0167" ry="4.96424" transform="rotate(170 476.023 220.451)" fill="#C9E7EB"/>
<ellipse cx="472.513" cy="209.437" rx="5.0167" ry="4.96424" transform="rotate(170 472.513 209.437)" fill="#C9E7EB"/>
<ellipse cx="472.368" cy="215.279" rx="2.3154" ry="2.29119" transform="rotate(170 472.368 215.279)" fill="#C9E7EB"/>
<path d="M487.598 232.757C489.335 235.941 490.323 242.436 480.382 242.948M487.598 232.757C498.384 229.925 492.908 213.984 486.382 214.747C484.819 209.439 479.747 209.713 477.406 210.514C477.098 203.433 472.935 203.676 470.892 204.683C462.587 200.253 458.272 213.112 466.222 215.976C462.708 220.938 466.281 223.72 468.507 224.491M487.598 232.757L484.938 233.227M480.382 242.948C480.625 244.327 480.16 247.02 476.352 246.761C472.95 249.687 464.682 246.802 471.208 237.586C468.172 235.924 463.381 230.979 468.507 224.491M480.382 242.948L480.051 241.068M468.507 224.491L470.456 222.209" stroke="#5BC3CF" stroke-width="2" stroke-linecap="round"/>
<circle cx="90.5048" cy="30.3274" r="7" transform="rotate(30 90.5048 30.3274)" fill="#8AE1EB"/>
<circle cx="79.7236" cy="42.0008" r="10.5" transform="rotate(30 79.7236 42.0008)" fill="#8AE1EB"/>
<circle cx="75.5048" cy="56.3082" r="7" transform="rotate(30 75.5048 56.3082)" fill="#8AE1EB"/>
<circle cx="69.8708" cy="68.0665" r="8" transform="rotate(30 69.8708 68.0665)" fill="#8AE1EB"/>
<circle cx="77.9783" cy="30.0236" r="9" transform="rotate(30 77.9783 30.0236)" fill="#C9E7EB"/>
<circle cx="88.7235" cy="26.4124" r="4.5" transform="rotate(30 88.7235 26.4124)" fill="#C9E7EB"/>
<circle cx="64.4162" cy="39.514" r="12" transform="rotate(30 64.4162 39.514)" fill="#C9E7EB"/>
<circle cx="63.0634" cy="50.8572" r="8.5" transform="rotate(30 63.0634 50.8572)" fill="#C9E7EB"/>
<circle cx="76.6255" cy="41.3669" r="6.5" transform="rotate(30 76.6255 41.3669)" fill="#C9E7EB"/>
<circle cx="70.2595" cy="50.3931" r="6.5" transform="rotate(30 70.2595 50.3931)" fill="#C9E7EB"/>
<circle cx="64.4915" cy="64.3835" r="6.5" transform="rotate(30 64.4915 64.3835)" fill="#C9E7EB"/>
<circle cx="69.5405" cy="58.6383" r="3" transform="rotate(30 69.5405 58.6383)" fill="#C9E7EB"/>
<path d="M69.1169 28.3716C70.0679 23.7245 74.5411 16.3767 84.8262 24.1623M69.1169 28.3716C56.0461 22.2108 48.0908 42.7903 55.202 47.4733C52.2948 54.1086 57.5528 58.0681 60.5453 59.2185C54.906 66.5859 59.237 69.8177 62.1074 70.5127C66.6213 81.8945 81.6959 72.5845 76.2187 63.0713C83.8684 61.0216 82.662 55.2444 81.1026 52.6121M69.1169 28.3716L72.1481 30.1217M84.8262 24.1623C85.7429 22.5746 88.4656 20.2591 92.0225 23.6983C97.8526 23.6002 103.626 33.4 89.4196 37.2066C91.034 41.4104 91.6308 50.3767 81.1026 52.6121M84.8262 24.1623L83.5763 26.3274M81.1026 52.6121L77.2545 53.2771" stroke="#5BC3CF" stroke-width="2" stroke-linecap="round"/>
<ellipse cx="26.7741" cy="250.696" rx="6.69856" ry="8.08882" transform="rotate(-15 26.7741 250.696)" fill="#8AE1EB"/>
<ellipse cx="32.6468" cy="260.288" rx="6.0606" ry="6.54809" transform="rotate(-15 32.6468 260.288)" fill="#8AE1EB"/>
<ellipse cx="31.125" cy="271.862" rx="6.0606" ry="6.54809" transform="rotate(-15 31.125 271.862)" fill="#8AE1EB"/>
<ellipse cx="35.7194" cy="287.778" rx="10.8453" ry="11.5555" transform="rotate(-15 35.7194 287.778)" fill="#8AE1EB"/>
<ellipse cx="44.6281" cy="302.538" rx="9.25039" ry="8.08882" transform="rotate(-15 44.6281 302.538)" fill="#8AE1EB"/>
<ellipse cx="23.912" cy="249.869" rx="4.14673" ry="5.00736" transform="rotate(-15 23.912 249.869)" fill="#C9E7EB"/>
<ellipse cx="26.2862" cy="261.196" rx="4.14673" ry="8.08882" transform="rotate(-15 26.2862 261.196)" fill="#C9E7EB"/>
<ellipse cx="19.1367" cy="257.928" rx="7.01754" ry="8.474" transform="rotate(-15 19.1367 257.928)" fill="#C9E7EB"/>
<ellipse cx="21.9104" cy="270.743" rx="7.01754" ry="8.474" transform="rotate(-15 21.9104 270.743)" fill="#C9E7EB"/>
<ellipse cx="39.0925" cy="302.825" rx="7.6555" ry="8.474" transform="rotate(-15 39.0925 302.825)" fill="#C9E7EB"/>
<ellipse cx="25.7705" cy="288.849" rx="9.25039" ry="13.8665" transform="rotate(-15 25.7705 288.849)" fill="#C9E7EB"/>
<path d="M28.6885 268.926C29.2232 270.511 29.7761 274.218 27.71 276.366C30.0631 276.932 34.9145 280.577 35.4947 290.63" stroke="#5BC3CF" stroke-width="2" stroke-linecap="round"/>
<path d="M19.9158 249.743C9.34572 248.747 11.008 262.099 16.1101 265.119C11.5574 270.805 16.062 276.031 18.8834 277.934C10.851 288.38 22.3548 306.911 31.4169 301.293C31.5839 311.776 38.7122 312.498 42.5182 310.68C54.241 311.048 59.9534 295.641 44.4843 294.601C49.6767 285.634 43.179 277.405 35.603 276.245C38.4955 273.237 36.1737 268.516 34.6512 266.531C39.9145 264.483 40.777 256.117 33.21 253.758C34.85 240.159 20.3959 240.443 19.9158 249.743ZM19.9158 249.743C20.2571 249.785 21.1029 249.984 21.7553 250.447" stroke="#5BC3CF" stroke-width="2" stroke-linecap="round"/>
<ellipse cx="222.969" cy="17.5162" rx="5.75834" ry="5.27206" fill="#8AE1EB"/>
<ellipse cx="230.742" cy="16.1982" rx="4.89459" ry="4.48125" fill="#8AE1EB"/>
<ellipse cx="221.241" cy="10.1353" rx="5.75834" ry="5.27206" fill="#C9E7EB"/>
<ellipse cx="226.424" cy="12.7714" rx="5.75834" ry="5.27206" fill="#C9E7EB"/>
<ellipse cx="231.894" cy="9.87173" rx="6.04626" ry="5.53566" fill="#C9E7EB"/>
<path d="M235.349 14.353C243.641 5.91769 230.167 -0.145177 226.424 7.49931C216.75 -0.0924535 211.164 11.717 218.074 14.6166C215.08 24.7389 226.424 24.6335 228.152 19.8886M235.349 14.353C237.653 16.989 235.062 21.9975 228.152 19.8886M235.349 14.353C235.253 14.2651 234.831 13.9312 233.91 13.2986M228.152 19.8886L227.576 19.625" stroke="#5BC3CF" stroke-width="2" stroke-linecap="round"/>
<ellipse cx="451.446" cy="11.8781" rx="5.15029" ry="3.61808" fill="#8AE1EB"/>
<ellipse cx="457.506" cy="16.1347" rx="5.15029" ry="3.61808" fill="#8AE1EB"/>
<ellipse cx="452.355" cy="11.2396" rx="4.24141" ry="2.9796" fill="#C9E7EB"/>
<ellipse cx="457.202" cy="11.2396" rx="4.24141" ry="2.9796" fill="#C9E7EB"/>
<ellipse cx="458.414" cy="15.0705" rx="4.24141" ry="2.9796" fill="#C9E7EB"/>
<path d="M460.838 12.7294C463.565 8.26002 456.597 7.19588 454.779 8.89851C454.274 8.18908 451.75 7.19588 447.508 9.11134C443.57 11.6653 448.114 16.7732 452.355 15.4962C453.082 22.9878 463.565 19.7528 462.656 15.709C463.868 14.2192 461.545 12.9422 460.838 12.7294Z" stroke="#5BC3CF" stroke-width="2" stroke-linecap="round"/>
<ellipse cx="479.158" cy="27.2785" rx="4.15784" ry="3.21621" fill="#8AE1EB"/>
<ellipse cx="480.669" cy="33.1262" rx="4.15784" ry="3.21621" fill="#8AE1EB"/>
<ellipse cx="482.182" cy="30.2024" rx="4.15784" ry="3.21621" fill="#8AE1EB"/>
<ellipse cx="485.962" cy="36.6348" rx="4.15784" ry="3.21621" fill="#8AE1EB"/>
<ellipse cx="492.387" cy="41.0205" rx="6.04777" ry="5.84766" fill="#8AE1EB"/>
<ellipse cx="480.67" cy="26.109" rx="3.40187" ry="2.63145" fill="#C9E7EB"/>
<ellipse cx="483.694" cy="30.2024" rx="3.40187" ry="2.63145" fill="#C9E7EB"/>
<ellipse cx="485.961" cy="33.1262" rx="3.40187" ry="2.63145" fill="#C9E7EB"/>
<ellipse cx="490.875" cy="29.91" rx="8.31569" ry="6.43242" fill="#C9E7EB"/>
<ellipse cx="490.498" cy="36.6348" rx="3.40187" ry="2.63145" fill="#C9E7EB"/>
<ellipse cx="495.789" cy="39.851" rx="4.91381" ry="5.26289" fill="#C9E7EB"/>
<path d="M484.072 26.4014C489.364 18.7994 505.92 24.9979 496.546 34.5881M496.546 34.5881C499.822 35.8551 504.483 39.734 496.924 45.1139C488.154 50.2598 485.962 43.652 486.34 39.851C481.502 40.5527 481.3 37.8043 481.804 36.3424C475.152 36.5763 476.513 32.5414 478.024 30.4947C472.884 26.2844 476.387 24.3547 478.78 24.0623C482.107 21.7233 484.072 24.3547 484.072 26.109M496.546 34.5881L494.656 36.3424" stroke="#5BC3CF" stroke-width="2" stroke-linecap="round"/>
<path d="M145.369 40.6936C145.721 40.2011 146.481 40.6403 146.231 41.1911L138.855 57.4017C138.613 57.9336 138.702 58.5582 139.083 59.0013L147.21 68.4513C147.519 68.8098 147.203 69.356 146.739 69.2683L134.49 66.9554C133.916 66.8471 133.331 67.0817 132.992 67.5572L122.64 82.0508C122.289 82.5431 121.528 82.104 121.778 81.5532L129.155 65.3418C129.397 64.8099 129.307 64.1861 128.926 63.743L120.799 54.2922C120.492 53.9338 120.807 53.3878 121.271 53.4752L133.519 55.7889C134.093 55.8974 134.678 55.662 135.018 55.1863L145.369 40.6936Z" fill="#BDE3EF" stroke="#5BC3CF"/>
<path d="M79.3782 262.941C79.43 262.441 80.1047 262.322 80.3246 262.774L84.1356 270.621C84.359 271.081 84.8021 271.396 85.3101 271.456L93.875 272.463C94.3669 272.521 94.4835 273.183 94.0412 273.406L86.3374 277.282C85.8805 277.512 85.5719 277.959 85.5193 278.468L84.6217 287.145C84.5699 287.645 83.8952 287.764 83.6754 287.311L79.8644 279.465C79.6409 279.005 79.1978 278.69 78.6898 278.63L70.125 277.623C69.6331 277.564 69.5165 276.903 69.9588 276.68L77.6625 272.804C78.1195 272.574 78.428 272.127 78.4806 271.618L79.3782 262.941Z" fill="#BDE3EF" stroke="#5BC3CF"/>
<path d="M432.409 135.357C432.376 134.814 433.113 134.617 433.356 135.103L436.233 140.857C436.455 141.301 436.882 141.607 437.374 141.673L443.203 142.459C443.643 142.518 443.793 143.078 443.442 143.349L438.786 146.944C438.393 147.248 438.177 147.726 438.206 148.222L438.591 154.643C438.624 155.186 437.888 155.383 437.644 154.897L434.767 149.143C434.545 148.699 434.118 148.393 433.626 148.327L427.797 147.541C427.357 147.482 427.207 146.922 427.558 146.651L432.214 143.056C432.607 142.752 432.823 142.274 432.794 141.778L432.409 135.357Z" fill="#BDE3EF" stroke="#5BC3CF"/>
<path d="M390.222 465.002C390.515 464.848 390.873 465.015 390.944 465.338L392.065 470.503C392.152 470.903 392.399 471.251 392.749 471.465L397.289 474.238C397.798 474.549 397.434 475.328 396.87 475.139L391.827 473.443C391.438 473.313 391.013 473.347 390.65 473.538L385.972 475.999C385.68 476.152 385.321 475.985 385.251 475.662L384.129 470.497C384.042 470.096 383.795 469.748 383.445 469.535L378.905 466.761C378.396 466.451 378.76 465.672 379.324 465.861L384.367 467.557C384.756 467.687 385.181 467.653 385.544 467.462L390.222 465.002Z" fill="#BDE3EF" stroke="#5BC3CF"/>
<path d="M364.744 37.8926C364.704 37.2955 365.558 37.1451 365.724 37.7198L367.463 43.7161C367.614 44.237 368.035 44.6356 368.563 44.7587L374.231 46.0777C374.66 46.1775 374.759 46.7431 374.39 46.9837L369.516 50.1607C369.061 50.457 368.802 50.9761 368.839 51.5176L369.256 57.7468C369.296 58.344 368.442 58.4944 368.276 57.9196L366.537 51.9234C366.386 51.4022 365.965 51.0029 365.437 50.8799L359.769 49.5618C359.34 49.462 359.241 48.8963 359.61 48.6558L364.484 45.4778C364.939 45.1815 365.198 44.6631 365.162 44.1219L364.744 37.8926Z" fill="#BDE3EF" stroke="#5BC3CF"/>
<path d="M49.676 343.651C49.3196 343.15 50.008 342.572 50.4398 343.01L59.1737 351.877C59.5044 352.213 59.9741 352.373 60.4411 352.31L68.9562 351.175C69.3195 351.126 69.61 351.472 69.4992 351.822L66.9022 360.01C66.7598 360.459 66.8356 360.95 67.1088 361.334L74.324 371.475C74.6804 371.976 73.9921 372.553 73.5602 372.115L64.8256 363.249C64.4949 362.914 64.026 362.753 63.559 362.816L55.0439 363.951C54.6806 364 54.3901 363.653 54.5009 363.304L57.0979 355.116C57.2403 354.666 57.1636 354.177 56.8906 353.793L49.676 343.651Z" fill="#BDE3EF" stroke="#5BC3CF"/>
<path d="M111.118 448.082C111.112 446.675 112.872 446.034 113.772 447.116L118.137 452.367C118.722 453.071 119.646 453.399 120.544 453.222L126.045 452.134C127.726 451.802 128.56 454.094 127.059 454.92L122.146 457.623C121.344 458.064 120.847 458.909 120.851 459.824L120.882 466.652C120.889 468.059 119.128 468.7 118.228 467.618L113.863 462.368C113.277 461.664 112.354 461.336 111.456 461.514L105.956 462.601C104.275 462.933 103.44 460.641 104.942 459.815L109.854 457.112C110.656 456.671 111.153 455.826 111.149 454.911L111.118 448.082Z" fill="#BDE3EF" stroke="#5BC3CF"/>
</g>
<defs>
<clipPath id="clip0_66_1560">
<rect width="512" height="512" fill="white"/>
</clipPath>
</defs>
</svg>
