<svg width="512" height="512" viewBox="0 0 512 512" fill="none" xmlns="http://www.w3.org/2000/svg">
<g clip-path="url(#clip0_73_1977)">
<path d="M223.5 516C226.3 489.2 255.333 412 269 380L348 386C343.2 403.6 348 482.167 350 516H223.5Z" fill="#7ACEE7" stroke="black" stroke-linecap="round"/>
<path d="M422.5 291.5C414.1 338.7 369.333 374.5 348 386.5C328.167 389.5 284.7 392.4 269.5 380C250.5 364.5 209.5 335.5 211.5 260.5C213.5 185.5 258 153.5 332.5 157.5C407 161.5 433 232.5 422.5 291.5Z" fill="#7ACEE7"/>
<path d="M354 383C391.5 399 470.5 436.9 486.5 460.5C487.833 463.667 485.4 473.4 465 487C444.6 500.6 421.5 513 417.5 515L283.5 513.5C281 501.667 283.5 471.5 302.5 470C321.5 468.5 324.673 486.26 336 495.183C366.031 488.619 421.027 475.141 451 463.44C438.833 452.294 400.8 425 346 405L344 389L354 383Z" fill="#7ACEE7"/>
<path d="M262.5 396.5L271.5 376C267.5 373.5 136.5 360 102 374C74.4 385.2 44.5 428.333 33 448.5C18.2 450.1 6.83334 462.5 3 468.5C-5.8 493.3 21 510 34 513.5L83.5 512.5C95.9 488.5 80.3333 464.667 71.5 457C81.1 431.8 101.5 407.5 110.5 398.5C140.9 389.7 224.5 393.5 262.5 396.5Z" fill="#7ACEE7"/>
<path d="M285.5 513C274 503.5 279.5 473.371 303.5 469.5C319 467 325.431 485.676 335.611 494M335.611 494C339.533 497.207 342.72 500.164 344.5 502.5L335.611 494ZM335.611 494C367.5 490.5 433 471.4 451 463C443.911 457.767 434.482 450.208 422.5 442.5C398.988 427.375 367.992 411.359 346 405" stroke="black" stroke-linecap="round"/>
<path d="M354 383C377 392.5 478 439.5 486.5 461C491.325 473.205 439.833 504 420 513.5H284" stroke="black" stroke-linecap="round"/>
<path d="M266 387.5L262 396.5C221.5 393.833 134.4 390.5 110 398.5C102 407 81.5 429.3 71.5 456.5C71.6648 456.643 71.8315 456.791 72 456.943M70.5 513H33.5C26 510 5.30001 500.9 2.50001 486.5C1.66667 483.333 0.200024 474.9 3.00002 468.5C6.50002 460.5 18.5 451.5 33 448.5M70.5 513C76.5 513 81.5 500.5 82.5 493C84.6627 476.78 78.1381 462.498 72 456.943M70.5 513L83.5 512C96.7 490.4 81 465.629 72 456.943M33 448.5C47.5 445.5 60.5 449.887 72 456.943M33 448.5C43.3334 429.667 71.2 388.6 100 375C128.8 361.4 221 369.333 263.5 375" stroke="black" stroke-linecap="round"/>
<path d="M347.5 387C370.5 372.5 404.5 349.5 420.5 299.5C427.667 270.667 429.5 206.5 381 173C371.5 167.5 361 161.5 346 159C317.5 156 288.242 155.362 262.5 168C233.5 181.5 211 211.5 211.5 270.5C211.5 284.5 213 307.5 229 336C248.5 367 256.31 367.986 270.5 381.5" stroke="black" stroke-linecap="round"/>
<path d="M345 398C346 398.5 346.5 405 346 405" stroke="black" stroke-linecap="round"/>
<path d="M451 463C454.333 462 462.2 459.2 467 456" stroke="black" stroke-linecap="round"/>
<path d="M109.5 399C110.5 396.833 112.1 391.8 110.5 389" stroke="black" stroke-linecap="round"/>
<ellipse cx="324.5" cy="260" rx="8.5" ry="9" fill="black"/>
<ellipse cx="356.5" cy="262" rx="8.5" ry="9" fill="black"/>
<ellipse cx="326" cy="259.5" rx="3" ry="3.5" fill="white"/>
<ellipse cx="357" cy="261.5" rx="3" ry="3.5" fill="white"/>
<path d="M314.123 302.114C321.723 305.714 323.623 309.114 338.623 309.114C343.456 308.614 354.423 306.114 359.623 300.114C364.823 294.114 371.79 291.614 374.623 291.114C390.123 289.614 399.623 303.114 397.123 316.614C394.623 330.114 387.123 335.114 373.623 340.614C360.123 346.114 354.623 345.614 333.123 346.614C315.923 347.414 302.623 345.614 298.123 344.614C267.623 332.114 271.123 323.614 270.123 316.614C269.123 309.614 274.123 296.114 288.623 295.614C303.123 295.114 304.623 297.614 314.123 302.114Z" fill="#A0212E" stroke="black"/>
<path d="M315.787 338.566C312.016 343.766 310.025 345 311 346L297.5 344.5L285.5 338.566C287.833 336.399 294.1 330.966 298.5 328.566C304 325.566 323.5 324.566 324 329.066C324.5 333.566 320.5 332.066 315.787 338.566Z" fill="#F0ABE9" stroke="black"/>
<mask id="mask0_73_1977" style="mask-type:alpha" maskUnits="userSpaceOnUse" x="269" y="290" width="130" height="58">
<path d="M314.123 302.114C321.723 305.714 323.623 309.114 338.623 309.114C343.456 308.614 354.423 306.114 359.623 300.114C364.823 294.114 371.79 291.614 374.623 291.114C390.123 289.614 399.623 303.114 397.123 316.614C394.623 330.114 387.123 335.114 373.623 340.614C360.123 346.114 354.623 345.614 333.123 346.614C315.923 347.414 302.623 345.614 298.123 344.614C267.623 332.114 271.123 323.614 270.123 316.614C269.123 309.614 274.123 296.114 288.623 295.614C303.123 295.114 304.623 297.614 314.123 302.114Z" fill="#AF1D27" stroke="black"/>
</mask>
<g mask="url(#mask0_73_1977)">
<path d="M329.623 338.114C328.041 338.114 326.553 339.051 325.439 340.679C324.327 342.305 323.623 344.579 323.623 347.114C323.623 349.65 324.327 351.924 325.439 353.55C326.553 355.178 328.041 356.114 329.623 356.114C331.205 356.114 332.693 355.178 333.807 353.55C334.919 351.924 335.623 349.65 335.623 347.114C335.623 344.579 334.919 342.305 333.807 340.679C332.693 339.051 331.205 338.114 329.623 338.114Z" fill="white" stroke="black"/>
<path d="M313.123 340.114C311.977 340.114 310.864 340.859 310.012 342.223C309.164 343.579 308.623 345.484 308.623 347.614C308.623 349.745 309.164 351.65 310.012 353.006C310.864 354.37 311.977 355.114 313.123 355.114C314.269 355.114 315.382 354.37 316.234 353.006C317.082 351.65 317.623 349.745 317.623 347.614C317.623 345.484 317.082 343.579 316.234 342.223C315.382 340.859 314.269 340.114 313.123 340.114Z" fill="white" stroke="black"/>
<path d="M300.115 338.151C298.669 337.896 297.185 338.437 295.949 339.593C294.712 340.749 293.75 342.501 293.384 344.58C293.017 346.659 293.322 348.634 294.088 350.143C294.855 351.652 296.064 352.668 297.51 352.923C298.956 353.178 300.439 352.637 301.675 351.481C302.912 350.325 303.875 348.573 304.241 346.494C304.608 344.415 304.302 342.44 303.536 340.931C302.769 339.422 301.561 338.406 300.115 338.151Z" fill="white" stroke="black"/>
<path d="M344.791 339.548C343.649 339.648 342.605 340.487 341.875 341.92C341.149 343.345 340.776 345.29 340.962 347.412C341.148 349.534 341.852 351.385 342.815 352.662C343.783 353.946 344.957 354.591 346.098 354.491C347.24 354.391 348.284 353.552 349.014 352.12C349.74 350.695 350.113 348.75 349.928 346.628C349.742 344.505 349.037 342.655 348.074 341.378C347.107 340.094 345.933 339.448 344.791 339.548Z" fill="white" stroke="black"/>
<path d="M359.058 338.391C357.905 338.7 356.991 339.595 356.468 340.855C355.944 342.115 355.826 343.715 356.264 345.352C356.703 346.988 357.606 348.315 358.689 349.144C359.772 349.973 361.011 350.291 362.164 349.983C363.317 349.674 364.231 348.779 364.754 347.519C365.278 346.259 365.396 344.659 364.958 343.022C364.519 341.386 363.617 340.059 362.533 339.23C361.45 338.401 360.211 338.083 359.058 338.391Z" fill="white" stroke="black"/>
<path d="M373.599 332.795C372.271 333.202 371.256 334.394 370.74 336.108C370.226 337.819 370.232 339.993 370.911 342.215C371.59 344.437 372.801 346.242 374.184 347.373C375.57 348.506 377.078 348.927 378.407 348.52C379.736 348.114 380.75 346.922 381.266 345.208C381.78 343.497 381.774 341.323 381.095 339.101C380.416 336.879 379.205 335.074 377.822 333.943C376.436 332.81 374.928 332.389 373.599 332.795Z" fill="white" stroke="black"/>
<path d="M334.623 300.114C333.041 300.114 331.553 301.051 330.439 302.679C329.327 304.305 328.623 306.579 328.623 309.114C328.623 311.65 329.327 313.924 330.439 315.55C331.553 317.178 333.041 318.114 334.623 318.114C336.205 318.114 337.693 317.178 338.807 315.55C339.919 313.924 340.623 311.65 340.623 309.114C340.623 306.579 339.919 304.305 338.807 302.679C337.693 301.051 336.205 300.114 334.623 300.114Z" fill="white" stroke="black"/>
<path d="M348.359 296.635C346.965 296.757 345.691 297.87 344.811 299.78C343.938 301.675 343.505 304.259 343.752 307.077C343.998 309.895 344.873 312.364 346.062 314.079C347.261 315.807 348.708 316.681 350.102 316.559C351.497 316.437 352.77 315.325 353.65 313.415C354.524 311.52 354.956 308.936 354.71 306.118C354.463 303.3 353.589 300.831 352.399 299.116C351.201 297.388 349.754 296.513 348.359 296.635Z" fill="white" stroke="black"/>
<path d="M357.379 289.537C355.822 290.135 354.722 291.667 354.267 293.783C353.814 295.893 354.023 298.52 355.032 301.149C356.042 303.779 357.644 305.871 359.393 307.136C361.146 308.404 362.989 308.806 364.546 308.209C366.104 307.611 367.204 306.078 367.658 303.963C368.112 301.852 367.903 299.226 366.893 296.596C365.884 293.967 364.282 291.875 362.533 290.61C360.779 289.342 358.936 288.939 357.379 289.537Z" fill="white" stroke="black"/>
<path d="M372.839 282.149C371.263 282.287 369.862 283.349 368.894 285.068C367.928 286.785 367.425 289.111 367.646 291.637C367.867 294.163 368.766 296.367 370.016 297.89C371.268 299.415 372.832 300.218 374.407 300.08C375.983 299.942 377.384 298.88 378.352 297.161C379.318 295.444 379.821 293.118 379.6 290.592C379.379 288.065 378.48 285.861 377.23 284.339C375.978 282.814 374.414 282.011 372.839 282.149Z" fill="white" stroke="black"/>
<path d="M319.123 295.114C317.398 295.114 315.785 296.113 314.583 297.83C313.382 299.546 312.623 301.943 312.623 304.614C312.623 307.286 313.382 309.683 314.583 311.399C315.785 313.116 317.398 314.114 319.123 314.114C320.848 314.114 322.461 313.116 323.663 311.399C324.864 309.683 325.623 307.286 325.623 304.614C325.623 301.943 324.864 299.546 323.663 297.83C322.461 296.113 320.848 295.114 319.123 295.114Z" fill="white" stroke="black"/>
<path d="M302.123 288.114C300.398 288.114 298.785 289.113 297.583 290.83C296.382 292.546 295.623 294.943 295.623 297.614C295.623 300.286 296.382 302.683 297.583 304.399C298.785 306.116 300.398 307.114 302.123 307.114C303.848 307.114 305.461 306.116 306.663 304.399C307.864 302.683 308.623 300.286 308.623 297.614C308.623 294.943 307.864 292.546 306.663 290.83C305.461 289.113 303.848 288.114 302.123 288.114Z" fill="white" stroke="black"/>
</g>
<path d="M314.123 302.114C321.723 305.714 323.623 309.114 338.623 309.114C343.456 308.614 354.423 306.114 359.623 300.114C364.823 294.114 371.79 291.614 374.623 291.114C390.123 289.614 399.623 303.114 397.123 316.614C394.623 330.114 387.123 335.114 373.623 340.614C360.123 346.114 354.623 345.614 333.123 346.614C315.923 347.414 302.623 345.614 298.123 344.614C267.623 332.114 271.123 323.614 270.123 316.614C269.123 309.614 274.123 296.114 288.623 295.614C303.123 295.114 304.623 297.614 314.123 302.114Z" stroke="black"/>
<path d="M281.5 283C265.833 290.167 242.4 313.6 274 350" stroke="black" stroke-linecap="round"/>
<path d="M338.5 360.5C355.833 360.833 394.912 349.5 403 327.5C415.5 293.5 386 283.5 381.5 283.5" stroke="black" stroke-linecap="round"/>
<path d="M303.5 378.5C313.333 384.667 336.1 390.8 348.5 366" stroke="black" stroke-linecap="round"/>
<path d="M311 221C314.333 217.833 322.8 211.5 330 211.5" stroke="black" stroke-linecap="round"/>
<path d="M357.5 216.5C361 217.5 369 222 373 232" stroke="black" stroke-linecap="round"/>
<path d="M31 512L83.5 512" stroke="black" stroke-linecap="round"/>
<path d="M224 511.866L423.682 511.866" stroke="black" stroke-linecap="round"/>
</g>
<defs>
<clipPath id="clip0_73_1977">
<rect width="512" height="512" fill="white"/>
</clipPath>
</defs>
</svg>
