<svg width="512" height="512" viewBox="0 0 512 512" fill="none" xmlns="http://www.w3.org/2000/svg">
<g clip-path="url(#clip0_76_2397)">
<circle cx="335.5" cy="135.5" r="5" stroke="black"/>
<path d="M207.959 512.464C227.663 468.309 225.259 382.519 221.594 345.144L216.756 322.545L288.887 313.853C309.119 421.633 328.823 469.7 328.471 512.464H207.959Z" fill="#7ACEE7"/>
<path d="M81.7293 409.899C95.8037 400.512 177.611 348.041 216.756 322.979L222.034 343.84C191.774 356.357 134.362 398.663 109.438 418.252C134.972 437.362 175.67 466.027 194.764 472.916C216.932 480.912 221.301 502.323 220.714 512.029H177.611C158.259 494.645 66.3354 420.166 81.7293 409.899Z" fill="#7ACEE7"/>
<path d="M288.447 313.853C385.649 353.836 456.461 365.135 436.668 388.169L362.778 491.169C364.744 492.557 368.433 495.833 368.12 498.246C370.112 489.264 382.932 482.253 383.28 512.5H328.138C328.138 504.677 326.712 485.171 323.193 471.612C344.663 449.294 387.96 404.971 409.867 382.954C382.442 369.337 320.291 340.885 292.845 336.017L288.447 313.853Z" fill="#7ACEE7"/>
<path d="M141.985 237.364C146.56 282.562 191.979 314.432 214.117 324.718L288.887 313.853C323.193 278.651 332.43 244.317 326.712 204.769C320.994 165.221 283.609 130.018 227.311 134.364C171.014 138.71 136.268 180.866 141.985 237.364Z" fill="#7ACEE7"/>
<path d="M204.88 255.617C211.478 246.49 282.29 239.537 299.003 241.275" stroke="black" stroke-linecap="round"/>
<path d="M196.893 244.752C190.736 251.995 184.402 266.743 208.329 267.786" stroke="black" stroke-linecap="round"/>
<path d="M299.883 228.237C306.04 228.237 325.832 236.929 298.563 258.659" stroke="black" stroke-linecap="round"/>
<path d="M238.747 310.811C246.517 314.577 264.697 316.374 275.252 293.427" stroke="black" stroke-linecap="round"/>
<ellipse cx="216.833" cy="324.596" rx="1.02114" ry="1.07681" fill="#7ACEE7"/>
<path d="M221.594 344.275C198.283 353.401 146.735 387.561 109.438 418.156M221.594 344.275C225.76 374.963 225.491 442.582 215.674 490.3M221.594 344.275C221.447 343.84 221.154 342.71 221.154 341.667M109.438 418.156C127.911 431.194 173.653 465.374 187.727 469.873C202.681 474.654 210.598 482.477 215.674 490.3M109.438 418.156C107.826 417.287 103.545 414.593 99.3223 410.768M215.674 490.3C217.941 494.501 222.008 505.546 219.897 512.5M214.117 324.718C176.145 349.2 98.5306 399.208 91.8453 403.38C85.1599 407.552 81.4361 410.623 80.4098 411.637C74.2522 423.372 141.818 482.078 178.03 512.5H219.897M214.117 324.718C189.047 313.418 141.897 275.695 141.546 232.583C141.106 213.026 141.985 154.356 210.598 136.972C255.9 126.107 328.032 144.23 328.032 223.891C328.032 256.055 315.716 287.343 288.887 313.853M214.117 324.718C214.557 324.863 215.788 325.153 217.196 325.153M288.887 313.853C367.176 348.621 443.266 359.486 439.747 383.389C438.932 387.59 435.358 389.743 433.275 392.515C408.541 427.38 367.927 484.491 362.778 491.169M288.887 313.853C288.447 314.288 288.887 313.853 286.248 316.461M362.778 491.169C362.191 490.734 360.304 489.887 358.379 490.3M362.778 491.169C364.684 492.473 368.408 495.689 368.056 498.122M368.056 498.122C367.762 500.15 367.264 504.381 367.616 505.076M368.056 498.122C369.815 493.342 374.653 485.954 379.931 493.342C381.25 494.935 383.885 501.722 383.533 512.5H219.897" stroke="black" stroke-linecap="round"/>
<path d="M409.839 382.954C397.524 375.566 328.911 344.275 293.285 336.017C309.119 411.637 331.198 490.3 328.032 511.16M409.839 382.954C381.25 411.782 323.543 470 323.543 471.043M409.839 382.954C411.598 380.926 415.997 376.261 419.515 373.827" stroke="black" stroke-linecap="round"/>
<path d="M293.285 336.018L292.846 334.279" stroke="black" stroke-linecap="round"/>
<path d="M177.009 511.962L383.28 511.962" stroke="black" stroke-linecap="round"/>
<path d="M263 193.311C258.12 190.986 257.705 171.567 247.426 184.285" stroke="black"/>
<path d="M239.951 190.353C238.601 190.9 233.41 180.507 225 191.994" stroke="black"/>
<ellipse cx="5.29508" cy="7.38462" rx="5.29508" ry="7.38462" transform="matrix(-1 0 0 1 258.016 195.59)" fill="black"/>
<ellipse cx="5.29508" cy="7.38462" rx="5.29508" ry="7.38462" transform="matrix(-1 0 0 1 238.082 197.231)" fill="black"/>
<ellipse cx="1.86885" cy="2.87179" rx="1.86885" ry="2.87179" transform="matrix(-1 0 0 1 253.656 199.692)" fill="white"/>
<ellipse cx="1.86885" cy="2.87179" rx="1.86885" ry="2.87179" transform="matrix(-1 0 0 1 234.344 201.333)" fill="white"/>
</g>
<defs>
<clipPath id="clip0_76_2397">
<rect width="512" height="512" fill="white"/>
</clipPath>
</defs>
</svg>
