<svg width="512" height="512" viewBox="0 0 512 512" fill="none" xmlns="http://www.w3.org/2000/svg">
<g clip-path="url(#clip0_75_2232)">
<path d="M283.317 518.832C280.517 492.032 251.484 414.832 237.817 382.832L158.817 388.832C163.617 406.432 158.817 484.999 156.817 518.832H283.317Z" fill="#7ACEE7" stroke="black" stroke-linecap="round"/>
<path d="M84.3174 294.332C92.7174 341.532 137.484 377.332 158.817 389.332C178.651 392.332 222.117 395.232 237.317 382.832C256.317 367.332 297.317 338.332 295.317 263.332C293.317 188.332 248.817 156.332 174.317 160.332C99.8174 164.332 73.8174 235.332 84.3174 294.332Z" fill="#7ACEE7"/>
<path d="M152.817 385.832C115.317 401.832 36.3174 439.732 20.3174 463.332C18.9841 466.499 21.4174 476.232 41.8174 489.832C62.2174 503.432 85.3174 515.832 89.3174 517.832L223.317 516.332C225.817 504.499 223.317 474.332 204.317 472.832C185.317 471.332 182.144 489.093 170.817 498.016C140.787 491.451 85.7904 477.973 55.8174 466.272C67.9841 455.126 106.017 427.832 160.817 407.832L162.817 391.832L152.817 385.832Z" fill="#7ACEE7"/>
<path d="M244.317 399.332L235.317 378.832C239.317 376.332 370.317 362.832 404.817 376.832C432.417 388.032 462.317 431.165 473.817 451.332C488.617 452.932 499.984 465.332 503.817 471.332C512.617 496.132 485.817 512.832 472.817 516.332L423.317 515.332C410.917 491.332 426.484 467.499 435.317 459.832C425.717 434.632 405.317 410.332 396.317 401.332C365.917 392.532 282.317 396.332 244.317 399.332Z" fill="#7ACEE7"/>
<path d="M221.318 515.832C232.817 506.332 227.317 476.203 203.317 472.332C187.817 469.832 181.387 488.509 171.207 496.832M171.207 496.832C167.285 500.039 164.097 502.996 162.317 505.332L171.207 496.832ZM171.207 496.832C139.317 493.332 73.8175 474.232 55.8175 465.832C62.9067 460.6 72.3351 453.04 84.3174 445.332C107.83 430.207 138.825 414.191 160.817 407.832" stroke="black" stroke-linecap="round"/>
<path d="M152.817 385.832C129.817 395.332 28.8174 442.332 20.3174 463.832C15.4921 476.037 66.984 506.832 86.8174 516.332H222.817" stroke="black" stroke-linecap="round"/>
<path d="M240.817 390.332L244.817 399.332C285.317 396.665 372.417 393.332 396.817 401.332C404.817 409.832 425.317 432.132 435.317 459.332C435.153 459.475 434.986 459.623 434.817 459.775M436.317 515.832H473.317C480.817 512.832 501.517 503.732 504.317 489.332C505.151 486.165 506.617 477.732 503.817 471.332C500.317 463.332 488.317 454.332 473.817 451.332M436.317 515.832C430.317 515.832 425.317 503.332 424.317 495.832C422.155 479.612 428.679 465.33 434.817 459.775M436.317 515.832L423.317 514.832C410.117 493.232 425.817 468.461 434.817 459.775M473.817 451.332C459.317 448.332 446.317 452.719 434.817 459.775M473.817 451.332C463.484 432.499 435.617 391.432 406.817 377.832C378.017 364.232 285.817 372.165 243.317 377.832" stroke="black" stroke-linecap="round"/>
<path d="M159.317 389.832C136.317 375.332 102.317 352.332 86.3174 302.332C79.1507 273.499 77.3174 209.332 125.817 175.832C135.317 170.332 145.817 164.332 160.817 161.832C189.317 158.832 218.575 158.194 244.317 170.832C273.317 184.332 295.817 214.332 295.317 273.332C295.317 287.332 293.817 310.332 277.817 338.832C258.317 369.832 250.507 370.818 236.317 384.332" stroke="black" stroke-linecap="round"/>
<path d="M161.817 400.832C160.817 401.332 160.317 407.832 160.817 407.832" stroke="black" stroke-linecap="round"/>
<path d="M55.8174 465.832C52.484 464.832 44.6174 462.032 39.8174 458.832" stroke="black" stroke-linecap="round"/>
<path d="M397.317 401.832C396.317 399.665 394.717 394.632 396.317 391.832" stroke="black" stroke-linecap="round"/>
<ellipse cx="8.5" cy="9" rx="8.5" ry="9" transform="matrix(-1 0 0 1 190.817 253.832)" fill="black"/>
<ellipse cx="8.5" cy="9" rx="8.5" ry="9" transform="matrix(-1 0 0 1 158.817 255.832)" fill="black"/>
<ellipse cx="3" cy="3.5" rx="3" ry="3.5" transform="matrix(-1 0 0 1 183.817 258.832)" fill="white"/>
<ellipse cx="3" cy="3.5" rx="3" ry="3.5" transform="matrix(-1 0 0 1 152.817 260.832)" fill="white"/>
<path d="M192.694 304.947C185.094 308.547 183.194 311.947 168.194 311.947C163.361 311.447 152.394 308.947 147.194 302.947C141.994 296.947 135.028 294.447 132.194 293.947C116.694 292.447 107.194 305.947 109.694 319.447C112.194 332.947 119.694 337.947 133.194 343.447C146.694 348.947 152.194 348.447 173.694 349.447C190.894 350.247 204.194 348.447 208.694 347.447C239.194 334.947 235.694 326.447 236.694 319.447C237.694 312.447 232.694 298.947 218.194 298.447C203.694 297.947 202.194 300.447 192.694 304.947Z" fill="#A0212E" stroke="black"/>
<path d="M191.03 341.398C194.801 346.598 196.793 347.832 195.817 348.832L209.317 347.332L221.317 341.398C218.984 339.231 212.717 333.798 208.317 331.398C202.817 328.398 183.317 327.398 182.817 331.898C182.317 336.398 186.317 334.898 191.03 341.398Z" fill="#F0ABE9" stroke="black"/>
<mask id="mask0_75_2232" style="mask-type:alpha" maskUnits="userSpaceOnUse" x="108" y="293" width="130" height="58">
<path d="M192.694 304.947C185.094 308.547 183.194 311.947 168.194 311.947C163.361 311.447 152.394 308.947 147.194 302.947C141.994 296.947 135.028 294.447 132.194 293.947C116.694 292.447 107.194 305.947 109.694 319.447C112.194 332.947 119.694 337.947 133.194 343.447C146.694 348.947 152.194 348.447 173.694 349.447C190.894 350.247 204.194 348.447 208.694 347.447C239.194 334.947 235.694 326.447 236.694 319.447C237.694 312.447 232.694 298.947 218.194 298.447C203.694 297.947 202.194 300.447 192.694 304.947Z" fill="#AF1D27" stroke="black"/>
</mask>
<g mask="url(#mask0_75_2232)">
<path d="M177.194 340.947C178.776 340.947 180.264 341.883 181.378 343.511C182.49 345.137 183.194 347.411 183.194 349.947C183.194 352.482 182.49 354.756 181.378 356.382C180.264 358.01 178.776 358.947 177.194 358.947C175.613 358.947 174.125 358.01 173.011 356.382C171.898 354.756 171.194 352.482 171.194 349.947C171.194 347.411 171.898 345.137 173.011 343.511C174.125 341.883 175.613 340.947 177.194 340.947Z" fill="white" stroke="black"/>
<path d="M193.694 342.947C194.84 342.947 195.953 343.692 196.806 345.055C197.653 346.411 198.194 348.316 198.194 350.447C198.194 352.577 197.653 354.482 196.806 355.838C195.953 357.202 194.84 357.947 193.694 357.947C192.548 357.947 191.435 357.202 190.583 355.838C189.735 354.482 189.194 352.577 189.194 350.447C189.194 348.316 189.735 346.411 190.583 345.055C191.435 343.692 192.548 342.947 193.694 342.947Z" fill="white" stroke="black"/>
<path d="M206.703 340.983C208.148 340.728 209.632 341.269 210.869 342.425C212.105 343.581 213.067 345.333 213.434 347.412C213.8 349.491 213.496 351.466 212.729 352.975C211.963 354.484 210.753 355.5 209.307 355.755C207.861 356.01 206.378 355.469 205.142 354.313C203.905 353.157 202.943 351.406 202.576 349.326C202.209 347.247 202.515 345.272 203.282 343.763C204.048 342.254 205.257 341.238 206.703 340.983Z" fill="white" stroke="black"/>
<path d="M162.026 342.38C163.168 342.48 164.212 343.319 164.942 344.752C165.668 346.177 166.041 348.122 165.855 350.244C165.67 352.366 164.965 354.217 164.002 355.494C163.034 356.778 161.861 357.423 160.719 357.323C159.577 357.224 158.533 356.384 157.803 354.952C157.077 353.527 156.704 351.582 156.89 349.46C157.075 347.337 157.78 345.487 158.743 344.21C159.711 342.926 160.884 342.281 162.026 342.38Z" fill="white" stroke="black"/>
<path d="M147.759 341.224C148.912 341.533 149.826 342.428 150.35 343.687C150.873 344.947 150.991 346.548 150.553 348.184C150.114 349.82 149.212 351.147 148.128 351.977C147.045 352.806 145.806 353.124 144.653 352.815C143.501 352.506 142.586 351.611 142.063 350.351C141.539 349.091 141.421 347.491 141.86 345.855C142.298 344.218 143.201 342.891 144.284 342.062C145.367 341.233 146.606 340.915 147.759 341.224Z" fill="white" stroke="black"/>
<path d="M133.218 335.628C134.547 336.034 135.562 337.226 136.077 338.94C136.592 340.651 136.586 342.825 135.907 345.047C135.227 347.269 134.016 349.075 132.633 350.205C131.247 351.338 129.739 351.759 128.41 351.352C127.082 350.946 126.067 349.754 125.552 348.04C125.037 346.329 125.043 344.155 125.722 341.933C126.402 339.712 127.613 337.906 128.996 336.775C130.382 335.643 131.889 335.222 133.218 335.628Z" fill="white" stroke="black"/>
<path d="M172.194 302.947C173.776 302.947 175.264 303.883 176.378 305.511C177.49 307.137 178.194 309.411 178.194 311.947C178.194 314.482 177.49 316.756 176.378 318.382C175.264 320.01 173.776 320.947 172.194 320.947C170.613 320.947 169.125 320.01 168.011 318.382C166.898 316.756 166.194 314.482 166.194 311.947C166.194 309.411 166.898 307.137 168.011 305.511C169.125 303.883 170.613 302.947 172.194 302.947Z" fill="white" stroke="black"/>
<path d="M158.458 299.468C159.853 299.59 161.126 300.702 162.006 302.612C162.88 304.507 163.312 307.091 163.066 309.909C162.819 312.727 161.944 315.196 160.755 316.911C159.557 318.639 158.11 319.514 156.715 319.392C155.32 319.27 154.047 318.157 153.167 316.247C152.294 314.352 151.861 311.768 152.108 308.95C152.354 306.132 153.229 303.663 154.418 301.948C155.617 300.22 157.064 299.346 158.458 299.468Z" fill="white" stroke="black"/>
<path d="M149.438 292.369C150.995 292.967 152.095 294.499 152.55 296.615C153.004 298.725 152.795 301.352 151.785 303.981C150.776 306.611 149.174 308.703 147.424 309.968C145.671 311.236 143.828 311.638 142.271 311.041C140.714 310.443 139.614 308.911 139.159 306.795C138.705 304.684 138.915 302.058 139.924 299.428C140.933 296.799 142.535 294.707 144.285 293.442C146.038 292.174 147.881 291.771 149.438 292.369Z" fill="white" stroke="black"/>
<path d="M133.979 284.981C135.554 285.119 136.955 286.181 137.923 287.9C138.889 289.617 139.393 291.943 139.172 294.47C138.951 296.996 138.051 299.2 136.801 300.722C135.549 302.247 133.986 303.05 132.41 302.912C130.834 302.774 129.434 301.712 128.466 299.993C127.499 298.277 126.996 295.95 127.217 293.424C127.438 290.898 128.338 288.694 129.588 287.171C130.839 285.646 132.403 284.843 133.979 284.981Z" fill="white" stroke="black"/>
<path d="M187.694 297.947C189.419 297.947 191.032 298.945 192.234 300.662C193.435 302.378 194.194 304.775 194.194 307.447C194.194 310.118 193.435 312.515 192.234 314.231C191.032 315.948 189.419 316.947 187.694 316.947C185.969 316.947 184.356 315.948 183.154 314.231C181.953 312.515 181.194 310.118 181.194 307.447C181.194 304.775 181.953 302.378 183.154 300.662C184.356 298.945 185.969 297.947 187.694 297.947Z" fill="white" stroke="black"/>
<path d="M204.694 290.947C206.419 290.947 208.032 291.945 209.234 293.662C210.435 295.378 211.194 297.775 211.194 300.447C211.194 303.118 210.435 305.515 209.234 307.231C208.032 308.948 206.419 309.947 204.694 309.947C202.969 309.947 201.356 308.948 200.154 307.231C198.953 305.515 198.194 303.118 198.194 300.447C198.194 297.775 198.953 295.378 200.154 293.662C201.356 291.945 202.969 290.947 204.694 290.947Z" fill="white" stroke="black"/>
</g>
<path d="M192.694 304.947C185.094 308.547 183.194 311.947 168.194 311.947C163.361 311.447 152.394 308.947 147.194 302.947C141.994 296.947 135.028 294.447 132.194 293.947C116.694 292.447 107.194 305.947 109.694 319.447C112.194 332.947 119.694 337.947 133.194 343.447C146.694 348.947 152.194 348.447 173.694 349.447C190.894 350.247 204.194 348.447 208.694 347.447C239.194 334.947 235.694 326.447 236.694 319.447C237.694 312.447 232.694 298.947 218.194 298.447C203.694 297.947 202.194 300.447 192.694 304.947Z" stroke="black"/>
<path d="M225.317 285.832C240.984 292.999 264.417 316.432 232.817 352.832" stroke="black" stroke-linecap="round"/>
<path d="M168.317 363.332C150.984 363.665 111.906 352.332 103.817 330.332C91.3174 296.332 120.817 286.332 125.317 286.332" stroke="black" stroke-linecap="round"/>
<path d="M203.317 381.332C193.484 387.499 170.717 393.632 158.317 368.832" stroke="black" stroke-linecap="round"/>
<path d="M133.817 223.832C137.151 220.665 145.617 214.332 152.817 214.332" stroke="black" stroke-linecap="round"/>
<path d="M180.317 219.332C183.817 220.332 191.817 224.832 195.817 234.832" stroke="black" stroke-linecap="round"/>
</g>
<defs>
<clipPath id="clip0_75_2232">
<rect width="512" height="512" fill="white"/>
</clipPath>
</defs>
</svg>
