<svg width="512" height="512" viewBox="0 0 512 512" fill="none" xmlns="http://www.w3.org/2000/svg">
<g clip-path="url(#clip0_66_1231)">
<g opacity="0.31">
<path d="M187.5 443C182.5 467.5 178 512 178 512H282C283.5 506.167 283.4 484.2 271 443C258.6 401.8 265.167 378.833 270 372.5C287.833 366.667 329 353.3 351 346.5C378.5 338 384.5 336.5 396.5 332.5C408.5 328.5 407.5 325 437 291C466.5 257 478 245 483.5 226.5C489 208 477 202 472.5 202C469.5 202 450 207 448 230C447 236.5 449.6 211.3 444 212.5C437 214 441.5 233 441 244C440.5 255 413.5 295 401 306.5C388.5 318 374.7 322.9 345.5 332.5C309 344.5 327 341.5 284.5 349C250.5 355 221.333 349.167 211 345.5C211.333 347.333 211.2 353 208 361C178.667 354.5 116.4 339.1 102 329.5C84 317.5 65 244.5 67 220C69 195.5 76.8 182.6 70 185C61.5 188 63.5 202 63.5 203.5C63.5 205 62 170.5 43 171.5C24 172.5 27 194.5 27.5 200C28 205.5 42.5 263.5 60.5 300C78.5 336.5 80.5 335.5 89 340.5C92.7137 342.685 104.939 350.501 131 358.5C152.658 365.148 187.275 371.81 203.278 376.5C201.565 382.374 199.208 390.667 197.5 397.5C194.5 409.5 192.5 418.5 187.5 443Z" fill="#7ACEE7"/>
<path d="M205.5 369C205.5 369 204.573 372.059 203.278 376.5M270 372.5C265.167 378.833 258.6 401.8 271 443C283.4 484.2 283.5 506.167 282 512H178C178 512 182.5 467.5 187.5 443C192.5 418.5 194.5 409.5 197.5 397.5C199.208 390.667 201.565 382.374 203.278 376.5M270 372.5C287.833 366.667 329 353.3 351 346.5C378.5 338 384.5 336.5 396.5 332.5C408.5 328.5 407.5 325 437 291C466.5 257 478 245 483.5 226.5C489 208 477 202 472.5 202C469.5 202 450 207 448 230C447 236.5 449.6 211.3 444 212.5C437 214 441.5 233 441 244C440.5 255 413.5 295 401 306.5C388.5 318 374.7 322.9 345.5 332.5C309 344.5 327 341.5 284.5 349C250.5 355 221.333 349.167 211 345.5C211.333 347.333 211.2 353 208 361C178.667 354.5 116.4 339.1 102 329.5C84 317.5 65 244.5 67 220C69 195.5 76.8 182.6 70 185C61.5 188 63.5 202 63.5 203.5C63.5 205 62 170.5 43 171.5C24 172.5 27 194.5 27.5 200C28 205.5 42.5 263.5 60.5 300C78.5 336.5 80.5 335.5 89 340.5C92.7137 342.685 104.939 350.501 131 358.5C152.658 365.148 187.275 371.81 203.278 376.5M270 372.5C269.833 372.5 268 372.8 262 374" stroke="black" stroke-linecap="round"/>
<path d="M210.5 348C220.9 357.2 239.833 354.833 248 352.5C262.333 353.333 292.8 353.6 300 348C309 341 336.098 316.879 341.5 294.5C348.5 265.5 346.5 229 325.5 209.5C297.001 183.036 265.5 184 250 184C234.5 184 216 189.5 198.5 215C181 240.5 184.5 266 185 267C185.4 267.8 194.167 308.333 198.5 328.5C198.5 329.5 200.1 338.8 210.5 348Z" fill="#7ACEE7"/>
<path d="M320.5 305C320.1 317.8 299.333 330.333 289 335C263.5 333.833 212.1 332.5 210.5 332.5C208.5 332.5 165 328 169.5 291.5C173.1 262.3 195 264 205.5 268.5L246.5 278C264.667 275.833 302.3 272.4 307.5 276C314 280.5 321 289 320.5 305Z" fill="#7ACEE7"/>
<ellipse cx="238.5" cy="254.5" rx="7.5" ry="8.5" fill="black"/>
<ellipse cx="257.5" cy="254.5" rx="7.5" ry="8.5" fill="black"/>
<ellipse cx="239" cy="253.5" rx="3" ry="3.5" fill="white"/>
<ellipse cx="258" cy="253.5" rx="3" ry="3.5" fill="white"/>
<path d="M264 285.5C256.4 289.1 254.5 292.5 239.5 292.5C234.667 292 223.7 289.5 218.5 283.5C213.3 277.5 206.333 275 203.5 274.5C188 273 178.5 286.5 181 300C183.5 313.5 191 318.5 204.5 324C218 329.5 223.5 329 245 330C262.2 330.8 275.5 329 280 328C310.5 315.5 307 307 308 300C309 293 304 279.5 289.5 279C275 278.5 273.5 281 264 285.5Z" fill="#A0212E" stroke="black"/>
<path d="M266.713 320C270.484 325.2 270.475 328 269.5 329L283.5 326.5L296.5 319.5C294.167 317.333 288.4 312.4 284 310C278.5 307 259 306 258.5 310.5C258 315 262 313.5 266.713 320Z" fill="#F0ABE9" stroke="black"/>
<mask id="mask0_66_1231" style="mask-type:alpha" maskUnits="userSpaceOnUse" x="180" y="273" width="129" height="58">
<path d="M264 285.5C256.4 289.1 254.5 292.5 239.5 292.5C234.667 292 223.7 289.5 218.5 283.5C213.3 277.5 206.333 275 203.5 274.5C188 273 178.5 286.5 181 300C183.5 313.5 191 318.5 204.5 324C218 329.5 223.5 329 245 330C262.2 330.8 275.5 329 280 328C310.5 315.5 307 307 308 300C309 293 304 279.5 289.5 279C275 278.5 273.5 281 264 285.5Z" fill="#AF1D27" stroke="black"/>
</mask>
<g mask="url(#mask0_66_1231)">
<path d="M248.5 321.5C250.082 321.5 251.57 322.436 252.684 324.064C253.796 325.69 254.5 327.964 254.5 330.5C254.5 333.036 253.796 335.31 252.684 336.936C251.57 338.564 250.082 339.5 248.5 339.5C246.918 339.5 245.43 338.564 244.316 336.936C243.204 335.31 242.5 333.036 242.5 330.5C242.5 327.964 243.204 325.69 244.316 324.064C245.43 322.436 246.918 321.5 248.5 321.5Z" fill="white" stroke="black"/>
<path d="M265 323.5C266.146 323.5 267.259 324.245 268.111 325.608C268.959 326.965 269.5 328.87 269.5 331C269.5 333.13 268.959 335.035 268.111 336.392C267.259 337.755 266.146 338.5 265 338.5C263.854 338.5 262.741 337.755 261.889 336.392C261.041 335.035 260.5 333.13 260.5 331C260.5 328.87 261.041 326.965 261.889 325.608C262.741 324.245 263.854 323.5 265 323.5Z" fill="white" stroke="black"/>
<path d="M278.008 321.537C279.454 321.282 280.938 321.823 282.174 322.979C283.411 324.135 284.373 325.886 284.739 327.965C285.106 330.044 284.801 332.02 284.035 333.529C283.268 335.038 282.059 336.054 280.613 336.309C279.167 336.564 277.684 336.022 276.448 334.867C275.211 333.711 274.248 331.959 273.882 329.88C273.515 327.801 273.821 325.826 274.587 324.316C275.354 322.808 276.562 321.792 278.008 321.537Z" fill="white" stroke="black"/>
<path d="M233.332 322.934C234.474 323.034 235.518 323.873 236.248 325.305C236.974 326.731 237.347 328.675 237.161 330.798C236.975 332.92 236.271 334.77 235.308 336.048C234.34 337.332 233.166 337.977 232.025 337.877C230.883 337.777 229.839 336.938 229.109 335.505C228.383 334.08 228.01 332.135 228.195 330.013C228.381 327.891 229.086 326.04 230.049 324.763C231.016 323.479 232.19 322.834 233.332 322.934Z" fill="white" stroke="black"/>
<path d="M219.065 321.777C220.218 322.086 221.132 322.981 221.655 324.24C222.179 325.5 222.297 327.101 221.859 328.737C221.42 330.374 220.518 331.701 219.434 332.53C218.351 333.359 217.112 333.677 215.959 333.368C214.806 333.059 213.892 332.164 213.369 330.905C212.845 329.645 212.727 328.044 213.165 326.408C213.604 324.772 214.507 323.445 215.59 322.615C216.673 321.786 217.912 321.468 219.065 321.777Z" fill="white" stroke="black"/>
<path d="M204.524 316.181C205.853 316.587 206.868 317.779 207.383 319.494C207.897 321.204 207.892 323.379 207.212 325.6C206.533 327.822 205.322 329.628 203.939 330.758C202.553 331.891 201.045 332.312 199.716 331.906C198.387 331.499 197.373 330.308 196.858 328.593C196.343 326.883 196.349 324.709 197.028 322.487C197.708 320.265 198.919 318.459 200.301 317.329C201.687 316.196 203.195 315.775 204.524 316.181Z" fill="white" stroke="black"/>
<path d="M243.5 283.5C245.082 283.5 246.57 284.436 247.684 286.064C248.796 287.69 249.5 289.964 249.5 292.5C249.5 295.036 248.796 297.31 247.684 298.936C246.57 300.564 245.082 301.5 243.5 301.5C241.918 301.5 240.43 300.564 239.316 298.936C238.204 297.31 237.5 295.036 237.5 292.5C237.5 289.964 238.204 287.69 239.316 286.064C240.43 284.436 241.918 283.5 243.5 283.5Z" fill="white" stroke="black"/>
<path d="M229.764 280.021C231.159 280.143 232.432 281.256 233.312 283.165C234.185 285.061 234.618 287.644 234.371 290.462C234.125 293.28 233.25 295.75 232.061 297.464C230.862 299.192 229.415 300.067 228.021 299.945C226.626 299.823 225.353 298.71 224.473 296.8C223.599 294.905 223.167 292.321 223.413 289.504C223.66 286.686 224.535 284.216 225.724 282.502C226.922 280.774 228.369 279.899 229.764 280.021Z" fill="white" stroke="black"/>
<path d="M220.744 272.923C222.301 273.52 223.401 275.053 223.856 277.168C224.309 279.279 224.1 281.905 223.091 284.535C222.081 287.164 220.479 289.256 218.73 290.521C216.976 291.789 215.134 292.192 213.576 291.594C212.019 290.996 210.919 289.464 210.465 287.348C210.011 285.238 210.22 282.611 211.23 279.982C212.239 277.352 213.841 275.26 215.59 273.996C217.344 272.728 219.187 272.325 220.744 272.923Z" fill="white" stroke="black"/>
<path d="M205.284 265.534C206.86 265.672 208.261 266.735 209.229 268.454C210.195 270.17 210.698 272.497 210.477 275.023C210.256 277.549 209.357 279.753 208.107 281.276C206.855 282.8 205.291 283.604 203.716 283.466C202.14 283.328 200.739 282.265 199.772 280.546C198.805 278.83 198.302 276.503 198.523 273.977C198.744 271.451 199.643 269.247 200.893 267.724C202.145 266.2 203.709 265.396 205.284 265.534Z" fill="white" stroke="black"/>
<path d="M259 278.5C260.725 278.5 262.338 279.498 263.54 281.216C264.741 282.932 265.5 285.329 265.5 288C265.5 290.671 264.741 293.068 263.54 294.784C262.338 296.502 260.725 297.5 259 297.5C257.275 297.5 255.662 296.502 254.46 294.784C253.259 293.068 252.5 290.671 252.5 288C252.5 285.329 253.259 282.932 254.46 281.216C255.662 279.498 257.275 278.5 259 278.5Z" fill="white" stroke="black"/>
<path d="M276 271.5C277.725 271.5 279.338 272.498 280.54 274.216C281.741 275.932 282.5 278.329 282.5 281C282.5 283.671 281.741 286.068 280.54 287.784C279.338 289.502 277.725 290.5 276 290.5C274.275 290.5 272.662 289.502 271.46 287.784C270.259 286.068 269.5 283.671 269.5 281C269.5 278.329 270.259 275.932 271.46 274.216C272.662 272.498 274.275 271.5 276 271.5Z" fill="white" stroke="black"/>
</g>
<path d="M264 285.5C256.4 289.1 254.5 292.5 239.5 292.5C234.667 292 223.7 289.5 218.5 283.5C213.3 277.5 206.333 275 203.5 274.5C188 273 178.5 286.5 181 300C183.5 313.5 191 318.5 204.5 324C218 329.5 223.5 329 245 330C262.2 330.8 275.5 329 280 328C310.5 315.5 307 307 308 300C309 293 304 279.5 289.5 279C275 278.5 273.5 281 264 285.5Z" stroke="black"/>
<path d="M229 234.5C230 233.5 234.3 231.1 243.5 229.5" stroke="black" stroke-linecap="round"/>
<path d="M254.5 228C255.833 228 259.9 229.2 265.5 234" stroke="black" stroke-linecap="round"/>
<path d="M40 197C43.3333 200.333 49.6 209.9 48 221.5" stroke="black" stroke-linecap="round"/>
<path d="M456.5 247C454.5 242.333 454.9 231.3 472.5 224.5" stroke="black" stroke-linecap="round"/>
<path d="M206.014 270.12C203.514 268.453 195.4 264.7 185 267.5C172 271 169.014 292.537 169.014 298.62C169.014 300.12 167.014 324.62 210.014 333.12" stroke="black" stroke-linecap="round"/>
<path d="M307 275.5C312.5 280 322.9 292 320.5 304C317.5 319 306.5 325.5 289 334.5" stroke="black" stroke-linecap="round"/>
<path d="M248.5 352.5C248.5 352.5 231 360 217 352.5C203 345 199.5 330.5 199.5 330.5M185.5 267.5C183.5 256.5 186.5 233.5 195 220.5C202 207.833 222.774 184 250 184C284.5 184 294.5 187 320 205C348.212 224.914 345 267.938 345 270C345 272 341.862 295 338.5 302.5C332 317 319.5 332.5 302.5 346C298.093 349.5 282.167 355 276.5 354" stroke="black" stroke-linecap="round"/>
</g>
<ellipse cx="53.9464" cy="245.18" rx="9.70517" ry="13.5302" fill="#8AE1EB"/>
<ellipse cx="60.0474" cy="262.963" rx="8.59601" ry="11.9839" fill="#8AE1EB"/>
<ellipse cx="54.5013" cy="280.745" rx="8.59601" ry="11.9839" fill="#8AE1EB"/>
<ellipse cx="57.8289" cy="298.528" rx="8.59601" ry="11.9839" fill="#8AE1EB"/>
<ellipse cx="56.1649" cy="316.311" rx="9.70517" ry="13.5302" fill="#8AE1EB"/>
<ellipse cx="43.4289" cy="247.62" rx="8.06077" ry="11.3307" fill="#C9E7EB"/>
<ellipse cx="50.084" cy="263.856" rx="8.06077" ry="11.3307" fill="#C9E7EB"/>
<ellipse cx="47.311" cy="286.277" rx="8.06077" ry="11.3307" fill="#C9E7EB"/>
<ellipse cx="35.3678" cy="275.72" rx="13.8645" ry="19.3289" fill="#C9E7EB"/>
<ellipse cx="43.9639" cy="304.713" rx="10.2598" ry="14.3034" fill="#C9E7EB"/>
<ellipse cx="37.309" cy="293.116" rx="4.15936" ry="5.79867" fill="#C9E7EB"/>
<ellipse cx="44.5185" cy="259.87" rx="4.15936" ry="5.79867" fill="#C9E7EB"/>
<path d="M52.2829 295.822C53.3921 297.497 55.2777 302.471 53.9467 308.966M57.8287 267.988C57.3666 270.308 55.0558 275.024 49.51 275.333C51.0813 276.493 54.3349 279.354 54.7785 281.519" stroke="#5BC3CF" stroke-width="2" stroke-linecap="round"/>
<path d="M46.1823 236.676C33.9815 233.583 32.595 251.752 38.6954 256.778C16.5122 256.778 15.6803 289.25 33.4269 295.049M46.1823 236.676C51.4508 225.078 67.7 231.882 62.8197 251.366C68.3655 252.912 73.7449 268.452 61.9878 274.947C63.2818 277.009 65.038 282.446 61.7105 287.704M46.1823 236.676L48.1233 237.835M61.7105 287.704C64.9456 289.894 69.8629 296.904 63.6516 307.419C71.693 324.429 54.6673 341.284 46.4595 319.017C41.7456 321.336 29.8222 312.831 34.8133 298.141M61.7105 287.704L60.6014 289.25M34.8133 298.141C34.4436 297.884 33.6487 296.904 33.4269 295.049M34.8133 298.141L35.9225 298.528M33.4269 295.049V293.503" stroke="#5BC3CF" stroke-width="2" stroke-linecap="round"/>
<ellipse cx="171.055" cy="23.1733" rx="12.4527" ry="17.5" transform="rotate(50 171.055 23.1733)" fill="#8AE1EB"/>
<ellipse cx="158.468" cy="43.9536" rx="11.0296" ry="15.5" transform="rotate(50 158.468 43.9536)" fill="#8AE1EB"/>
<ellipse cx="136.275" cy="53.2867" rx="11.0296" ry="15.5" transform="rotate(50 136.275 53.2867)" fill="#8AE1EB"/>
<ellipse cx="121.4" cy="71.3413" rx="11.0296" ry="15.5" transform="rotate(50 121.4 71.3413)" fill="#8AE1EB"/>
<ellipse cx="102.409" cy="84.4902" rx="12.4527" ry="17.5" transform="rotate(50 102.409 84.4902)" fill="#8AE1EB"/>
<ellipse cx="159.963" cy="14.8632" rx="10.3428" ry="14.6552" transform="rotate(50 159.963 14.8632)" fill="#C9E7EB"/>
<ellipse cx="149.365" cy="34.9029" rx="10.3428" ry="14.6552" transform="rotate(50 149.365 34.9029)" fill="#C9E7EB"/>
<ellipse cx="124.863" cy="50.8182" rx="10.3428" ry="14.6552" transform="rotate(50 124.863 50.8182)" fill="#C9E7EB"/>
<ellipse cx="125.473" cy="30.3021" rx="17.7896" ry="25" transform="rotate(50 125.473 30.3021)" fill="#C9E7EB"/>
<ellipse cx="103.836" cy="62.8558" rx="13.1643" ry="18.5" transform="rotate(50 103.836 62.8558)" fill="#C9E7EB"/>
<ellipse cx="109.838" cy="46.6728" rx="5.33688" ry="7.5" transform="rotate(50 109.838 46.6728)" fill="#C9E7EB"/>
<ellipse cx="148.724" cy="26.1193" rx="5.33688" ry="7.5" transform="rotate(50 148.724 26.1193)" fill="#C9E7EB"/>
<path d="M119.507 63.6404C118.762 66.1233 115.389 72.1119 107.857 76.2031M151.659 45.9511C148.98 47.4252 142.401 49.0749 137.52 43.881C137.667 46.3896 137.516 51.9659 135.737 54.2018" stroke="#5BC3CF" stroke-width="2" stroke-linecap="round"/>
<path d="M173.078 8.47059C166.079 -6.09287 146.934 7.64985 146.986 17.8242C128.69 -3.98001 95.8297 22.1993 104.721 44.4636M173.078 8.47059C188.914 4.00725 195.574 25.6354 172.245 37.0367C175.287 43.7733 164.326 61.9809 148.194 55.8241C147.219 58.8101 143.279 65.0572 135.326 66.1575M173.078 8.47059L173.529 11.3426M135.326 66.1575C135.824 71.1585 132.934 81.8197 117.393 84.4564C107.172 106.502 76.43 103.78 91.7226 77.2C85.5366 74.4949 84.1291 55.7046 102.8 48.3975M135.326 66.1575L132.879 66.3529M102.8 48.3975C102.751 47.8198 103.066 46.2243 104.721 44.4636M102.8 48.3975L103.332 49.8091M104.721 44.4636L106.253 43.178" stroke="#5BC3CF" stroke-width="2" stroke-linecap="round"/>
<ellipse cx="137.365" cy="451.013" rx="7.54677" ry="5.94505" transform="rotate(-10 137.365 451.013)" fill="#8AE1EB"/>
<ellipse cx="145.103" cy="453.324" rx="7.54677" ry="5.94505" transform="rotate(-10 145.103 453.324)" fill="#8AE1EB"/>
<ellipse cx="149.95" cy="461.918" rx="7.54677" ry="5.94505" transform="rotate(-10 149.95 461.918)" fill="#8AE1EB"/>
<ellipse cx="156.646" cy="469.661" rx="7.54677" ry="5.94505" transform="rotate(-10 156.646 469.661)" fill="#8AE1EB"/>
<ellipse cx="168.89" cy="474.851" rx="10.828" ry="8.52986" transform="rotate(-10 168.89 474.851)" fill="#8AE1EB"/>
<ellipse cx="182.156" cy="478.286" rx="5.57805" ry="4.39417" transform="rotate(-10 182.156 478.286)" fill="#8AE1EB"/>
<ellipse cx="132.142" cy="462.958" rx="12.1405" ry="9.56378" transform="rotate(-10 132.142 462.958)" fill="#C9E7EB"/>
<ellipse cx="124.71" cy="473.718" rx="8.85925" ry="6.97897" transform="rotate(-10 124.71 473.718)" fill="#C9E7EB"/>
<ellipse cx="135.751" cy="479.645" rx="12.1405" ry="9.56378" transform="rotate(-10 135.751 479.645)" fill="#C9E7EB"/>
<ellipse cx="146.791" cy="485.572" rx="12.1405" ry="9.56378" transform="rotate(-10 146.791 485.572)" fill="#C9E7EB"/>
<ellipse cx="168.477" cy="483.848" rx="12.1405" ry="9.56378" transform="rotate(-10 168.477 483.848)" fill="#C9E7EB"/>
<ellipse cx="180.478" cy="481.994" rx="5.24993" ry="4.13569" transform="rotate(-10 180.478 481.994)" fill="#C9E7EB"/>
<ellipse cx="157.903" cy="476.789" rx="5.57805" ry="4.39417" transform="rotate(-10 157.903 476.789)" fill="#C9E7EB"/>
<ellipse cx="148.308" cy="477.168" rx="5.24993" ry="4.13569" transform="rotate(-10 148.308 477.168)" fill="#C9E7EB"/>
<ellipse cx="144.511" cy="470.751" rx="7.21865" ry="5.42809" transform="rotate(-10 144.511 470.751)" fill="#C9E7EB"/>
<path d="M130.48 453.54C125.929 450.405 136.359 439.642 143.747 447.526C147.858 446.276 156.121 448.546 151.547 455.862C154.021 456.038 158.557 457.828 156.906 463.578C158.644 463.359 162.485 463.854 163.943 467.587M130.48 453.54C120.736 454.208 117.42 464.504 120.957 467.555C109.41 474.63 119.045 481.278 123.982 480.932M130.48 453.54L132.787 453.396M163.943 467.587C169.356 464.27 180.267 466.441 179.822 474.498M163.943 467.587C163.019 468.012 160.678 469.475 158.71 471.922C157.48 471.876 154.603 472.436 152.93 475.041C152.747 474.635 152.032 473.729 150.632 473.346C151.143 472.469 154.913 465.505 143.891 465.348M179.822 474.498C184.031 471.919 191.706 477.652 185.737 481.592C185.591 483.28 185.531 486.09 180.226 486.238M179.822 474.498L178.341 475.547M180.226 486.238C179.095 491.162 167.049 498.43 157.427 489.208C153.792 493.786 144.247 500.246 135.148 489.462C131.902 489.947 125.124 488.92 123.982 480.932M180.226 486.238L178.52 486.014M123.982 480.932L123.946 478.839" stroke="#5BC3CF" stroke-width="2" stroke-linecap="round"/>
<ellipse cx="328.661" cy="481.561" rx="8.33535" ry="3.78803" transform="rotate(10 328.661 481.561)" fill="#8AE1EB"/>
<ellipse cx="359.436" cy="482.533" rx="9.11679" ry="4.18677" transform="rotate(10 359.436 482.533)" fill="#8AE1EB"/>
<ellipse cx="350.16" cy="484.137" rx="9.11679" ry="4.18677" transform="rotate(10 350.16 484.137)" fill="#8AE1EB"/>
<ellipse cx="369.737" cy="481.111" rx="5.47008" ry="4.18677" transform="rotate(10 369.737 481.111)" fill="#8AE1EB"/>
<ellipse cx="377.958" cy="476.487" rx="7.03296" ry="5.383" transform="rotate(10 377.958 476.487)" fill="#8AE1EB"/>
<ellipse cx="381.63" cy="463.165" rx="7.81439" ry="5.98111" transform="rotate(10 381.63 463.165)" fill="#8AE1EB"/>
<ellipse cx="386.606" cy="455.945" rx="7.81439" ry="5.98111" transform="rotate(10 386.606 455.945)" fill="#8AE1EB"/>
<ellipse cx="387.256" cy="447.759" rx="5.47008" ry="4.18677" transform="rotate(10 387.256 447.759)" fill="#8AE1EB"/>
<ellipse cx="384.71" cy="471.199" rx="5.47008" ry="4.18677" transform="rotate(10 384.71 471.199)" fill="#8AE1EB"/>
<ellipse cx="8.91697" cy="4.42985" rx="8.91697" ry="4.42985" transform="matrix(0.999185 0.0403725 0.0518669 0.998654 334.047 475.013)" fill="#8AE1EB"/>
<ellipse cx="338.021" cy="488.475" rx="12.503" ry="7.3767" transform="rotate(10 338.021 488.475)" fill="#C9E7EB"/>
<ellipse cx="355.909" cy="492.034" rx="12.503" ry="7.3767" transform="rotate(10 355.909 492.034)" fill="#C9E7EB"/>
<ellipse cx="368.893" cy="491.894" rx="10.6797" ry="8.17418" transform="rotate(10 368.893 491.894)" fill="#C9E7EB"/>
<ellipse cx="381.857" cy="485.879" rx="9.37727" ry="7.17733" transform="rotate(10 381.857 485.879)" fill="#C9E7EB"/>
<ellipse cx="398.937" cy="474.517" rx="8.07487" ry="6.18048" transform="rotate(10 398.937 474.517)" fill="#C9E7EB"/>
<ellipse cx="388.524" cy="479.565" rx="8.07487" ry="6.18048" transform="rotate(10 388.524 479.565)" fill="#C9E7EB"/>
<ellipse cx="394.055" cy="469.203" rx="8.07487" ry="6.18048" transform="rotate(10 394.055 469.203)" fill="#C9E7EB"/>
<ellipse cx="403.232" cy="465.153" rx="8.07487" ry="6.18048" transform="rotate(10 403.232 465.153)" fill="#C9E7EB"/>
<ellipse cx="396.795" cy="450.656" rx="5.99104" ry="4.58552" transform="rotate(10 396.795 450.656)" fill="#C9E7EB"/>
<ellipse cx="399.723" cy="458.056" rx="5.99104" ry="4.58552" transform="rotate(10 399.723 458.056)" fill="#C9E7EB"/>
<ellipse cx="391.529" cy="458.028" rx="8.33535" ry="6.37985" transform="rotate(10 391.529 458.028)" fill="#C9E7EB"/>
<ellipse cx="394.231" cy="450.204" rx="4.42816" ry="3.38929" transform="rotate(10 394.231 450.204)" fill="#C9E7EB"/>
<path d="M379.822 468.92C379.273 469.633 379.316 470.788 379.407 471.276C372.718 469.611 369.854 474.451 371.2 477.32C367.001 475.931 364.953 478.243 364.455 479.572C358.342 477.036 353.491 478.246 351.83 479.168C348.434 473.224 333.928 474.189 334.311 479.52C327.505 474.919 312.174 479.059 326.208 484.975C323.451 494.611 341.338 498.17 345.844 495.118C352.195 501.096 360.415 499.981 363.731 498.677C374.725 503.53 379.918 496.875 379.585 492.767C389.076 494.44 391.141 488.731 391.147 485.696C395.09 484.933 396.413 481.833 396.581 480.378C406.038 482.248 409.336 475.541 405.599 471.238C414.361 469.544 410.685 460.393 405.589 459.292C406.842 455.788 403.416 454.118 401.546 453.721C406.486 447.304 396.4 443.906 392.407 447.048C391.137 440.751 377.806 442.854 383.111 450.268C378.414 451.707 378.567 455.54 379.23 457.276C369.398 460.239 374.47 467.774 379.822 468.92ZM379.822 468.92L380.474 468.225" stroke="#5BC3CF" stroke-width="2" stroke-linecap="round"/>
<path d="M384.201 460.582C384.502 461.378 385.859 463.182 388.882 464.039C386.638 465.263 383.384 468.819 388.315 473.252" stroke="#5BC3CF" stroke-width="2" stroke-linecap="round"/>
<path d="M337.285 480.652C339.03 480.757 344.981 482.009 346.756 483.942M365.301 483.77C366.847 483.503 370.469 483.264 372.587 484.447C372.698 483.32 373.488 480.841 375.762 479.946" stroke="#5BC3CF" stroke-width="2" stroke-linecap="round"/>
<ellipse cx="455.161" cy="278.862" rx="7.23741" ry="12.1617" transform="rotate(-5 455.161 278.862)" fill="#8AE1EB"/>
<ellipse cx="461.596" cy="272.991" rx="7.23741" ry="12.1617" transform="rotate(-5 461.596 272.991)" fill="#8AE1EB"/>
<ellipse cx="462.075" cy="285.688" rx="7.23741" ry="12.1617" transform="rotate(-5 462.075 285.688)" fill="#8AE1EB"/>
<ellipse cx="459.393" cy="251.422" rx="10.6988" ry="17.9782" transform="rotate(-5 459.393 251.422)" fill="#8AE1EB"/>
<ellipse cx="465.792" cy="230.692" rx="7.55208" ry="12.6905" transform="rotate(-5 465.792 230.692)" fill="#8AE1EB"/>
<ellipse cx="463.321" cy="209.676" rx="7.55208" ry="12.6905" transform="rotate(-5 463.321 209.676)" fill="#8AE1EB"/>
<ellipse cx="451.927" cy="202.181" rx="7.55208" ry="12.6905" transform="rotate(-5 451.927 202.181)" fill="#8AE1EB"/>
<ellipse cx="456.02" cy="191.207" rx="7.55208" ry="12.6905" transform="rotate(-5 456.02 191.207)" fill="#8AE1EB"/>
<ellipse cx="446.505" cy="183.547" rx="7.55208" ry="12.6905" transform="rotate(-5 446.505 183.547)" fill="#8AE1EB"/>
<ellipse cx="446.644" cy="167.08" rx="9.75477" ry="16.3919" transform="rotate(-5 446.644 167.08)" fill="#8AE1EB"/>
<ellipse cx="14.6223" cy="10.329" rx="14.6223" ry="10.329" transform="matrix(0.578724 -0.815524 0.463623 0.886033 442.249 308.199)" fill="#8AE1EB"/>
<ellipse cx="14.3633" cy="11.4793" rx="14.3633" ry="11.4793" transform="matrix(0.578724 -0.815524 0.463623 0.886033 452.689 304.767)" fill="#C9E7EB"/>
<ellipse cx="482.247" cy="292.416" rx="11.0135" ry="18.5069" transform="rotate(-5 482.247 292.416)" fill="#C9E7EB"/>
<ellipse cx="471.12" cy="284.366" rx="5.66406" ry="9.51786" transform="rotate(-5 471.12 284.366)" fill="#C9E7EB"/>
<ellipse cx="474.476" cy="264.964" rx="10.6988" ry="17.9782" transform="rotate(-5 474.476 264.964)" fill="#C9E7EB"/>
<ellipse cx="475.067" cy="213.957" rx="10.6988" ry="17.9782" transform="rotate(-5 475.067 213.957)" fill="#C9E7EB"/>
<ellipse cx="480.747" cy="192.228" rx="8.81076" ry="14.8056" transform="rotate(-5 480.747 192.228)" fill="#C9E7EB"/>
<ellipse cx="465.443" cy="197.813" rx="8.81076" ry="14.8056" transform="rotate(-5 465.443 197.813)" fill="#C9E7EB"/>
<ellipse cx="464.3" cy="170.312" rx="13.8455" ry="23.2659" transform="rotate(-5 464.3 170.312)" fill="#C9E7EB"/>
<ellipse cx="478.275" cy="243.4" rx="10.6988" ry="17.9782" transform="rotate(-5 478.275 243.4)" fill="#C9E7EB"/>
<ellipse cx="489.523" cy="263.648" rx="10.6988" ry="17.9782" transform="rotate(-5 489.523 263.648)" fill="#C9E7EB"/>
<ellipse cx="492.208" cy="225.727" rx="14.7895" ry="24.8522" transform="rotate(-5 492.208 225.727)" fill="#C9E7EB"/>
<path d="M475.249 306.298C493.703 320.82 495.736 294.952 490.822 282.112C504.991 273.653 500.347 257.393 496.253 250.32C518.47 235.637 502.699 194.023 488.473 201.106C493.769 183.658 482.315 174.044 477.622 178.17C479.467 141.49 456.657 140.726 452.886 155.387C440.532 140.544 431.671 162.02 439.323 177.275C436.881 189.803 442.129 194.899 445.057 195.881C442.092 213.975 452.368 218.066 456.074 213.495M475.249 306.298C473.248 312.312 467.218 322.818 459.105 316.734C444.851 330.72 439.003 305.754 455.953 291.532C448.872 290.028 441.613 274.209 454.1 266.747C448.393 259.284 442.631 240.361 458.453 233.457C457.835 231.211 457.323 225.594 460.214 221.095C459.332 220.641 457.269 218.486 456.074 213.495M475.249 306.298L476.134 301.974M456.074 213.495L455.577 211.415C454.566 207.081 453.525 196.627 457.449 189.489" stroke="#5BC3CF" stroke-width="2" stroke-linecap="round"/>
<path d="M464.179 212.255C464.4 217.19 466.026 227.593 470.761 229.726C469.824 231.047 467.888 234.436 467.645 237.43" stroke="#5BC3CF" stroke-width="2" stroke-linecap="round"/>
<path d="M466.113 288.52C465.182 286.301 464.061 280.95 467.026 277.293C465.618 275.647 463.021 269.788 463.892 259.521" stroke="#5BC3CF" stroke-width="2" stroke-linecap="round"/>
<ellipse cx="428.034" cy="94.6885" rx="8.13638" ry="9.44825" fill="#8AE1EB"/>
<ellipse cx="425.204" cy="76.6136" rx="8.13638" ry="9.44825" fill="#8AE1EB"/>
<ellipse cx="415.299" cy="63.4682" rx="8.13638" ry="9.44825" fill="#8AE1EB"/>
<ellipse cx="424.497" cy="65.1113" rx="8.13638" ry="9.44825" fill="#8AE1EB"/>
<ellipse cx="405.747" cy="51.5552" rx="11.3202" ry="12.3238" fill="#8AE1EB"/>
<ellipse cx="431.572" cy="94.6885" rx="6.01385" ry="6.98349" fill="#C9E7EB"/>
<ellipse cx="436.171" cy="89.3482" rx="3.53756" ry="4.10793" fill="#C9E7EB"/>
<ellipse cx="436.524" cy="76.6135" rx="10.9664" ry="12.7346" fill="#C9E7EB"/>
<ellipse cx="435.817" cy="59.3602" rx="10.9664" ry="12.7346" fill="#C9E7EB"/>
<ellipse cx="425.204" cy="52.7875" rx="8.84389" ry="10.2698" fill="#C9E7EB"/>
<ellipse cx="417.068" cy="43.3393" rx="9.19765" ry="10.6806" fill="#C9E7EB"/>
<path d="M416.714 50.3228C416.067 55.2086 417.019 63.8081 425.204 62.4679M427.681 61.825C426.79 62.1326 425.966 62.3432 425.204 62.4679M425.204 62.4679C425.204 64.1706 426.266 68.069 430.511 70.0409" stroke="#5BC3CF" stroke-width="2" stroke-linecap="round"/>
<path d="M428.034 68.3977C426.737 69.4931 424.426 72.9164 425.558 77.8459" stroke="#5BC3CF" stroke-width="2" stroke-linecap="round"/>
<path d="M408.578 39.6421C391.951 34.7126 387.069 63.2217 407.163 63.879C407.281 67.85 409.568 75.1347 417.775 72.5056C416.242 76.0658 415.44 83.7614 424.497 86.0618C413.176 93.0453 422.728 111.777 434.048 101.261C435.699 99.4811 438.718 95.4279 437.586 93.4561C438.411 93.1822 439.991 91.8951 439.708 88.9374M408.578 39.6421C415.37 24.5249 427.68 35.1234 426.265 43.3393M408.578 39.6421L407.516 42.5177M439.708 88.9374C444.661 86.3357 452.797 78.2567 444.307 67.9869C447.844 60.8665 450.533 46.7078 432.987 47.0364M439.708 88.9374C439.59 89.0743 438.93 89.3481 437.232 89.3481M432.987 47.0364C432.515 45.5302 430.51 42.682 426.265 43.3393M432.987 47.0364V49.0904M426.265 43.3393L425.912 45.3932" stroke="#5BC3CF" stroke-width="2" stroke-linecap="round"/>
<circle cx="135.24" cy="184.219" r="7.5" fill="#8AE1EB"/>
<circle cx="132.24" cy="197.219" r="8.5" fill="#8AE1EB"/>
<circle cx="128.74" cy="213.719" r="12" fill="#8AE1EB"/>
<circle cx="131.74" cy="244.719" r="9" fill="#8AE1EB"/>
<circle cx="122.74" cy="231.719" r="9" fill="#8AE1EB"/>
<circle cx="133.74" cy="260.719" r="8" fill="#8AE1EB"/>
<circle cx="124.74" cy="183.719" r="9" fill="#C9E7EB"/>
<circle cx="114.74" cy="199.719" r="16" fill="#C9E7EB"/>
<circle cx="109.74" cy="221.719" r="12" fill="#C9E7EB"/>
<circle cx="131.24" cy="261.219" r="7.5" fill="#C9E7EB"/>
<circle cx="126.24" cy="256.219" r="7.5" fill="#C9E7EB"/>
<circle cx="122.24" cy="245.219" r="7.5" fill="#C9E7EB"/>
<ellipse cx="111.24" cy="238.219" rx="7.5" ry="13.5" fill="#C9E7EB"/>
<ellipse cx="117.24" cy="243.219" rx="7.5" ry="13.5" fill="#C9E7EB"/>
<path d="M118.74 256.719C119.54 263.119 122.74 264.053 124.24 263.719C125.44 267.319 130.407 268.553 132.74 268.719C143.74 269.719 142.24 255.219 135.74 252.719C145.74 246.719 137.74 234.719 130.74 235.719C133.14 231.719 130.74 227.386 129.24 225.719C145.24 223.719 143.24 208.219 136.74 204.719C144.74 199.119 141.073 193.386 138.24 191.219C149.84 180.819 137.24 172.219 131.24 177.719C123.24 168.919 114.24 177.719 115.74 183.719C97.7403 182.119 93.7402 202.719 103.74 211.219C91.74 219.219 98.2402 230.719 104.24 232.719C101.04 245.519 107.573 250.719 111.24 251.719C113.24 257.319 117.073 257.386 118.74 256.719ZM118.74 256.719C118.407 256.886 117.94 257.319 120.74 255.719" stroke="#5BC3CF" stroke-width="2" stroke-linecap="round"/>
<path d="M128.74 192.219C130.24 195.219 131.94 203.019 126.74 210.219" stroke="#5BC3CF" stroke-width="2" stroke-linecap="round"/>
<path d="M121.74 223.219C121.907 224.386 121.54 227.319 118.74 229.719C119.24 229.886 120.74 230.819 122.74 233.219" stroke="#5BC3CF" stroke-width="2" stroke-linecap="round"/>
<ellipse cx="241.962" cy="456.848" rx="6.88248" ry="6.28986" fill="#8AE1EB"/>
<ellipse cx="272.073" cy="455.275" rx="6.88248" ry="6.28986" fill="#8AE1EB"/>
<ellipse cx="284.117" cy="452.13" rx="6.88248" ry="6.28986" fill="#8AE1EB"/>
<ellipse cx="258.738" cy="454.882" rx="12.4745" ry="9.82791" fill="#8AE1EB"/>
<ellipse cx="245.403" cy="460.779" rx="6.02217" ry="5.50363" fill="#C9E7EB"/>
<ellipse cx="261.749" cy="463.531" rx="12.0443" ry="7.46921" fill="#C9E7EB"/>
<ellipse cx="279.385" cy="460.386" rx="7.31264" ry="6.68298" fill="#C9E7EB"/>
<path d="M273.794 464.71C283.773 470.057 288.419 463.138 286.268 458.027C299.001 448.907 281.106 439.944 277.235 451.344C274.826 447.885 270.783 448.854 269.062 449.772C259.771 440.022 247.124 447.413 246.694 452.524C237.661 445.447 229.488 459.207 239.812 462.745C242.565 467.776 247.554 466.152 249.705 464.71C254.867 474.145 271.213 471 273.794 464.71ZM273.794 464.71C273.65 464.71 273.02 464.396 271.643 463.138" stroke="#5BC3CF" stroke-width="2" stroke-linecap="round"/>
<ellipse cx="380.811" cy="402.517" rx="8.28658" ry="7.0733" transform="rotate(-10 380.811 402.517)" fill="#8AE1EB"/>
<ellipse cx="385.375" cy="390.22" rx="8.28658" ry="7.0733" transform="rotate(-10 385.375 390.22)" fill="#8AE1EB"/>
<ellipse cx="396.229" cy="389.743" rx="8.28658" ry="7.0733" transform="rotate(-10 396.229 389.743)" fill="#8AE1EB"/>
<ellipse cx="403.039" cy="380.641" rx="8.28658" ry="7.0733" transform="rotate(-10 403.039 380.641)" fill="#8AE1EB"/>
<ellipse cx="400.38" cy="370.337" rx="9.94389" ry="8.48796" transform="rotate(-10 400.38 370.337)" fill="#8AE1EB"/>
<ellipse cx="407.738" cy="357.188" rx="8.70091" ry="7.42696" transform="rotate(-10 407.738 357.188)" fill="#8AE1EB"/>
<ellipse cx="384.221" cy="405.148" rx="7.87225" ry="6.71963" transform="rotate(-10 384.221 405.148)" fill="#C9E7EB"/>
<ellipse cx="396.541" cy="398.666" rx="13.6729" ry="8.84162" transform="rotate(-10 396.541 398.666)" fill="#C9E7EB"/>
<ellipse cx="408.756" cy="386.816" rx="11.1869" ry="7.0733" transform="rotate(-10 408.756 386.816)" fill="#C9E7EB"/>
<ellipse cx="413.363" cy="379.539" rx="11.1869" ry="4.24398" transform="rotate(-10 413.363 379.539)" fill="#C9E7EB"/>
<ellipse cx="417.619" cy="365.501" rx="11.1869" ry="9.54895" transform="rotate(-10 417.619 365.501)" fill="#C9E7EB"/>
<ellipse cx="412.095" cy="374.735" rx="4.14329" ry="3.53665" transform="rotate(-10 412.095 374.735)" fill="#C9E7EB"/>
<ellipse cx="405.667" cy="374.073" rx="7.04359" ry="6.0123" transform="rotate(-10 405.667 374.073)" fill="#C9E7EB"/>
<path d="M390.697 384.613C392.133 383.211 394.164 382.805 395.001 382.777C393.857 380.106 394.808 378.502 395.427 378.033C383.181 373.01 393.519 360.055 400.539 361.69C394.017 347.613 415.75 345.361 416.369 356.026C435.842 355.752 429.579 371.293 418.869 374.977C428.549 376.431 422.946 380.603 418.934 382.507C424.08 388.782 414.248 394.107 409.229 394.274C412.925 405.689 396.874 410.099 391.363 407.479C385.638 415.097 378.736 412.22 377.367 409.229C367.53 405.936 374.156 395.79 379.175 395.623C371.987 385.398 385.573 379.412 390.697 384.613ZM390.697 384.613L388.902 386.366" stroke="#5BC3CF" stroke-width="2" stroke-linecap="round"/>
<circle cx="474.272" cy="406.945" r="6" transform="rotate(-15 474.272 406.945)" fill="#8AE1EB"/>
<circle cx="481.879" cy="412.153" r="6" transform="rotate(-15 481.879 412.153)" fill="#8AE1EB"/>
<circle cx="478.508" cy="420.821" r="9.5" transform="rotate(-15 478.508 420.821)" fill="#8AE1EB"/>
<circle cx="482.39" cy="435.31" r="9.5" transform="rotate(-15 482.39 435.31)" fill="#8AE1EB"/>
<circle cx="477.061" cy="450.197" r="9.5" transform="rotate(-15 477.061 450.197)" fill="#8AE1EB"/>
<circle cx="469.024" cy="462.703" r="9.5" transform="rotate(-15 469.024 462.703)" fill="#8AE1EB"/>
<ellipse cx="454.958" cy="470.095" rx="12" ry="7" transform="rotate(-15 454.958 470.095)" fill="#8AE1EB"/>
<circle cx="479.455" cy="405.038" r="6.5" transform="rotate(-15 479.455 405.038)" fill="#C9E7EB"/>
<circle cx="488.521" cy="417.621" r="11" transform="rotate(-15 488.521 417.621)" fill="#C9E7EB"/>
<circle cx="494.922" cy="437.646" r="11" transform="rotate(-15 494.922 437.646)" fill="#C9E7EB"/>
<circle cx="494.36" cy="425.891" r="5.5" transform="rotate(-15 494.36 425.891)" fill="#C9E7EB"/>
<circle cx="485.66" cy="449.446" r="9" transform="rotate(-15 485.66 449.446)" fill="#C9E7EB"/>
<ellipse cx="474.277" cy="464.919" rx="14" ry="9" transform="rotate(-15 474.277 464.919)" fill="#C9E7EB"/>
<ellipse cx="456.442" cy="471.768" rx="10" ry="4" transform="rotate(-15 456.442 471.768)" fill="#C9E7EB"/>
<path d="M499.483 427.624C500.897 425.175 499.445 422.976 498.543 422.182C501.491 410.004 491.406 406.495 485.673 406.996C488.55 399.185 478.799 394.862 474.297 401.244C464.767 404.315 469.736 411.266 472.314 413.164C466.907 416.165 470.496 427.627 474.653 429.619C471.335 434.235 473.237 439.143 474.602 441.021C467.572 444.147 467.367 450.724 468.144 453.621C462.038 454.015 460.046 460.105 459.813 463.101C437.459 460.808 437.297 487.251 464.463 472.725C483.844 477.056 490.767 464.642 485.928 458.174C494.456 457.545 495.357 451.506 494.741 448.565M499.483 427.624C509.152 432.798 507.238 448.84 494.741 448.565M499.483 427.624L497.103 430.333M494.741 448.565L493.965 445.667" stroke="#5BC3CF" stroke-width="2" stroke-linecap="round"/>
<ellipse cx="71.6672" cy="414.619" rx="5.4026" ry="5.3461" transform="rotate(-20 71.6672 414.619)" fill="#8AE1EB"/>
<ellipse cx="73.1775" cy="426.667" rx="8.1039" ry="8.01915" transform="rotate(-20 73.1775 426.667)" fill="#8AE1EB"/>
<ellipse cx="79.5036" cy="436.15" rx="5.4026" ry="5.3461" transform="rotate(-20 79.5036 436.15)" fill="#8AE1EB"/>
<ellipse cx="83.6239" cy="445.215" rx="6.1744" ry="6.10983" transform="rotate(-20 83.6239 445.215)" fill="#8AE1EB"/>
<ellipse cx="65.2564" cy="421.829" rx="6.9462" ry="6.87356" transform="rotate(-20 65.2564 421.829)" fill="#C9E7EB"/>
<ellipse cx="68.4755" cy="413.749" rx="3.4731" ry="3.43678" transform="rotate(-20 68.4755 413.749)" fill="#C9E7EB"/>
<ellipse cx="64.0976" cy="434.442" rx="9.2616" ry="9.16475" transform="rotate(-20 64.0976 434.442)" fill="#C9E7EB"/>
<ellipse cx="70.1037" cy="440.79" rx="6.5603" ry="6.4917" transform="rotate(-20 70.1037 440.79)" fill="#C9E7EB"/>
<ellipse cx="71.2621" cy="428.177" rx="5.0167" ry="4.96424" transform="rotate(-20 71.2621 428.177)" fill="#C9E7EB"/>
<ellipse cx="73.4108" cy="436.335" rx="5.0167" ry="4.96424" transform="rotate(-20 73.4108 436.335)" fill="#C9E7EB"/>
<ellipse cx="78.7795" cy="446.572" rx="5.0167" ry="4.96424" transform="rotate(-20 78.7795 446.572)" fill="#C9E7EB"/>
<ellipse cx="77.9081" cy="440.794" rx="2.3154" ry="2.29119" transform="rotate(-20 77.9081 440.794)" fill="#C9E7EB"/>
<path d="M59.8747 426.226C57.6113 423.392 55.51 417.168 65.2112 414.937M59.8747 426.226C49.7444 430.888 57.9048 445.636 64.2001 443.751C66.661 448.707 71.6083 447.557 73.7743 446.362C75.3072 453.281 79.3648 452.319 81.202 450.973C90.1497 453.893 92.1669 440.48 83.8403 439.041C86.439 433.544 82.437 431.424 80.1112 431.052M59.8747 426.226L62.4132 425.302M65.2112 414.937C64.7323 413.621 64.7233 410.888 68.518 410.482C71.3606 407.01 80.0034 408.415 75.1774 418.624C78.4558 419.734 84.0325 423.773 80.1112 431.052M65.2112 414.937L65.8643 416.731M80.1112 431.052L78.5884 433.638" stroke="#5BC3CF" stroke-width="2" stroke-linecap="round"/>
<circle cx="65.5048" cy="107.327" r="7" transform="rotate(30 65.5048 107.327)" fill="#8AE1EB"/>
<circle cx="54.7236" cy="119.001" r="10.5" transform="rotate(30 54.7236 119.001)" fill="#8AE1EB"/>
<circle cx="50.5048" cy="133.308" r="7" transform="rotate(30 50.5048 133.308)" fill="#8AE1EB"/>
<circle cx="44.8708" cy="145.067" r="8" transform="rotate(30 44.8708 145.067)" fill="#8AE1EB"/>
<circle cx="52.9783" cy="107.024" r="9" transform="rotate(30 52.9783 107.024)" fill="#C9E7EB"/>
<circle cx="63.7235" cy="103.412" r="4.5" transform="rotate(30 63.7235 103.412)" fill="#C9E7EB"/>
<circle cx="39.4162" cy="116.514" r="12" transform="rotate(30 39.4162 116.514)" fill="#C9E7EB"/>
<circle cx="38.0634" cy="127.857" r="8.5" transform="rotate(30 38.0634 127.857)" fill="#C9E7EB"/>
<circle cx="51.6255" cy="118.367" r="6.5" transform="rotate(30 51.6255 118.367)" fill="#C9E7EB"/>
<circle cx="45.2595" cy="127.393" r="6.5" transform="rotate(30 45.2595 127.393)" fill="#C9E7EB"/>
<circle cx="39.4915" cy="141.384" r="6.5" transform="rotate(30 39.4915 141.384)" fill="#C9E7EB"/>
<circle cx="44.5405" cy="135.638" r="3" transform="rotate(30 44.5405 135.638)" fill="#C9E7EB"/>
<path d="M44.1169 105.372C45.0679 100.725 49.5411 93.3767 59.8262 101.162M44.1169 105.372C31.0461 99.2108 23.0908 119.79 30.202 124.473C27.2948 131.109 32.5528 135.068 35.5453 136.218C29.906 143.586 34.237 146.818 37.1074 147.513C41.6213 158.894 56.6959 149.584 51.2187 140.071C58.8684 138.022 57.662 132.244 56.1026 129.612M44.1169 105.372L47.1481 107.122M59.8262 101.162C60.7429 99.5746 63.4656 97.2591 67.0225 100.698C72.8526 100.6 78.6263 110.4 64.4196 114.207C66.034 118.41 66.6308 127.377 56.1026 129.612M59.8262 101.162L58.5763 103.327M56.1026 129.612L52.2545 130.277" stroke="#5BC3CF" stroke-width="2" stroke-linecap="round"/>
<ellipse cx="20.0391" cy="431.966" rx="8.14442" ry="9.00453" transform="rotate(-20 20.0391 431.966)" fill="#8AE1EB"/>
<ellipse cx="27.7898" cy="441.922" rx="7.36876" ry="7.28938" transform="rotate(-20 27.7898 441.922)" fill="#8AE1EB"/>
<ellipse cx="26.7943" cy="455.061" rx="7.36876" ry="7.28938" transform="rotate(-20 26.7943 455.061)" fill="#8AE1EB"/>
<ellipse cx="33.465" cy="472.254" rx="13.1862" ry="12.8636" transform="rotate(-20 33.465 472.254)" fill="#8AE1EB"/>
<ellipse cx="45.2376" cy="487.59" rx="11.2471" ry="9.00453" transform="rotate(-20 45.2376 487.59)" fill="#8AE1EB"/>
<ellipse cx="16.5378" cy="431.416" rx="5.04178" ry="5.57423" transform="rotate(-20 16.5378 431.416)" fill="#C9E7EB"/>
<ellipse cx="20.2083" cy="443.769" rx="5.04178" ry="9.00453" transform="rotate(-20 20.2083 443.769)" fill="#C9E7EB"/>
<ellipse cx="11.3775" cy="441.051" rx="8.53224" ry="9.43332" transform="rotate(-20 11.3775 441.051)" fill="#C9E7EB"/>
<ellipse cx="15.6351" cy="455.016" rx="8.53224" ry="9.43332" transform="rotate(-20 15.6351 455.016)" fill="#C9E7EB"/>
<ellipse cx="38.6023" cy="488.637" rx="9.3079" ry="9.43332" transform="rotate(-20 38.6023 488.637)" fill="#C9E7EB"/>
<ellipse cx="21.5806" cy="474.754" rx="11.2471" ry="15.4363" transform="rotate(-20 21.5806 474.754)" fill="#C9E7EB"/>
<path d="M23.6525 452.098C24.4095 453.8 25.3412 457.871 23.0123 460.544C25.8819 460.869 31.9765 464.309 33.3984 475.473" stroke="#5BC3CF" stroke-width="2" stroke-linecap="round"/>
<path d="M11.7242 431.799C-1.05418 432.069 1.9063 446.78 8.25719 449.488C3.19401 456.441 8.98577 461.695 12.5145 463.452C3.61128 476.184 18.7758 495.396 29.2647 487.928C30.2209 499.627 38.842 499.501 43.2865 496.97C57.4053 495.847 63.1621 477.872 44.4913 478.736C50.087 468.029 41.683 459.681 32.492 459.375C35.7525 455.633 32.6211 450.659 30.6479 448.639C36.8274 445.66 37.2614 436.193 27.995 434.546C28.9864 419.127 11.6312 421.338 11.7242 431.799ZM11.7242 431.799C12.1375 431.8 13.1685 431.912 13.9863 432.344" stroke="#5BC3CF" stroke-width="2" stroke-linecap="round"/>
<circle cx="32" cy="357.888" r="8" fill="#8AE1EB"/>
<circle cx="18.5" cy="333.388" r="5.5" fill="#8AE1EB"/>
<circle cx="22.5" cy="346.388" r="10.5" fill="#8AE1EB"/>
<circle cx="16" cy="333.888" r="5" fill="#C9E7EB"/>
<circle cx="12.5" cy="331.388" r="3.5" fill="#C9E7EB"/>
<circle cx="16" cy="350.888" r="13" fill="#C9E7EB"/>
<path d="M24.4994 360.388C7.69936 371.588 -7.00009 345.888 13.4994 338.388C6.5 333.888 9.5 323.888 15 328.388C21.5 323.888 26.5 331.388 23 335.888C33 336.688 33.4999 345.554 32.4999 349.888C47.2999 355.488 34 373.888 24.4994 360.388ZM24.4994 360.388C24.9996 360.554 26.4 360.788 28 360.388" stroke="#5BC3CF" stroke-width="2" stroke-linecap="round"/>
<circle cx="297.61" cy="29.4569" r="10" transform="rotate(10 297.61 29.4569)" fill="#8AE1EB"/>
<circle cx="311.339" cy="29.3391" r="8.5" transform="rotate(10 311.339 29.3391)" fill="#8AE1EB"/>
<circle cx="297.086" cy="15.1486" r="10" transform="rotate(10 297.086 15.1486)" fill="#C9E7EB"/>
<circle cx="305.081" cy="21.6355" r="10" transform="rotate(10 305.081 21.6355)" fill="#C9E7EB"/>
<circle cx="315.392" cy="17.8687" r="10.5" transform="rotate(10 315.392 17.8687)" fill="#C9E7EB"/>
<path d="M319.825 27.2815C336.785 14.0251 315.737 -1.36353 306.818 11.7875C292.774 -5.31108 279.331 15.0642 290.194 22.5645C281.739 40.5698 301.175 43.7938 305.692 35.4514M319.825 27.2815C322.896 32.9001 316.815 41.4744 305.692 35.4514M319.825 27.2815C319.69 27.0884 319.077 26.3373 317.71 24.8777M305.692 35.4514L304.793 34.7853" stroke="#5BC3CF" stroke-width="2" stroke-linecap="round"/>
<circle cx="228.839" cy="29.6375" r="10" fill="#8AE1EB"/>
<circle cx="242.339" cy="27.1375" r="8.5" fill="#8AE1EB"/>
<circle cx="225.839" cy="15.6375" r="10" fill="#C9E7EB"/>
<circle cx="234.839" cy="20.6375" r="10" fill="#C9E7EB"/>
<circle cx="244.339" cy="15.1375" r="10.5" fill="#C9E7EB"/>
<path d="M250.339 23.6375C264.739 7.63746 241.339 -3.86254 234.839 10.6375C218.039 -3.76253 208.339 18.6375 220.339 24.1375C215.139 43.3375 234.839 43.1375 237.839 34.1375M250.339 23.6375C254.339 28.6375 249.839 38.1375 237.839 34.1375M250.339 23.6375C250.172 23.4708 249.439 22.8375 247.839 21.6375M237.839 34.1375L236.839 33.6375" stroke="#5BC3CF" stroke-width="2" stroke-linecap="round"/>
<ellipse cx="412.048" cy="12.8172" rx="6.66508" ry="5.42713" fill="#8AE1EB"/>
<ellipse cx="419.889" cy="19.202" rx="6.66508" ry="5.42713" fill="#8AE1EB"/>
<ellipse cx="413.224" cy="11.8594" rx="5.48889" ry="4.4694" fill="#C9E7EB"/>
<ellipse cx="419.497" cy="11.8594" rx="5.48889" ry="4.4694" fill="#C9E7EB"/>
<ellipse cx="421.065" cy="17.6058" rx="5.48889" ry="4.4694" fill="#C9E7EB"/>
<path d="M424.202 14.0941C427.731 7.39003 418.713 5.79382 416.361 8.34776C415.708 7.28362 412.441 5.79382 406.952 8.66701C401.855 12.4979 407.736 20.1597 413.224 18.2443C414.165 29.4816 427.731 24.6291 426.555 18.5635C428.123 16.3288 425.117 14.4134 424.202 14.0941Z" stroke="#5BC3CF" stroke-width="2" stroke-linecap="round"/>
<circle cx="494.848" cy="366.798" r="8.5" transform="rotate(45 494.848 366.798)" fill="#8AE1EB"/>
<circle cx="494.848" cy="380.94" r="8.5" transform="rotate(45 494.848 380.94)" fill="#8AE1EB"/>
<circle cx="496.969" cy="366.798" r="7" transform="rotate(45 496.969 366.798)" fill="#C9E7EB"/>
<circle cx="502.626" cy="372.455" r="7" transform="rotate(45 502.626 372.455)" fill="#C9E7EB"/>
<circle cx="497.677" cy="380.233" r="7" transform="rotate(45 497.677 380.233)" fill="#C9E7EB"/>
<path d="M504.394 379.173C515.001 374.93 508.637 365.031 503.687 365.738C504.276 363.97 502.98 359.374 494.848 357.606C486.009 357.252 482.827 371.041 489.898 373.869C478.302 387.163 495.909 394.022 501.566 386.244C505.455 385.183 504.866 380.351 504.394 379.173Z" stroke="#5BC3CF" stroke-width="2" stroke-linecap="round"/>
<ellipse cx="448.798" cy="27.5264" rx="4.79759" ry="4.15427" fill="#8AE1EB"/>
<ellipse cx="450.542" cy="35.0797" rx="4.79759" ry="4.15427" fill="#8AE1EB"/>
<ellipse cx="452.287" cy="31.3031" rx="4.79759" ry="4.15427" fill="#8AE1EB"/>
<ellipse cx="456.648" cy="39.6116" rx="4.79759" ry="4.15427" fill="#8AE1EB"/>
<ellipse cx="464.063" cy="45.2765" rx="6.97831" ry="7.55323" fill="#8AE1EB"/>
<ellipse cx="450.542" cy="26.0158" rx="3.9253" ry="3.39895" fill="#C9E7EB"/>
<ellipse cx="454.031" cy="31.3031" rx="3.9253" ry="3.39895" fill="#C9E7EB"/>
<ellipse cx="456.648" cy="35.0797" rx="3.9253" ry="3.39895" fill="#C9E7EB"/>
<ellipse cx="462.318" cy="30.9254" rx="9.59518" ry="8.30855" fill="#C9E7EB"/>
<ellipse cx="461.882" cy="39.6116" rx="3.9253" ry="3.39895" fill="#C9E7EB"/>
<ellipse cx="467.988" cy="43.7659" rx="5.66988" ry="6.7979" fill="#C9E7EB"/>
<path d="M454.468 26.3935C460.574 16.5743 479.677 24.5807 468.86 36.968M468.86 36.968C472.64 38.6045 478.019 43.6148 469.296 50.5638C459.178 57.2106 456.648 48.6755 457.084 43.7659C451.502 44.6723 451.269 41.1222 451.851 39.2339C444.174 39.5361 445.745 34.3243 447.489 31.6807C441.558 26.2424 445.599 23.7498 448.362 23.3722C452.2 20.3509 454.468 23.7498 454.468 26.0158M468.86 36.968L466.68 39.2339" stroke="#5BC3CF" stroke-width="2" stroke-linecap="round"/>
<circle cx="427.5" cy="131.5" r="5.5" fill="#C9E7EB"/>
<ellipse cx="420" cy="135.5" rx="8" ry="5.5" fill="#C9E7EB"/>
<circle cx="426" cy="144" r="10" fill="#C9E7EB"/>
<path d="M416 141C414.502 164.5 450 150 431.498 135.5C436.498 131.5 428 120 422 130.5C411.5 128 410.5 139 416 141ZM416 141L419 142" stroke="#5BC3CF" stroke-width="2" stroke-linecap="round"/>
<path d="M139.418 113.715C139.319 113.118 140.167 112.89 140.38 113.457L146.627 130.135C146.832 130.682 147.336 131.061 147.919 131.105L160.348 132.04C160.82 132.076 160.983 132.685 160.592 132.951L150.296 139.977C149.814 140.306 149.566 140.886 149.662 141.462L152.591 159.03C152.69 159.627 151.842 159.854 151.63 159.288L145.382 142.609C145.177 142.062 144.673 141.683 144.09 141.64L131.661 140.704C131.19 140.668 131.027 140.059 131.417 139.792L141.713 132.768C142.196 132.439 142.443 131.858 142.347 131.282L139.418 113.715Z" fill="#BDE3EF" stroke="#5BC3CF"/>
<path d="M140.436 301.833C140.48 301.323 141.172 301.201 141.388 301.666L146.07 311.759C146.285 312.222 146.721 312.544 147.226 312.614L157.716 314.056C158.197 314.123 158.311 314.767 157.882 314.994L148.518 319.938C148.066 320.177 147.767 320.629 147.724 321.137L146.776 332.223C146.732 332.734 146.04 332.856 145.824 332.391L141.142 322.298C140.927 321.835 140.491 321.513 139.985 321.443L129.495 319.999C129.014 319.933 128.9 319.289 129.33 319.062L138.694 314.118C139.145 313.88 139.444 313.428 139.488 312.919L140.436 301.833Z" fill="#BDE3EF" stroke="#5BC3CF"/>
<path d="M398.009 155.307C398.111 154.764 398.889 154.764 398.991 155.307L401.193 166.991C401.284 167.471 401.603 167.877 402.048 168.079L410.787 172.045C411.178 172.223 411.178 172.777 410.787 172.955L402.048 176.921C401.603 177.123 401.284 177.529 401.193 178.009L398.991 189.693C398.889 190.236 398.111 190.236 398.009 189.693L395.807 178.009C395.716 177.529 395.397 177.123 394.952 176.921L386.213 172.955C385.822 172.777 385.822 172.223 386.213 172.045L394.952 168.079C395.397 167.877 395.716 167.471 395.807 166.991L398.009 155.307Z" fill="#BDE3EF" stroke="#5BC3CF"/>
<path d="M360.222 418.002C360.515 417.848 360.873 418.015 360.944 418.338L362.065 423.503C362.152 423.903 362.399 424.251 362.749 424.465L367.289 427.238C367.798 427.549 367.434 428.328 366.87 428.139L361.827 426.443C361.438 426.313 361.013 426.347 360.65 426.538L355.972 428.999C355.68 429.152 355.321 428.985 355.251 428.662L354.129 423.497C354.042 423.096 353.795 422.748 353.445 422.535L348.905 419.761C348.396 419.451 348.76 418.672 349.324 418.861L354.367 420.557C354.756 420.687 355.181 420.653 355.544 420.462L360.222 418.002Z" fill="#BDE3EF" stroke="#5BC3CF"/>
<path d="M361.811 57.2603C361.769 56.6606 362.627 56.5093 362.791 57.0875L366.991 71.8729C367.137 72.3877 367.547 72.7857 368.066 72.917L378.329 75.5141C378.747 75.6199 378.844 76.17 378.487 76.4124L369.731 82.3631C369.289 82.664 369.04 83.1779 369.079 83.7118L370.189 99.0409C370.232 99.6411 369.373 99.7925 369.209 99.2137L365.01 84.4292C364.863 83.9143 364.453 83.5166 363.934 83.3853L353.671 80.7882C353.253 80.6824 353.156 80.1324 353.512 79.8899L362.268 73.9392C362.711 73.6384 362.961 73.1242 362.922 72.5904L361.811 57.2603Z" fill="#BDE3EF" stroke="#5BC3CF"/>
<path d="M93.3819 338.585C93.2177 337.992 94.0631 337.684 94.3189 338.244L101.76 354.549C101.955 354.976 102.339 355.286 102.798 355.389L113.403 357.763C113.759 357.843 113.912 358.265 113.69 358.554L107.093 367.19C106.808 367.563 106.713 368.048 106.838 368.501L111.618 385.774C111.783 386.368 110.937 386.675 110.681 386.115L103.239 369.811C103.044 369.384 102.661 369.073 102.203 368.97L91.5976 366.596C91.2416 366.516 91.0882 366.095 91.3097 365.805L97.9073 357.169C98.1923 356.796 98.286 356.311 98.161 355.859L93.3819 338.585Z" fill="#BDE3EF" stroke="#5BC3CF"/>
<path d="M176.59 414.196C176.563 412.768 178.359 412.114 179.257 413.226L188.218 424.33C188.798 425.048 189.726 425.388 190.631 425.216L206.487 422.201C208.158 421.883 208.985 424.153 207.5 424.984L193.416 432.866C192.611 433.317 192.119 434.173 192.137 435.095L192.41 449.362C192.436 450.791 190.64 451.445 189.743 450.333L180.781 439.228C180.202 438.511 179.275 438.171 178.369 438.343L162.512 441.358C160.841 441.676 160.015 439.406 161.499 438.575L175.584 430.692C176.389 430.242 176.881 429.385 176.863 428.463L176.59 414.196Z" fill="#BDE3EF" stroke="#5BC3CF"/>
</g>
<defs>
<clipPath id="clip0_66_1231">
<rect width="512" height="512" fill="white"/>
</clipPath>
</defs>
</svg>
