<svg width="512" height="512" viewBox="0 0 512 512" fill="none" xmlns="http://www.w3.org/2000/svg">
<path d="M197 512C219.4 461.2 216.667 362.5 212.5 319.5L207 293.5L289 283.5C312 407.5 334.4 462.8 334 512H197Z" fill="#7ACEE7"/>
<path d="M53.4999 394C69.4999 383.2 162.5 322.833 207 294L213 318C178.6 332.4 113.333 381.073 84.9999 403.61C114.027 425.596 160.293 458.575 182 466.5C207.2 475.7 212.167 500.333 211.5 511.5H162.5C140.5 491.5 35.9999 405.812 53.4999 394Z" fill="#7ACEE7"/>
<path d="M288.5 283.5C399 329.5 479.5 342.5 457 369L373 487.5C375.236 489.097 379.429 492.866 379.073 495.642C381.342 485.285 396.105 476.201 396.5 511H334C334 502 332 480.6 328 465C352.407 439.323 401.627 388.33 426.532 363C395.355 347.333 324.7 314.6 293.5 309L288.5 283.5Z" fill="#7ACEE7"/>
<path d="M122 195.5C127.2 247.5 178.833 284.167 204 296L289 283.5C328 243 338.5 203.5 332 158C325.5 112.5 283 72 219 77C155 82 115.5 130.5 122 195.5Z" fill="#7ACEE7"/>
<path d="M193.5 216.5C201 206 281.5 198 300.5 200" stroke="black"/>
<path d="M184.42 204C177.42 212.333 170.22 229.3 197.42 230.5" stroke="black"/>
<path d="M301.5 185C308.5 185 331 195 300 220" stroke="black"/>
<path d="M232 280C240.833 284.333 261.5 286.4 273.5 260" stroke="black"/>
<path d="M207 126.222C214.833 123.389 215.5 99.7222 232 115.222" stroke="black"/>
<path d="M244 122.618C246.167 123.285 254.5 110.618 268 124.618" stroke="black"/>
<path d="M212.5 318.5C186 329 127.4 368.3 84.9999 403.5M212.5 318.5C217.236 353.806 216.93 431.602 205.77 486.5M212.5 318.5C212.333 318 212 316.7 212 315.5M84.9999 403.5C106 418.5 158 457.824 174 463C191 468.5 200 477.5 205.77 486.5M84.9999 403.5C83.1666 402.5 78.2999 399.4 73.4999 395M205.77 486.5C208.347 491.333 212.9 503 210.5 511M204 296C160.833 324.167 72.5999 381.7 64.9999 386.5C57.3999 391.3 53.1666 394.833 51.9999 396C44.9999 409.5 120.833 476 162 511H210.5M204 296C175.5 283 121.9 239.6 121.5 190C121 167.5 122 100 200 80C251.5 67.5 332.264 88.5084 333.5 180C334 217 319.5 253 289 283.5M204 296C204.5 296.167 205.9 296.5 207.5 296.5M289 283.5C378 323.5 464.5 336 460.5 363.5C458.5 367 455.768 370.254 453.142 374C425.025 414.112 378.853 479.817 373 487.5M289 283.5C288.5 284 289 283.5 286 286.5M373 487.5C372.333 487 370.4 486.1 368 486.5M373 487.5C375.167 489 379.4 492.7 379 495.5M379 495.5C378.667 497.833 378.1 502.7 378.5 503.5M379 495.5C381 490 386.5 481.5 392.5 490C394 491.833 396.9 498.6 396.5 511H210.5" stroke="black" stroke-linecap="round"/>
<path d="M426.5 363C412.5 354.5 334.5 318.5 294 309C312 396 337.1 486.5 333.5 510.5M426.5 363C394 396.167 329 462.8 329 464M426.5 363C428.5 360.667 433.5 355.3 437.5 352.5" stroke="black" stroke-linecap="round"/>
<path d="M294 309L293.5 307" stroke="black" stroke-linecap="round"/>
<circle cx="207.5" cy="295.5" r="0.5" fill="#7ACEE7"/>
<ellipse cx="225.5" cy="151" rx="8.5" ry="9" fill="black"/>
<ellipse cx="257.5" cy="153" rx="8.5" ry="9" fill="black"/>
<ellipse cx="227" cy="150.5" rx="3" ry="3.5" fill="white"/>
<ellipse cx="258" cy="152.5" rx="3" ry="3.5" fill="white"/>
<circle cx="384.5" cy="110.5" r="7" stroke="black"/>
<circle cx="367.5" cy="122.5" r="6" stroke="black"/>
<circle cx="348.5" cy="128.5" r="5" stroke="black"/>
</svg>
