<svg width="512" height="512" viewBox="0 0 512 512" fill="none" xmlns="http://www.w3.org/2000/svg">
<g clip-path="url(#clip0_34_30)">
<g opacity="0.29">
<path d="M234.857 359.825C220.357 410.825 194.357 513.825 198.357 517.825" stroke="#7ACEE7" stroke-width="4" stroke-linecap="round"/>
<path d="M310.356 356.325C309.856 406.491 311.356 510.325 314.356 514.825" stroke="#7ACEE7" stroke-width="4" stroke-linecap="round"/>
<path d="M310.356 356.325L434.356 458.825C438.523 461.158 447.756 462.625 451.356 449.825C455.523 399.658 463.956 299.425 464.356 299.825C464.856 300.325 480.856 284.825 474.356 272.325C482.523 265.658 492.956 249.625 469.356 238.825C463.523 237.158 447.756 235.925 431.356 244.325C430.19 245.325 427.456 247.425 425.856 247.825C423.856 248.325 418.856 243.825 422.356 218.325C422.356 213.658 420.556 204.725 413.356 206.325C404.356 208.325 398.856 227.825 415.856 264.325C411.523 267.825 406.956 278.625 423.356 293.825C425.523 337.658 428.956 425.325 427.356 425.325C425.356 425.325 385.856 397.825 377.356 388.825C368.856 379.825 317.356 336.825 314.356 333.825" stroke="#7ACEE7" stroke-width="4" stroke-linecap="round"/>
<path d="M233.856 363.825C206.69 381.658 149.656 420.125 138.856 431.325M138.856 431.325C160.356 448.158 203.456 481.625 203.856 480.825M138.856 431.325L126.356 419.825" stroke="#7ACEE7" stroke-width="4" stroke-linecap="round"/>
<path d="M226.857 341.325C191.523 366.491 120.157 416.725 117.357 416.325C113.857 415.825 99.3567 427.325 119.357 444.325C139.357 461.325 182.857 511.825 185.357 512.325C187.357 512.725 271.857 512.491 313.857 512.325" stroke="#7ACEE7" stroke-width="4" stroke-linecap="round"/>
<path d="M238.856 347.825C233.656 345.425 228.689 342.491 226.856 341.325C210.856 332.991 175.456 307.225 161.856 270.825C144.856 225.325 169.356 178.325 181.856 166.825C194.388 155.295 211.356 140.825 239.356 137.825C271.421 134.389 282.315 134.824 309.356 147.825C335.356 160.325 349.356 191.825 353.856 210.325C358.356 228.825 359.856 239.325 355.356 262.825C350.856 286.325 317.856 330.825 314.356 333.325C314.189 333.491 313.156 334.125 310.356 335.325" stroke="#7ACEE7" stroke-width="4" stroke-linecap="round"/>
</g>
<ellipse cx="46.4523" cy="189.972" rx="7.92984" ry="9.8689" fill="#8AE1EB"/>
<ellipse cx="60.55" cy="184.489" rx="7.92984" ry="9.8689" fill="#8AE1EB"/>
<ellipse cx="70.2414" cy="195.454" rx="7.92984" ry="9.8689" fill="#8AE1EB"/>
<ellipse cx="72.0037" cy="174.62" rx="14.0975" ry="17.5447" fill="#8AE1EB"/>
<ellipse cx="59.6688" cy="162.558" rx="14.0975" ry="17.5447" fill="#8AE1EB"/>
<ellipse cx="75.5282" cy="158.172" rx="7.04874" ry="8.77236" fill="#8AE1EB"/>
<ellipse cx="74.2063" cy="142.272" rx="11.8948" ry="14.8034" fill="#8AE1EB"/>
<ellipse cx="83.0175" cy="122.534" rx="14.538" ry="18.093" fill="#8AE1EB"/>
<ellipse cx="98.8769" cy="97.3137" rx="14.538" ry="18.093" fill="#8AE1EB"/>
<ellipse cx="120.463" cy="83.6069" rx="16.7408" ry="20.8344" fill="#8AE1EB"/>
<ellipse cx="132.799" cy="61.676" rx="16.7408" ry="20.8344" fill="#8AE1EB"/>
<ellipse cx="153.945" cy="39.7451" rx="16.7408" ry="20.8344" fill="#8AE1EB"/>
<ellipse cx="173.329" cy="36.4555" rx="8.81093" ry="10.9654" fill="#8AE1EB"/>
<ellipse cx="189.189" cy="36.4555" rx="8.81093" ry="10.9654" fill="#8AE1EB"/>
<ellipse cx="185.664" cy="24.3935" rx="8.81093" ry="10.9654" fill="#8AE1EB"/>
<ellipse cx="45.1611" cy="174.242" rx="12.8066" ry="16.0701" fill="#C9E7EB"/>
<ellipse cx="51.329" cy="146.828" rx="12.8066" ry="16.0701" fill="#C9E7EB"/>
<ellipse cx="61.9023" cy="168.759" rx="12.8066" ry="16.0701" fill="#C9E7EB"/>
<ellipse cx="64.5449" cy="138.056" rx="12.8066" ry="16.0701" fill="#C9E7EB"/>
<ellipse cx="50.8573" cy="124.179" rx="7.04874" ry="8.77236" fill="#C9E7EB"/>
<ellipse cx="57.0255" cy="101.152" rx="14.9786" ry="18.6413" fill="#C9E7EB"/>
<ellipse cx="66.7169" cy="114.31" rx="14.9786" ry="18.6413" fill="#C9E7EB"/>
<ellipse cx="76.4087" cy="89.0896" rx="16.7408" ry="20.8344" fill="#C9E7EB"/>
<ellipse cx="101.96" cy="74.8345" rx="16.7408" ry="20.8344" fill="#C9E7EB"/>
<ellipse cx="123.107" cy="49.614" rx="16.7408" ry="20.8344" fill="#C9E7EB"/>
<ellipse cx="125.751" cy="30.9727" rx="9.69202" ry="12.062" fill="#C9E7EB"/>
<ellipse cx="143.373" cy="25.49" rx="9.69202" ry="12.062" fill="#C9E7EB"/>
<ellipse cx="160.994" cy="23.2969" rx="9.69202" ry="12.062" fill="#C9E7EB"/>
<ellipse cx="142.491" cy="39.7451" rx="9.69202" ry="12.062" fill="#C9E7EB"/>
<ellipse cx="157.469" cy="35.3589" rx="9.69202" ry="12.062" fill="#C9E7EB"/>
<ellipse cx="177.735" cy="21.1038" rx="9.69202" ry="12.062" fill="#C9E7EB"/>
<ellipse cx="170.686" cy="30.9727" rx="6.16765" ry="7.67581" fill="#C9E7EB"/>
<ellipse cx="98.8768" cy="39.1968" rx="21.5868" ry="26.8653" fill="#C9E7EB"/>
<ellipse cx="84.339" cy="66.0622" rx="7.92984" ry="9.8689" fill="#C9E7EB"/>
<path d="M42.4874 158.72C31.9144 157.624 27.2445 180.432 38.5225 188.327C35.8793 200.937 52.6201 207.188 54.3823 190.52M42.4874 158.72C34.7337 146 42.4874 132.951 46.893 131.855C40.5491 124.398 44.8371 118.148 47.7741 115.955C33.3241 99.7261 49.0957 75.9311 60.5499 83.0586M42.4874 158.72C49.1836 142.93 62.3121 155.431 55.7039 163.106C58.1243 168.528 58.7125 172.651 58.2263 175.717M54.3823 190.52C57.4661 193.81 60.9905 195.454 62.3121 194.358C62.7526 210.806 80.1102 209.929 77.2907 191.068C84.78 189.972 90.2427 172.098 82.1367 162.01C83.0178 159.634 84.3394 156.527 81.6961 153.786C84.0457 151.044 88.2162 144.465 86.1016 140.079M54.3823 190.52C54.3823 188.692 53.5012 184.708 49.9768 183.392C53.327 183.161 57.385 181.021 58.2263 175.717M86.1016 140.079C91.8287 138.982 102.314 128.565 96.6747 115.407C101.08 118.148 112.975 111.898 112.975 102.248C120.464 109.376 138.967 100.823 137.205 81.9621C142.492 81.9621 151.655 71.4353 149.54 60.0312C154.827 62.7725 166.634 61.347 169.805 46.8726C172.596 48.7002 178.793 50.1623 181.26 41.3899C187.868 55.645 205.049 43.3637 194.476 27.1348C195.21 22.5659 194.388 13.428 185.225 13.428C182.141 7.9453 173.77 3.55912 168.924 16.1694C164.959 9.04185 154.21 7.50669 151.743 18.9108C148.219 13.7935 139.672 7.61634 133.681 23.8452C131.184 19.459 124.429 13.5377 117.38 24.9417C101.08 -5.76151 64.2505 20.3363 82.5772 56.7415M86.1016 140.079C85.2205 138.434 85.2205 137.338 83.4583 135.145M82.5772 56.7415C79.934 57.4726 74.9998 60.7988 76.4096 68.2553C72.0041 67.707 62.6645 69.9001 60.5499 83.0586M82.5772 56.7415C82.8709 56.5588 84.2513 56.1933 87.4232 56.1933M60.5499 83.0586C60.9905 83.2414 62.1359 84.1552 63.1932 86.3483M58.2263 175.717C58.5603 177.179 60.1094 179.664 63.6337 177.91" stroke="#5BC3CF" stroke-width="2" stroke-linecap="round"/>
<path d="M101.08 95.6689C107.541 96.2172 120.112 91.9406 118.702 70.4484C122.079 71.1794 129.804 71.3256 133.681 66.0622" stroke="#5BC3CF" stroke-width="2" stroke-linecap="round"/>
<ellipse cx="62.0469" cy="233.341" rx="14.1534" ry="17.5" fill="#8AE1EB"/>
<ellipse cx="70.944" cy="256.341" rx="12.5358" ry="15.5" fill="#8AE1EB"/>
<ellipse cx="62.8562" cy="279.341" rx="12.5358" ry="15.5" fill="#8AE1EB"/>
<ellipse cx="67.7087" cy="302.341" rx="12.5358" ry="15.5" fill="#8AE1EB"/>
<ellipse cx="65.2823" cy="325.341" rx="14.1534" ry="17.5" fill="#8AE1EB"/>
<ellipse cx="46.7094" cy="236.496" rx="11.7553" ry="14.6552" fill="#C9E7EB"/>
<ellipse cx="56.4145" cy="257.496" rx="11.7553" ry="14.6552" fill="#C9E7EB"/>
<ellipse cx="52.3705" cy="286.496" rx="11.7553" ry="14.6552" fill="#C9E7EB"/>
<ellipse cx="34.9535" cy="272.841" rx="20.2191" ry="25" fill="#C9E7EB"/>
<ellipse cx="47.4895" cy="310.341" rx="14.9621" ry="18.5" fill="#C9E7EB"/>
<ellipse cx="37.7845" cy="295.341" rx="6.06573" ry="7.5" fill="#C9E7EB"/>
<ellipse cx="48.2982" cy="252.341" rx="6.06573" ry="7.5" fill="#C9E7EB"/>
<path d="M59.621 298.841C61.2385 301.007 63.9883 307.441 62.0473 315.841M67.7086 262.841C67.0346 265.841 63.6648 271.941 55.5771 272.341C57.8686 273.841 62.6134 277.541 63.2604 280.341" stroke="#5BC3CF" stroke-width="2" stroke-linecap="round"/>
<path d="M50.7242 222.341C32.9314 218.341 30.9094 241.841 39.8059 248.341C7.45536 248.341 6.2421 290.341 32.1225 297.841M50.7242 222.341C58.4074 207.341 82.1042 216.141 74.9871 241.341C83.0747 243.341 90.9197 263.441 73.7739 271.841C75.661 274.507 78.2221 281.541 73.3695 288.341M50.7242 222.341L53.5548 223.841M73.3695 288.341C78.0873 291.174 85.2583 300.241 76.2002 313.841C87.9273 335.841 63.0982 357.641 51.1285 328.841C44.254 331.841 26.8657 320.841 34.1445 301.841M73.3695 288.341L71.752 290.341M34.1445 301.841C33.6053 301.507 32.446 300.241 32.1225 297.841M34.1445 301.841L35.762 302.341M32.1225 297.841V295.841" stroke="#5BC3CF" stroke-width="2" stroke-linecap="round"/>
<ellipse cx="128.936" cy="439.384" rx="13.6094" ry="9.32791" transform="rotate(-10 128.936 439.384)" fill="#8AE1EB"/>
<ellipse cx="142.741" cy="442.715" rx="13.6094" ry="9.32791" transform="rotate(-10 142.741 442.715)" fill="#8AE1EB"/>
<ellipse cx="151.104" cy="456.066" rx="13.6094" ry="9.32791" transform="rotate(-10 151.104 456.066)" fill="#8AE1EB"/>
<ellipse cx="162.822" cy="468.001" rx="13.6094" ry="9.32791" transform="rotate(-10 162.822 468.001)" fill="#8AE1EB"/>
<ellipse cx="184.607" cy="475.691" rx="19.5266" ry="13.3835" transform="rotate(-10 184.607 475.691)" fill="#8AE1EB"/>
<ellipse cx="208.299" cy="480.573" rx="10.0592" ry="6.89454" transform="rotate(-10 208.299 480.573)" fill="#8AE1EB"/>
<ellipse cx="119.073" cy="458.419" rx="21.8934" ry="15.0058" transform="rotate(-10 119.073 458.419)" fill="#C9E7EB"/>
<ellipse cx="105.291" cy="475.674" rx="15.9763" ry="10.9502" transform="rotate(-10 105.291 475.674)" fill="#C9E7EB"/>
<ellipse cx="124.886" cy="484.574" rx="21.8934" ry="15.0058" transform="rotate(-10 124.886 484.574)" fill="#C9E7EB"/>
<ellipse cx="144.481" cy="493.473" rx="21.8934" ry="15.0058" transform="rotate(-10 144.481 493.473)" fill="#C9E7EB"/>
<ellipse cx="183.504" cy="489.887" rx="21.8934" ry="15.0058" transform="rotate(-10 183.504 489.887)" fill="#C9E7EB"/>
<ellipse cx="205.136" cy="486.485" rx="9.46744" ry="6.48898" transform="rotate(-10 205.136 486.485)" fill="#C9E7EB"/>
<ellipse cx="164.793" cy="479.185" rx="10.0592" ry="6.89454" transform="rotate(-10 164.793 479.185)" fill="#C9E7EB"/>
<ellipse cx="147.542" cy="480.167" rx="9.46744" ry="6.48898" transform="rotate(-10 147.542 480.167)" fill="#C9E7EB"/>
<ellipse cx="140.98" cy="470.205" rx="13.0177" ry="8.51679" transform="rotate(-10 140.98 470.205)" fill="#C9E7EB"/>
<path d="M116.466 443.641C108.417 438.883 127.584 421.502 140.537 433.631C147.972 431.497 162.725 434.743 154.215 446.457C158.653 446.635 166.729 449.275 163.532 458.404C166.663 457.989 173.543 458.616 176.012 464.44M116.466 443.641C98.9356 445.085 92.568 461.445 98.7984 466.112C77.7739 477.726 94.8147 487.817 103.696 487.075M116.466 443.641L120.616 443.321M176.012 464.44C185.868 458.996 205.38 461.98 204.258 474.697M176.012 464.44C174.335 465.148 170.071 467.547 166.439 471.482C164.232 471.459 159.04 472.457 155.93 476.629C155.619 475.998 154.371 474.598 151.871 474.05C152.825 472.647 159.876 461.52 140.082 461.715M204.258 474.697C211.923 470.462 225.479 479.191 214.599 485.64C214.268 488.306 214.048 492.738 204.513 493.183M204.258 474.697L201.556 476.409M204.513 493.183C202.285 500.989 180.356 512.927 163.441 498.778C156.728 506.139 139.323 516.703 123.412 500.071C117.562 500.965 105.427 499.618 103.696 487.075M204.513 493.183L201.459 492.898M103.696 487.075L103.716 483.777" stroke="#5BC3CF" stroke-width="2" stroke-linecap="round"/>
<ellipse cx="305" cy="471.111" rx="16" ry="9.5" fill="#8AE1EB"/>
<ellipse cx="363.5" cy="460.111" rx="17.5" ry="10.5" fill="#8AE1EB"/>
<ellipse cx="346.5" cy="468.111" rx="17.5" ry="10.5" fill="#8AE1EB"/>
<circle cx="382.5" cy="452.111" r="10.5" fill="#8AE1EB"/>
<circle cx="396.5" cy="437.111" r="13.5" fill="#8AE1EB"/>
<circle cx="399" cy="402.611" r="15" fill="#8AE1EB"/>
<circle cx="406" cy="382.611" r="15" fill="#8AE1EB"/>
<circle cx="404.5" cy="362.111" r="10.5" fill="#8AE1EB"/>
<circle cx="407.5" cy="421.111" r="10.5" fill="#8AE1EB"/>
<ellipse cx="331.872" cy="460.428" rx="17.2243" ry="10.9931" transform="rotate(-10 331.872 460.428)" fill="#8AE1EB"/>
<ellipse cx="325" cy="484.111" rx="24" ry="18.5" fill="#C9E7EB"/>
<ellipse cx="360" cy="485.111" rx="24" ry="18.5" fill="#C9E7EB"/>
<circle cx="384.5" cy="479.111" r="20.5" fill="#C9E7EB"/>
<circle cx="407" cy="458.611" r="18" fill="#C9E7EB"/>
<circle cx="435.5" cy="423.111" r="15.5" fill="#C9E7EB"/>
<circle cx="417.5" cy="440.111" r="15.5" fill="#C9E7EB"/>
<circle cx="424.5" cy="412.111" r="15.5" fill="#C9E7EB"/>
<circle cx="440.5" cy="398.111" r="15.5" fill="#C9E7EB"/>
<circle cx="423.5" cy="365.111" r="11.5" fill="#C9E7EB"/>
<circle cx="431.5" cy="382.111" r="11.5" fill="#C9E7EB"/>
<circle cx="416" cy="385.611" r="16" fill="#C9E7EB"/>
<circle cx="418.5" cy="365.111" r="8.5" fill="#C9E7EB"/>
<path d="M397.501 417.611C396.701 419.611 397.167 422.444 397.501 423.611C384.301 422.411 380.501 435.611 384.001 442.111C375.601 440.511 372.501 447.111 372.001 450.611C359.601 447.011 350.834 452.111 348.001 455.111C339.601 441.911 312.501 450.611 315.001 463.611C300.601 455.211 273 472.111 301.501 480.611C299.5 505.611 334.501 506.611 342.001 497.111C356.001 509.111 371.167 502.778 377.001 498.111C399.401 505.311 407.001 486.611 405.001 476.611C423.5 476.611 425.501 461.611 424.501 454.111C431.701 450.511 433.167 442.278 433.001 438.611C451.501 439.111 455.501 421.111 447.001 412.111C463.001 404.111 453.001 383.111 443.001 382.611C444.201 373.411 437.167 370.778 433.501 370.611C440.701 352.611 420.501 348.611 414.001 358.111C409.501 343.111 385.001 354.111 397.501 370.111C389.101 375.711 390.667 385.111 392.501 389.111C374.901 400.711 387.001 417.111 397.501 417.611ZM397.501 417.611L398.5 415.611" stroke="#5BC3CF" stroke-width="2" stroke-linecap="round"/>
<path d="M403 395.111C403.833 396.944 407 400.811 413 401.611C409.167 405.611 404.2 415.811 415 424.611" stroke="#5BC3CF" stroke-width="2" stroke-linecap="round"/>
<path d="M321 465.111C324.333 464.611 336 465.111 340 469.111M375 460.611C377.833 459.278 384.6 457.111 389 459.111C388.833 456.278 389.5 449.811 393.5 446.611" stroke="#5BC3CF" stroke-width="2" stroke-linecap="round"/>
<ellipse cx="421.789" cy="293.088" rx="9.28859" ry="11.5" fill="#8AE1EB"/>
<ellipse cx="430.673" cy="288.088" rx="9.28859" ry="11.5" fill="#8AE1EB"/>
<ellipse cx="429.866" cy="300.088" rx="9.28859" ry="11.5" fill="#8AE1EB"/>
<ellipse cx="430.27" cy="267.588" rx="13.731" ry="17" fill="#8AE1EB"/>
<ellipse cx="440.77" cy="248.588" rx="9.69244" ry="12" fill="#8AE1EB"/>
<ellipse cx="439.962" cy="228.588" rx="9.69244" ry="12" fill="#8AE1EB"/>
<ellipse cx="426.232" cy="220.588" rx="9.69244" ry="12" fill="#8AE1EB"/>
<ellipse cx="432.692" cy="210.588" rx="9.69244" ry="12" fill="#8AE1EB"/>
<ellipse cx="421.385" cy="202.588" rx="9.69244" ry="12" fill="#8AE1EB"/>
<ellipse cx="423.404" cy="187.088" rx="12.5194" ry="15.5" fill="#8AE1EB"/>
<ellipse cx="16.0841" cy="10.3576" rx="16.0841" ry="10.3576" transform="matrix(0.755597 -0.655036 0.492283 0.870435 402 319.66)" fill="#8AE1EB"/>
<ellipse cx="15.7993" cy="11.5111" rx="15.7993" ry="11.5111" transform="matrix(0.755597 -0.655036 0.492283 0.870435 415.731 317.287)" fill="#C9E7EB"/>
<ellipse cx="454.904" cy="308.088" rx="14.1348" ry="17.5" fill="#C9E7EB"/>
<ellipse cx="441.578" cy="299.588" rx="7.26933" ry="9" fill="#C9E7EB"/>
<ellipse cx="448.04" cy="281.588" rx="13.731" ry="17" fill="#C9E7EB"/>
<ellipse cx="454.5" cy="233.588" rx="13.731" ry="17" fill="#C9E7EB"/>
<ellipse cx="464.194" cy="213.588" rx="11.3078" ry="14" fill="#C9E7EB"/>
<ellipse cx="444" cy="217.588" rx="11.3078" ry="14" fill="#C9E7EB"/>
<ellipse cx="445.616" cy="191.588" rx="17.7695" ry="22" fill="#C9E7EB"/>
<ellipse cx="455.308" cy="261.588" rx="13.731" ry="17" fill="#C9E7EB"/>
<ellipse cx="467.424" cy="281.588" rx="13.731" ry="17" fill="#C9E7EB"/>
<ellipse cx="475.097" cy="246.088" rx="18.981" ry="23.5" fill="#C9E7EB"/>
<path d="M444.404 320.588C466.374 335.788 471.866 311.588 467.02 299.088C486.082 292.288 481.963 276.588 477.52 269.588C507.567 257.588 492.059 217.088 473.078 222.588C481.801 206.588 468.232 196.588 461.77 200.088C468.232 165.688 439.154 163.088 432.693 176.588C418.558 161.588 404.827 181.088 412.904 196.088C408.381 207.688 414.519 212.922 418.154 214.088C412.339 230.888 425.02 235.588 430.27 231.588M444.404 320.588C441.174 326.088 432.289 335.488 422.596 329.088C402.808 341.088 398.123 317.088 421.385 305.088C412.5 303.088 404.988 287.588 421.789 281.588C415.327 274.088 410.077 255.788 431.077 250.588C430.539 248.422 430.512 243.088 434.712 239.088C433.635 238.588 431.239 236.388 430.27 231.588M444.404 320.588L446.02 316.588M430.27 231.588L429.866 229.588C429.058 225.422 428.896 215.488 434.712 209.088" stroke="#5BC3CF" stroke-width="2" stroke-linecap="round"/>
<path d="M440.77 231.088C440.501 235.755 441.416 245.688 447.232 248.088C445.885 249.255 443.031 252.288 442.385 255.088" stroke="#5BC3CF" stroke-width="2" stroke-linecap="round"/>
<path d="M434.713 303.088C433.77 300.922 432.936 295.788 437.136 292.588C435.52 290.922 432.855 285.188 435.117 275.588" stroke="#5BC3CF" stroke-width="2" stroke-linecap="round"/>
<circle cx="415.104" cy="113.302" r="11.5" fill="#8AE1EB"/>
<circle cx="411.104" cy="91.3017" r="11.5" fill="#8AE1EB"/>
<circle cx="397.104" cy="75.3017" r="11.5" fill="#8AE1EB"/>
<circle cx="410.104" cy="77.3017" r="11.5" fill="#8AE1EB"/>
<ellipse cx="383.604" cy="60.8017" rx="16" ry="15" fill="#8AE1EB"/>
<circle cx="420.104" cy="113.302" r="8.5" fill="#C9E7EB"/>
<circle cx="426.604" cy="106.802" r="5" fill="#C9E7EB"/>
<circle cx="427.104" cy="91.3017" r="15.5" fill="#C9E7EB"/>
<circle cx="426.104" cy="70.3017" r="15.5" fill="#C9E7EB"/>
<circle cx="411.104" cy="62.3017" r="12.5" fill="#C9E7EB"/>
<circle cx="399.604" cy="50.8017" r="13" fill="#C9E7EB"/>
<path d="M399.104 59.3017C398.189 65.2486 399.534 75.7155 411.104 74.0842M414.604 73.3017C413.345 73.6761 412.18 73.9325 411.104 74.0842M411.104 74.0842C411.104 76.1567 412.604 80.9017 418.604 83.3017" stroke="#5BC3CF" stroke-width="2" stroke-linecap="round"/>
<path d="M415.104 81.3017C413.271 82.635 410.004 86.8017 411.604 92.8017" stroke="#5BC3CF" stroke-width="2" stroke-linecap="round"/>
<path d="M387.604 46.3017C364.104 40.3017 357.204 75.0017 385.604 75.8017C385.771 80.635 389.004 89.5017 400.604 86.3017C398.437 90.635 397.304 100.002 410.104 102.802C394.104 111.302 407.604 134.102 423.604 121.302C425.937 119.135 430.204 114.202 428.604 111.802C429.771 111.468 432.004 109.902 431.604 106.302M387.604 46.3017C397.204 27.9017 414.604 40.8017 412.604 50.8017M387.604 46.3017L386.104 49.8017M431.604 106.302C438.604 103.135 450.104 93.3017 438.104 80.8017C443.104 72.135 446.904 54.9017 422.104 55.3017M431.604 106.302C431.437 106.468 430.504 106.802 428.104 106.802M422.104 55.3017C421.437 53.4683 418.604 50.0017 412.604 50.8017M422.104 55.3017V57.8017M412.604 50.8017L412.104 53.3017" stroke="#5BC3CF" stroke-width="2" stroke-linecap="round"/>
<circle cx="135.24" cy="184.219" r="7.5" fill="#8AE1EB"/>
<circle cx="132.24" cy="197.219" r="8.5" fill="#8AE1EB"/>
<circle cx="128.74" cy="213.719" r="12" fill="#8AE1EB"/>
<circle cx="131.74" cy="244.719" r="9" fill="#8AE1EB"/>
<circle cx="122.74" cy="231.719" r="9" fill="#8AE1EB"/>
<circle cx="133.74" cy="260.719" r="8" fill="#8AE1EB"/>
<circle cx="124.74" cy="183.719" r="9" fill="#C9E7EB"/>
<circle cx="114.74" cy="199.719" r="16" fill="#C9E7EB"/>
<circle cx="109.74" cy="221.719" r="12" fill="#C9E7EB"/>
<circle cx="131.24" cy="261.219" r="7.5" fill="#C9E7EB"/>
<circle cx="126.24" cy="256.219" r="7.5" fill="#C9E7EB"/>
<circle cx="122.24" cy="245.219" r="7.5" fill="#C9E7EB"/>
<ellipse cx="111.24" cy="238.219" rx="7.5" ry="13.5" fill="#C9E7EB"/>
<ellipse cx="117.24" cy="243.219" rx="7.5" ry="13.5" fill="#C9E7EB"/>
<path d="M118.74 256.719C119.54 263.119 122.74 264.053 124.24 263.719C125.44 267.319 130.407 268.553 132.74 268.719C143.74 269.719 142.24 255.219 135.74 252.719C145.74 246.719 137.74 234.719 130.74 235.719C133.14 231.719 130.74 227.386 129.24 225.719C145.24 223.719 143.24 208.219 136.74 204.719C144.74 199.119 141.073 193.386 138.24 191.219C149.84 180.819 137.24 172.219 131.24 177.719C123.24 168.919 114.24 177.719 115.74 183.719C97.7403 182.119 93.7402 202.719 103.74 211.219C91.74 219.219 98.2402 230.719 104.24 232.719C101.04 245.519 107.573 250.719 111.24 251.719C113.24 257.319 117.073 257.386 118.74 256.719ZM118.74 256.719C118.407 256.886 117.94 257.319 120.74 255.719" stroke="#5BC3CF" stroke-width="2" stroke-linecap="round"/>
<path d="M128.74 192.219C130.24 195.219 131.94 203.019 126.74 210.219" stroke="#5BC3CF" stroke-width="2" stroke-linecap="round"/>
<path d="M121.74 223.219C121.907 224.386 121.54 227.319 118.74 229.719C119.24 229.886 120.74 230.819 122.74 233.219" stroke="#5BC3CF" stroke-width="2" stroke-linecap="round"/>
<circle cx="200.863" cy="96.6751" r="6" fill="#8AE1EB"/>
<circle cx="214.363" cy="88.1751" r="10.5" fill="#8AE1EB"/>
<circle cx="227.863" cy="76.6751" r="8" fill="#8AE1EB"/>
<ellipse cx="245.863" cy="81.6751" rx="15" ry="9" fill="#8AE1EB"/>
<circle cx="266.863" cy="77.6751" r="10" fill="#8AE1EB"/>
<circle cx="205.363" cy="82.1751" r="10.5" fill="#C9E7EB"/>
<circle cx="209.863" cy="75.6751" r="7" fill="#C9E7EB"/>
<circle cx="214.863" cy="77.6751" r="7" fill="#C9E7EB"/>
<circle cx="221.863" cy="66.6751" r="10" fill="#C9E7EB"/>
<circle cx="235.863" cy="68.6751" r="10" fill="#C9E7EB"/>
<circle cx="250.863" cy="71.6751" r="7" fill="#C9E7EB"/>
<circle cx="261.863" cy="72.6751" r="7" fill="#C9E7EB"/>
<circle cx="267.863" cy="66.6751" r="3" fill="#C9E7EB"/>
<ellipse cx="255.363" cy="59.6751" rx="14.5" ry="10" fill="#C9E7EB"/>
<path d="M240.863 59.6751C234.863 56.4751 231.029 59.0084 229.863 60.6751C221.863 49.6751 207.863 63.6751 212.363 69.1751C208.763 67.9751 204.363 70.1751 203.863 71.6751C189.063 76.4751 193.863 88.1751 199.363 90.6751C186.963 100.275 204.863 110.175 206.863 95.6751C219.663 105.675 225.363 92.1751 223.863 83.6751C226.663 86.8751 230.03 85.3418 231.363 84.1751M240.863 59.6751C242.363 46.6751 272.463 42.8751 268.863 63.6751C269.696 64.1751 271.163 65.7751 270.363 68.1751M240.863 59.6751C241.53 60.0084 242.963 60.8751 243.363 61.6751M270.363 68.1751C282.363 71.6751 279.063 93.9751 259.863 85.1751C255.196 89.8418 242.963 96.1751 231.363 84.1751M270.363 68.1751C270.363 68.5084 269.763 69.5751 267.363 71.1751M231.363 84.1751C231.363 84.1751 232.063 83.3751 234.863 80.1751" stroke="#5BC3CF" stroke-width="2" stroke-linecap="round"/>
<circle cx="237.093" cy="422.069" r="8" fill="#8AE1EB"/>
<circle cx="272.093" cy="420.069" r="8" fill="#8AE1EB"/>
<circle cx="286.093" cy="416.069" r="8" fill="#8AE1EB"/>
<ellipse cx="256.593" cy="419.569" rx="14.5" ry="12.5" fill="#8AE1EB"/>
<circle cx="241.093" cy="427.069" r="7" fill="#C9E7EB"/>
<ellipse cx="260.093" cy="430.569" rx="14" ry="9.5" fill="#C9E7EB"/>
<circle cx="280.593" cy="426.569" r="8.5" fill="#C9E7EB"/>
<path d="M274.093 432.069C285.693 438.869 291.093 430.069 288.593 423.569C303.393 411.969 282.593 400.569 278.093 415.069C275.293 410.669 270.593 411.902 268.593 413.069C257.793 400.669 243.093 410.069 242.593 416.569C232.093 407.569 222.593 425.069 234.593 429.569C237.793 435.969 243.593 433.902 246.093 432.069C252.093 444.069 271.093 440.069 274.093 432.069ZM274.093 432.069C273.926 432.069 273.193 431.669 271.593 430.069" stroke="#5BC3CF" stroke-width="2" stroke-linecap="round"/>
<circle cx="322.429" cy="360.583" r="10" fill="#8AE1EB"/>
<circle cx="330.429" cy="344.583" r="10" fill="#8AE1EB"/>
<circle cx="343.429" cy="346.583" r="10" fill="#8AE1EB"/>
<circle cx="353.429" cy="335.583" r="10" fill="#8AE1EB"/>
<circle cx="352.429" cy="320.583" r="12" fill="#8AE1EB"/>
<circle cx="363.929" cy="304.083" r="10.5" fill="#8AE1EB"/>
<circle cx="325.929" cy="365.083" r="9.5" fill="#C9E7EB"/>
<ellipse cx="341.929" cy="359.083" rx="16.5" ry="12.5" fill="#C9E7EB"/>
<ellipse cx="358.929" cy="345.583" rx="13.5" ry="10" fill="#C9E7EB"/>
<ellipse cx="365.929" cy="336.583" rx="13.5" ry="6" fill="#C9E7EB"/>
<circle cx="373.929" cy="318.083" r="13.5" fill="#C9E7EB"/>
<circle cx="365.429" cy="329.583" r="5" fill="#C9E7EB"/>
<circle cx="357.929" cy="327.083" r="8.5" fill="#C9E7EB"/>
<path d="M337.929 338.083C339.929 336.483 342.429 336.417 343.429 336.583C342.629 332.583 344.095 330.583 344.929 330.083C331.429 320.083 346.429 304.583 354.429 308.583C349.629 287.383 375.929 289.583 374.429 304.583C397.629 308.983 386.929 329.083 373.429 331.583C384.629 335.983 377.095 340.417 371.929 342.083C376.729 352.083 363.929 357.083 357.929 356.083C359.929 372.883 339.929 375.083 333.929 370.083C325.529 379.283 317.929 373.583 316.929 369.083C305.929 362.083 315.929 349.583 321.929 350.583C315.529 334.583 332.929 329.583 337.929 338.083ZM337.929 338.083L335.429 340.083" stroke="#5BC3CF" stroke-width="2" stroke-linecap="round"/>
<circle cx="471" cy="432.239" r="6" fill="#8AE1EB"/>
<circle cx="477" cy="439.239" r="6" fill="#8AE1EB"/>
<circle cx="471.5" cy="446.739" r="9.5" fill="#8AE1EB"/>
<circle cx="471.5" cy="461.739" r="9.5" fill="#8AE1EB"/>
<circle cx="462.5" cy="474.739" r="9.5" fill="#8AE1EB"/>
<circle cx="451.5" cy="484.739" r="9.5" fill="#8AE1EB"/>
<ellipse cx="436" cy="488.239" rx="12" ry="7" fill="#8AE1EB"/>
<circle cx="476.5" cy="431.739" r="6.5" fill="#C9E7EB"/>
<circle cx="482" cy="446.239" r="11" fill="#C9E7EB"/>
<circle cx="483" cy="467.239" r="11" fill="#C9E7EB"/>
<circle cx="485.5" cy="455.739" r="5.5" fill="#C9E7EB"/>
<circle cx="471" cy="476.239" r="9" fill="#C9E7EB"/>
<ellipse cx="456" cy="488.239" rx="14" ry="9" fill="#C9E7EB"/>
<ellipse cx="437" cy="490.239" rx="10" ry="4" fill="#C9E7EB"/>
<path d="M490 458.739C492 456.739 491.166 454.239 490.5 453.239C496.5 442.239 487.666 436.239 482 435.239C486.8 428.439 478.5 421.739 472.5 426.739C462.5 427.239 465.5 435.239 467.5 437.739C461.5 439.239 462 451.239 465.5 454.239C461.1 457.839 461.666 463.072 462.5 465.239C454.899 466.439 453 472.739 453 475.739C447 474.539 443.5 479.905 442.5 482.739C421.5 474.739 414.5 500.239 444.5 493.239C462.1 502.439 472 492.239 469 484.739C477.4 486.339 479.833 480.739 480 477.739M490 458.739C498 466.239 492 481.239 480 477.739M490 458.739L487 460.739M480 477.739V474.739" stroke="#5BC3CF" stroke-width="2" stroke-linecap="round"/>
<circle cx="73.6898" cy="387.944" r="7" transform="rotate(-20 73.6898 387.944)" fill="#8AE1EB"/>
<circle cx="75.7021" cy="403.706" r="10.5" transform="rotate(-20 75.7021 403.706)" fill="#8AE1EB"/>
<circle cx="83.9505" cy="416.135" r="7" transform="rotate(-20 83.9505 416.135)" fill="#8AE1EB"/>
<circle cx="89.3357" cy="428.009" r="8" transform="rotate(-20 89.3357 428.009)" fill="#8AE1EB"/>
<circle cx="65.4055" cy="397.344" r="9" transform="rotate(-20 65.4055 397.344)" fill="#C9E7EB"/>
<circle cx="69.546" cy="386.792" r="4.5" transform="rotate(-20 69.546 386.792)" fill="#C9E7EB"/>
<circle cx="63.9577" cy="413.834" r="12" transform="rotate(-20 63.9577 413.834)" fill="#C9E7EB"/>
<circle cx="71.7774" cy="422.161" r="8.5" transform="rotate(-20 71.7774 422.161)" fill="#C9E7EB"/>
<circle cx="73.2247" cy="405.672" r="6.5" transform="rotate(-20 73.2247 405.672)" fill="#C9E7EB"/>
<circle cx="76.0479" cy="416.351" r="6.5" transform="rotate(-20 76.0479 416.351)" fill="#C9E7EB"/>
<circle cx="83.0577" cy="429.762" r="6.5" transform="rotate(-20 83.0577 429.762)" fill="#C9E7EB"/>
<circle cx="81.9018" cy="422.201" r="3" transform="rotate(-20 81.9018 422.201)" fill="#C9E7EB"/>
<path d="M58.4435 403.071C55.4948 399.355 52.7414 391.205 65.3167 388.331M58.4435 403.071C45.3222 409.123 55.9734 428.446 64.1318 426.008C67.3461 432.5 73.7591 431.018 76.5637 429.465C78.5827 438.52 83.8423 437.28 86.2198 435.528C97.8402 439.386 100.398 421.854 89.5899 419.935C92.9369 412.757 87.7358 409.968 84.717 409.47M58.4435 403.071L61.7325 401.873M65.3167 388.331C64.6897 386.608 64.6659 383.034 69.5869 382.52C73.2593 377.991 84.4776 379.867 78.2618 393.197C82.5198 394.662 89.772 399.968 84.717 409.47M65.3167 388.331L66.1719 390.68M84.717 409.47L82.7529 412.846" stroke="#5BC3CF" stroke-width="2" stroke-linecap="round"/>
<circle cx="34.0342" cy="417.802" r="10.5" transform="rotate(-20 34.0342 417.802)" fill="#8AE1EB"/>
<ellipse cx="43.5208" cy="429.248" rx="9.5" ry="8.5" transform="rotate(-20 43.5208 429.248)" fill="#8AE1EB"/>
<ellipse cx="41.7317" cy="444.798" rx="9.5" ry="8.5" transform="rotate(-20 41.7317 444.798)" fill="#8AE1EB"/>
<ellipse cx="49.5543" cy="464.83" rx="17" ry="15" transform="rotate(-20 49.5543 464.83)" fill="#8AE1EB"/>
<ellipse cx="63.956" cy="482.468" rx="14.5" ry="10.5" transform="rotate(-20 63.956 482.468)" fill="#8AE1EB"/>
<circle cx="29.5909" cy="417.291" r="6.5" transform="rotate(-20 29.5909 417.291)" fill="#C9E7EB"/>
<ellipse cx="33.7812" cy="431.728" rx="6.5" ry="10.5" transform="rotate(-20 33.7812 431.728)" fill="#C9E7EB"/>
<circle cx="22.6311" cy="428.87" r="11" transform="rotate(-20 22.6311 428.87)" fill="#C9E7EB"/>
<circle cx="27.5061" cy="445.186" r="11" transform="rotate(-20 27.5061 445.186)" fill="#C9E7EB"/>
<ellipse cx="55.4545" cy="483.966" rx="12" ry="11" transform="rotate(-20 55.4545 483.966)" fill="#C9E7EB"/>
<ellipse cx="34.3053" cy="468.252" rx="14.5" ry="18" transform="rotate(-20 34.3053 468.252)" fill="#C9E7EB"/>
<path d="M37.8429 441.424C38.7405 443.403 39.7672 448.173 36.6924 451.421C40.3378 451.69 47.9712 455.51 49.342 468.632" stroke="#5BC3CF" stroke-width="2" stroke-linecap="round"/>
<path d="M23.4397 417.934C7.13882 418.759 10.3307 436.007 18.3198 438.952C11.5899 447.361 18.7654 453.334 23.1944 455.269C11.3404 470.651 29.912 492.731 43.5792 483.5C44.3351 497.272 55.3305 496.781 61.0965 493.619C79.14 491.734 87.1902 470.287 63.3542 472.045C70.9115 459.185 60.5282 449.662 48.8235 449.665C53.1281 445.119 49.3331 439.37 46.8975 437.064C54.8932 433.303 55.8211 422.11 44.0732 420.533C45.9474 402.292 23.7351 405.588 23.4397 417.934ZM23.4397 417.934C23.9665 417.919 25.2765 418.01 26.3018 418.488" stroke="#5BC3CF" stroke-width="2" stroke-linecap="round"/>
<circle cx="32" cy="357.888" r="8" fill="#8AE1EB"/>
<circle cx="18.5" cy="333.388" r="5.5" fill="#8AE1EB"/>
<circle cx="22.5" cy="346.388" r="10.5" fill="#8AE1EB"/>
<circle cx="16" cy="333.888" r="5" fill="#C9E7EB"/>
<circle cx="12.5" cy="331.388" r="3.5" fill="#C9E7EB"/>
<circle cx="16" cy="350.888" r="13" fill="#C9E7EB"/>
<path d="M24.4994 360.388C7.69936 371.588 -7.00009 345.888 13.4994 338.388C6.5 333.888 9.5 323.888 15 328.388C21.5 323.888 26.5 331.388 23 335.888C33 336.688 33.4999 345.554 32.4999 349.888C47.2999 355.488 34 373.888 24.4994 360.388ZM24.4994 360.388C24.9996 360.554 26.4 360.788 28 360.388" stroke="#5BC3CF" stroke-width="2" stroke-linecap="round"/>
<circle cx="284.839" cy="34.6375" r="10" fill="#8AE1EB"/>
<circle cx="298.339" cy="32.1375" r="8.5" fill="#8AE1EB"/>
<circle cx="281.839" cy="20.6375" r="10" fill="#C9E7EB"/>
<circle cx="290.839" cy="25.6375" r="10" fill="#C9E7EB"/>
<circle cx="300.339" cy="20.1375" r="10.5" fill="#C9E7EB"/>
<path d="M306.339 28.6375C320.739 12.6375 297.339 1.13746 290.839 15.6375C274.039 1.23747 264.339 23.6375 276.339 29.1375C271.139 48.3375 290.839 48.1375 293.839 39.1375M306.339 28.6375C310.339 33.6375 305.839 43.1375 293.839 39.1375M306.339 28.6375C306.172 28.4708 305.439 27.8375 303.839 26.6375M293.839 39.1375L292.839 38.6375" stroke="#5BC3CF" stroke-width="2" stroke-linecap="round"/>
<circle cx="408.988" cy="14.1109" r="8.5" fill="#8AE1EB"/>
<circle cx="418.988" cy="24.1109" r="8.5" fill="#8AE1EB"/>
<circle cx="410.488" cy="12.6109" r="7" fill="#C9E7EB"/>
<circle cx="418.488" cy="12.6109" r="7" fill="#C9E7EB"/>
<circle cx="420.488" cy="21.6109" r="7" fill="#C9E7EB"/>
<path d="M424.489 16.1109C428.989 5.61087 417.489 3.11087 414.489 7.11088C413.655 5.44421 409.489 3.11087 402.489 7.61087C395.989 13.6109 403.489 25.6109 410.489 22.6109C411.689 40.2109 428.989 32.6109 427.489 23.1109C429.489 19.6109 425.655 16.6109 424.489 16.1109Z" stroke="#5BC3CF" stroke-width="2" stroke-linecap="round"/>
<circle cx="481.849" cy="348.798" r="8.5" transform="rotate(45 481.849 348.798)" fill="#8AE1EB"/>
<circle cx="481.849" cy="362.94" r="8.5" transform="rotate(45 481.849 362.94)" fill="#8AE1EB"/>
<circle cx="483.97" cy="348.798" r="7" transform="rotate(45 483.97 348.798)" fill="#C9E7EB"/>
<circle cx="489.627" cy="354.455" r="7" transform="rotate(45 489.627 354.455)" fill="#C9E7EB"/>
<circle cx="484.677" cy="362.233" r="7" transform="rotate(45 484.677 362.233)" fill="#C9E7EB"/>
<path d="M491.394 361.173C502.001 356.93 495.637 347.031 490.687 347.738C491.276 345.97 489.98 341.374 481.848 339.606C473.009 339.252 469.827 353.041 476.898 355.869C465.302 369.163 482.909 376.022 488.566 368.244C492.455 367.183 491.866 362.351 491.394 361.173Z" stroke="#5BC3CF" stroke-width="2" stroke-linecap="round"/>
<circle cx="438.5" cy="32.3167" r="5.5" fill="#8AE1EB"/>
<circle cx="440.5" cy="42.3167" r="5.5" fill="#8AE1EB"/>
<circle cx="442.5" cy="37.3167" r="5.5" fill="#8AE1EB"/>
<circle cx="447.5" cy="48.3167" r="5.5" fill="#8AE1EB"/>
<ellipse cx="456" cy="55.8167" rx="8" ry="10" fill="#8AE1EB"/>
<circle cx="440.5" cy="30.3167" r="4.5" fill="#C9E7EB"/>
<circle cx="444.5" cy="37.3167" r="4.5" fill="#C9E7EB"/>
<circle cx="447.5" cy="42.3167" r="4.5" fill="#C9E7EB"/>
<circle cx="454" cy="36.8167" r="11" fill="#C9E7EB"/>
<circle cx="453.5" cy="48.3167" r="4.5" fill="#C9E7EB"/>
<ellipse cx="460.5" cy="53.8167" rx="6.5" ry="9" fill="#C9E7EB"/>
<path d="M445 30.8167C452 17.8167 473.9 28.4167 461.5 44.8167M461.5 44.8167C465.833 46.9833 472 53.6167 462 62.8167C450.4 71.6167 447.5 60.3167 448 53.8167C441.6 55.0167 441.333 50.3167 442 47.8167C433.2 48.2167 435 41.3167 437 37.8167C430.2 30.6167 434.834 27.3167 438 26.8167C442.4 22.8167 445 27.3167 445 30.3167M461.5 44.8167L459 47.8167" stroke="#5BC3CF" stroke-width="2" stroke-linecap="round"/>
<circle cx="406.5" cy="141.5" r="5.5" fill="#C9E7EB"/>
<ellipse cx="399" cy="145.5" rx="8" ry="5.5" fill="#C9E7EB"/>
<circle cx="405" cy="154" r="10" fill="#C9E7EB"/>
<path d="M395 151C393.502 174.5 429 160 410.498 145.5C415.498 141.5 407 130 401 140.5C390.5 138 389.5 149 395 151ZM395 151L398 152" stroke="#5BC3CF" stroke-width="2" stroke-linecap="round"/>
<path d="M147.015 116.817C146.92 116.223 147.76 115.998 147.975 116.56L155.461 136.151C155.672 136.704 156.189 137.081 156.78 137.114L171.462 137.921C171.944 137.947 172.113 138.574 171.708 138.838L159.397 146.878C158.901 147.202 158.642 147.787 158.735 148.371L162.048 169.081C162.143 169.675 161.302 169.9 161.088 169.338L153.601 149.747C153.39 149.194 152.873 148.817 152.282 148.784L137.601 147.978C137.118 147.951 136.95 147.324 137.355 147.06L149.666 139.02C150.162 138.697 150.42 138.111 150.327 137.527L147.015 116.817Z" fill="#BDE3EF" stroke="#5BC3CF"/>
<path d="M190.904 194.512C190.952 194.006 191.637 193.885 191.854 194.345L198.144 207.632C198.363 208.094 198.802 208.413 199.309 208.479L213.337 210.281C213.823 210.344 213.938 210.997 213.503 211.222L200.937 217.714C200.483 217.949 200.18 218.398 200.132 218.907L198.766 233.544C198.719 234.051 198.034 234.172 197.816 233.712L191.526 220.425C191.307 219.963 190.869 219.644 190.362 219.579L176.333 217.776C175.847 217.713 175.732 217.06 176.167 216.835L188.734 210.343C189.188 210.109 189.49 209.658 189.538 209.149L190.904 194.512Z" fill="#BDE3EF" stroke="#5BC3CF"/>
<path d="M344.549 166.115C344.73 165.735 345.27 165.735 345.451 166.115L350.211 176.13C350.418 176.567 350.824 176.877 351.3 176.963L365.442 179.508C365.991 179.607 365.991 180.393 365.442 180.492L351.3 183.037C350.824 183.123 350.418 183.433 350.211 183.87L345.451 193.885C345.27 194.265 344.73 194.265 344.549 193.885L339.789 183.87C339.582 183.433 339.176 183.123 338.7 183.037L324.558 180.492C324.009 180.393 324.009 179.607 324.558 179.508L338.7 176.963C339.176 176.877 339.582 176.567 339.789 176.13L344.549 166.115Z" fill="#BDE3EF" stroke="#5BC3CF"/>
<path d="M341.018 397.121C341.325 396.928 341.729 397.116 341.779 397.476L342.703 404.156C342.763 404.592 343.012 404.978 343.383 405.215L350.439 409.716C350.931 410.03 350.576 410.79 350.019 410.615L342.036 408.104C341.617 407.972 341.16 408.029 340.788 408.263L335.076 411.849C334.769 412.042 334.365 411.853 334.315 411.494L333.391 404.814C333.33 404.378 333.081 403.992 332.711 403.755L325.655 399.254C325.163 398.94 325.517 398.18 326.074 398.355L334.058 400.866C334.477 400.998 334.933 400.94 335.306 400.707L341.018 397.121Z" fill="#BDE3EF" stroke="#5BC3CF"/>
<path d="M345.316 89.2278C345.27 88.625 346.135 88.4726 346.297 89.0548L351.857 109.039C351.998 109.546 352.396 109.943 352.904 110.083L365.509 113.555C365.916 113.667 366.01 114.2 365.666 114.444L355.008 122.019C354.579 122.324 354.341 122.832 354.382 123.358L355.992 144.037C356.039 144.64 355.173 144.793 355.011 144.21L349.452 124.227C349.31 123.719 348.913 123.323 348.405 123.183L335.799 119.711C335.393 119.599 335.299 119.065 335.642 118.821L346.3 111.247C346.73 110.942 346.968 110.433 346.927 109.908L345.316 89.2278Z" fill="#BDE3EF" stroke="#5BC3CF"/>
<path d="M119.539 292.528C119.38 291.938 120.217 291.633 120.475 292.187L129.744 312.134C129.949 312.574 130.353 312.888 130.83 312.977L143.487 315.324C143.861 315.394 144.024 315.84 143.782 316.134L135.595 326.067C135.286 326.442 135.178 326.943 135.304 327.412L141.025 348.649C141.184 349.239 140.347 349.544 140.089 348.989L130.821 329.043C130.616 328.603 130.212 328.289 129.734 328.2L117.078 325.853C116.703 325.784 116.541 325.338 116.783 325.044L124.97 315.11C125.278 314.735 125.386 314.235 125.26 313.766L119.539 292.528Z" fill="#BDE3EF" stroke="#5BC3CF"/>
<path d="M177.59 378.372C177.563 376.944 179.359 376.29 180.257 377.402L189.218 388.506C189.798 389.224 190.726 389.564 191.631 389.391L207.487 386.377C209.158 386.059 209.985 388.329 208.5 389.16L194.416 397.042C193.611 397.492 193.119 398.349 193.137 399.271L193.41 413.538C193.436 414.967 191.64 415.621 190.743 414.509L181.781 403.404C181.202 402.687 180.275 402.347 179.369 402.519L163.512 405.534C161.841 405.852 161.015 403.582 162.499 402.751L176.584 394.868C177.389 394.418 177.881 393.561 177.863 392.639L177.59 378.372Z" fill="#BDE3EF" stroke="#5BC3CF"/>
</g>
<defs>
<clipPath id="clip0_34_30">
<rect width="512" height="512" fill="white"/>
</clipPath>
</defs>
</svg>
