<svg width="512" height="512" viewBox="0 0 512 512" fill="none" xmlns="http://www.w3.org/2000/svg">
<g clip-path="url(#clip0_32_1218)">
<g opacity="0.49">
<path d="M234.857 359.825C220.357 410.825 194.357 513.825 198.357 517.825" stroke="#7ACEE7" stroke-width="4" stroke-linecap="round"/>
<path d="M310.356 356.325C309.856 406.491 311.356 510.325 314.356 514.825" stroke="#7ACEE7" stroke-width="4" stroke-linecap="round"/>
<path d="M310.356 356.325L434.356 458.825C438.523 461.158 447.756 462.625 451.356 449.825C455.523 399.658 463.956 299.425 464.356 299.825C464.856 300.325 480.856 284.825 474.356 272.325C482.523 265.658 492.956 249.625 469.356 238.825C463.523 237.158 447.756 235.925 431.356 244.325C430.19 245.325 427.456 247.425 425.856 247.825C423.856 248.325 418.856 243.825 422.356 218.325C422.356 213.658 420.556 204.725 413.356 206.325C404.356 208.325 398.856 227.825 415.856 264.325C411.523 267.825 406.956 278.625 423.356 293.825C425.523 337.658 428.956 425.325 427.356 425.325C425.356 425.325 385.856 397.825 377.356 388.825C368.856 379.825 317.356 336.825 314.356 333.825" stroke="#7ACEE7" stroke-width="4" stroke-linecap="round"/>
<path d="M233.856 363.825C206.69 381.658 149.656 420.125 138.856 431.325M138.856 431.325C160.356 448.158 203.456 481.625 203.856 480.825M138.856 431.325L126.356 419.825" stroke="#7ACEE7" stroke-width="4" stroke-linecap="round"/>
<path d="M226.857 341.325C191.523 366.491 120.157 416.725 117.357 416.325C113.857 415.825 99.3567 427.325 119.357 444.325C139.357 461.325 182.857 511.825 185.357 512.325C187.357 512.725 271.857 512.491 313.857 512.325" stroke="#7ACEE7" stroke-width="4" stroke-linecap="round"/>
<path d="M238.856 347.825C233.656 345.425 228.69 342.491 226.856 341.325C210.856 332.991 175.456 307.225 161.856 270.825C144.856 225.325 169.356 178.325 181.856 166.825C194.389 155.295 211.356 140.825 239.356 137.825C271.422 134.389 282.315 134.824 309.356 147.825C335.356 160.325 349.356 191.825 353.856 210.325C358.356 228.825 359.856 239.325 355.356 262.825C350.856 286.325 317.856 330.825 314.356 333.325C314.19 333.491 313.156 334.125 310.356 335.325" stroke="#7ACEE7" stroke-width="4" stroke-linecap="round"/>
</g>
<circle cx="89" cy="189" r="9" fill="#8AE1EB"/>
<circle cx="105" cy="184" r="9" fill="#8AE1EB"/>
<circle cx="116" cy="194" r="9" fill="#8AE1EB"/>
<circle cx="118" cy="175" r="16" fill="#8AE1EB"/>
<circle cx="104" cy="164" r="16" fill="#8AE1EB"/>
<circle cx="122" cy="160" r="8" fill="#8AE1EB"/>
<circle cx="120.5" cy="145.5" r="13.5" fill="#8AE1EB"/>
<circle cx="130.5" cy="127.5" r="16.5" fill="#8AE1EB"/>
<circle cx="148.5" cy="104.5" r="16.5" fill="#8AE1EB"/>
<circle cx="173" cy="92" r="19" fill="#8AE1EB"/>
<circle cx="187" cy="72" r="19" fill="#8AE1EB"/>
<circle cx="211" cy="52" r="19" fill="#8AE1EB"/>
<circle cx="233" cy="49" r="10" fill="#8AE1EB"/>
<circle cx="251" cy="49" r="10" fill="#8AE1EB"/>
<circle cx="247" cy="38" r="10" fill="#8AE1EB"/>
<ellipse cx="87.5349" cy="174.655" rx="14.5349" ry="14.6552" fill="#C9E7EB"/>
<ellipse cx="94.5349" cy="149.655" rx="14.5349" ry="14.6552" fill="#C9E7EB"/>
<ellipse cx="106.535" cy="169.655" rx="14.5349" ry="14.6552" fill="#C9E7EB"/>
<ellipse cx="109.535" cy="141.655" rx="14.5349" ry="14.6552" fill="#C9E7EB"/>
<circle cx="94" cy="129" r="8" fill="#C9E7EB"/>
<circle cx="101" cy="108" r="17" fill="#C9E7EB"/>
<circle cx="112" cy="120" r="17" fill="#C9E7EB"/>
<circle cx="123" cy="97" r="19" fill="#C9E7EB"/>
<circle cx="152" cy="84" r="19" fill="#C9E7EB"/>
<circle cx="176" cy="61" r="19" fill="#C9E7EB"/>
<circle cx="179" cy="44" r="11" fill="#C9E7EB"/>
<circle cx="199" cy="39" r="11" fill="#C9E7EB"/>
<circle cx="219" cy="37" r="11" fill="#C9E7EB"/>
<circle cx="198" cy="52" r="11" fill="#C9E7EB"/>
<circle cx="215" cy="48" r="11" fill="#C9E7EB"/>
<circle cx="238" cy="35" r="11" fill="#C9E7EB"/>
<circle cx="230" cy="44" r="7" fill="#C9E7EB"/>
<circle cx="148.5" cy="51.5" r="24.5" fill="#C9E7EB"/>
<circle cx="132" cy="76" r="9" fill="#C9E7EB"/>
<path d="M84.4999 160.5C72.5 159.5 67.1999 180.3 79.9999 187.5C77 199 96 204.7 98 189.5M84.4999 160.5C75.6998 148.9 84.4999 137 89.5 136C82.3 129.2 87.1667 123.5 90.5 121.5C74.1 106.7 92 85 105 91.5M84.4999 160.5C92.0998 146.1 107 157.5 99.5 164.5C102.247 169.445 102.915 173.204 102.363 176M98 189.5C101.5 192.5 105.5 194 107 193C107.5 208 127.2 207.2 124 190C132.5 189 138.7 172.7 129.5 163.5C130.5 161.333 132 158.5 129 156C131.667 153.5 136.4 147.5 134 143.5M98 189.5C98 187.833 97 184.2 93 183C96.8024 182.789 101.408 180.837 102.363 176M134 143.5C140.5 142.5 152.4 133 146 121C151 123.5 164.5 117.8 164.5 109C173 115.5 194 107.7 192 90.5C198 90.5 208.4 80.9 206 70.5C212 73 225.4 71.7 229 58.5C232.167 60.1667 239.2 61.5 242 53.5C249.5 66.5 269 55.3 257 40.5C257.833 36.3333 256.9 28 246.5 28C243 23 233.5 19 228 30.5C223.5 24 211.3 22.6 208.5 33C204.5 28.3333 194.8 22.7 188 37.5C185.167 33.5 177.5 28.1 169.5 38.5C151 10.5 109.2 34.3 130 67.5M134 143.5C133 142 133 141 131 139M130 67.5C127 68.1667 121.4 71.2 123 78C118 77.5 107.4 79.5 105 91.5M130 67.5C130.333 67.3333 131.9 67 135.5 67M105 91.5C105.5 91.6667 106.8 92.5 108 94.5M102.363 176C102.742 177.333 104.5 179.6 108.5 178" stroke="#5BC3CF" stroke-width="2" stroke-linecap="round"/>
<path d="M151 103C158.333 103.5 172.6 99.6 171 80C174.833 80.6667 183.6 80.8 188 76" stroke="#5BC3CF" stroke-width="2" stroke-linecap="round"/>
<circle cx="108.5" cy="238.5" r="17.5" fill="#8AE1EB"/>
<circle cx="119.5" cy="261.5" r="15.5" fill="#8AE1EB"/>
<circle cx="109.5" cy="284.5" r="15.5" fill="#8AE1EB"/>
<circle cx="115.5" cy="307.5" r="15.5" fill="#8AE1EB"/>
<circle cx="112.5" cy="330.5" r="17.5" fill="#8AE1EB"/>
<ellipse cx="89.5349" cy="241.655" rx="14.5349" ry="14.6552" fill="#C9E7EB"/>
<ellipse cx="101.535" cy="262.655" rx="14.5349" ry="14.6552" fill="#C9E7EB"/>
<ellipse cx="96.5349" cy="291.655" rx="14.5349" ry="14.6552" fill="#C9E7EB"/>
<circle cx="75" cy="278" r="25" fill="#C9E7EB"/>
<circle cx="90.5" cy="315.5" r="18.5" fill="#C9E7EB"/>
<circle cx="78.5" cy="300.5" r="7.5" fill="#C9E7EB"/>
<circle cx="91.5" cy="257.5" r="7.5" fill="#C9E7EB"/>
<path d="M105.5 304C107.5 306.167 110.9 312.6 108.5 321M115.5 268C114.667 271 110.5 277.1 100.5 277.5C103.333 279 109.2 282.7 110 285.5" stroke="#5BC3CF" stroke-width="2" stroke-linecap="round"/>
<path d="M94.5001 227.5C72.5001 223.5 70 247 81.0001 253.5C41.0001 253.5 39.5 295.5 71.4999 303M94.5001 227.5C104 212.5 133.3 221.3 124.5 246.5C134.5 248.5 144.2 268.6 123 277C125.333 279.667 128.5 286.7 122.5 293.5M94.5001 227.5L98 229M122.5 293.5C128.333 296.333 137.2 305.4 126 319C140.5 341 109.8 362.8 95 334C86.4999 337 65.0001 326 74 307M122.5 293.5L120.5 295.5M74 307C73.3333 306.667 71.8999 305.4 71.4999 303M74 307L76 307.5M71.4999 303V301" stroke="#5BC3CF" stroke-width="2" stroke-linecap="round"/>
<circle cx="155.5" cy="408.5" r="11.5" fill="#8AE1EB"/>
<circle cx="166.5" cy="415.5" r="11.5" fill="#8AE1EB"/>
<circle cx="171.5" cy="433.5" r="11.5" fill="#8AE1EB"/>
<circle cx="179.5" cy="450.5" r="11.5" fill="#8AE1EB"/>
<circle cx="196.5" cy="464.5" r="16.5" fill="#8AE1EB"/>
<circle cx="215.5" cy="475.5" r="8.5" fill="#8AE1EB"/>
<circle cx="144.5" cy="429.5" r="18.5" fill="#C9E7EB"/>
<circle cx="130.5" cy="447.5" r="13.5" fill="#C9E7EB"/>
<circle cx="145.5" cy="462.5" r="18.5" fill="#C9E7EB"/>
<circle cx="160.5" cy="477.5" r="18.5" fill="#C9E7EB"/>
<circle cx="193.5" cy="481.5" r="18.5" fill="#C9E7EB"/>
<circle cx="212" cy="482" r="8" fill="#C9E7EB"/>
<circle cx="179.5" cy="464.5" r="8.5" fill="#C9E7EB"/>
<circle cx="165" cy="462" r="8" fill="#C9E7EB"/>
<ellipse cx="161" cy="448.5" rx="11" ry="10.5" fill="#C9E7EB"/>
<path d="M144.5 411C138.5 403.5 157 386.5 166 404C172.5 403 184.3 410.1 175.5 422.5C179.167 423.667 185.5 428.6 181.5 439C184.167 439.167 189.8 441.4 191 449M144.5 411C129.699 409 122 427.5 126.5 434.5C107.3 444.1 120 460 127.5 461M144.5 411L148 411.5M191 449C200 444.5 215.8 452.3 213 467.5M191 449C189.5 449.5 185.6 451.5 182 455.5C180.167 455 175.7 455.1 172.5 459.5C172.333 458.667 171.5 456.7 169.5 455.5C170.5 454 178 442 161.5 438M213 467.5C220 464 230 477.5 220 483C219.333 486.167 218.5 491.5 210.5 490M213 467.5L210.5 469M210.5 490C207.5 499 187.5 508.8 175.5 488C168.833 495.5 152.8 504.6 142 481C137 480.833 127.1 476.6 127.5 461M210.5 490L208 489M127.5 461L128 457" stroke="#5BC3CF" stroke-width="2" stroke-linecap="round"/>
<ellipse cx="262" cy="470.5" rx="16" ry="9.5" fill="#8AE1EB"/>
<ellipse cx="320.5" cy="459.5" rx="17.5" ry="10.5" fill="#8AE1EB"/>
<ellipse cx="303.5" cy="467.5" rx="17.5" ry="10.5" fill="#8AE1EB"/>
<circle cx="339.5" cy="451.5" r="10.5" fill="#8AE1EB"/>
<circle cx="353.5" cy="436.5" r="13.5" fill="#8AE1EB"/>
<circle cx="356" cy="402" r="15" fill="#8AE1EB"/>
<circle cx="363" cy="382" r="15" fill="#8AE1EB"/>
<circle cx="361.5" cy="361.5" r="10.5" fill="#8AE1EB"/>
<circle cx="364.5" cy="420.5" r="10.5" fill="#8AE1EB"/>
<ellipse cx="288.872" cy="459.817" rx="17.2243" ry="10.9931" transform="rotate(-10 288.872 459.817)" fill="#8AE1EB"/>
<ellipse cx="282" cy="483.5" rx="24" ry="18.5" fill="#C9E7EB"/>
<ellipse cx="317" cy="484.5" rx="24" ry="18.5" fill="#C9E7EB"/>
<circle cx="341.5" cy="478.5" r="20.5" fill="#C9E7EB"/>
<circle cx="364" cy="458" r="18" fill="#C9E7EB"/>
<circle cx="392.5" cy="422.5" r="15.5" fill="#C9E7EB"/>
<circle cx="374.5" cy="439.5" r="15.5" fill="#C9E7EB"/>
<circle cx="381.5" cy="411.5" r="15.5" fill="#C9E7EB"/>
<circle cx="397.5" cy="397.5" r="15.5" fill="#C9E7EB"/>
<circle cx="380.5" cy="364.5" r="11.5" fill="#C9E7EB"/>
<circle cx="388.5" cy="381.5" r="11.5" fill="#C9E7EB"/>
<circle cx="373" cy="385" r="16" fill="#C9E7EB"/>
<circle cx="375.5" cy="364.5" r="8.5" fill="#C9E7EB"/>
<path d="M354.5 417C353.7 419 354.167 421.833 354.5 423C341.3 421.8 337.5 435 341 441.5C332.6 439.9 329.5 446.5 329 450C316.6 446.4 307.833 451.5 305 454.5C296.6 441.3 269.5 450 272 463C257.6 454.6 230 471.5 258.5 480C256.5 505 291.5 506 299 496.5C313 508.5 328.167 502.167 334 497.5C356.4 504.7 364 486 362 476C380.5 476 382.5 461 381.5 453.5C388.7 449.9 390.167 441.667 390 438C408.5 438.5 412.5 420.5 404 411.5C420 403.5 410 382.5 400 382C401.2 372.8 394.167 370.167 390.5 370C397.7 352 377.5 348 371 357.5C366.5 342.5 342 353.5 354.5 369.5C346.1 375.1 347.667 384.5 349.5 388.5C331.9 400.1 344 416.5 354.5 417ZM354.5 417L355.5 415" stroke="#5BC3CF" stroke-width="2" stroke-linecap="round"/>
<path d="M360 394.5C360.833 396.333 364 400.2 370 401C366.167 405 361.2 415.2 372 424" stroke="#5BC3CF" stroke-width="2" stroke-linecap="round"/>
<path d="M278 464.5C281.333 464 293 464.5 297 468.5M332 460C334.833 458.667 341.6 456.5 346 458.5C345.833 455.667 346.5 449.2 350.5 446" stroke="#5BC3CF" stroke-width="2" stroke-linecap="round"/>
<circle cx="368.5" cy="294.5" r="11.5" fill="#8AE1EB"/>
<circle cx="379.5" cy="289.5" r="11.5" fill="#8AE1EB"/>
<circle cx="378.5" cy="301.5" r="11.5" fill="#8AE1EB"/>
<circle cx="379" cy="269" r="17" fill="#8AE1EB"/>
<circle cx="392" cy="250" r="12" fill="#8AE1EB"/>
<circle cx="391" cy="230" r="12" fill="#8AE1EB"/>
<circle cx="374" cy="222" r="12" fill="#8AE1EB"/>
<circle cx="382" cy="212" r="12" fill="#8AE1EB"/>
<circle cx="368" cy="204" r="12" fill="#8AE1EB"/>
<circle cx="370.5" cy="188.5" r="15.5" fill="#8AE1EB"/>
<ellipse cx="365.359" cy="319.551" rx="18.3684" ry="11.006" transform="rotate(-35 365.359 319.551)" fill="#8AE1EB"/>
<ellipse cx="382.796" cy="318.369" rx="18.0431" ry="12.2317" transform="rotate(-35 382.796 318.369)" fill="#C9E7EB"/>
<circle cx="409.5" cy="309.5" r="17.5" fill="#C9E7EB"/>
<circle cx="393" cy="301" r="9" fill="#C9E7EB"/>
<circle cx="401" cy="283" r="17" fill="#C9E7EB"/>
<circle cx="409" cy="235" r="17" fill="#C9E7EB"/>
<circle cx="421" cy="215" r="14" fill="#C9E7EB"/>
<circle cx="396" cy="219" r="14" fill="#C9E7EB"/>
<circle cx="398" cy="193" r="22" fill="#C9E7EB"/>
<circle cx="410" cy="263" r="17" fill="#C9E7EB"/>
<circle cx="425" cy="283" r="17" fill="#C9E7EB"/>
<circle cx="434.5" cy="247.5" r="23.5" fill="#C9E7EB"/>
<path d="M396.5 322C423.7 337.2 430.5 313 424.5 300.5C448.1 293.7 443 278 437.5 271C474.7 259 455.5 218.5 432 224C442.8 208 426 198 418 201.5C426 167.1 390 164.5 382 178C364.5 163 347.5 182.5 357.5 197.5C351.9 209.1 359.5 214.333 364 215.5C356.8 232.3 372.5 237 379 233M396.5 322C392.5 327.5 381.5 336.9 369.5 330.5C345 342.5 339.2 318.5 368 306.5C357 304.5 347.7 289 368.5 283C360.5 275.5 354 257.2 380 252C379.333 249.833 379.3 244.5 384.5 240.5C383.167 240 380.2 237.8 379 233M396.5 322L398.5 318M379 233L378.5 231C377.5 226.833 377.3 216.9 384.5 210.5" stroke="#5BC3CF" stroke-width="2" stroke-linecap="round"/>
<path d="M392 232.5C391.667 237.167 392.8 247.1 400 249.5C398.333 250.667 394.8 253.7 394 256.5" stroke="#5BC3CF" stroke-width="2" stroke-linecap="round"/>
<path d="M384.5 304.5C383.333 302.333 382.3 297.2 387.5 294C385.5 292.333 382.2 286.6 385 277" stroke="#5BC3CF" stroke-width="2" stroke-linecap="round"/>
<circle cx="356.5" cy="137.5" r="11.5" fill="#8AE1EB"/>
<circle cx="352.5" cy="115.5" r="11.5" fill="#8AE1EB"/>
<circle cx="338.5" cy="99.5" r="11.5" fill="#8AE1EB"/>
<circle cx="351.5" cy="101.5" r="11.5" fill="#8AE1EB"/>
<ellipse cx="325" cy="85" rx="16" ry="15" fill="#8AE1EB"/>
<circle cx="361.5" cy="137.5" r="8.5" fill="#C9E7EB"/>
<circle cx="368" cy="131" r="5" fill="#C9E7EB"/>
<circle cx="368.5" cy="115.5" r="15.5" fill="#C9E7EB"/>
<circle cx="367.5" cy="94.5" r="15.5" fill="#C9E7EB"/>
<circle cx="352.5" cy="86.5" r="12.5" fill="#C9E7EB"/>
<circle cx="341" cy="75" r="13" fill="#C9E7EB"/>
<path d="M340.5 83.5C339.585 89.4469 340.93 99.9138 352.5 98.2825M356 97.5C354.741 97.8744 353.576 98.1308 352.5 98.2825M352.5 98.2825C352.5 100.355 354 105.1 360 107.5" stroke="#5BC3CF" stroke-width="2" stroke-linecap="round"/>
<path d="M356.5 105.5C354.667 106.833 351.4 111 353 117" stroke="#5BC3CF" stroke-width="2" stroke-linecap="round"/>
<path d="M329 70.5C305.5 64.5 298.6 99.2 327 100C327.167 104.833 330.4 113.7 342 110.5C339.833 114.833 338.7 124.2 351.5 127C335.5 135.5 349 158.3 365 145.5C367.333 143.333 371.6 138.4 370 136C371.167 135.667 373.4 134.1 373 130.5M329 70.5C338.6 52.1 356 65 354 75M329 70.5L327.5 74M373 130.5C380 127.333 391.5 117.5 379.5 105C384.5 96.3333 388.3 79.1 363.5 79.5M373 130.5C372.833 130.667 371.9 131 369.5 131M363.5 79.5C362.833 77.6667 360 74.2 354 75M363.5 79.5V82M354 75L353.5 77.5" stroke="#5BC3CF" stroke-width="2" stroke-linecap="round"/>
<circle cx="177.5" cy="213.5" r="7.5" fill="#8AE1EB"/>
<circle cx="174.5" cy="226.5" r="8.5" fill="#8AE1EB"/>
<circle cx="171" cy="243" r="12" fill="#8AE1EB"/>
<circle cx="174" cy="274" r="9" fill="#8AE1EB"/>
<circle cx="165" cy="261" r="9" fill="#8AE1EB"/>
<circle cx="176" cy="290" r="8" fill="#8AE1EB"/>
<circle cx="167" cy="213" r="9" fill="#C9E7EB"/>
<circle cx="157" cy="229" r="16" fill="#C9E7EB"/>
<circle cx="152" cy="251" r="12" fill="#C9E7EB"/>
<circle cx="173.5" cy="290.5" r="7.5" fill="#C9E7EB"/>
<circle cx="168.5" cy="285.5" r="7.5" fill="#C9E7EB"/>
<circle cx="164.5" cy="274.5" r="7.5" fill="#C9E7EB"/>
<ellipse cx="153.5" cy="267.5" rx="7.5" ry="13.5" fill="#C9E7EB"/>
<ellipse cx="159.5" cy="272.5" rx="7.5" ry="13.5" fill="#C9E7EB"/>
<path d="M161 286C161.8 292.4 165 293.333 166.5 293C167.7 296.6 172.666 297.833 175 298C186 299 184.5 284.5 178 282C188 276 180 264 173 265C175.4 261 173 256.667 171.5 255C187.5 253 185.5 237.5 179 234C187 228.4 183.333 222.667 180.5 220.5C192.1 210.1 179.5 201.5 173.5 207C165.5 198.2 156.5 207 158 213C140 211.4 136 232 146 240.5C134 248.5 140.5 260 146.5 262C143.3 274.8 149.833 280 153.5 281C155.5 286.6 159.333 286.667 161 286ZM161 286C160.667 286.167 160.2 286.6 163 285" stroke="#5BC3CF" stroke-width="2" stroke-linecap="round"/>
<path d="M171 221.5C172.5 224.5 174.2 232.3 169 239.5" stroke="#5BC3CF" stroke-width="2" stroke-linecap="round"/>
<path d="M164 252.5C164.167 253.667 163.8 256.6 161 259C161.5 259.167 163 260.1 165 262.5" stroke="#5BC3CF" stroke-width="2" stroke-linecap="round"/>
<circle cx="208" cy="126" r="6" fill="#8AE1EB"/>
<circle cx="221.5" cy="117.5" r="10.5" fill="#8AE1EB"/>
<circle cx="235" cy="106" r="8" fill="#8AE1EB"/>
<ellipse cx="253" cy="111" rx="15" ry="9" fill="#8AE1EB"/>
<circle cx="274" cy="107" r="10" fill="#8AE1EB"/>
<circle cx="212.5" cy="111.5" r="10.5" fill="#C9E7EB"/>
<circle cx="217" cy="105" r="7" fill="#C9E7EB"/>
<circle cx="222" cy="107" r="7" fill="#C9E7EB"/>
<circle cx="229" cy="96" r="10" fill="#C9E7EB"/>
<circle cx="243" cy="98" r="10" fill="#C9E7EB"/>
<circle cx="258" cy="101" r="7" fill="#C9E7EB"/>
<circle cx="269" cy="102" r="7" fill="#C9E7EB"/>
<circle cx="275" cy="96" r="3" fill="#C9E7EB"/>
<ellipse cx="262.5" cy="89" rx="14.5" ry="10" fill="#C9E7EB"/>
<path d="M248 89C242 85.8 238.167 88.3333 237 90C229 79 215 93 219.5 98.5C215.9 97.3 211.5 99.5 211 101C196.2 105.8 201 117.5 206.5 120C194.1 129.6 212 139.5 214 125C226.8 135 232.5 121.5 231 113C233.8 116.2 237.167 114.667 238.5 113.5M248 89C249.5 76 279.6 72.2 276 93C276.833 93.5 278.3 95.1 277.5 97.5M248 89C248.667 89.3333 250.1 90.2 250.5 91M277.5 97.5C289.5 101 286.2 123.3 267 114.5C262.333 119.167 250.1 125.5 238.5 113.5M277.5 97.5C277.5 97.8333 276.9 98.9 274.5 100.5M238.5 113.5C238.5 113.5 239.2 112.7 242 109.5" stroke="#5BC3CF" stroke-width="2" stroke-linecap="round"/>
<circle cx="227" cy="385" r="8" fill="#8AE1EB"/>
<circle cx="262" cy="383" r="8" fill="#8AE1EB"/>
<circle cx="276" cy="379" r="8" fill="#8AE1EB"/>
<ellipse cx="246.5" cy="382.5" rx="14.5" ry="12.5" fill="#8AE1EB"/>
<circle cx="231" cy="390" r="7" fill="#C9E7EB"/>
<ellipse cx="250" cy="393.5" rx="14" ry="9.5" fill="#C9E7EB"/>
<circle cx="270.5" cy="389.5" r="8.5" fill="#C9E7EB"/>
<path d="M264 395C275.6 401.8 281 393 278.5 386.5C293.3 374.9 272.5 363.5 268 378C265.2 373.6 260.5 374.833 258.5 376C247.7 363.6 233 373 232.5 379.5C222 370.5 212.5 388 224.5 392.5C227.7 398.9 233.5 396.833 236 395C242 407 261 403 264 395ZM264 395C263.833 395 263.1 394.6 261.5 393" stroke="#5BC3CF" stroke-width="2" stroke-linecap="round"/>
<circle cx="281" cy="352" r="10" fill="#8AE1EB"/>
<circle cx="289" cy="336" r="10" fill="#8AE1EB"/>
<circle cx="302" cy="338" r="10" fill="#8AE1EB"/>
<circle cx="312" cy="327" r="10" fill="#8AE1EB"/>
<circle cx="311" cy="312" r="12" fill="#8AE1EB"/>
<circle cx="322.5" cy="295.5" r="10.5" fill="#8AE1EB"/>
<circle cx="284.5" cy="356.5" r="9.5" fill="#C9E7EB"/>
<ellipse cx="300.5" cy="350.5" rx="16.5" ry="12.5" fill="#C9E7EB"/>
<ellipse cx="317.5" cy="337" rx="13.5" ry="10" fill="#C9E7EB"/>
<ellipse cx="324.5" cy="328" rx="13.5" ry="6" fill="#C9E7EB"/>
<circle cx="332.5" cy="309.5" r="13.5" fill="#C9E7EB"/>
<circle cx="324" cy="321" r="5" fill="#C9E7EB"/>
<circle cx="316.5" cy="318.5" r="8.5" fill="#C9E7EB"/>
<path d="M296.5 329.5C298.5 327.9 301 327.833 302 328C301.2 324 302.667 322 303.5 321.5C290 311.5 305 296 313 300C308.2 278.8 334.5 281 333 296C356.2 300.4 345.5 320.5 332 323C343.2 327.4 335.667 331.833 330.5 333.5C335.3 343.5 322.5 348.5 316.5 347.5C318.5 364.3 298.5 366.5 292.5 361.5C284.1 370.7 276.5 365 275.5 360.5C264.5 353.5 274.5 341 280.5 342C274.1 326 291.5 321 296.5 329.5ZM296.5 329.5L294 331.5" stroke="#5BC3CF" stroke-width="2" stroke-linecap="round"/>
<circle cx="432" cy="410" r="6" fill="#8AE1EB"/>
<circle cx="438" cy="417" r="6" fill="#8AE1EB"/>
<circle cx="432.5" cy="424.5" r="9.5" fill="#8AE1EB"/>
<circle cx="432.5" cy="439.5" r="9.5" fill="#8AE1EB"/>
<circle cx="423.5" cy="452.5" r="9.5" fill="#8AE1EB"/>
<circle cx="412.5" cy="462.5" r="9.5" fill="#8AE1EB"/>
<ellipse cx="397" cy="466" rx="12" ry="7" fill="#8AE1EB"/>
<circle cx="437.5" cy="409.5" r="6.5" fill="#C9E7EB"/>
<circle cx="443" cy="424" r="11" fill="#C9E7EB"/>
<circle cx="444" cy="445" r="11" fill="#C9E7EB"/>
<circle cx="446.5" cy="433.5" r="5.5" fill="#C9E7EB"/>
<circle cx="432" cy="454" r="9" fill="#C9E7EB"/>
<ellipse cx="417" cy="466" rx="14" ry="9" fill="#C9E7EB"/>
<ellipse cx="398" cy="468" rx="10" ry="4" fill="#C9E7EB"/>
<path d="M451 436.5C453 434.5 452.166 432 451.5 431C457.5 420 448.666 414 443 413C447.8 406.2 439.5 399.5 433.5 404.5C423.5 405 426.5 413 428.5 415.5C422.5 417 423 429 426.5 432C422.1 435.6 422.666 440.833 423.5 443C415.899 444.2 414 450.5 414 453.5C408 452.3 404.5 457.667 403.5 460.5C382.5 452.5 375.5 478 405.5 471C423.1 480.2 433 470 430 462.5C438.4 464.1 440.833 458.5 441 455.5M451 436.5C459 444 453 459 441 455.5M451 436.5L448 438.5M441 455.5V452.5" stroke="#5BC3CF" stroke-width="2" stroke-linecap="round"/>
<circle cx="114" cy="381" r="7" fill="#8AE1EB"/>
<circle cx="110.5" cy="396.5" r="10.5" fill="#8AE1EB"/>
<circle cx="114" cy="411" r="7" fill="#8AE1EB"/>
<circle cx="115" cy="424" r="8" fill="#8AE1EB"/>
<circle cx="103" cy="387" r="9" fill="#C9E7EB"/>
<circle cx="110.5" cy="378.5" r="4.5" fill="#C9E7EB"/>
<circle cx="96" cy="402" r="12" fill="#C9E7EB"/>
<circle cx="100.5" cy="412.5" r="8.5" fill="#C9E7EB"/>
<circle cx="107.5" cy="397.5" r="6.5" fill="#C9E7EB"/>
<circle cx="106.5" cy="408.5" r="6.5" fill="#C9E7EB"/>
<circle cx="108.5" cy="423.5" r="6.5" fill="#C9E7EB"/>
<circle cx="110" cy="416" r="3" fill="#C9E7EB"/>
<path d="M94.4999 390C92.9999 385.5 93.1999 376.9 106 378.5M94.4999 390C80.0998 391.2 83.5 413 92 413.5C92.8 420.7 99.3333 421.5 102.5 421C101.3 430.2 106.667 430.833 109.5 430C119.1 437.6 127.5 422 118 416.5C123.6 410.9 119.667 406.5 117 405M94.4999 390L98 390M106 378.5C106 376.667 107.2 373.3 112 374.5C117 371.5 126.9 377.1 116.5 387.5C120 390.333 125 397.8 117 405M106 378.5L106 381M117 405L114 407.5" stroke="#5BC3CF" stroke-width="2" stroke-linecap="round"/>
<circle cx="64.5" cy="395.5" r="10.5" fill="#8AE1EB"/>
<ellipse cx="69.5" cy="409.5" rx="9.5" ry="8.5" fill="#8AE1EB"/>
<ellipse cx="62.5" cy="423.5" rx="9.5" ry="8.5" fill="#8AE1EB"/>
<ellipse cx="63" cy="445" rx="17" ry="15" fill="#8AE1EB"/>
<ellipse cx="70.5" cy="466.5" rx="14.5" ry="10.5" fill="#8AE1EB"/>
<circle cx="60.5" cy="393.5" r="6.5" fill="#C9E7EB"/>
<ellipse cx="59.5" cy="408.5" rx="6.5" ry="10.5" fill="#C9E7EB"/>
<circle cx="50" cy="402" r="11" fill="#C9E7EB"/>
<circle cx="49" cy="419" r="11" fill="#C9E7EB"/>
<ellipse cx="62" cy="465" rx="12" ry="11" fill="#C9E7EB"/>
<ellipse cx="47.5" cy="443" rx="14.5" ry="18" fill="#C9E7EB"/>
<path d="M60 419C60.1667 421.167 59.5 426 55.5 428C58.8333 429.5 64.7 435.7 61.5 448.5" stroke="#5BC3CF" stroke-width="2" stroke-linecap="round"/>
<path d="M54.5002 392C38.9002 387.2 36.0002 404.5 42.5001 410C33.3001 415.6 38.0001 423.667 41.5001 427C25.1001 437.4 35 464.5 51.0002 460.5C47.0002 473.7 57.5002 477 64.0002 476C81.6002 480.4 96.5002 463 73.5002 456.5C85.0002 447 78.5002 434.5 67.5002 430.5C73.1002 427.7 71.5002 421 70.0002 418C78.8002 417.2 83.5002 407 73.0002 401.5C81.0002 385 59.0002 380.5 54.5002 392ZM54.5002 392C55.0001 392.167 56.2 392.7 57 393.5" stroke="#5BC3CF" stroke-width="2" stroke-linecap="round"/>
<circle cx="71" cy="341" r="8" fill="#8AE1EB"/>
<circle cx="57.5" cy="316.5" r="5.5" fill="#8AE1EB"/>
<circle cx="61.5" cy="329.5" r="10.5" fill="#8AE1EB"/>
<circle cx="55" cy="317" r="5" fill="#C9E7EB"/>
<circle cx="51.5" cy="314.5" r="3.5" fill="#C9E7EB"/>
<circle cx="55" cy="334" r="13" fill="#C9E7EB"/>
<path d="M63.4994 343.5C46.6994 354.7 31.9999 329 52.4994 321.5C45.5 317 48.5 307 54 311.5C60.5 307 65.5 314.5 62 319C72 319.8 72.4999 328.667 71.4999 333C86.2999 338.6 73 357 63.4994 343.5ZM63.4994 343.5C63.9996 343.667 65.4 343.9 67 343.5" stroke="#5BC3CF" stroke-width="2" stroke-linecap="round"/>
<circle cx="278" cy="52" r="10" fill="#8AE1EB"/>
<circle cx="291.5" cy="49.5" r="8.5" fill="#8AE1EB"/>
<circle cx="275" cy="38" r="10" fill="#C9E7EB"/>
<circle cx="284" cy="43" r="10" fill="#C9E7EB"/>
<circle cx="293.5" cy="37.5" r="10.5" fill="#C9E7EB"/>
<path d="M299.5 46C313.9 30 290.5 18.5 284 33C267.2 18.6 257.5 41 269.5 46.5C264.3 65.7 284 65.5 287 56.5M299.5 46C303.5 51 299 60.5 287 56.5M299.5 46C299.333 45.8333 298.6 45.2 297 44M287 56.5L286 56" stroke="#5BC3CF" stroke-width="2" stroke-linecap="round"/>
<circle cx="359.5" cy="44.5" r="8.5" fill="#8AE1EB"/>
<circle cx="369.5" cy="54.5" r="8.5" fill="#8AE1EB"/>
<circle cx="361" cy="43" r="7" fill="#C9E7EB"/>
<circle cx="369" cy="43" r="7" fill="#C9E7EB"/>
<circle cx="371" cy="52" r="7" fill="#C9E7EB"/>
<path d="M375 46.5C379.5 36 368 33.5 365 37.5C364.167 35.8333 360 33.5 353 38C346.5 44 354 56 361 53C362.2 70.6 379.5 63 378 53.5C380 50 376.167 47 375 46.5Z" stroke="#5BC3CF" stroke-width="2" stroke-linecap="round"/>
<circle cx="442.848" cy="317.798" r="8.5" transform="rotate(45 442.848 317.798)" fill="#8AE1EB"/>
<circle cx="442.848" cy="331.94" r="8.5" transform="rotate(45 442.848 331.94)" fill="#8AE1EB"/>
<circle cx="444.97" cy="317.798" r="7" transform="rotate(45 444.97 317.798)" fill="#C9E7EB"/>
<circle cx="450.626" cy="323.455" r="7" transform="rotate(45 450.626 323.455)" fill="#C9E7EB"/>
<circle cx="445.677" cy="331.233" r="7" transform="rotate(45 445.677 331.233)" fill="#C9E7EB"/>
<path d="M452.394 330.173C463.001 325.93 456.637 316.031 451.687 316.738C452.276 314.97 450.98 310.374 442.848 308.606C434.009 308.252 430.827 322.041 437.898 324.869C426.302 338.163 443.909 345.022 449.566 337.244C453.455 336.183 452.866 331.351 452.394 330.173Z" stroke="#5BC3CF" stroke-width="2" stroke-linecap="round"/>
<circle cx="383.5" cy="45.5" r="5.5" fill="#8AE1EB"/>
<circle cx="385.5" cy="55.5" r="5.5" fill="#8AE1EB"/>
<circle cx="387.5" cy="50.5" r="5.5" fill="#8AE1EB"/>
<circle cx="392.5" cy="61.5" r="5.5" fill="#8AE1EB"/>
<ellipse cx="401" cy="69" rx="8" ry="10" fill="#8AE1EB"/>
<circle cx="385.5" cy="43.5" r="4.5" fill="#C9E7EB"/>
<circle cx="389.5" cy="50.5" r="4.5" fill="#C9E7EB"/>
<circle cx="392.5" cy="55.5" r="4.5" fill="#C9E7EB"/>
<circle cx="399" cy="50" r="11" fill="#C9E7EB"/>
<circle cx="398.5" cy="61.5" r="4.5" fill="#C9E7EB"/>
<ellipse cx="405.5" cy="67" rx="6.5" ry="9" fill="#C9E7EB"/>
<path d="M390 44C397 31 418.9 41.6 406.5 58M406.5 58C410.833 60.1667 417 66.8 407 76C395.4 84.8 392.5 73.5 393 67C386.6 68.2 386.333 63.5 387 61C378.2 61.4 380 54.5 382 51C375.2 43.8 379.834 40.5 383 40C387.4 36 390 40.5 390 43.5M406.5 58L404 61" stroke="#5BC3CF" stroke-width="2" stroke-linecap="round"/>
<circle cx="383.5" cy="142.5" r="5.5" fill="#C9E7EB"/>
<ellipse cx="376" cy="146.5" rx="8" ry="5.5" fill="#C9E7EB"/>
<circle cx="382" cy="155" r="10" fill="#C9E7EB"/>
<path d="M372 152C370.502 175.5 406 161 387.498 146.5C392.498 142.5 384 131 378 141.5C367.5 139 366.5 150 372 152ZM372 152L375 153" stroke="#5BC3CF" stroke-width="2" stroke-linecap="round"/>
<path d="M155.198 159.694C155.095 159.094 155.95 158.865 156.161 159.436L161.247 173.25C161.447 173.791 161.939 174.171 162.513 174.225L172.993 175.216C173.455 175.26 173.614 175.854 173.236 176.122L164.656 182.22C164.185 182.555 163.949 183.129 164.047 183.698L166.549 198.205C166.652 198.804 165.797 199.033 165.587 198.463L160.501 184.648C160.301 184.107 159.809 183.727 159.235 183.673L148.755 182.682C148.294 182.638 148.135 182.045 148.512 181.776L157.092 175.678C157.563 175.343 157.799 174.769 157.701 174.2L155.198 159.694Z" fill="#BDE3EF" stroke="#5BC3CF"/>
<path d="M201.102 241.937C201.212 241.526 201.751 241.431 201.994 241.779L207.072 249.039C207.351 249.437 207.805 249.675 208.291 249.679L219.242 249.756C219.797 249.76 219.933 250.532 219.413 250.725L209.148 254.543C208.693 254.713 208.348 255.092 208.222 255.561L205.934 264.12C205.824 264.53 205.285 264.625 205.041 264.277L199.963 257.018C199.685 256.62 199.23 256.381 198.745 256.378L187.793 256.301C187.238 256.297 187.102 255.525 187.622 255.331L197.887 251.513C198.342 251.344 198.687 250.965 198.813 250.495L201.102 241.937Z" fill="#BDE3EF" stroke="#5BC3CF"/>
<path d="M315.58 186.57C315.777 186.266 316.223 186.266 316.42 186.57L320.081 192.234C320.32 192.603 320.709 192.849 321.145 192.906L329.441 194.004C330.02 194.081 330.02 194.919 329.441 194.996L321.145 196.094C320.709 196.151 320.32 196.397 320.081 196.766L316.42 202.43C316.223 202.734 315.777 202.734 315.58 202.43L311.919 196.766C311.68 196.397 311.291 196.151 310.855 196.094L302.559 194.996C301.98 194.919 301.98 194.081 302.559 194.004L310.855 192.906C311.291 192.849 311.68 192.603 311.919 192.234L315.58 186.57Z" fill="#BDE3EF" stroke="#5BC3CF"/>
<path d="M309.018 384.121C309.325 383.928 309.729 384.116 309.779 384.476L310.704 391.156C310.764 391.592 311.013 391.978 311.383 392.215L318.439 396.716C318.931 397.03 318.577 397.79 318.02 397.615L310.036 395.104C309.617 394.972 309.161 395.029 308.789 395.263L303.077 398.849C302.769 399.042 302.365 398.853 302.316 398.494L301.391 391.814C301.331 391.378 301.082 390.992 300.711 390.755L293.656 386.254C293.164 385.94 293.518 385.18 294.075 385.355L302.058 387.866C302.478 387.998 302.934 387.94 303.306 387.707L309.018 384.121Z" fill="#BDE3EF" stroke="#5BC3CF"/>
<path d="M337.058 160.538C337.169 160.986 337.481 161.358 337.904 161.547L345.628 164.987C345.952 165.131 346.027 165.557 345.772 165.804L339.69 171.677C339.357 171.999 339.192 172.456 339.241 172.916L341.3 192.22L336.633 173.376C336.521 172.927 336.21 172.554 335.787 172.366L328.063 168.926C327.739 168.782 327.664 168.356 327.919 168.11L334.001 162.235C334.333 161.914 334.499 161.457 334.45 160.997L332.391 141.693L337.058 160.538Z" fill="#BDE3EF" stroke="#5BC3CF"/>
<path d="M149.168 315.867C148.998 315.27 149.852 314.96 150.106 315.526L155.239 327.002C155.422 327.412 155.78 327.718 156.213 327.837L164.521 330.107C164.853 330.198 164.996 330.59 164.8 330.874L159.895 337.954C159.64 338.323 159.562 338.787 159.685 339.219L163.13 351.31C163.3 351.907 162.446 352.217 162.192 351.652L157.059 340.175C156.876 339.765 156.518 339.459 156.085 339.341L147.777 337.07C147.444 336.979 147.301 336.586 147.498 336.303L152.403 329.223C152.658 328.854 152.735 328.39 152.612 327.958L149.168 315.867Z" fill="#BDE3EF" stroke="#5BC3CF"/>
<path d="M175.528 357.235C175.547 355.855 177.263 355.23 178.164 356.276L185.215 364.453C185.807 365.14 186.725 365.452 187.613 365.269L198.775 362.968C200.467 362.619 201.311 364.937 199.791 365.758L189.761 371.17C188.963 371.6 188.46 372.43 188.448 373.336L188.304 384.133C188.285 385.513 186.569 386.138 185.667 385.092L178.617 376.915C178.025 376.228 177.107 375.916 176.219 376.099L165.057 378.4C163.365 378.748 162.521 376.43 164.042 375.61L174.071 370.198C174.869 369.767 175.371 368.938 175.384 368.032L175.528 357.235Z" fill="#BDE3EF" stroke="#5BC3CF"/>
</g>
<defs>
<clipPath id="clip0_32_1218">
<rect width="512" height="512" fill="white"/>
</clipPath>
</defs>
</svg>
